<svg id="Layer_1" data-name="Layer 1" xmlns="http://www.w3.org/2000/svg" viewBox="0 0 39 32"><defs><style>.cls-1{fill:#fff;}</style></defs><path class="cls-1" d="M26.68,12.56a3,3,0,0,0-1-.36A2.51,2.51,0,0,0,26.68,12.56Z"/><path class="cls-1" d="M25.68,12.2h0Z"/><path class="cls-1" d="M24.51,15.52l.33.24Z"/><path class="cls-1" d="M7.42,15.72l.06.2c-.77.53-.36,0-1,.51-.09.43-1.17.84-1.29,1.18,0,0-.33.25-.37.17,0,.2-.31.32-.48.53s.08,0,.17,0c-.14.14-.29.31-.44.49s-.34.16-.14-.08a8,8,0,0,0-.82.9A6.83,6.83,0,0,0,2,21.49a5.15,5.15,0,0,0,.92,5.18,6.66,6.66,0,0,0,2.4,1.72c.54.23.77.3,1.09.41s.6.17.87.23l.74.15.56.1.82.12c-.18-.15-.68-.15-.83-.37.43,0,.6.14.8.07.12.29.91.21,1.19.52l.14-.13.2.12a9.85,9.85,0,0,1,2.1.2c1,.07,1.46-.13,2,0-.09,0-.3-.11,0-.14,0,.14.68-.07.8.06s1.07,0,.79-.18c.14.09.88.12.44.21a2.82,2.82,0,0,0,.67,0l-.32,0a5.71,5.71,0,0,0,1.84-.18l-.32,0a2,2,0,0,1,1.14,0l-.51.12a8.55,8.55,0,0,0,2-.43l-.24,0c.42-.17,1.76-.53,3-1A16.2,16.2,0,0,0,27,27h-.38l.57-.35c-.07,0-.13.55-.21.53.63-.24,2.4-1,4.23-1.77a11.5,11.5,0,0,0,3-1.81,5.82,5.82,0,0,0,1.17-1.41,5.43,5.43,0,0,0,.57-1.34c.07-.32.1-.49.13-.64.13-.86.24-.14.26-.12a1.76,1.76,0,0,0-.09-.77,2.8,2.8,0,0,1-.12-.62c0-.26.12,0,.16.17-.07-.4-.15-.79-.22-.8.09.51-.13.34-.2.57a5.78,5.78,0,0,0-.32-1h.12a15,15,0,0,1-1-1.2,7,7,0,0,0-1.59-1.63,10.92,10.92,0,0,0-1.82-1.09c.05-.05.31,0,.57.12a2.9,2.9,0,0,1-.52-.29c.22.23-.51-.16-.32,0-.94-.13-1.8-.74-2.45-.85a16.39,16.39,0,0,1-1.7,1.61c-.86.73-1.88,1.31-2,1.43a4.48,4.48,0,0,1-.56-.47,2.32,2.32,0,0,0,.79.66l.13-.1c.64.33.1.17.69.5,0,.13-.59-.14-1.09-.47.43.32.83.64,1.07.62.38.25-.12.11.34.41a5.65,5.65,0,0,1,1.17.44v0c.79.49,1.32.35,1.86.75h-.08c.18.17.6.27.77.48-.06-.07-.07-.18.09-.1.23.26.45.36.53.58l.23.07a2.4,2.4,0,0,1,.26.39.77.77,0,0,1,.06.21l0,.07a1.38,1.38,0,0,1-.27.3,6.57,6.57,0,0,1-1.57.91c-1.48.67-2.9,1.28-3.55,1.53l.07-.05a31.09,31.09,0,0,1-5.56,1.75,29.19,29.19,0,0,1-5.75.43,13.18,13.18,0,0,0-1.57-.27c.26.08.16.16-.05.13-1.48-.19-.11.08-1.62-.07-.44,0-1.19-.13-2.1-.29a9.18,9.18,0,0,1-1.22-.28l-.4-.14-.17-.11a.52.52,0,0,1-.22-.63.59.59,0,0,1,.16-.23.46.46,0,0,1,.07-.07l0,0,.08-.08a2.11,2.11,0,0,1,.3-.43l.47-.44c.32-.3.67-.56.94-.84l0,.08a15.45,15.45,0,0,1,2.67-1.72,32.15,32.15,0,0,1,3-1.31l-.13,0c.75-.4.72-.14,1.36-.28-.14-.19.53-.47.8-.55v.05a12.38,12.38,0,0,1,2-.6v.11a8.36,8.36,0,0,1,2.06-.25c1,0,2.4.26,3.66.33.25.13.5.31.74.46h.12a14.07,14.07,0,0,0,.89-1.87c.37-1,.57-2.14-.36-2.74l.05-.11-.4-.06c-.47-.14-.71,0-.66-.14.21,0,.44.06.65.11-.47-.11-.13-.12.07-.14-.2-.06-.4-.09-.56-.15s.07.06.14.09a3.13,3.13,0,0,1-1,0c-.5-.07,0-.2-.59-.26a22.86,22.86,0,0,0-9.19.7c-.08,0,0-.05.08-.1-.9.3-1.7.57-2.49.92a1,1,0,0,1-.41,0c.09,0-1,.48-2.1,1.07-.55.27-1.07.62-1.48.85S7.44,15.72,7.42,15.72Z"/><path class="cls-1" d="M16.75,13.8c0-.14-.12-.22-.22-.3A.35.35,0,0,0,16.75,13.8Z"/><polygon class="cls-1" points="16.53 13.49 16.53 13.49 16.53 13.5 16.53 13.49"/><path class="cls-1" d="M19.39,16.22l.08-.1A.39.39,0,0,0,19.39,16.22Z"/><path class="cls-1" d="M12.84,8.88l-.19.06c-.11-.26.18-.17,0-.39-.16,0-.19-.1-.2-.2s.06,0,0,0l.11,0c-.15,0,0,0-.08,0h-.09l-.06,0h.16a.12.12,0,0,1,.12,0s0,0,0,0a.88.88,0,0,0-.1-.21c0-.09,0,0,0-.07.11.25,0,.06.2.31V8.08l.1.08c.64-.28.14-.11.73-.17.33-.06.46-.29.64-.22,0,0-.1-.09,0-.14,0,.13.21-.11.26,0,.08,0,.33,0,.25-.2,0,.09.26.14.13.21.07,0,.14,0,.2,0L15,7.61c.25,0,.38.14.54,0l-.08-.08c.14,0,.26,0,.28.19l-.14,0a1.23,1.23,0,0,0,.54,0l-.06,0a1.84,1.84,0,0,1,.85,0,3.3,3.3,0,0,0,.75.12l0-.16h.2s-.36.3-.34.26a1.16,1.16,0,0,1,.49.66A1.64,1.64,0,0,1,18,9.68c-.12.1-.23,0-.25,0,0,.16.12.11.07.23s-.1,0-.11-.07-.07.09,0,.12.22,0,.34.05l-.09.18-.09-.06s.23.24.07.41-.43.69-.72,1c-.05,0,0-.14,0-.24,0,.05-.08.13-.14.14.15,0-.05.19,0,.16,0,.42-.46.6-.53.95.18.17,2.64,3.33,2.85,3.53a.85.85,0,0,1-.18.15c.06,0,.22-.1.27-.21l-.1-.12c.13-.23.11,0,.27-.17.1.07,0,.26-.16.42.13-.13.32-.2.27-.35.16-.09.1.12.29,0s.11-.38.29-.47v0c.4-.26.3-.65.67-.92v.06c.15-.08.26-.38.49-.58-.07,0-.19.06-.1-.1.26-.23.32-.48.54-.66l0-.28a7.6,7.6,0,0,0,1-4.07A6.29,6.29,0,0,0,22.14,6,6,6,0,0,0,20.9,4.49l.06,0a8.18,8.18,0,0,0-3.8-1.86,9.51,9.51,0,0,0-3.7,0,2.53,2.53,0,0,0-.91,0c.16,0,.12.12,0,.13-.8.12,0,.09-.83.29-.58.22-2.56.39-3.65,1.5a3.44,3.44,0,0,0-1,2,3.14,3.14,0,0,0,0,.91c0,.27,0,.49,0,.66a5,5,0,0,1,.35,1.1,3.59,3.59,0,0,0,.36,1l-.06,0c.12.22.4,1,.78,1.78a8.44,8.44,0,0,0,1,1.7l0-.08c.38.34.19.4.39.76.12-.17.48.09.61.2l0,0c.18.17.69.45,1,.71l-.09.06a7.35,7.35,0,0,1,.94.74A5,5,0,0,0,14,17.35l.24.51h.08a14.42,14.42,0,0,0,1.2-1.62,4.9,4.9,0,0,0,1-2.46l.07-.09-.12-.06c-.12-.13-.25-.07-.18-.15l.18.13c-.12-.11,0-.1.1-.13a.29.29,0,0,1-.13-.14s0,.05,0,.08-.25,0-.31-.09.09-.16-.06-.27a17,17,0,0,1-2-2.14s0,0,.07,0c-.22-.2-.36-.42-.55-.61a.27.27,0,0,1,.07-.18s-.25-.25-.43-.57a3.86,3.86,0,0,1-.23-.45A1,1,0,0,1,12.84,8.88Z"/><path class="cls-1" d="M9.06,18.23a.19.19,0,0,0-.16.14C9,18.34,9.07,18.29,9.06,18.23Z"/><polygon class="cls-1" points="8.9 18.37 8.9 18.38 8.9 18.37 8.9 18.37"/><path class="cls-1" d="M14.83,25.77v0S14.81,25.76,14.83,25.77Z"/><path class="cls-1" d="M8.57,20.61h.2c0,.1-.22,0-.17.13.28,0,0,.15.13.18,0,0,0,0-.12,0,.16,0,0,.05.08.08s.05,0,.09,0l.06.07c-.05,0-.14,0-.15,0a3.28,3.28,0,0,0,0,1.17c.11,0,0-.08.21-.12s0,.07.08.09c-.27,0-.06.11-.33.16h.16l-.1,0c.18.19.08,0,.06.23s.25.14.18.2a.13.13,0,0,1,.13,0c-.13,0,.11.06,0,.09,0,0,0,.11.19.07-.09,0-.12.1-.2.06s0,.06,0,.07l.05,0c0,.09-.1.15.07.19l.07,0s0,.09-.15.13L9,23.34a.22.22,0,0,0,.13.2v0c.19.07.38.55.62.61l.14-.05.12.06s-.46,0-.41,0a5,5,0,0,1,.15,1.14c-.07.07-.23,0-.25,0s.16,0,.15.07-.11,0-.13,0,0,.05,0,.05a1.59,1.59,0,0,1,.33-.08v.08H9.77s.3,0,.25.1A3,3,0,0,0,10,26a.26.26,0,0,1-.15,0s0,0,0,.07c.11-.05.08,0,.13,0,.28.06.05.23.25.3s4.16-.49,4.45-.55a.05.05,0,0,1,0,.05c.07,0,.09-.06.05-.08l-.15,0c-.06,0,.09,0,.07-.08s.16,0,.18,0,.09-.08-.05-.07c.05,0,.16,0,.2-.07s-.17,0-.1-.08h0c.12-.11-.2-.11-.09-.21h0c.07,0,0-.08,0-.14s-.11,0-.13,0,0-.1.08-.16l-.13,0c0-.21-.28-1.06-.32-1.28h0a6.42,6.42,0,0,0-.35-1.37c.12-.07.09-.14.11-.2s-.13,0-.13,0c0-.18-.08,0-.15-.18a2,2,0,0,1,0-1.16c-.18-.09-.06-.22-.17-.3h0c-.08-.09.07-.67,0-.77h0c-.11-.09.09-.08.15-.16a.42.42,0,0,1-.34-.1h0c0-.05-.21-.15-.24-.23h.11c-.12-.06-.07-.19-.08-.23s.24-.26.1-.35l.32-.05h0l-2-.2a10.68,10.68,0,0,0-2.62-.09H9.06v.06c-.06.07.07.11,0,.09l0-.09c0,.07-.09,0-.15,0s0,.06-.07.08.05,0,.08,0,.13.09.08.14-.18,0-.19.08a3.44,3.44,0,0,0-.19,1.1s0,0-.06,0,0,.19.09.29a.55.55,0,0,1-.17.05C8.56,20.07,8.6,20.6,8.57,20.61Z"/><path class="cls-1" d="M30.06,15c.12,0,.14,0,.17-.05C30.11,14.91,30.05,14.93,30.06,15Z"/><polygon class="cls-1" points="30.23 14.93 30.23 14.92 30.23 14.93 30.23 14.93"/><path class="cls-1" d="M31,3l0,.06Z"/><path class="cls-1" d="M31.42,13l-.17-.09c.05-.11.22.07.22,0-.23-.17.11-.16,0-.26s.05,0,.13,0c-.13-.08,0-.07,0-.11s-.05,0-.09,0l0-.09c.06,0,.15,0,.14.06a5.62,5.62,0,0,0,.78-1.2c-.11,0-.08.07-.25,0s.07-.06,0-.13c.25.11.12-.09.38,0l-.12-.09.1,0c0-.31,0-.09.1-.28s-.11-.28,0-.31-.11,0-.12-.06,0-.13.09-.08.07-.12-.11-.18c.09,0,.17,0,.21.05s.06,0,0-.08h-.07c0-.11.19-.09.08-.24h-.08c0-.06,0-.12.21-.05V10a.3.3,0,0,0,0-.29l0,0c-.1-.19.1-.79,0-1l-.15,0-.05-.14a3.51,3.51,0,0,1,.32.26,5.05,5.05,0,0,1,.75-1.18c.1,0,.19.11.21.13s-.1-.12,0-.17.09.06.1.08.06,0,0-.06-.19-.12-.3-.17l.07-.07.09.07s-.22-.22-.11-.26.19-.25.3-.34a.29.29,0,0,1,.08.14s0,0,.06,0c-.11-.05,0-.1-.08-.11-.14-.25.14-.21,0-.37s-.84-.81-1.56-1.58S31.12,3.27,31,3.17a.22.22,0,0,1,.1-.07c-.05,0-.15,0-.16.08l.11.12c-.05.13-.09,0-.17.06-.1-.09,0-.19,0-.27s-.21.06-.13.18c-.1,0-.11-.11-.22-.07s0,.24-.11.25l0,0c-.21.06,0,.34-.22.38l0,0c-.09,0-.09.15-.21.18,0,0,.12,0,.1.08s-.11.15-.23.15l.05.14a16.64,16.64,0,0,0-1,1.82v0A10.65,10.65,0,0,0,28,8c-.15,0-.18.13-.25.18s.13,0,.11.07c-.14.22.07.06,0,.31A5,5,0,0,1,27,10.05c.09.21-.11.31-.07.49l0,0c0,.16-.53.87-.54,1.07l0,0c0,.19-.13.09-.24.18a.32.32,0,0,1,.23.29l0,0a2.79,2.79,0,0,1,.07.46l-.1-.05c.06.15-.06.31-.08.4s-.4.35-.34.69l-.36.09,0,0s.89.33,1.91.63a17.35,17.35,0,0,0,2.55.6l.11,0v0c.07,0,0-.08.06,0l0,.05s.09,0,.14,0a.12.12,0,0,1,.07,0s0,0-.07,0-.12-.1-.06-.11.16.06.19,0a3.46,3.46,0,0,0,.58-.91s0,0,.06,0,.06-.21.06-.33a.47.47,0,0,1,.17,0C31.13,13.6,31.4,13,31.42,13Z"/><path class="cls-1" d="M18.9,15.84c-.11.05-.11.1-.12.15S18.92,15.89,18.9,15.84Z"/><polygon class="cls-1" points="18.77 15.99 18.77 15.99 18.77 15.99 18.77 15.99"/><path class="cls-1" d="M20.06,23.77l0,0S20.08,23.78,20.06,23.77Z"/><path class="cls-1" d="M18.9,18.43l.2,0c0,.12-.22.08-.15.18.28,0,0,.18.16.19,0,0,0,.06-.11.07.16,0,.05.05.09.07s.05,0,.09,0l.07.07s-.13.06-.16,0a5,5,0,0,0,.15,1.39c.11-.05,0-.1.19-.16s0,.09.1.1c-.27.07,0,.13-.3.23h.15l-.09,0c.21.22.09,0,.1.27s.27.14.2.23a.14.14,0,0,1,.14,0c-.14,0,.11.07,0,.11s0,.14.2.07c-.09,0-.11.13-.2.09s0,.07,0,.09l0,0c0,.1-.08.18.1.22l.06-.05c0,.06,0,.11-.12.17l-.07-.05a.3.3,0,0,0,.16.23v0c.2.07.46.63.71.69l.12-.08.14.06s-.46.06-.42,0a5.73,5.73,0,0,1,.3,1.35c-.06.08-.22.06-.24.06s.15,0,.16.08-.11,0-.14,0,0,.07.05.05.22-.07.33-.11v.1l-.11,0s.31,0,.27.09a1.24,1.24,0,0,0,0,.33l3.77-.73a.77.77,0,0,1,0-.15.18.18,0,0,1,.15,0s0-.05,0-.08c-.11.06-.09-.05-.14,0-.28-.07-.06-.26-.26-.33l-4.45.5s0-.06,0-.07-.09.08,0,.11l.16,0c.06.07-.09,0-.07.1s-.16,0-.18-.09-.09.12.05.12c0,.06-.15,0-.2.09s.18.07.11.14h0c-.11.14.22.15.11.28h0c-.06,0,0,.09,0,.15l5.78-1.12,0,0s-.11.06-.13,0,0-.13.06-.21l-.13,0c0-.28-.42-1.33-.49-1.6h0a10.68,10.68,0,0,0-.56-1.68c.11-.09.06-.18.08-.25s-.13,0-.13,0c0-.22-.09,0-.18-.21a3.27,3.27,0,0,1-.16-1.45c-.21-.08-.1-.26-.24-.35h.05c-.09-.11-.07-.85-.16-1l0,0c-.14-.11.06-.13.1-.24a.33.33,0,0,1-.35-.08h0c-.05-.06-.25-.17-.29-.27h.11c-.14-.07-.12-.24-.15-.3s.17-.4,0-.57l.28-.17h0a26.92,26.92,0,0,0-4.55.82h-.11L19,16c0,.07.09.08,0,.09V16c0,.07-.09,0-.16,0a.12.12,0,0,1,0,.09c.05,0,.05,0,.07,0s.15.05.11.1-.17,0-.17.11a4.31,4.31,0,0,0,0,1.19s0,0-.07,0,.08.21.15.31a.6.6,0,0,1-.16.08C18.79,17.81,18.92,18.42,18.9,18.43Z"/></svg>