<svg id="Layer_1" data-name="Layer 1" xmlns="http://www.w3.org/2000/svg" viewBox="0 0 654 238"><defs><style>.cls-1{fill:#fff;}</style></defs><path class="cls-1" d="M359.88,22.1l-.5.08a17.5,17.5,0,0,1,2.45-.58c.85-.1,1.71-.15,2.56-.19a16.34,16.34,0,0,0-3.09-.7,8.76,8.76,0,0,0-3.12.21,4.87,4.87,0,0,0-3.84,4.37,3.16,3.16,0,0,0-3-.83c-1.09.23-2,.75-1.86,1-.42.79-.81,1.61-1.24,2.34.31-.49.62-1,.92-1.51-.3.52-.61,1-.92,1.51-1.31,2.37-2.78,4.45-4.17,6.7a51.25,51.25,0,0,0-4,7.13,26.26,26.26,0,0,0-1,3,33.68,33.68,0,0,0-.75,4.14,47.35,47.35,0,0,0-.22,7.63c0,.49.06,1,.1,1.47l0-1.67a26.65,26.65,0,0,0,1.47,2.61c.5.81,1,1.57,1.49,2.3a3.57,3.57,0,0,0,.57-1.34l.12.87a3.11,3.11,0,0,1,1.36,1.22,9.52,9.52,0,0,0,1.14,1.31c-.49.06-.29.69,0,1.22l.14-.35a21.2,21.2,0,0,0,4.13,5.16.81.81,0,0,1,.19.66,17.68,17.68,0,0,0,1.62,1c-.52.38.84,1.42-.09,1.15,1.56.27,2.44,1.47,4,1.45a23.26,23.26,0,0,0,3.16,1.46c.56.2,1.13.35,1.69.51a11.12,11.12,0,0,0,1.73.39,19.21,19.21,0,0,0,7,0l-.1-.24c1.61-.34,2.85-1.57,4.67-1.4,1.18-1,2.78-1.84,2.86-3.18,1.22-.6,1.5-1.35,2.46-2.18-.28-.23-.09-.52.06-.78s.33-.54-.1-.59c-1.08-.5-.79.2-1.64-.2l.1.19a29.5,29.5,0,0,1-4.41,0,32.71,32.71,0,0,1-4.21-.52c-1.94.4-3.92-.53-5.76-1.12a34.44,34.44,0,0,1-5.95-2.34c-.48-.14-.31-.79-.36-1.25-1.38-1-2.41-2.78-3.5-4.36,0,0,0,.07,0,.09a3.42,3.42,0,0,1-.32-1.37,4.06,4.06,0,0,0-.2-1.37c-.18.05-.23-.09-.35-.14.18-.09.08-.46-.13-1-.11-.26-.28-.57-.44-.9L350.1,52a18.35,18.35,0,0,1-.79-2.18c-.13-.63-.18-1.1-.05-1.19a2.37,2.37,0,0,1-.09-.36,7.83,7.83,0,0,1,.67-1.65c.28-.53.67-1,1-1.49a10.45,10.45,0,0,0,1.61-2.58c-.24-.52-.38-1.07-.61-1.57.47-.13-.13-.5.14-.82,1-.07,1.41-.22,1.47-.42s-.2-.39-.59-.32a6.91,6.91,0,0,1,1.25-2c.1-.36.26-.66.38-1s.39-.27.77-.09c.35-.69.51-.22,1.17-.59.27.17.43-.34.67-.84s.44-1.09.58-1.08l-.06.15a2.16,2.16,0,0,1,1.38,0,2.72,2.72,0,0,0,1.3,0c2.25-.64,4.65-1.71,6.91-1.69,0-.62-.47.19-.59-.62a4.39,4.39,0,0,1,1,.08c.34.08.68.19,1,.29a15.5,15.5,0,0,0,1.94.56,2,2,0,0,1,.53.74c.36.29.27-.26.55-.14l0,.56c.49-.4.49.69.89.56a.22.22,0,0,1,.34-.16c-.13.58.42,0,.26.57l0,0c.07,0,.14,0,.21.12a9.82,9.82,0,0,1,1.13-.72c.53-.32,1.11-.63,1.23-.7l0,.13c.21.07.48-.3.39-.45l.26.15-.05,0,.26.15a.84.84,0,0,1-.22.55c.23-.13.45-.16.55,0a15.1,15.1,0,0,1-.82-2c.27-.11.5.34.73.37a6.82,6.82,0,0,0,.68,1.42c.09,0,.46-.54.5-.19-.13.45.21.1.2.47-.29.12-.4-.06-.56-.18-.23.49.23.55.29.75.15-.12.38.21.64.23-.37.38,0,.38-.08.69.09.13.28,0,.34-.17.36-.44-.32-.63.18-1-.1.26.21.36.37.43.17-.25,0-.26.29-.44.12.16.52,0,.42.3-.08,0-.12,0-.16-.08s-.49.3-1,.52-1,.44-.84.45c.05-.14.55-.34,1.07-.51s1-.29,1-.34c0-.21.43-.39.36-.56l-.38.2c-.11-.22.12-.71.31-.84.15.13-.39.4-.88.65s-.94.47-.73.42l0-.19c.21-.1.6,0,.52.3a.61.61,0,0,1,.57-.25v.07c.22,0,.36.14.52-.24-.4-.23.17-.78.79-1.34s1.28-1.1.89-1.47c0,.79-.53.48-.94.29a1.17,1.17,0,0,0-.07-.94c-.27-.12-.27.11-.41.22,0-.22-.25-.47,0-.76-.42.26-.19-.41-.51-.41s-.07.16-.32.26c-.3-.2-.7-.52-.93-.7,0-.34,0-1,.41-1.39.51.3-.55.68,0,.81.1-.8.56.06.92-.39a.72.72,0,0,0-.72-.64l0,.11c-.31,0-.9-.11-1-.61.17-.21.12-.45.35-.43l-.37-.21c-.08.06-.16.12-.07.22-.26.12-.39-.07-.47-.27s-2.44.45-2.3.31c-.27-.06-.24-.48-.58-.27a11.75,11.75,0,0,0,2.55-.14c-.07-.18-1-.11-1.85-.05s-1.7.24-1.74,0c-.21,0-.47,0-.47.27-.33-.2.21-.52,0-.83,0,.05,0,.15-.08.13l-.19-.4c-.63.37-1.38-.35-2,.19a2.69,2.69,0,0,1,.88-1l.05.16c.06-.08.4-.13.43-.42a.94.94,0,0,0-1.11,0l-.2-.25a.41.41,0,0,1,0,.11c-.11-.18-.1-.21,0-.32l0-.06c-.18-.84-1.53.42-2.2,0-.21.12,0,.14-.28.3a8.52,8.52,0,0,0-2-.72c-.22.39-.22.53.09.88l-.56-.06c.43-1-1.15-.8-.68-1.82a.71.71,0,0,0-.88,0c0,.25,0,.61-.4.69a8.68,8.68,0,0,1-1-.34c-.17-.29,0-.44-.09-.69-.67.54-.79-.54-1.5-.34-.43.21-1.3.49-1.16,1C360.07,22.93,360,22.55,359.88,22.1Z"/><path class="cls-1" d="M238.66,156c-.16-.44-.3-.88-.49-1.3a31.33,31.33,0,0,1,2.89,13.51,28.05,28.05,0,0,0-2.32-16,21.61,21.61,0,0,0-4.53-6.24,15.82,15.82,0,0,0-2.83-2.1c-.49-.28-1-.53-1.48-.75s-1-.37-1.54-.51c.45-1.05-1-3.42-2.81-5.27a16.69,16.69,0,0,0-2.65-2.3c-.78-.57-1.34-.87-1.46-.77l-2.87-1c-1-.29-1.92-.59-2.87-.9,1.29.47,2.62.85,3.9,1.37-1.28-.52-2.61-.9-3.9-1.37a181.76,181.76,0,0,0-18.41-4.51l-4.74-.83-4.83-.71a41.53,41.53,0,0,0-11.1.43,59.47,59.47,0,0,0-7.67,1.92,84.33,84.33,0,0,0-9.53,3.72,70.33,70.33,0,0,0-16.08,10,23.93,23.93,0,0,0-3.11,3.3l1.08-1.23.73-.72c.45-.45.88-.81,1.75-1.56a30.62,30.62,0,0,0-2.65,3.64,12.66,12.66,0,0,0-.64,1.13,10.48,10.48,0,0,0-.61,1.29,10.35,10.35,0,0,0-.56,1.56c-.08.31-.16.62-.23.92s-.07.29-.09.48l-.07.58a11.41,11.41,0,0,0-.06,1.16v.29l0,.22.05.45c0,.29.07.58.12.88s.14.61.22.91a10.45,10.45,0,0,0,1.64,3.41,11.23,11.23,0,0,0,4.94,3.79,9.85,9.85,0,0,1-1.16-1.17,19.55,19.55,0,0,1-2-2.46,10.72,10.72,0,0,0,2.83,2.54,25.67,25.67,0,0,0,5.76.89,15.13,15.13,0,0,0,5.15-.63c-.45.53,1.52.41,3.53-.44a6.58,6.58,0,0,1-.88,0A9.64,9.64,0,0,0,162,160a6.92,6.92,0,0,0,.81-.75,5.6,5.6,0,0,0,.78-1,6.51,6.51,0,0,0,1-2.87,11.49,11.49,0,0,0-1.22-6.24,16.13,16.13,0,0,0-3.21-4.29,27.93,27.93,0,0,0-3.44-2.79,4.82,4.82,0,0,1-1.21-1.16l-2.23-1a20,20,0,0,0-2.25-.92c.61-.41-3.53-2.08-1.22-1.53-.46-.09-.91-.2-1.36-.32s-.91-.19-1.36-.31c-.89-.2-1.78-.44-2.65-.68s-1.78-.32-2.66-.45a11,11,0,0,0-2.63-.1,45.61,45.61,0,0,0-18.45,1.24,41.35,41.35,0,0,0-16.34,8.71h.37a27.32,27.32,0,0,0-2.21,2.23c-.64.81-1.28,1.62-1.94,2.44s-1.22,1.74-1.93,2.59l-2.25,2.76a21.61,21.61,0,0,0-1.67,5.7c-.21,1.88.21,3.45.9,4a5.88,5.88,0,0,0,4.57,5c-.15-.39.41-.39.75-.53l.25-.12a1.66,1.66,0,0,0,.38-.13c.17-.09.11-.19-.38-.31-.38-.49-.44-.55-.64-.66s-.39-.19-.46-.77l-.13.17a4.78,4.78,0,0,1-.69-1.69,3.4,3.4,0,0,1-.07-.88c0-.13,0-.25,0-.37s0-.34.08-.51a11.68,11.68,0,0,1,2.28-4.49,20.54,20.54,0,0,1,2.09-2.39l1.17-1.17.58-.58.65-.53a27.24,27.24,0,0,1,2.6-2,24.87,24.87,0,0,1,2.8-1.82,26.2,26.2,0,0,1,8.3-4.21l2.3-.68,2.37-.48a21.25,21.25,0,0,1,2.37-.38c.79-.08,1.57-.28,2.36-.29a40.22,40.22,0,0,1,19.69,2.75,4.85,4.85,0,0,1,1.57,1,13.08,13.08,0,0,1,1,1.26,10.34,10.34,0,0,1,2.51,2.15,3.23,3.23,0,0,1,.83,1.69.75.75,0,0,0,0,.15v0h0l3.44.35h0l-.1,0a1.22,1.22,0,0,1-.24-.11,1.61,1.61,0,0,1-.33-.23,5.34,5.34,0,0,1-.86-.82,10.13,10.13,0,0,1-.84-1.16l-.08.05a3.17,3.17,0,0,1-.48.2,9.34,9.34,0,0,1-3.19.41l.21,0a3.66,3.66,0,0,1-1.38-.31,1.48,1.48,0,0,1-.36-.24s-.08-.07-.07-.1v0s0-.06-.06.07a5.34,5.34,0,0,1-.83.79,3.32,3.32,0,0,1,.87-.12h-2a2.73,2.73,0,0,1,.5.05l.24.07.36.07a6.21,6.21,0,0,1,.74.2l.17.07.2.09.11,0s0,0,0,0a.43.43,0,0,0-.05-.13c.16.14.33-.32,1.32-1.56a36,36,0,0,1,4.56-4.54c3.8-3.28,8.39-6.05,9-6.09.31-.19.64-.37,1-.55,6.79-2.73,14.64-3.28,19.49-3.17a7.5,7.5,0,0,1,.86-.24l1.07-.18a19.45,19.45,0,0,0,2-.42c1.07.47,1.36-.19,2.68.11a11.47,11.47,0,0,0,2.08,1.17,4.9,4.9,0,0,0,1.42.47c.68.09.81-.22,0-.68a27.85,27.85,0,0,1,4,.73c.65.16,1.3.31,1.92.48s1.22.37,1.81.53c1.13.17,2.21.44,3.34.68a2.08,2.08,0,0,1,1.65,1.19c2.35.7,1.53.82,3.71,2.06.16.38,1.61.92,3.12,1.48.73.3,1.5.58,2.08.86a4.79,4.79,0,0,1,1.13.66l-.38-.17c2.26,1.81,2.91,3.9,4.62,5.88a43.36,43.36,0,0,1,3.11,4.58,29.47,29.47,0,0,1,2.29,5,23.37,23.37,0,0,1,1.19,5.17,13.61,13.61,0,0,1-.16,4.51c.3.08.32-.18.36-.48s.08-.65.49-.65a5.32,5.32,0,0,1-.56,2,5.05,5.05,0,0,1-1.16,1.3,8.27,8.27,0,0,1-.74.54c-.31.14-.56.33-.9.46a16.85,16.85,0,0,1-2.07.82,4.7,4.7,0,0,1-1.69-.2c-1.09,0-.54.44-1.36.47l-.18-.54c-1.11.6-1.73-.45-2.79-.24-.06.22-.47.27-.86.2,0-.29-.28-.31-.57-.31s-.63,0-.56-.31l0,.05a2.16,2.16,0,0,1-.74-.18,23.08,23.08,0,0,1-3,.43c-1.4.14-2.86.11-3.16.14l-.2-.18c-.7-.23-1.16,0-.79.31l-.86-.39h.12c-.28-.12-.56-.27-.83-.41a.34.34,0,0,1,.15-.58,2.64,2.64,0,0,1-1.54-.52c1.1,1,2.56,2.22,3.86,3.29-.69,0-1.67-.74-2.34-1-.6-.71-2-1.71-3-2.63-.27-.1-.78.36-1.19-.24,0-.56-.63-.38-.89-1a5,5,0,0,1,1.61.92c.19-.52-1.09-1.12-1.39-1.54-.3,0-1.15-.83-1.83-1.18.58-.2-.25-.64-.41-1.13-.32-.38-.69-.43-.67-.16-.52.32,1.31,1.56.39,1.56,0-.32-.8-.9-1.21-1.26-.21.22.12.43-.34.4-.41-.45-1.12-.66-1.15-1.12.14,0,.28.23.41.36-.27-.29.84.13,1.92.43s2.1.55,1.67.32c0,.18-1.12-.11-2.19-.54s-2.1-.9-1.93-.7c.24.45-.65.14-.36.57l.67.13c.4.58.25,1.16-.08,1.15-.41-.43.57-.22,1.51,0s1.88.37,1.41.19l.21.37c-.44-.11-1.42-.68-1.5-1.22-.2.22-.71-.06-1.11-.31l-.08-.15c-.45-.23-.88-.75-1-.25,1,1,.18,1.22-.75,1.44s-1.92.39-.89,1.54c-.43-1.38.76-.18,1.81.62-.07.27.17.89.81,1.65.7.47.54.1.77.06.27.4.91,1,.62,1.25.78,0,.7.83,1.46,1.13s.06-.18.58-.09c.85.59,2.1,1.34,2.8,1.78.12.45.79,1.4-.1,1.56-1.42-.8.92-.47-.63-1.14.29,1-1.41-.5-2-.18a4.32,4.32,0,0,0,2.15,1.45l-.12-.18a9,9,0,0,1,3,1.5c-.29.16,0,.5-.59.33.34.16.69.33,1,.47.17,0,.34-.06,0-.23a2.07,2.07,0,0,1,1.38.56,9.41,9.41,0,0,0,3,.39c1.5,0,2.93,0,2.83,0,.78.13.92.56,1.74.38.05-.11-1.88-.08-3.71-.24s-3.55-.41-3-.29c.28.27,2.64.58,4.93.63s4.53-.17,4.78.09c.6,0,1.32-.11,1.16-.39,1,.11-.28.56.46.8,0,0-.07-.13.17-.14l.73.3a20.17,20.17,0,0,1,2.74-.58,6.07,6.07,0,0,0,2.67-1,5,5,0,0,1-1.76,1.7l-.22-.1c-.14.12-1,.4-1,.67a5.37,5.37,0,0,0,3-.92c.22,0,.48,0,.67,0a.33.33,0,0,1-.06-.1c.42.05.4.08.31.23a.24.24,0,0,1-.06.09c.47.26,1.5-.25,2.55-1.05.54-.37,1.06-.87,1.59-1.27a11.12,11.12,0,0,1,1.46-1.13c.38-.53,0-.15.4-.81a12.85,12.85,0,0,0,2.18-2.1,10.46,10.46,0,0,0,1.63-2.84c-.15-.84-.29-.89-.87-.15a14.81,14.81,0,0,0,.48-1.62c.33.84.73.1,1-.65s.62-1.5,1-.58A4.44,4.44,0,0,0,240,169c-.26-.09-.6-.25-.67-1.4.22-1.65.1-1.24.26-2.62.27-.36.46.12.7,0-.72-2,.39-1.95-.12-3.92-.21-.59-.49-1.49-.81-2.21s-.69-1.26-.95-1.19C237.83,156.16,238.17,156,238.66,156Z"/><path class="cls-1" d="M629.28,142c0-.26.07-.53.08-.8a10.49,10.49,0,0,1-2.78,7.31A9.91,9.91,0,0,0,630.9,140a8.86,8.86,0,0,0-1.58-4.68,6.12,6.12,0,0,0-1.63-1.59,4.92,4.92,0,0,0-1.85-.65c.79-.75.69-2.29.18-3.56a5.35,5.35,0,0,0-.44-.9,6.15,6.15,0,0,0-.58-.8c-.37-.42-.69-.65-.79-.57-1.15-.47-2.23-.85-3.26-1.17.69.26,1.41.52,2.15.84-.74-.32-1.46-.58-2.15-.84-3.26-1-5.93-1.57-8.49-2.42a79.09,79.09,0,0,0-8.55-2.51,25.92,25.92,0,0,0-8.86,0,26.35,26.35,0,0,0-5.26,1.47,32.54,32.54,0,0,0-3.95,1.88,15.59,15.59,0,0,0-1.66,1.07,21.58,21.58,0,0,1,1.93-1.06,24.72,24.72,0,0,0-4.13,6.39,6.17,6.17,0,0,0,1.66-.57c-.28.26-.57.51-.83.8.11,1.33-1,3.38-.9,4.57-.34-.37-.78.41-1,1.16l.36-.22a11.88,11.88,0,0,0-.49,4.45,20.24,20.24,0,0,0,.25,2.14c.14.66.27,1.3.4,1.9a1,1,0,0,1-.12.8,19,19,0,0,0,1.09,2.05c-.67.08.3,1.94-.52,1.11,1.35,1.27,1.9,2.93,3.45,3.76a19.43,19.43,0,0,0,6.48,5.4,22.78,22.78,0,0,0,7.68,2.34l0-.26c1.83.17,3.57-.61,5.49.22,1.62-.49,3.71-.57,4.48-1.76,1.66.09,2.41-.46,4.07-.57-.33-.69,1.67-.55.94-1.15-.94-1-1.11-.28-1.91-1.12v.21c-4-1.53-7.86-2.78-11.1-4.29-2.4-.3-4.52-1.93-6-3.09a20.15,20.15,0,0,1-4.76-4.88c-.33-.38.1-.87.29-1.27a5.64,5.64,0,0,1-.37-2.48,11.14,11.14,0,0,1,.43-2.44l0,.07c.31-.86,1.25-1,1.78-1.7-.13-.13,0-.24-.06-.36.36.26,1-1,2.27-2.17s2.91-2.11,3.15-1.89a2,2,0,0,1,.36-.16,10,10,0,0,1,3.88.9,15,15,0,0,0,3.53,1.17c.56-.3,1.2-.52,1.74-.86.33.46.58-.21,1.07,0,.83,2,1.75,1.54,1.27.76a13.27,13.27,0,0,1,3,.87l1.28.11c.36,0,.43.33.37.76.81.17.43.43.93,1-.09.29.38.34.87.41a3.18,3.18,0,0,1,.72.13c.22.09.38.18.38.26l-.16-.05c.56.81,0,2.05.23,2.58,0,.53.14,1,.11,1.45a1.29,1.29,0,0,1-.68,1.13c.44.5,0-.22.68.38a1.26,1.26,0,0,1-1.08.06c-.35-.11-.67-.29-.83-.34a2.24,2.24,0,0,1-.62-.65c-.4-.22-.23.31-.53.23l0-.57c-.47.42-.6-.63-1-.46,0,.22-.21.23-.36.2.07-.6-.47,0-.37-.55v0c-.09,0-.16,0-.26-.12a11,11,0,0,1-1.2.8c-.58.35-1.19.66-1.32.74l0-.12c-.26-.06-.51.33-.39.47l-.32-.13.05,0-.29-.16a.68.68,0,0,1,.18-.56c-.24.13-.47.16-.59,0,.16.26.34.56.52.91s.42.69.61,1.07c-.29.12-.62-.31-.88-.33a8,8,0,0,0-.85-1.44c-.09,0-.45.55-.52.2.11-.45-.21-.1-.18-.47.26-.11.36.07.55.17.1-.25,0-.38-.06-.47s-.19-.17-.21-.27c-.13.12-.37-.19-.53-.16.35-.38.1-.34.21-.6,0-.1-.19,0-.3.19-.41.41.12.5-.36.89.15-.25-.15-.31-.18-.34-.2.23-.12.22-.35.4,0-.12-.36.07-.17-.19.07,0,.06,0,.08,0a7.15,7.15,0,0,1,.84-.56c.49-.26.84-.53.73-.51s-.49.38-.9.59-.8.39-.77.42-.47.32-.48.46l.36-.19a1.48,1.48,0,0,1-.5.72c-.07-.11.41-.35.85-.61s.87-.5.7-.44l0,.18c-.18.1-.52.08-.38-.22a.64.64,0,0,1-.45.28l0-.06c-.17.06-.21-.06-.47.24.22.15-.37.67-1.06,1.13s-1.47.84-1.13,1.3c.17-.78.58-.38,1-.15a1.07,1.07,0,0,0,.06,1c.28.15.28-.09.43-.2.06.21.29.5.07.78.44-.24.22.45.58.47s.07-.17.34-.26l1.13.72c0,.35.16,1-.31,1.42-.61-.31.55-.69-.14-.84,0,.83-.65,0-1,.41a.91.91,0,0,0,.89.66l0-.12c.36,0,1,.15,1.27.63-.17.22-.07.46-.34.45l.45.19c.08-.06.17-.12,0-.22.28-.13.46,0,.59.25s.69,0,1.35-.13a6.81,6.81,0,0,1,1.25-.3c.32,0,.34.48.71.25a4.44,4.44,0,0,0-1.59.11,5.71,5.71,0,0,0-1.34.17,4.49,4.49,0,0,0,2.15-.06c1-.12,1.94-.37,2-.07.25,0,.56,0,.52-.33.4.16-.17.54.12.82,0,0,0-.14.08-.13l.27.38c.67-.39,1.68.16,2.35-.47a2.74,2.74,0,0,1-.85,1.17l-.09-.15c-.06.09-.45.2-.44.48a1.29,1.29,0,0,0,1.32-.18,2.27,2.27,0,0,1,.28.21s0-.07,0-.11c.17.16.16.19.11.31a.36.36,0,0,1,0,.07c.17.39.79.22,1.33-.06a3.37,3.37,0,0,1,1.68-.6c.22-.2,0-.14.23-.4a6.38,6.38,0,0,0,1.42-.1,5.43,5.43,0,0,0,1.39-.44c0-.48,0-.59-.58-.66l.68-.35c0,.55.49.54.93.44s.86-.22.9.42a1.33,1.33,0,0,0,1-.88.66.66,0,0,1-.06-1c.75-.51.51-.42,1.15-.88.36,0,.34.29.58.39.11-.6.32-.77.63-.91a1.15,1.15,0,0,0,.78-.84c.17-.71.34-2.14-.2-2.26C628.44,141.82,628.83,141.85,629.28,142Z"/><path class="cls-1" d="M518,126.27c.09-.51.23-1,.27-1.52a22.89,22.89,0,0,1-2,7.23,28.46,28.46,0,0,1-3.88,6.07,24.82,24.82,0,0,0,5.13-6.57A20.54,20.54,0,0,0,520,122.6a17.65,17.65,0,0,0-1.91-8.61,12.76,12.76,0,0,0-5-5.34c.65-.93-.38-3.76-2.13-6s-4-4-4.21-3.81a52.22,52.22,0,0,0-6.15-2.27c1.4.44,2.8,1,4.18,1.55-1.38-.59-2.78-1.11-4.18-1.55a77.75,77.75,0,0,0-19.49-3c-6.51-.2-13.46,0-20.59,2.29a35.36,35.36,0,0,0-7.76,3.65c-.76.44-1.49,1-2.27,1.54-.4.3-.78.6-1.24,1s-1.07,1-1.57,1.5a14.65,14.65,0,0,0-4,7.72,13,13,0,0,0,1.62,8.49,17,17,0,0,0,2.66,3.46c.52.51,1.05,1,1.61,1.44.26.22.59.46.81.63s.43.32.65.47a23.29,23.29,0,0,0,2.57,1.57,12.37,12.37,0,0,0,4.3,1.4,10.62,10.62,0,0,0,5.74-.93,12.09,12.09,0,0,0,3.48-2.45,15.9,15.9,0,0,0,3.35-5.23,18,18,0,0,1-1.51,2.79c-.25.36-.51.72-.88,1.18a13.41,13.41,0,0,1-1.73,1.78,13.57,13.57,0,0,0,3.21-5.6,28.07,28.07,0,0,0,.8-4.23,30.47,30.47,0,0,0-.18-7.67,17.81,17.81,0,0,0-.95,3c.09-.81.12-1.61.17-2.42a46,46,0,0,1-1.44-4.5,21.08,21.08,0,0,0-1.75-4.29c.3.14.32-.21.19-.78a15.46,15.46,0,0,0-.76-2.07v.7a28.67,28.67,0,0,0-5-7.66,36.89,36.89,0,0,0-6.54-5.71,4,4,0,0,1-1.16-1.14c-.72-.4-1.47-.75-2.23-1.08s-1.5-.64-2.27-.93c.63-.45-3.55-2.07-1.22-1.54-3.68-.72-7.13-2.08-10.62-1.89a59.15,59.15,0,0,0-18.16.15A54,54,0,0,0,401,83.85l.37.09a32.43,32.43,0,0,0-5.07,3.67c-1.6,1.37-3.23,2.8-5.21,4.39a38,38,0,0,0-3,5.09,7,7,0,0,0-.89,4.19,14,14,0,0,0-1.21,4.36,33.22,33.22,0,0,0-.17,4.33c.36-.42.46.43.64,1.14,0,.18.08.35.11.5a1.84,1.84,0,0,0,.14.39c.09.17.19.11.31-.38a7.37,7.37,0,0,0,.45-1.27,4.46,4.46,0,0,0,.17-.84,3.4,3.4,0,0,1,.66-1.79H388a23.22,23.22,0,0,1,2.9-5.62,27.63,27.63,0,0,1,4.3-4.74,33.53,33.53,0,0,1,11.48-6.28c5.53-2.63,12.86-3.3,19.47-3.54a56.18,56.18,0,0,1,10.72.52,39,39,0,0,1,9.33,2.59,3.7,3.7,0,0,1,1.54,1,13.86,13.86,0,0,1,1.1,1.33,21.32,21.32,0,0,1,6,5.79,25.71,25.71,0,0,1,3.74,7.9c0-.1,0-.2,0-.27a9.11,9.11,0,0,1,.31,2.06c0,.32,0,.65,0,1s-.05.62-.08.93c0,.62-.2,1.2-.27,1.81s-.25,1.21-.35,1.86c.18,0,.07.42.11.64-.12,0-.25.3-.38.73-.08.23-.21.55-.35.93,0,0,0,0,0,.05v0s0,0,0,0l.14.12a7.06,7.06,0,0,1,.85,1,2.55,2.55,0,0,1,.37.63l0,.12s0,0,0,0v0h0s0,.22,0,.12h0a4.9,4.9,0,0,1,.15-1.26c.3-1.11.19-.64.07-.75a4.62,4.62,0,0,1-.58-.19l-.68-.28-1.08-.52a4.44,4.44,0,0,1-.75-.46,3.42,3.42,0,0,1-1.08-1.31,1.81,1.81,0,0,1,.09-1.89,2,2,0,0,1,.19-.55,4.49,4.49,0,0,1,1.08-1l.37-.24c.16-.11.31-.21.49-.31l1.06-.62a24.79,24.79,0,0,1,4.52-1.84,80.4,80.4,0,0,1,9-1.86c1.17-.6,2.58-1.09,3.65-1.62,1.09.29,1.26-.42,2.57-.36,3.3,1.64,5.19,1.1,3.53.41a35.28,35.28,0,0,1,7.72.73c1.09.08,2.17.21,3.25.38a2,2,0,0,1,1.63,1.06,4.37,4.37,0,0,1,1.81.74,16.39,16.39,0,0,0,1.66,1.16c.1.39,1.49.86,2.79,1.46a9.53,9.53,0,0,1,2.79,1.67l-.33-.2a8.07,8.07,0,0,1,1.77,3c.37,1,.65,2,1.11,3.07a13.71,13.71,0,0,1,.66,9,19.12,19.12,0,0,1-5.3,8.4c.4.48.94-1.18,1.58-.71a25.7,25.7,0,0,1-4.88,3.95c-1.8,1.19-3.68,2.24-5.6,3.4a9.48,9.48,0,0,1-2.22.58c-1.35.54-.57.7-1.52,1.16l-.41-.41c-1.11,1.17-2.26.56-3.41,1.45,0,.23-.42.5-.88.72-.3-.51-1.39.76-1.57.24v0a2.9,2.9,0,0,1-.85.33c-.21.23-1.38,1.3-2.59,2.36s-2.47,2.07-2.7,2.3l-.3,0c-.76.33-.94.86-.44.79l-1,.34.09-.08-1,.34a.33.33,0,0,1-.31-.51,3.65,3.65,0,0,1-1.63.82c1.64-.2,3.72-.42,5.53-.53a16.29,16.29,0,0,1-2.57,1,33.43,33.43,0,0,0-4.31.49c-.29.13-.29.84-1.07.78-.48-.33-.78.26-1.45.12a5.59,5.59,0,0,1,1.93-.73c-.28-.47-1.73.17-2.3.19-.19.24-1.53.45-2.3.82.22-.59-.74-.14-1.29-.28-.57.09-.86.38-.59.5,0,.6,2.27-.26,1.66.52-.28-.22-1.33.18-1.91.34.07.31.46.13.15.51-.67.1-1.27.63-1.72.41.1-.11.38-.13.58-.17-.43.09.61-.67,1.59-1.42s1.92-1.49,1.41-1.25c.17.09-.88.85-1.94,1.57s-2.12,1.37-1.83,1.31c.56,0-.25.63.32.61l.51-.52c.76-.07,1.2.38,1,.65-1.22.28,3-2.95,2-2.37l.46,0a3,3,0,0,1-2.06.61c.07.3-.5.55-1,.78h-.19c-.48.27-1.21.38-.79.69,1.51-.4,1.21.48.88,1.38s-.69,1.86.85,1.57c-1.43-.35.27-.76,1.56-1.19a2.89,2.89,0,0,0,1.86.26c.81-.29.42-.38.52-.59.5,0,1.4-.12,1.39.25.52-.59,1.1-.06,1.82-.43s-.1-.16.32-.51l3.25-.92c.42.2,1.57.41,1.06,1.14-1.55.49.29-1-1.25-.32.94.48-1.34.69-1.45,1.33a4.49,4.49,0,0,0,2.49-.61l-.21,0a8,8,0,0,1,3.14-1c-.1.33.34.38-.2.65l1.06-.36c.1-.13.2-.27-.12-.2a2,2,0,0,1,1.38-.5,10.55,10.55,0,0,0,2.55-1.61,27.66,27.66,0,0,1,2.26-1.66c.71-.36,1.08-.06,1.65-.66a26.52,26.52,0,0,0-3.14,1.93c-1.51,1-2.95,1.89-2.48,1.64a21.57,21.57,0,0,0,4.21-2.49c1.89-1.27,3.7-2.56,4-2.45.51-.3,1.11-.69.85-.88.94-.35,0,.62.75.52,0-.05-.12-.1.09-.2l.77,0c1.13-1.15,3.4-1.82,4.46-3.21a5.44,5.44,0,0,1-1.16,2.06l-.23,0c-.09.15-.78.68-.62.91a5.74,5.74,0,0,0,2.43-1.65c.21,0,.44-.09.61-.11l-.07-.08c.39,0,.37,0,.33.17a.92.92,0,0,1,0,.09c1,.38,3.07-2.64,4.78-3.45.37-.43,0-.14.41-.69a27.39,27.39,0,0,0,4.5-2.92c.23-.71.15-.84-.67-.57.4-.32.77-.67,1.16-1-.14.84.52.48,1.18.11s1.29-.78,1.13.16a4.3,4.3,0,0,0,1.6-1.76c-.14-.22-.36-.57.33-1.48,1.16-1.17.87-.89,1.84-1.89.44-.12.29.38.53.46.73-2.07,1.54-1.33,2.39-3.3a24.11,24.11,0,0,0,.7-2.43c.15-.85.18-1.55-.08-1.65C517.2,126,517.55,126,518,126.27Z"/><path class="cls-1" d="M373.42,178.49l.24-.92a56.67,56.67,0,0,1-2.6,9.27,36.38,36.38,0,0,0,4.42-10.3c.82-3.55.71-7.15-1-10,1.08-.19,2-2,2.57-3.83s.68-3.66.41-3.74l-1.08-4.45c.21,1,.43,2.05.64,3.07-.21-1-.43-2-.64-3.07-1.06-4.7-1.93-9.47-3-14.35s-2.29-9.86-3.88-14.83c-.43-1.39-1.19-3.3-2.07-5.51-.48-1.08-1-2.24-1.51-3.43s-1.14-2.38-1.72-3.59c-2.36-4.82-5.08-9.43-6.47-12-.44-.73-.86-1.46-1.3-2.21l1.32,2.55c-2.5-2.61-4.82-4.89-7-7.09a6.44,6.44,0,0,0,.37,2.14c-.25-.47-.53-.91-.79-1.37-1.59-.57-3.55-3.2-4.85-4.11.57,0-.14-1-.77-1.9l0,.52c-2.45-3.26-5.91-6.48-8.37-9.14a2,2,0,0,1-.53-1l-2.71-2.2c.62-.25-1.67-2.43-.22-1.53A21.47,21.47,0,0,1,329.69,73a13.78,13.78,0,0,0-3.16-2.2A111.09,111.09,0,0,0,304,55.33l.06.31c-1.44-.7-2.91-1.17-4.39-1.77a17.09,17.09,0,0,1-4.55-2.42c-2.78-.66-6.35-2.2-7.93-1.54a21.31,21.31,0,0,0-3.53-1.28,35.65,35.65,0,0,1-3.57-1.05c.43.91-3-.6-1.85.5,1.41,1.69,1.84,1.05,3,2.44l.05-.21c6.62,4.39,13.1,8.82,19.47,13.54,4.69,2.51,9,6.37,13.34,9.73,4.71,3.59,9.72,7.63,13.67,10.92a6.15,6.15,0,0,1,1.72,2.69c3.49,3.16,7.23,7.83,10.8,11.73a1.52,1.52,0,0,1-.14-.21,24.67,24.67,0,0,1,2.21,3.17,24.49,24.49,0,0,0,2.08,3.16c.14-.11.4.22.59.34-.2.44,2.5,3.43,5.09,6.62s5.05,6.58,5.06,7.12c.17.23.34.47.51.73a38.22,38.22,0,0,1,1.53,4.07c.44,1.39.79,2.8,1.17,4.15s.66,2.71,1,4a31.47,31.47,0,0,0,1.09,3.62c.69.86,1.38,1.89,2.07,2.61-.11.92.6.89.77,1.92a6,6,0,0,0-.34,3c.15.52.48.49.64-.23a25.05,25.05,0,0,1,.77,3.1c.16,1,.3,2,.48,3s.44,1.72.69,2.59a1.45,1.45,0,0,1-.35,1.59c.33,1.91-.11,1.37-.18,3.38-.29.25,0,1.49.24,2.78a11.54,11.54,0,0,1,.43,2.88l-.07-.34c-.23,2.37-1.52,3.82-1.85,6.09-.61,3.13-1.19,6.49-1.87,9.72a62,62,0,0,1-2.47,9.1c.57.25.26-1.27,1.07-1.09-1.13,3.32-3.1,6.29-4.66,9.28a5.08,5.08,0,0,1-1.33,1.14c-.7.83,0,.7-.46,1.35l-.54-.18c-.15,1.21-1.37,1.09-1.69,2.1.17.17,0,.51-.23.8-.51-.31-.6.95-1,.6l0,0a1.53,1.53,0,0,1-.42.48c0,.26-.3,1.34-.59,2.5s-.71,2.23-.75,2.5l-.2.08c-.38.46-.23.95.08.77-.17.18-.36.33-.54.49l0-.09-.55.49a.39.39,0,0,1-.47-.37,1.86,1.86,0,0,1-.76,1c1-.53,2.48-1.1,3.73-1.67-.19.52-1,1-1.4,1.41a28.59,28.59,0,0,0-2.89,1.29c-.14.17.16.78-.42.88-.48-.2-.42.4-1,.36a3.2,3.2,0,0,1,1.06-1c-.41-.37-1.12.49-1.54.55,0,.24-.9.62-1.29,1.08-.08-.58-.56,0-1-.09-.36.14-.47.44-.24.52.19.56,1.52-.5,1.37.28-.27-.14-.89.31-1.24.55.15.27.37.05.28.45-.44.17-.7.75-1.09.61,0-.12.23-.17.36-.23-.28.14.21-.73.64-1.53s.77-1.61.52-1.31c.08,0,0,.26-.13.59s-.4.69-.66,1.08c-.49.78-1,1.55-.85,1.46.4-.06,0,.63.42.53l.2-.55c.51-.17,1,.18.92.47-.41.21-.1-.59.21-1.32s.6-1.47.39-1.12l.32-.06c-.13.38-.79.95-1.24.83.16.26-.16.57-.42.85l-.14,0c-.24.32-.73.52-.33.76.94-.58,1,.27,1.06,1.18s.05,1.86,1.12,1.34c-1.18-.1,0-.78.8-1.35a1.79,1.79,0,0,0,1.49-.07c.51-.42.18-.43.18-.64.38-.08,1-.37,1.15,0,.17-.64.85-.23,1.22-.76s-.14-.12,0-.52c.63-.49,1.58-1.12,2.08-1.54.4.08,1.37,0,1.31.73-.95.83-.23-.95-1.09,0,.94.2-.73.92-.55,1.5a2.63,2.63,0,0,0,1.67-1.14l-.18,0a4.75,4.75,0,0,1,2-1.71c.08.3.44.23.15.61.23-.19.43-.41.64-.62,0-.14,0-.28-.19-.14a1.27,1.27,0,0,1,.82-.81,5.82,5.82,0,0,0,1.15-2.1,18.06,18.06,0,0,1,.87-2c.34-.52.78-.4.88-1.07a25,25,0,0,0-1.36,2.54c-.33.64-.64,1.26-.85,1.68s-.34.61-.22.43c.33-.08,1.16-1.74,2-3.32s1.44-3.22,1.73-3.27c.22-.4.46-.91.16-1,.51-.6.34.48.86.14,0,0-.15,0-.05-.19l.59-.28c.22-1.27,1.57-2.58,1.59-4a4,4,0,0,1,.29,1.95l-.2.06c0,.15-.21.8.05.92a3.68,3.68,0,0,0,.93-2.12c.14-.1.28-.23.4-.31a.38.38,0,0,1-.1,0c.27-.17.29-.14.35,0l0,.08c.48,0,.7-.81.91-1.71a6.69,6.69,0,0,1,.84-2.51c.05-.44-.12-.09-.06-.64a28.56,28.56,0,0,0,2.12-3.52c-.19-.59-.32-.67-.85-.22l.46-1.07c.59,1.31,1.55-1.8,2.1-.39a2.37,2.37,0,0,0,.6-1.61c-.21-.14-.56-.34-.33-1.14.62-1,.45-.79,1-1.63.36-.14.4.23.65.26,0-1.54,1-1.09,1.26-2.47.11-.88.43-2.58-.09-2.74C372.61,178.21,373,178.29,373.42,178.49Z"/><path class="cls-1" d="M287.13,84.2l-.95-1.35,1.22,1.6c.39.55.75,1.13,1.13,1.7s.75,1.14,1.1,1.73l1,1.81a31,31,0,0,1,1.86,3.89c.28.66.54,1.32.76,2s.46,1.32.65,2a39.17,39.17,0,0,0-1.12-4.59c-.22-.78-.55-1.6-.84-2.4l-1-2.23A46.55,46.55,0,0,0,288.73,84,44.89,44.89,0,0,0,286,80c-3.93-5-8.94-8.61-13.78-9.67.13-.59-.35-1.47-1.15-2.49a19.69,19.69,0,0,0-3.14-3.11,29.1,29.1,0,0,0-3.46-2.45,4.33,4.33,0,0,0-1.83-.8c-1.17-.37-2.34-.75-3.54-1.07s-2.37-.7-3.57-1c1.65.43,3.25,1,4.88,1.48-1.63-.49-3.23-1.05-4.88-1.48-3.76-1-7.65-1.9-11.55-2.6s-7.8-1.26-11.69-1.78c-7.75-1-15.75-2.13-24-2.76a185.35,185.35,0,0,0-21.74-.13c-8.62.42-17.28,1.67-22,2.39l-4.13.76,4.63-.69c-5.6,1.82-10.55,3.75-15.29,5.71a12.93,12.93,0,0,0,3.35,0l-2.53.6c-2,1.55-7.05,3.37-9.27,4.75.33-.64-1.57.06-3.24.77l.78,0a58.78,58.78,0,0,0-9.48,5.16c-1.53,1-3,2.13-4.37,3.22-.67.58-1.35,1.12-2,1.69l-1.09,1c-.42.39-.8.8-1.2,1.18a12.73,12.73,0,0,1-1.22,1.1c-.36.3-.68.54-.94.72-.83,1-1.63,2-2.42,3.08a5.89,5.89,0,0,0,.48,2c.23.71.5,1.37.75,2-.2-.13-.25.22-.11.74a17.51,17.51,0,0,0,.66,1.85c.61,1.18,1,2-.24.32a20,20,0,0,0,1.58,2l.83.93c.29.31.62.57.92.86l.91.85c.31.25.67.52.91.7.51.41,1,.75,1.57,1.1a20,20,0,0,0,6.46,2.81,47.73,47.73,0,0,0,5.54,1.81c1.86.46,3.64.89,5.5,1.25a97.54,97.54,0,0,0,11.26,1.63,83.19,83.19,0,0,0,22.84-1l-.4-.19a58.48,58.48,0,0,0,7.45-2.17c2.48-.9,5-1.75,8.12-2.63,2-1.15,4.45-2.75,5.72-4.81s1-4.09.34-4.73a4.06,4.06,0,0,0-1-2.48,2.11,2.11,0,0,0-1.5-.69l2.5-1.32a7.2,7.2,0,0,0,.49,3.93c.19-.52.58.24,1,.69a2.89,2.89,0,0,0,.33.3,3,3,0,0,0,.39.33c.19.12.23,0,0-.58a12.14,12.14,0,0,0-.19-1.72,1.58,1.58,0,0,1,.32-1.39h-.21a3.22,3.22,0,0,1,.28-.68l-5.47,2.46c.09-.32.09-.09-.29.25,0,0-.27.24-.26.22s0,0,0,0a1.31,1.31,0,0,0,0,.2,1.73,1.73,0,0,1-.3,1.14s0,0-.06,0l0,0-.08.08a2.48,2.48,0,0,1-.32.33,5.22,5.22,0,0,1-.92.66,15.19,15.19,0,0,1-3,1.28c-1.2.39-2.71.73-4.1,1.09s-2.86.64-4.32.85a73.4,73.4,0,0,1-8.79,1c-8.24,1.22-17.45.07-26.09-1.57-1.17-.24-2.35-.44-3.54-.7s-2.41-.51-3.49-.79a38.32,38.32,0,0,1-6.21-2.07,20.47,20.47,0,0,1-2.56-1.36c-.19-.12-.39-.24-.56-.37l-.25-.18-.15-.09c-.16-.11-.32-.22-.48-.35a4.85,4.85,0,0,1-.86-.89,2.63,2.63,0,0,1-.55-1.11l0-.08c.35-.62,1.26-.81,1.8-.94A15.82,15.82,0,0,1,130.35,83c.69-.61,1.46-1.2,2.24-1.79a49.69,49.69,0,0,1,5.19-3.33,103.6,103.6,0,0,1,11.77-5.54l-.4.12c1.06-.42,2.07-.76,3-1.07s2-.52,2.92-.76l2.9-.72c1-.23,2-.49,3.07-.81-.07-.17.59-.36.89-.54.48.3,6.7-1.75,13.27-3.25s13.37-2.62,14.19-2.38c.46-.07.95-.14,1.44-.19,9.61-.26,19.44,1.71,27.58,2.16,1.81-.27,3.84-.42,5.38-.74,1.41.49,1.76-.15,3.5.13,4.25,2.16,6.86,1.85,4.69.94a75,75,0,0,1,10.24,1.62c1.46.19,2.86.46,4.31.71a3.29,3.29,0,0,1,2.27,1.26,7.88,7.88,0,0,1,2.54.93c.49.3,1,.6,2.48,1.36a3.44,3.44,0,0,0,1.45.75c.77.29,1.75.64,2.75,1a22.69,22.69,0,0,1,4.31,1.83l-.5-.21c3.24,2.07,4.6,4.51,7.34,6.86a75.13,75.13,0,0,1,5.38,5.47c.81,1,1.7,1.95,2.45,3l1.16,1.54,1.07,1.59c.76,1,1.33,2.17,2,3.23.28.53.53,1,.79,1.55s.5,1.06.72,1.63a50.54,50.54,0,0,1,2.24,6.94c.63-.08-.71-2,.05-2.33,1.53,5.46,1.85,11.39,2.48,17.19a13.82,13.82,0,0,1-.35,2.87c0,1.88.41,1.07.45,2.44l-.54.23c.61,1.94-.4,2.93-.08,4.77.23.09.29.77.3,1.43-.59,0,.09,2-.45,1.95h0a4.35,4.35,0,0,1-.06,1.17c.12.37.58,2.31,1,4.28s.74,3.95.84,4.34l-.13.35c-.07,1,.32,1.53.49.93l-.16,1.29,0-.15c-.05.43-.13.85-.18,1.27-.09.23-.39.46-.61.07a4.74,4.74,0,0,1-.1,2.25c.69-1.9,1.47-4.37,2.21-6.49.16.91-.32,2.47-.34,3.44-.52,1.09-1.14,3.36-1.76,5-.05.38.58.8.09,1.58-.55.31-.2,1-.7,1.58a8.76,8.76,0,0,1,.45-2.43c-.54,0-.8,1.91-1.12,2.48a3.81,3.81,0,0,1-.24,1.14,13.5,13.5,0,0,0-.45,1.57c-.18-.29-.32-.13-.47.14a3.71,3.71,0,0,1-.56.82c-.27.55-.26.93,0,.8.46.47,1.24-2.13,1.47-1.1-.35.11-.7,1.31-1,1.85.27.15.4-.29.48.22-.35.64-.43,1.41-.89,1.6,0-.16.17-.37.28-.54-.12.19-.13-.05-.1-.46s.07-1.09.11-1.73,0-1.3,0-1.72-.07-.59-.12-.28c.18-.1.18,1.33,0,2.63,0,.33-.08.65-.12.95s-.1.54-.14.75c-.06.42-.13.71,0,.56.41-.4.27.65.65.21v-.75c.51-.58,1.11-.72,1.18-.34-.34.63-.34-.53-.36-1.63,0-.56-.05-1.13-.07-1.48s-.07-.48-.09-.16l.3-.43a3.57,3.57,0,0,1-.22,1.21,1.88,1.88,0,0,1-.61,1c.27.13.08.77-.06,1.32l-.14.13c-.15.53-.59,1.16-.07,1.07.79-1.4,1.23-.61,1.61.32s.72,2,1.77.39c-1.39,1-.29-.76.27-2.31a3.46,3.46,0,0,0,1.46-1.71c.29-1,0-.67-.13-.92.35-.49.74-1.56,1.05-1.32-.17-.91.61-1.22.7-2.25s-.19,0-.24-.64l.5-2.17.42-2c.41-.35,1.13-1.55,1.53-.55-.36,2-.7-.89-.92,1.24.9-.8-.07,1.9.39,2.39a6.71,6.71,0,0,0,.78-3.17l-.13.21a13.44,13.44,0,0,1,.62-4.15c.24.28.49-.18.48.58l.18-1.42c-.06-.18-.14-.37-.23,0a3.29,3.29,0,0,1,.19-1.85,15.29,15.29,0,0,0-.3-3.81c-.26-1.84-.59-3.61-.51-3.5,0-1,.42-1.26.1-2.25-.11-.05.19,2.37.4,4.65s.38,4.43.37,3.75a30.42,30.42,0,0,0-.39-6.2c-.32-2.85-.77-5.63-.52-6,0-.75-.17-1.65-.44-1.46.05-1.27.57.35.77-.57,0,0-.13.08-.14-.21l.3-.89c-.59-1.94-.28-4.89-1.13-6.87a7.61,7.61,0,0,1,1.42,2.47l-.13.25c.11.18.33,1.27.6,1.21a9.23,9.23,0,0,0-.54-3.67c.05-.26.09-.55.14-.75a.29.29,0,0,1-.11,0c.13-.46.16-.42.29-.27l.08.08c.75-.91-1.21-4.9-1.22-7.26-.25-.66-.16,0-.47-.85a48.91,48.91,0,0,0-.67-6.59c-.55-.69-.7-.71-.82.32-.13-.62-.23-1.24-.38-1.86,1.42,1.42-.11-3.7,1.35-2.12a6.26,6.26,0,0,0-.76-2.74c-.27,0-.7-.07-1.16-1.37-.42-1.93-.31-1.45-.7-3.08.13-.49.49,0,.69-.14a4.77,4.77,0,0,1-.88-2.29,6.4,6.4,0,0,0-.15-1,4.88,4.88,0,0,0-.58-1.25c-.43-.62-1-1.59-1.59-2.31s-1.14-1.28-1.39-1.15C286.36,84.51,286.62,84.32,287.13,84.2Z"/><path class="cls-1" d="M227,101l-.14.43a8.77,8.77,0,0,1,1.6-3.82,8,8,0,0,0-2,1.64,6.08,6.08,0,0,0-1.27,2.46,3.71,3.71,0,0,0,2.18,4.52l.39.14a2.72,2.72,0,0,0-1.64,2.44c-.09,1,.25,1.92.51,1.82l2,1.33c-.43-.3-.83-.63-1.27-1,.44.32.84.65,1.27,1s1,.65,1.47,1,.94.62,1.38.88c.88.56,1.74,1.1,2.62,1.63s1.79,1,2.78,1.52a25.37,25.37,0,0,0,3,1.2,18.11,18.11,0,0,0,5.44.5c2.1-.09,4.08-.47,5.2-.56.32,0,.64-.09,1-.16l-1.12,0c1-1,1.83-2,2.65-2.8a3.67,3.67,0,0,0-1.06-.6l.57-.06c0-1,1-1.52,1.26-2.12.15.45.56.32.9.16l-.29-.18a14.62,14.62,0,0,0,3.29-2.84.53.53,0,0,1,.52-.06c.21-.39.4-.8.58-1.19.42.48,1.1-.53,1,.21,0-1.21,1-1.85.75-3.06a10.87,10.87,0,0,0,.87-2.44,9.7,9.7,0,0,0,.26-2.76,9,9,0,0,0-1.74-5l-.19.15a5.88,5.88,0,0,0-1.45-1.11,3.3,3.3,0,0,1-.68-.52,1.68,1.68,0,0,1-.45-.74c-1.18-.23-2.33-.63-3.28.29-.68-.24-1.21.22-1.77.4a1.07,1.07,0,0,1-.32.62l-.09.1a.63.63,0,0,0-.11.12c-.06.08-.06.18,0,.32,0,.48,0,.51,0,.53s.09,0,0,.39l.08-.2a6.63,6.63,0,0,1,0,1.43c0,.42-.06.86-.1,1.27A.78.78,0,0,1,252,99c0,.29-.14.46-.11.7a10.2,10.2,0,0,1-.35,2.89c0,.31-.53.06-.87,0-.42.83-1.54,1.42-2.37,2.28h.06c-.5.41-1.21,0-1.71.37.08.16,0,.21,0,.32-.22-.37-.86.4-1.6,1.11s-1.58,1.4-1.71,1.17a1.88,1.88,0,0,1-.18.12,3.44,3.44,0,0,1-1.75-1.08c-.45-.47-.81-.92-1.08-.93-.24.34-.52.63-.81,1,0-.39-.3.26-.42.09.16-.86.18-1.14.09-1.15s-.27.28-.32.59c-.42,0-.64-.31-.89-.46a5.25,5.25,0,0,0-.56,0c-.17,0,0-.2.25-.5-.34,0,0-.24,0-.52.24-.18,0-.15-.36-.16s-.72,0-.64-.12h.09c0-.23.47-.53.79-.73s.3-.18.32-.24a1.7,1.7,0,0,0,.24-.78,2.29,2.29,0,0,1,.51-1.15c-.54-.32,0,.24-.71-.15a1.87,1.87,0,0,1,.88-.48,2.78,2.78,0,0,0,.95-.38,2.42,2.42,0,0,1,.7.24c.31,0-.12-.29,0-.34l.41.39c-.15-.49.65.23.66-.08s-.1-.25,0-.29c.39.45.17-.19.5.23l0,0s0-.08.15,0a23.9,23.9,0,0,1-.31-2.39l.11,0c.12-.11-.08-.52-.22-.55l.19-.09v0l.19-.09a1,1,0,0,1,.36.47c0-.24,0-.41.18-.39a9.93,9.93,0,0,1-1.74-.59c0-.25.39-.14.48-.29a3.51,3.51,0,0,0,1.29.33c0-.06-.29-.64,0-.49.32.35.14-.11.43.1,0,.29-.17.27-.31.34.32.43.51.1.69.16,0-.17.3-.18.38-.41.21.48.31.2.55.37.14,0,.1-.24,0-.36-.27-.5-.62,0-.79-.61.19.21.35,0,.45-.1-.16-.27-.2-.15-.28-.45.16,0,.1-.42.35-.2,0,.08-.06.07-.11.09.18-.08.18,2.28.31,2-.22-.19,0-2.15-.16-2.1s-.23-.52-.39-.54l.08.39c-.21,0-.56-.42-.62-.63.26-.11.45,2.22.49,1.82l-.17-.07c0-.23.12-.52.39-.31a.6.6,0,0,1-.07-.58l.07,0c0-.19.2-.22-.08-.52-.58.43-1.28-2.87-2-2.64.61.41.29.64.08.87a1.25,1.25,0,0,0-.73-.42c-.13.15,0,.27.1.43-.17-.07-.41-.06-.58-.37.11.43-.34-.1-.41.12s.11.15.13.38a5,5,0,0,1-.73.26,2.91,2.91,0,0,1-.92-1.11c.34-.15.36.77.61.47-.56-.54.16-.36-.1-.88a.38.38,0,0,0-.62.11l.09.06c-.09.19-.3.52-.69.31-.12-.25-.31-.36-.23-.49l-.24.11c0,.08.05.17.14.18,0,.24-.14.21-.31.14s-.36,1.76-.42,1.59c-.13.12-.44-.18-.39.16.11.18.77-1.84.65-1.62-.16-.08-.37.52-.57,1.1s-.37,1.12-.59,1c-.09.1-.17.25,0,.44-.26,0-.32-.45-.62-.53,0,0,.11.09.06.12l-.36-.15c0,.56-.74.53-.58,1.22a3.32,3.32,0,0,1-.48-1.14l.14.07c0-.08,0-.3-.17-.5-.31,0-.42.23-.39.62a2.14,2.14,0,0,1-.27-.06l.08.07c-.19,0-.2-.08-.26-.18a.09.09,0,0,1,0-.06c-.74-.43-.27,1.11-.88,1.21,0,.19.1.1.13.33a4.26,4.26,0,0,0-1.4.69.78.78,0,0,0,.76.44l-.29.27c-.66-.81-1.17.21-1.81-.6a.41.41,0,0,0-.39.52c.21.13.54.33.41.6-.46.25-.32.21-.74.42-.33,0-.39-.21-.63-.29.17.69-.83.24-1,.82,0,.37-.19,1.14.35,1.28C227.78,101.16,227.39,101.09,227,101Z"/><ellipse class="cls-1" cx="109.12" cy="269.54" rx="92.2" ry="60.09" transform="translate(-64.95 36.61) rotate(-14.73)"/><path class="cls-1" d="M86.54,223.77c1.87-.94,3.94-1.9,5.15-2.71s1.64-1.26.2-1.17c-5.44,1.51-9.06,3.84-14.43,5.45C77.83,226.18,84.41,223.93,86.54,223.77Z"/><path class="cls-1" d="M105.58,208.51c-.08-.48,1.32-1.21-1.59-.46-1.43.52-2.83,1.15-4.23,1.72a23,23,0,0,1,3.76-.65C105.09,208.93,106.38,208.74,105.58,208.51Z"/><path class="cls-1" d="M121,204.77l-.84-1.4c-2.28.42-3.74,1.1-6,1.13C117.19,204.4,117.25,205.17,121,204.77Z"/><path class="cls-1" d="M89,210.14a23.35,23.35,0,0,0,8.2-2.29,15.33,15.33,0,0,1,3-1.06,12.5,12.5,0,0,1,4.23-.18c2.4-.54,4-.91,5.05-1.25s1.47-.65,1.53-.92c.12-.55-1.29-1-2.52-1.43-3.82.56.23,1.64-5.68,3.15-1.89.25-4,.56-5.68.75s-3.07.27-3.54,0C84,209.37,94,208.25,89,210.14Z"/><polygon class="cls-1" points="120.82 201.38 116.19 201.72 118.58 202.52 120.82 201.38"/><path class="cls-1" d="M87.82,206.08c-1.19.55-2.36,1.15-3.53,1.73l3.35-1,3.37-.89Z"/><path class="cls-1" d="M96.21,200.88l-3.09.75c-2.23.9-3.59,1.84-1.23,1.55C95.68,202.12,94.75,201.61,96.21,200.88Z"/><path class="cls-1" d="M33.48,247.62a181.64,181.64,0,0,1,28.85-17.43,59.3,59.3,0,0,1,6.19-4.82c1.25-.46,2.54-.85,3.8-1.25s2.55-.78,3.83-1.12c3.6-1.58,7.59-3.15,11.24-4.66,1.84-.73,3.57-1.49,5.15-2.18.79-.35,1.53-.71,2.22-1.07s1.32-.67,1.88-1c1.48-.11,1.54.11,3,0,2.71-1.1,8.49-1.73,11.22-2.89,3.67,0,3.78.77,6,1.24a54.83,54.83,0,0,1,12.84-.36c4.45.3,8.83.81,12.75.69a7.1,7.1,0,0,0,3.21,1.18c1.26.25,2.69.3,4.14.45,2.88.28,5.9.7,7.64,2.26L168.59,221c3.25,1.3,5.85,2.26,7.06,2.26-.1.15-.84.05-1.24.23s-.4.54.85,1.7a15.25,15.25,0,0,0,1.86.82c.14.1.51.43,1,.89s1.19,1,1.84,1.65a27.8,27.8,0,0,0,3.64,3.07c.7.44,1,.5,1,.24a5,5,0,0,1-.76-1.83c0-.39.25-.57.72-.58a4.71,4.71,0,0,1,1.92.48,16.9,16.9,0,0,1,2.75,1.42,26.5,26.5,0,0,1,3.12,2.24,31.47,31.47,0,0,1,3.09,2.82c1,1,1.84,2.06,2.7,3l2,2.69c.48,1,.93,2.06,1.4,3.09a34.15,34.15,0,0,0-5.16-12.92c.2.84-.81-.44-1.64-1.44a4.37,4.37,0,0,0-1-1c-.17-.07-.07.17.38,1.07.45.66,1,1.24,1.44,1.9a44.45,44.45,0,0,1,2.07,5.21,62.93,62.93,0,0,0-5.46-8.3,20.9,20.9,0,0,0-1.77-2c-.61-.62-1.17-1.23-1.75-1.73a11.14,11.14,0,0,0-3-2c-3.79-3.76-4.63-5.32-6.87-7.68a80.87,80.87,0,0,0-11.84-6.42,42,42,0,0,0-11.71-3.34c-8.28-1.68-9.7-2.68-11.93-3.91-1.95,0-4.65-.32-7.06-.43s-4.55-.11-5.31.27a56.32,56.32,0,0,1-7.7-1.42c-1.89-.53-3.31-1.09-4.93-1.5a16.62,16.62,0,0,0-5.3.4c-1.15.3-2.07.73-4,1.32a17,17,0,0,1-4.48.22c-.53-.15-.35-.48-.22-.8s.23-.62-.49-.7a19.68,19.68,0,0,0-5.37.69,33.37,33.37,0,0,0-7,2c-2,.87-3.38,1.7-3.27,2.05a28.8,28.8,0,0,0-4.25,1c-1.44.4-2.88.92-4.26,1.42l-4,1.43a25.07,25.07,0,0,1-3.38.95c-3.54,2.72-8.06,4.56-12.72,6.76s-9.42,4.83-13,8.65A67.41,67.41,0,0,0,34.94,235.4a92.83,92.83,0,0,0-9.27,12.28c.11,1.66.85,2.46,2.15,2.42S31,249.21,33.48,247.62Z"/><ellipse class="cls-1" cx="290" cy="235.89" rx="120" ry="82.89"/><path class="cls-1" d="M399.42,248.39A95.62,95.62,0,0,1,396,260.78c-2.82,4.36-5.57,8-8.22,11.38-.66.86-1.3,1.7-2,2.49l-2,2.41c-1.38,1.53-2.68,3.11-4.14,4.58a75.49,75.49,0,0,1-9.62,8.64A66.25,66.25,0,0,1,356.82,298c-2.27,1.17-4.55,2.14-6.72,3.15l-3.29,1.36c-1.07.46-2.14.89-3.22,1.27L340.41,305l-3.17,1.07c-2.09.73-4.2,1.3-6.29,1.91A116,116,0,0,1,304,312.22c-1.52,1.17-4.75,1.82-8.95,2.14-1.05.06-2.16.1-3.32.13s-2.36,0-3.61,0l-3.83-.14c-1.31-.09-2.64-.21-4-.32-10.82-.84-22.29-3.46-29.8-4-2.46-.49-4.64-.92-6.44-1.18a25.45,25.45,0,0,0-4.05-.48c-1.75,0-1.41.7,2.19,2.18-1.68-.51-3.1-.94-4.28-1.38s-2.17-.86-3-1.22a32.41,32.41,0,0,1-3.76-1.93,66.9,66.9,0,0,0-9.2-4.3l2,.25,2.06.18c-3.34-1.85-6.74-4.35-11.14-6.59-1.81-.57-3.68-1.09-5.48-1.77-5.31-4.39-9.61-7.46-13.9-10.92a48.82,48.82,0,0,1-12.24-13.78c.53,1.08.94,1.81,1.2,2.3s.33.73.29.8-.66-.48-1.4-1.3c-1.39-1.69-3.36-4.34-3.52-3.61-.33-1.15-1.62-3.68-2.34-5.73s-1.14-3.46-.39-2.12a86.14,86.14,0,0,1-5.25-16.82c-.9-5.3-.88-10.17.62-13.57-.09-1.55.08-3.08.13-4.64a31.28,31.28,0,0,1,3.06-10.55,74,74,0,0,1,5.31-9.06c-.05-.42-.07-.83-.1-1.25a40,40,0,0,1,2.19-3.67,44.52,44.52,0,0,1,3-4,37,37,0,0,1,3.33-3.55,23.91,23.91,0,0,1,3-2.54,190.39,190.39,0,0,1,15.89-13.48,126.79,126.79,0,0,1,18.17-11.43c3.15-1.12,5.15-1.87,6.54-2.51a14,14,0,0,0,2.92-1.64,19.25,19.25,0,0,1,2.65-1.75c.61-.33,1.36-.69,2.32-1.1a32.45,32.45,0,0,1,3.58-1.32c1.9-.4,4.12-1,6.48-1.52s4.85-1.14,7.26-1.65,4.75-.84,6.77-1.13a27,27,0,0,1,5-.17,43.74,43.74,0,0,0-6.5,1.27c-1.77.51-3.26,1-4.74,1.5s-3,1.05-4.79,1.56-3.94,1.06-6.68,1.69c1.08-.11.49.19-.85.68S243,160,241.16,160.7a29.45,29.45,0,0,0-4.18,1.77c-.61.4-.16.4,2.27-.12a102.85,102.85,0,0,1,16-5.08,145.57,145.57,0,0,1,17.41-2.84c5.86-.62,11.7-.85,17.3-1s11-.11,15.94,0c-.83,1,5.24,1.72,12.49,3,3.62.62,7.55,1.35,11.08,2.12,1.78.34,3.43.79,4.92,1.14l2.1.5,1.74.48.37.7c1.74.61,3.37,1.18,5,1.83s3.26,1.19,5,1.9l2.74,1,3,1.21c2.13.81,4.45,1.86,7.17,3a105.74,105.74,0,0,1,17.57,11,63.72,63.72,0,0,1,13.18,13.62c5.06,7,10.05,14.95,13.11,22.57.84,1.88,1.45,3.76,2.09,5.53.33.89.53,1.78.8,2.62s.54,1.67.7,2.47.38,1.58.55,2.31a21,21,0,0,1,.46,2.09c.24,1.32.48,2.47.68,3.43a46.3,46.3,0,0,0-1.58-16,61.55,61.55,0,0,0-6-14.13,102.25,102.25,0,0,0-7.94-11.85c-1.33-1.85-2.75-3.56-4.05-5.32l-2-2.55c-.65-.86-1.26-1.73-1.9-2.55,5.49,5.38,8.05,8.6,10.59,11.27.6.7,1.19,1.37,1.81,2.06s1.26,1.37,1.89,2.18l2.1,2.59c.72,1,1.49,2.09,2.36,3.34-.86-2-1.7-4-2.73-5.86l1.61,2.09,1.5,2.19c-.36-1.35.46-.59,1.42.4s1.93,2.29,2.09,1.74A81,81,0,0,0,399,189.2c.77,1.05,1.37,1.9,1.81,2.57a11.62,11.62,0,0,1,.87,1.57c.32.73.18.86-.21.66a13.77,13.77,0,0,1-1.73-1.33c-.73-.57-1.51-1.19-2.13-1.64-1-1.31-2.07-2.52-3.15-3.74s-2.2-2.4-3.34-3.57c.69.93,2.08,2.46,2.53,3.26.24.39.28.57-.06.35s-1-.86-2.4-2c-2.62-2.91-6.86-5.85-9.92-8.87,2.31,1.16,4.7,2.3,7,3.66-4.92-3.44-8.77-6.91-12.93-10.1s-8.48-6.24-14.12-8.21c-.84-1-1.71-2-2.6-3-1.72-.75-3.45-1.51-5.21-2.15s-3.49-1.37-5.27-1.95l1.39-.12c-4.21-1.6-8.47-3.1-12.79-4.33a31.73,31.73,0,0,0-7-1.07,9.88,9.88,0,0,0-2.69.32c-5.46-1.07-10.77-1.65-12.95-2.28,2.18-.07,4.35,0,6.54,0-1.95-.4-3.91-.85-5.87-1.22,4,.86-5-.05-6.52.23-6.64-.75-9-.77-10.74-1l-7-.86c-2.18.17-4.47.28-6.69.31l-6.29.25c-3.81.26-6.59.54-6.76,1.23a137.71,137.71,0,0,0-24,3.57,146.66,146.66,0,0,0-22.63,7.42c-1.93,1.18-3.9,2.27-5.78,3.52a84.89,84.89,0,0,0-19.37,11.18,119.4,119.4,0,0,0-16.85,15.91l.74-1.37a84.88,84.88,0,0,0-5.85,8.83,51.21,51.21,0,0,0-8.51,15.55q-.35.94-.69,1.92c-.22.66-.4,1.34-.62,2-.41,1.37-.88,2.78-1.24,4.33-.2.77-.41,1.57-.62,2.39s-.37,1.69-.58,2.58-.42,1.82-.6,2.8-.34,2-.52,3.06a30.79,30.79,0,0,0-.3,3.36c0,1.09-.14,2.14-.11,3.15s.07,2,.1,2.93c0,.47.05.93.08,1.38s.11.9.16,1.33a38.67,38.67,0,0,0,.83,4.81,35.38,35.38,0,0,0,1.14,4c.44,1.22.87,2.32,1.3,3.34s1,1.9,1.45,2.73a26.15,26.15,0,0,0,2.9,4.14c2.1,3.77,4.23,8.09,6.75,12.07a71.24,71.24,0,0,0,7.72,10.61l-1.92-1.63-1.85-1.73c1.16,1.82,2.47,3.53,3.77,5.26,4,3.88,6.18,5.81,8.72,8l2,1.63c.73.58,1.53,1.19,2.47,1.81l3.12,2.12,4.1,2.44c8.1,5.48,12.22,6.57,14.92,7.14,1.39.22,2.48.24,3.7.36a18.53,18.53,0,0,1,2,.27,22.75,22.75,0,0,1,2.57.53A145.23,145.23,0,0,0,246,317.2l-.29-.46c2.72.26,4.61.32,6.27.55s3.13.45,5,.84,4.26.87,7.72,1.48c1.73.29,3.74.54,6.11.86,1.18.15,2.46.24,3.83.38s2.85.27,4.44.32L278.05,320a41.67,41.67,0,0,0,5.63.73c1.71,0,3.31,0,5-.14s3.42-.33,5.42-.48,4.27-.39,7-.51,8.1-.18,14.05-.73a62.9,62.9,0,0,0,16.73-3.63,73.32,73.32,0,0,0,22-8.16c5.94-3.31,11.28-6.85,18.14-11.18a47.71,47.71,0,0,0,9.88-7.24c1.19-1.07,2.14-2,3-2.65a4.22,4.22,0,0,1,2.24-1c-.42.42-.84.84-1.28,1.22,1.33-.34,2.6-.79,3.93-1.21l-.6-1.25a66.64,66.64,0,0,0,7.07-7.28c1.13-1.36,2.23-2.72,3.33-3.94a30.46,30.46,0,0,1,3.07-3.31,69.16,69.16,0,0,0,3.83-13.57,17.94,17.94,0,0,1-.82,2.44q-.48,1.23-1,2.49l-1.28,2.44-.65,1.23-.74,1.19.51-.15c-.43.78-1,1.85-1.68,3.06s-1.56,2.48-2.43,3.78-1.87,2.55-2.79,3.66-1.87,2.05-2.62,2.75c.92-1.37,1.92-2.68,2.78-4.08-1.86,2.13-2.23,2.11-2,1.48a10.79,10.79,0,0,1,.69-1.31l.75-1.37a37.17,37.17,0,0,0,3.62-4.94,14.53,14.53,0,0,0,1.39-2.88c.61-1.6.95-3,2.53-6.84.43-.84,1-2.06,1.48-2.93s.72-1.38.69-.68a80.79,80.79,0,0,0,2.79-10.6c.17-1,.24-1.93.34-2.81a15.29,15.29,0,0,0,.11-2.36c-.05-1.38-.2-2.28-.52-2.39.08-.43.14-.59.22-1a8.11,8.11,0,0,0-1.81,1.87c-.63.82-1.15,1.82-1.89,2.93-.35.55-.7,1.14-1.05,1.75l-.53.93c-.19.31-.4.63-.6,1l-1.22,2C400.38,247,399.87,247.69,399.42,248.39Z"/><ellipse class="cls-1" cx="500.45" cy="267.89" rx="121.02" ry="159.61" transform="translate(82.42 651.9) rotate(-70.73)"/><path class="cls-1" d="M563.42,157.2l-3.4-1.64a190,190,0,0,1,32.6,18.82c-10.79-8.55-23.63-16.79-36.83-22.4s-26.42-9.11-37.2-9.49c-.88-1.27-7.83-3.63-14.78-5.11-1.73-.43-3.47-.67-5.1-1s-3.14-.52-4.45-.69a24,24,0,0,0-4.57-.27c-2.8-.09-5.63,0-8.47,0s-5.68.2-8.54.29l5.89-.21,5.87,0-5.87,0-5.89.21c-18.05,1-36.81,3.78-55.26,10.09a148.2,148.2,0,0,0-27,12.3A116.3,116.3,0,0,0,366.17,177a98.22,98.22,0,0,0-14.48,18.66,102.51,102.51,0,0,0-11.67,29,104,104,0,0,0-2.27,31.33A125.14,125.14,0,0,0,342,279.57c.5,1.66,1,3.31,1.49,5s1.17,3.25,1.75,4.89c-.93-2.74-1.44-4.08-1.84-5.47s-.8-2.78-1.59-5.55a140.84,140.84,0,0,0,8.22,19c1.6,2.89,3.12,5.76,4.84,8.45s3.42,5.33,5.16,7.92c-.46-1-.67-1.64-1.08-2.59s-1.05-2.18-2.11-4.56c.94,1.89,2.07,3.67,3.12,5.5.47.55,1,1.2,1.56,1.94s1.24,1.5,1.9,2.35c1.33,1.68,2.74,3.6,4.29,5.43s3,3.74,4.49,5.36,2.74,3.14,3.87,4.2c-.62-.34-.13.41.88,1.64s2.48,3,4,4.52l-1-1.42a166.44,166.44,0,0,0,18.88,17.13c3.35,2.68,6.82,5.09,10.14,7.44s6.62,4.42,9.74,6.27a33.08,33.08,0,0,1,3.65,2.59l6.16,3.24c2.08,1,4.18,2,6.27,3-1.29.19,10.23,5.38,4,3,9.75,3.75,19.5,7.9,29.22,10.06a199.31,199.31,0,0,0,53.57,8.41A168.05,168.05,0,0,0,576,389.32l-.92,0c12.13-4.06,22.11-9.32,35.33-17.16A126.25,126.25,0,0,0,624,360.52c4-4.17,7.06-8.11,8-10.15l2.7-3.38c.84-1.05,1.5-2.13,2.18-3.11s1.33-1.92,1.88-2.88l1.61-2.82A115.18,115.18,0,0,0,646.52,325c-.86,1.31,0-1.47.77-3.9l.52-1.69c.14-.52.24-.95.28-1.21.09-.52-.07-.37-.69,1-1.86,3.5-2.54,5.42-3.43,7.12a31.51,31.51,0,0,1-3.44,6.07l.28-.07a99.31,99.31,0,0,1-32,32.81,133.38,133.38,0,0,1-43.14,17.74,141.91,141.91,0,0,1-32.34,4.53,195.85,195.85,0,0,1-33.4-1.89,216.95,216.95,0,0,1-66.79-20.85,58.78,58.78,0,0,1-5.67-3.34c-1.69-1.12-3.2-2.35-4.9-3.55a174.38,174.38,0,0,1-25.06-18.34A177.94,177.94,0,0,1,375,315.62l.61.84a105.54,105.54,0,0,1-8.49-12.8c-1.21-2.11-2.29-4.27-3.49-6.45l-1.67-3.4c-.57-1.16-1.18-2.33-1.72-3.57-.14.12-.83-1.41-1.25-2.12,0-.51-1.75-4.37-3.78-10.15a108.87,108.87,0,0,1-5.32-21.53,94.15,94.15,0,0,1-.38-22.55,73.09,73.09,0,0,1,2.29-11.69c.31-1.09.63-2.21.95-3.36l.68-2c.24-.68.54-1.33.81-2,.55-1.32,1.09-2.66,1.67-4,1.31-2.57,2.51-5.18,4.06-7.6,1.4-2.5,3.11-4.79,4.71-7.13.86-1.13,1.76-2.22,2.63-3.32.44-.55.85-1.12,1.32-1.64l1.41-1.55c7.39-8.38,16-14.92,24.16-20.28.81-.69,1.7-1.33,2.61-2l2.71-1.93c1.79-1.27,3.61-2.35,5.1-3.41a23.07,23.07,0,0,0,3.54-1.72,24.26,24.26,0,0,1,4-2c1.33-.31,2.58-.62,3.73-.93l1.66-.47,1.54-.38c1.95-.51,3.49-1,4.53-1.38,2.11-.67,2.19-1.07-.55-.51a135.89,135.89,0,0,1,24.93-6c1.79-.39,3.61-.63,5.42-.91s3.63-.59,5.48-.77a17.86,17.86,0,0,1,6.5.09c8-.52,5.69,0,14.11.24,1,.37,6.29.26,11.63.52l2,.06,1.95.13,3.57.25a31.51,31.51,0,0,1,4.39.51l-1.38-.14c2.41.42,4.61.88,6.69,1.34s4,1.11,6,1.66,3.86,1.23,5.87,1.82l3.11.9c1,.34,2.14.68,3.29,1,1.58.49,3.18.95,4.77,1.46l4.76,1.63,2.4.81,2.38.9,4.77,1.79c6.29,2.6,12.61,5.28,18.62,8.43a181.06,181.06,0,0,1,32.74,21.22c.58-.33-4.32-3.21-4-4.05A160.61,160.61,0,0,1,609.15,202a203.59,203.59,0,0,1,14.12,16.43,53.36,53.36,0,0,1,3.6,6,14.63,14.63,0,0,0,2,2.83,7.24,7.24,0,0,1,1.54,2l-.23.69c3,3.87,3.18,6.39,5.57,10.27a11.44,11.44,0,0,1,1.8,3c-.27.17.35,1.26.85,2.35s1,2.15.69,2.15l.06,0c.39.89.7,1.51,1.09,2.63.24.4.86,1.68,1.72,3.39.42.87,1,1.82,1.39,2.87s.94,2.15,1.41,3.25c.25.56.49,1.11.72,1.66s.42,1.11.61,1.64c.41,1.08.78,2.1,1.12,3s.6,1.72.8,2.35l.42,1.31.08.88c.57,2.54,1.1,3.59,1,2.06L650,276l-.1-.36.42,3.17c0,.6-.23,1.29-.56.42a30.91,30.91,0,0,1,.66,5.59,135.76,135.76,0,0,0-.78-16.67,38.87,38.87,0,0,1,.87,4.11c.23,1.55.35,3.13.57,4.3.08,2.85.14,8.66-.11,13.13.07,1,.65,1.68.28,3.91-.5,1.06,0,2.53-.61,4.34,0-2.13.13-4.2.27-6.36-.57.36-.52,5.22-1,6.88a27.68,27.68,0,0,1-.24,3.09c-.23,1.44-.54,3.09-.68,4.39-.16-.61-.33-.11-.53.72a16.69,16.69,0,0,1-.82,2.7c-.47,1.67-.53,2.81-.19,2.17.21.34.7-1.33,1.14-2.78s.72-2.71.82-1.43a37.87,37.87,0,0,0-1.53,5.76c.29.11.52-1.18.53.08-.67,2-1,4.19-1.65,5.23a12.56,12.56,0,0,1,.54-1.78c-.21.64-.16.05,0-1.14.1-.59.21-1.34.34-2.15s.18-1.72.28-2.61c.45-3.53.45-7,.28-5.26.1-.2.12.65,0,2s-.37,3.24-.58,5.08c-.63,3.67-1.39,7.26-1.1,6.41.64-1.53.17,1.32.79-.29l.21-1.94c.81-2.19,1.62-3,1.57-2.12-.64,1.88-.19-.94-.06-3.84.08-1.45.25-2.88.23-3.78s0-1.2-.08-.37l.37-1.3a16.43,16.43,0,0,1-.41,3.28,17,17,0,0,1-.94,3.21c.14,0,.13.53.05,1.21s-.33,1.51-.5,2.29l-.22.52c-.34,1.61-1.09,3.78-.39,2.89,1.41-4.61,1.69-2.89,2-1.06s.53,3.76,2.06-.84c-.92,1.84-1,1.45-.67.11.16-.67.41-1.58.7-2.58s.48-2.11.71-3.15a6.59,6.59,0,0,0,.78-1.54c.16-.43.37-.93.55-1.53s.33-1.26.5-2c.4-2.63,0-1.58-.06-2.11.47-1.41.82-4.2,1.15-3.79-.23-2.11.7-3.27.61-5.78-.11-2.2-.19.14-.33-1.42,0-.82.09-1.73.14-2.66s0-1.9,0-2.84c0-1.89,0-3.7-.11-5,.24-1,.57-4.19,1.27-2,.35,5-1-1.85-.45,3.37.27-1.15.49,0,.52,1.56a15,15,0,0,0,.41,4,30.36,30.36,0,0,0-.09-7.94l-.05.58c-.18-1.24-.32-3.12-.59-5a38.87,38.87,0,0,1-.48-5.19c.35.59.38-.63.71,1.2-.12-1.16-.34-2.29-.56-3.43-.17-.42-.35-.85-.21.15a19.82,19.82,0,0,1-.85-4.46,18.24,18.24,0,0,0-.84-2.92c-.27-.83-.58-1.79-.92-2.8s-.8-2.05-1.22-3.09-.83-2.08-1.22-3L649.46,251a23.34,23.34,0,0,1-1-2.28c-.43-1.16-.66-1.9-.91-2.63a11.56,11.56,0,0,0-1.14-2.47,32.9,32.9,0,0,0,1.49,3.22c.49,1,.94,2.14,1.48,3.37s1.13,2.51,1.63,3.82,1,2.59,1.41,3.75c.22.59.43,1.14.63,1.66l.46,1.43c.55,1.71.83,2.56.6,1.76a16.65,16.65,0,0,0-.44-1.78l-.45-1.52c-.2-.56-.42-1.17-.66-1.82-.48-1.31-1-2.79-1.62-4.34s-1.37-3.13-2.07-4.73c-2.91-6.36-6.41-12.29-6.53-13.1-.92-1.59-2.07-3.49-2.1-3-1.41-2.76.93.54.07-1.52-.06,0,0,.23-.37-.39s-.51-1.35-.79-2c-1.5-1.92-3-4.51-4.75-7-.86-1.23-1.7-2.5-2.59-3.64s-1.82-2.2-2.71-3.11c.57.48,1.22,1,2,1.66a21,21,0,0,1,2.75,2.8l.2.56c.34.33,2,2.49,2.16,2.27a41.31,41.31,0,0,0-5.43-7.27c-.31-.53-.68-1.14-.91-1.56,0,0,0,.09-.05.11-.52-1-.43-.89-.1-.65a1.08,1.08,0,0,1,.19.14c-.23-1.07-2.34-3.32-4.74-5.92-1.21-1.3-2.6-2.59-3.84-3.89-.62-.64-1.22-1.28-1.78-1.9s-1.11-1.17-1.57-1.71c-1.27-1.11-.22,0-1.8-1.38-1.9-2.22-3.65-3.95-5.38-5.75s-3.61-3.5-5.85-5.57c-1.72-1-1.92-1-.38.84-1.12-1-2.29-2-3.48-3,3.9,1.84-6.19-6-2-3.94a31,31,0,0,0-5.36-4.07,1.58,1.58,0,0,1-.91-.16,19.89,19.89,0,0,1-2.67-1.56c-3.6-2.76-2.73-2.13-5.74-4.38-.59-.73.65-.12.65-.42a19.68,19.68,0,0,1-4.52-3,18.57,18.57,0,0,0-4.26-2.95c-3-1.68-9.11-4.68-9.5-4.27a23.38,23.38,0,0,1-3.47-2C562.92,157.45,563.11,157.31,563.42,157.2Z"/><path class="cls-1" d="M544.24,199.42l.28-.79c-.69,2.63-1.64,5.33-2.61,8,3.44-5.4,7-11.94,4.39-17.57,2.19.07,4.71-5.41,4.24-5.67a38.44,38.44,0,0,1,.05-3.87q-.12,1.32-.18,2.64.06-1.32.18-2.64c.5-8.15,3.43-16.35,6.51-24.83,1.67-4.72,5.51-17.72,7.36-22.52l.75-2.11-1,2.31c.22-3.16.38-6,.7-8.77a5,5,0,0,0-1.41,1.41l.54-1.31c-.54-1.44.21-4.27.18-5.7.37.4.72-.63,1-1.54l-.38.29c1.06-3.48,1.72-7.66,2.54-10.8a1.65,1.65,0,0,1,.56-.89l.4-3.11c.54.38,1.14-2.37,1.16-.84-.16-2.44.85-4.63.63-7a207.16,207.16,0,0,0,4.14-24.29L574,70c.25-2.89-.36-5.63.82-8.94-.23-2.61.12-6.16-.91-7.42.47-2.84.09-4.1.39-6.91-.78.56-.14-2.84-.93-1.6-1.29,1.62-.57,1.89-1.63,3.28H572c-2.57,7-4.77,14.08-6.77,21.31-.63,5-2.28,10.16-3.35,15.25-1.08,5.5-2.1,11.48-2.73,16.27a6.13,6.13,0,0,1-1.34,2.71c-.77,4.35-2.35,9.75-3.21,14.67l.08-.23c-.54,2.59-1.67,4.35-2.19,6.88.17,0,.09.42.13.63-.91.23-2.06,15.18-2.76,15.94,0,.27-.07.55-.12.83-1.74,5.19-4.76,10.23-5.81,14.79a30.28,30.28,0,0,0,.38,3.22c-.57.71.07,1-.28,2-2.29,2-2,3.63-1.07,2.52-.31,2.07-1,4-1.43,5.86-.09.86-.19,1.72-.28,2.59a1.47,1.47,0,0,1-.89,1.33c-.26,1.88-.52,1.23-1.2,3.1-.69.3-.39,5-.71,5.51v-.33c-.71,2.17-2.22,3.33-2.85,5.46-2.07,5.86-3.46,12.5-5.21,18,.58.22.21-1.26,1-1.1-1,3.23-2.7,6.31-3.73,9.56a6.77,6.77,0,0,1-1.1,1.41c-.53,1,.11.7-.19,1.44l-.57,0c.12,1.25-1.07,1.47-1.15,2.59.2.12.12.51,0,.88-.57-.14-.29,1.17-.8,1l0,0a1.92,1.92,0,0,1-.27.64c.08.49.5,5,.61,5.48l-.15.18c-.16.6.19,1,.39.66l-.25.73V230l-.25.73a.37.37,0,0,1-.59-.09,2.11,2.11,0,0,1-.17,1.37,30.39,30.39,0,0,1,2.54-3.41c0,.55-.52,1.37-.61,1.93a14.93,14.93,0,0,0-1.84,2.74c0,.23.56.58.13,1-.52.12-.16.59-.6.93a3,3,0,0,1,.32-1.51c-.54-.07-.7,1.11-1,1.47.11.23-.34,1.14-.37,1.79-.42-.41-.46.4-.83.68-.18.39-.06.71.17.6.5.29.8-1.54,1.2-.8-.31.07-.45.9-.55,1.34.29.09.31-.23.51.13-.2.46,0,1.08-.38,1.26-.06-.11,0-.29.1-.43-.21.61-.95-3.95-1-3.09.32-.14.72,4.07.86,3.66s.45.43.67.06l-.23-.54c.27-.51.85-.58,1-.33-.31.89-1.28-3.15-1.2-2.29l.23-.27c.1.38,0,1.3-.4,1.55.29.09.27.56.27,1l-.09.12c0,.42-.18.93.27.79.6-2.23,2.56,2.33,3.35.24-.91.71-.57-.5-.38-1.47a1.82,1.82,0,0,0,1.06-1c.12-.6-.13-.42-.27-.58.25-.28.55-.87.87-.69-.28-.57.47-.65.49-1.25s-.19,0-.28-.41c.25-.72.61-1.72.85-2.28.39-.13,1.15-.65,1.5,0-.39,1.09-.68-.65-.91.53.87-.29-.1,1.07.4,1.44a2.44,2.44,0,0,0,.74-1.66l-.13.1a3.7,3.7,0,0,1,.79-2.19c.21.21.48,0,.43.43l.27-.74c-.06-.12-.11-.24-.23,0a1,1,0,0,1,.35-1c.29,0,0-4.34.14-4.17.15-.54.59-.56.47-1.17a28.44,28.44,0,0,0-.44,4.72c.43-.38.41-6.55,1-6.74.09-.4.17-.9-.13-.89.33-.64.47.35.87-.06,0,0-.15,0-.1-.15l.48-.36c-.12-1.18.88-2.57.63-3.83a4,4,0,0,1,.69,1.7l-.18.09c.06.12,0,.73.26.8a3.06,3.06,0,0,0,.43-2c.11-.11.23-.24.33-.32l-.11,0c.24-.19.26-.15.34,0a.18.18,0,0,1,0,.07c.93-.2.24-2.8,1-3.92,0-.4-.13-.07-.16-.57a29.43,29.43,0,0,0,1.73-3.24c-.23-.52-.35-.59-.86-.19l.39-1c.67,1.17,1.41-1.61,2.05-.35a2,2,0,0,0,.52-1.42c-.22-.12-.57-.32-.37-1,.58-.89.41-.69.93-1.42.35-.11.39.23.64.26,0-1.36,1-.91,1.24-2.11.11-.76.48-2.23,0-2.41C543.44,199.1,543.83,199.21,544.24,199.42Z"/><path class="cls-1" d="M580.5,80.17h.13a2.22,2.22,0,0,1-1.26.23c1.68,1.24,3.31,2.26,2.15-1.61,1,1.86,2.21,2.37,2,1.89a5.26,5.26,0,0,1,.07-1.1,3.74,3.74,0,0,0-.11.63,3.74,3.74,0,0,1,.11-.63c.33-2,1.81-1.88,3.33-1.65.82.08,2.8-.26,3.71,0a2.66,2.66,0,0,0,.37.07l-.47-.22a13.57,13.57,0,0,1,.62-1.84,5.62,5.62,0,0,0-.61-.86l.27.12c-.15-.9.27-1,.33-1.43.12.45.3.47.46.49l-.16-.27c.57,0,1-.58,1.49-.69.06,0,.17.12.25.26l.31-.49c.18.6.54.38.47.82.08-.8.55-.5.61-1.32a6.81,6.81,0,0,0,3-2.66l-.1-.21c.29-.52.3-1.8.92-1.57a6.66,6.66,0,0,0,.32-2.74c.38-.3.37-1,.7-1.41-.28-.59.21-.86-.14-1.28-.52-.78-.33,0-.77-.66l.07.2a8.46,8.46,0,0,0-3.95-.7c-.61.77-1.58.6-2.32,1a8,8,0,0,0-2.11,2c-.11.23-.41-.23-.66-.45-.57.5-1.49.63-2.11,1.24,0,0,0,0,0,0-.36.25-.89-.24-1.24,0,.07.17,0,.2,0,.3-.39-.76-1.59,2.55-1.9,2.16a.64.64,0,0,1-.08.14c-.94,0-2.44-1.16-3.07-.71a11.39,11.39,0,0,0,.05,1.29c-.27-.27,0,.38-.18.35-1.08-1.37-1-.62-.56-.17-.21.35-.57.35-.82.54-.07.17-.13.34-.2.53s-.21,0-.43-.35c-.17.34-.27-.07-.63-.09-.33-.5-.3,1.19-.46,1.07v-.1c-.37.07-1.1-.85-1.45-.73-1.09.06-1.86,1-2.78,1.21.29.56.12-.21.52.51-.53.16-1.39-.25-1.93-.08a3.42,3.42,0,0,1-.56-.46c-.27-.12,0,.31-.1.3l-.29-.48c.06.5-.55-.4-.59-.11s.06.26,0,.27c-.29-.51-.15.14-.41-.34l0,0s0,.06-.13,0c0,.22.25,2,.31,2.23l-.07-.07c-.08.07.1.47.21.54l-.13,0v0l-.12,0a1.59,1.59,0,0,1-.31-.5c0,.21,0,.35-.08.29a10.53,10.53,0,0,1,1.3,1c0,.22-.26,0-.3.12a3.93,3.93,0,0,0-.94-.61c0,.05.29.64.07.43-.27-.37-.07.06-.3-.18-.06-.26.07-.2.15-.23-.28-.46-.36-.21-.5-.31.06.17-.17.1-.18.28-.22-.47-.24-.24-.43-.45-.1,0,0,.18.09.32.27.5.41.15.63.71-.16-.22-.23-.07-.28,0,.16.26.17.17.28.45-.11,0,0,.34-.19.09,0-.08,0,0,0,0s-.55-2-.57-1.8c.17.22.42,1.88.49,1.86s.25.5.36.56l-.13-.36a1.87,1.87,0,0,1,.53.7c-.15,0-.71-2-.66-1.7l.12.1c.05.2,0,.43-.2.18a.8.8,0,0,1,.15.51l0,0c0,.17-.09.15.15.47.29-.22,1.4,2.78,1.79,2.75-.47-.5-.32-.61-.22-.76a1.85,1.85,0,0,0,.54.54c.06-.09-.08-.24-.15-.4a1.31,1.31,0,0,1,.45.48c-.15-.4.24.17.24,0s-.1-.16-.16-.36a1.51,1.51,0,0,1,.42,0,5.39,5.39,0,0,1,.78,1.21c-.18,0-.36-.76-.46-.57.45.61,0,.26.22.77.23.27.33.21.37.08l-.07-.08c0-.13.09-.35.38,0,.11.24.25.4.23.48h.12c0-.08-.06-.17-.12-.2,0-.21.05-.14.17,0s0-1.34,0-1.18c.07-.05.29.31.23,0s-.24,1.24-.19,1.11c.22.23.15-1.71.46-1.27.05-.05.09-.14-.07-.38.17.06.24.49.44.68,0,0-.07-.12,0-.12l.24.28c-.07-.47.42-.09.29-.68a6.32,6.32,0,0,1,.36,1.09l-.09-.12a1.25,1.25,0,0,0,.14.47c.18.11.24,0,.2-.28l.16.18,0-.1a.72.72,0,0,1,.17.27l0,.06c.47.7.11-.66.49-.37,0-.13-.06-.13-.08-.31a3.85,3.85,0,0,0,.85.44,1.94,1.94,0,0,0-.43-.78l.19,0c.34.92.69.67,1,1.59.14.18.24.17.24,0s-.27-.56-.18-.61c.29.21.2.13.46.34s.19.4.31.62c0-.45.46.53.6.39s.23-.27,0-.76C580.12,79.41,580.3,79.77,580.5,80.17Z"/><path class="cls-1" d="M579.78,87l-.09,0c.18-.12.46,0,.75.11-1.16-1.56-2.21-2.92-1.17.94-.78-2-1.53-2.75-1.36-2.25a7.62,7.62,0,0,1,.05,1,4.61,4.61,0,0,0,0-.55,4.61,4.61,0,0,1,0,.55c0,1.76-.94,1.31-1.84.73-.48-.28-1.6-.43-2.13-.93l-.22-.16.28.32a10.47,10.47,0,0,1-.26,1.6c.12.29.2.57.39,1l-.16-.17c.13.88-.11.9-.13,1.28-.09-.45-.19-.52-.28-.57l.1.29c-.33-.12-.57.33-.83.33,0,0-.11-.15-.16-.3l-.16.4c-.12-.61-.32-.49-.29-.89,0,.75-.3.36-.31,1.13a3.22,3.22,0,0,0-1.67,1.94l.05.23c-.16.44-.18,1.68-.54,1.33a10.46,10.46,0,0,0-.22,2.61c-.22.21-.23.86-.44,1.23.15.62-.14.8,0,1.27.3.86.2.11.45.8l0-.21a4.76,4.76,0,0,0,2.38,1.45c.38-.62,1-.27,1.43-.53a4.28,4.28,0,0,0,1.29-1.48c.06-.2.26.3.41.57.35-.37.92-.29,1.29-.74h0c.22-.17.56.42.78.25a.88.88,0,0,1,0-.29c.28.8.92-2.09,1.12-1.64a.83.83,0,0,1,0-.12c.59.22,1.59,1.65,2,1.36,0-.41,0-.77-.1-1.23.19.33,0-.35.1-.28.76,1.53.67.81.36.28.12-.27.35-.2.49-.31a4.57,4.57,0,0,0,.1-.46c0-.15.14.07.3.44.09-.28.18.13.41.23.25.54.12-1.05.23-.9v.1c.24,0,.77,1.05,1,1,.71.2,1.15-.45,1.74-.47-.23-.58-.06.18-.38-.58.34,0,.93.56,1.28.53a4,4,0,0,1,.41.56c.19.17-.06-.3.05-.25l.23.51c-.08-.47.4.5.4.24s-.06-.25,0-.25c.24.55.09-.08.3.42l0,0s0-.05.1,0c0-.22-.33-1.87-.4-2.12l.06.08a1.18,1.18,0,0,0-.19-.53h.08v0h.08a3,3,0,0,1,.25.53c0-.2,0-.33,0-.25a13.1,13.1,0,0,1-1-1.2c0-.2.17.05.2,0a4.17,4.17,0,0,0,.68.78s-.26-.65-.09-.4,0,0,.22.24,0,.16-.08.16c.23.49.26.29.36.41-.05-.16.11,0,.1-.21.19.49.18.28.33.52.07,0,0-.16-.09-.32-.23-.52-.29-.24-.49-.8.13.24.16.13.19.09a3.49,3.49,0,0,1-.23-.48c.07,0,0-.32.12,0,0,.08,0,0,0,0s.56,2,.55,1.77-.45-1.81-.5-1.81-.22-.51-.3-.59l.12.35a3.75,3.75,0,0,1-.42-.76c.11,0,.67,2,.61,1.7l-.09-.12c-.06-.2-.05-.39.11-.11a1.47,1.47,0,0,1-.15-.51l0,0a.86.86,0,0,0-.15-.46c-.17.13-1.2-2.86-1.46-2.94.36.58.27.64.22.75a2.74,2.74,0,0,0-.41-.63c0,.07.07.24.14.4a2.2,2.2,0,0,1-.34-.54c.14.4-.18-.22-.16-.07s.08.17.13.37a1.14,1.14,0,0,1-.27-.08,13.1,13.1,0,0,1-.63-1.29c.12,0,.32.78.37.63-.36-.67,0-.23-.23-.76-.17-.29-.23-.27-.24-.16l0,.09c0,.11,0,.29-.24-.06a2.29,2.29,0,0,1-.2-.49l-.08,0a.59.59,0,0,0,.1.21c0,.2,0,.11-.11,0s.16,1.22.09,1.06c0,0-.22-.36-.15-.08s0-1.07,0-1c-.16-.26.07,1.51-.17,1,0,0,0,.1.08.36-.11-.1-.2-.51-.35-.74,0,0,.06.13,0,.13l-.18-.32c.09.45-.27,0-.13.55-.09-.29-.28-.81-.33-1.09l.07.13a2.46,2.46,0,0,0-.13-.45c-.13-.15-.16-.09-.1.2l-.13-.21,0,.11a1.08,1.08,0,0,1-.13-.29l0-.06c-.36-.76,0,.57-.27.21,0,.13,0,.14.08.3a6,6,0,0,0-.57-.61,3,3,0,0,0,.34.82l-.13-.08c-.29-.92-.49-.79-.78-1.71-.1-.19-.16-.22-.15-.06s.23.59.17.61c-.2-.26-.13-.16-.31-.42s-.16-.41-.25-.65c0,.42-.34-.6-.41-.51s-.11.19.08.7C580.08,87.83,579.93,87.45,579.78,87Z"/><path class="cls-1" d="M567.19,121.27h.09c-.14.17-.44.15-.75.11,1.56,1.16,3,2.17.85-1.23,1.31,1.66,2.26,2.19,2,1.76a8.09,8.09,0,0,1-.34-1,3.43,3.43,0,0,0,.15.54A3.43,3.43,0,0,1,569,121c-.47-1.69.53-1.52,1.55-1.22a9.29,9.29,0,0,1,2.32.28l.25.09-.36-.23a11.5,11.5,0,0,1-.21-1.61,8.53,8.53,0,0,0-.65-.8l.2.12c-.37-.81-.15-.9-.24-1.27.21.41.34.44.44.46l-.18-.24c.34,0,.44-.48.7-.56,0,0,.14.12.23.25l0-.43c.29.55.45.37.53.77-.19-.73.19-.43,0-1.18a3.19,3.19,0,0,0,1-2.34l-.11-.2c0-.47-.31-1.66.13-1.42a10.46,10.46,0,0,0-.54-2.57c.16-.27,0-.9.08-1.31-.33-.55-.1-.8-.41-1.2-.53-.74-.22,0-.66-.64l.1.19a4.81,4.81,0,0,0-2.7-.71c-.18.71-.85.54-1.21.92a4.16,4.16,0,0,0-.81,1.79c0,.21-.34-.22-.57-.43-.22.45-.79.54-1,1.08h0c-.16.22-.66-.25-.82,0a.83.83,0,0,1,.11.27c-.5-.7-.28,2.26-.6,1.89a.45.45,0,0,1,0,.12c-.63,0-2-1.12-2.28-.74.14.39.25.74.44,1.15-.27-.25.12.34,0,.31-1.17-1.26-.88-.59-.43-.17,0,.29-.27.29-.38.44s0,.3,0,.46-.15,0-.42-.33c0,.3-.2-.07-.46-.1-.39-.45.19,1,0,.92l0-.08c-.24,0-1-.79-1.24-.7-.74,0-1,.76-1.53.94.38.49,0-.18.52.46-.31.12-1-.28-1.37-.15a3.56,3.56,0,0,1-.56-.42c-.23-.1.14.27,0,.26l-.37-.42c.21.42-.53-.37-.46-.12s.13.22.09.23c-.38-.45-.06.11-.41-.31l0,0s0,0-.1,0c.1.19.85,1.69,1,1.91l-.08-.06s.24.4.33.46l-.08,0,0,0-.07,0a2.78,2.78,0,0,1-.4-.44c.11.18.15.3,0,.24a13.9,13.9,0,0,1,1.26.88c.09.18-.18,0-.18.09a4.54,4.54,0,0,0-.88-.56s.44.55.2.36,0,.06-.28-.17,0-.16,0-.17c-.37-.41-.34-.2-.47-.29.1.14-.09.07,0,.23-.33-.41-.26-.22-.47-.4-.08,0,0,.15.18.27.37.44.34.15.7.63-.2-.19-.19-.07-.21,0a3.26,3.26,0,0,1,.36.39c-.08,0,.13.29-.11.07-.05-.07,0,0,0,0s-1.09-1.72-1-1.53.95,1.6,1,1.58.35.43.45.49l-.22-.31a3,3,0,0,1,.62.61c-.1,0-1.21-1.74-1.06-1.45l.12.09c.11.17.16.35-.08.13a1.48,1.48,0,0,1,.29.45l-.05,0a.82.82,0,0,0,.28.4c.13-.18,2,2.4,2.24,2.39-.51-.44-.44-.53-.43-.65a3.07,3.07,0,0,0,.58.48c0-.07-.14-.2-.25-.34a2.09,2.09,0,0,1,.48.42c-.25-.34.23.16.17,0s-.12-.14-.23-.31a.66.66,0,0,1,.28,0,8.85,8.85,0,0,1,1,1.06c-.12,0-.52-.66-.52-.51.53.54.06.22.43.66.25.24.3.2.28.09l-.07-.07c0-.11-.06-.29.24,0a2.22,2.22,0,0,1,.33.42h.09a.53.53,0,0,0-.16-.17c-.11-.18,0-.11.11,0s-.5-1.12-.39-1c0,0,.31.28.16,0s.28,1,.27.92c.23.21-.5-1.42-.13-1,0,0,0-.12-.18-.33.13.07.33.43.54.61,0,0-.1-.11-.08-.11l.27.25c-.22-.4.26,0,0-.56.17.25.49.69.63.95l-.11-.11a2.52,2.52,0,0,0,.26.4c.17.11.17,0,0-.22l.17.16-.07-.09a1.25,1.25,0,0,1,.21.24l0,0c.56.63-.16-.55.2-.28,0-.11-.09-.11-.16-.26a6.34,6.34,0,0,0,.72.42,3,3,0,0,0-.55-.69l.14,0c.54.8.7.61,1.23,1.41.16.16.23.16.16,0s-.38-.5-.33-.53l.42.32c.21.23.26.35.42.54-.17-.38.5.48.54.38s.06-.22-.28-.65C566.67,120.6,566.92,120.92,567.19,121.27Z"/><path class="cls-1" d="M562.08,100.43l-.17-.19a4.91,4.91,0,0,1,1.67,1.8,4.4,4.4,0,0,0-1.12-3.35c-.81-.67-2.09-.62-3.43,1a3,3,0,0,0-.31-2.51c-.33-.55-.78-.78-.85-.53a9.81,9.81,0,0,1-1.25.75c.26-.11.54-.23.82-.38-.28.15-.56.27-.82.38a6.23,6.23,0,0,1-3.32.79,21.12,21.12,0,0,1-3.22-.52,18,18,0,0,0-2.73,0,13.79,13.79,0,0,1-2.63,0l-.49-.05.6.2a22.24,22.24,0,0,1-1.12,2,4.81,4.81,0,0,0,.68.84l-.33-.1c.08.91-.45,1.08-.56,1.53-.12-.45-.35-.45-.55-.44l.18.25c-.73.1-1.33.78-1.94,1-.08,0-.22-.09-.32-.21l-.4.6c-.25-.57-.73-.22-.64-.71-.08.87-.73.72-.73,1.61a7.28,7.28,0,0,0-3,4.38l.19.13c-.13.71.49,1.86-.22,2.11.37.88.39,1.63,1.43,2.43-.08.46.42.92.57,1.39.62.17.54.64,1.08.66.9.19.22-.14.93,0l-.19-.09a14.22,14.22,0,0,0,2.68-.61c0-.73.74-.78,1.12-1.25a13.09,13.09,0,0,0,1.26-2.1c.06-.24.41.19.66.4.43-.54,1.27-.67,1.84-1.27,0,0,0,0,0,0,.33-.25.85.26,1.18,0-.06-.17,0-.21,0-.3.34.75,1.65-2.42,1.94-2a.4.4,0,0,1,.1-.12c.9.15,1.92,1.63,2.38,1.43.06-.41.15-.77.22-1.23.12.36.09-.35.22-.26.37,1.69.46,1,.32.38.23-.23.46-.09.65-.13l.3-.38c.09-.13.11.13.09.53.22-.22.11.19.25.39-.1.58.62-.83.66-.63l-.06.08c.17.17-.18,1.24-.13,1.34a.36.36,0,0,0,.28.36c.13.08.3.13.3.3.46-.42-.13,0,.46-.52.07.25-.47.8-.5,1a5.43,5.43,0,0,1-.56.38c-.2.13.26-.13.2-.07l-.5.26c.43-.19-.54.28-.33.19l.22-.09a4.58,4.58,0,0,1-.46.19h0l-.07,0a10.09,10.09,0,0,1,1-.29c.45-.11.9-.17,1-.19l-.1,0a1.83,1.83,0,0,0,.55-.09l0,0h0l0,.05a5.17,5.17,0,0,1-.57.11c.2,0,.31,0,.21,0a14.55,14.55,0,0,0,1.41-.53c.2,0-.08.14,0,.17-.38.13-.7.27-1,.36,0,0,.67-.06.38,0-.44.06,0,0-.3.09s-.13,0-.1-.07a1.29,1.29,0,0,0-.51.13c.16,0,0,0,.13.08a2.65,2.65,0,0,0-.59,0c-.07,0,.13,0,.31,0,.53,0,.33-.08.89-.07-.26,0-.18.06-.16.09.29,0,.22,0,.5,0-.07,0,.27.08,0,.09-.08,0,0,0,0,0s-.48-.05-.93-.08a7.67,7.67,0,0,0-.78,0,6.25,6.25,0,0,1,1,0c.39,0,.75.12.76.1s.52,0,.63,0l-.35,0a3.63,3.63,0,0,1,.83,0,5.6,5.6,0,0,1-1-.07,3.86,3.86,0,0,0-.71,0l.15,0c.18,0,.33.06,0,.09a1.18,1.18,0,0,1,.48,0h-.05a.81.81,0,0,0,.45.06,4.12,4.12,0,0,1,1.47,0c.74.06,1.5.16,1.63,0-.67.12-.64-.06-.69-.18a2.13,2.13,0,0,0,.75-.19c0-.09-.23,0-.39,0a1.48,1.48,0,0,1,.62-.18c-.4,0,.27-.14.14-.22s-.18,0-.37,0a2.81,2.81,0,0,1,.19-.39,5.13,5.13,0,0,1,1.39-.31c-.06.22-.83.06-.71.25.74-.21.21.15.78.12.34-.12.33-.27.24-.38l-.1,0c-.11-.09-.26-.27.11-.47.27,0,.46-.13.53-.06l0-.17c-.09,0-.18,0-.23.06-.21,0-.11-.12,0-.22s-.18-.19-.52-.28-.7-.16-.62-.18.36-.27.06-.27c-.1,0,.18.19.5.34s.61.33.55.26c.15-.09-.26-.32-.65-.5s-.78-.31-.54-.46c0-.06-.13-.12-.39,0,.08-.18.51-.2.72-.4,0,0-.12.07-.13,0l.29-.24c-.49,0-.12-.55-.74-.45a3.74,3.74,0,0,1,1.12-.31l-.12.1a1.14,1.14,0,0,0,.49-.09c.09-.23,0-.33-.34-.33,0-.06.1-.13.16-.19l-.1.06a.47.47,0,0,1,.26-.19l.06,0c.65-.53-.77-.25-.59-.71-.15,0-.12.08-.31.09a2.66,2.66,0,0,0,.08-1.14,1.23,1.23,0,0,0-.65.6l-.07-.25c.86-.48.36-1,1.22-1.45.11-.21,0-.36-.2-.35-.18.16-.47.42-.6.3,0-.41,0-.28,0-.66s.31-.31.47-.51c-.53.08.2-.72-.12-.9s-.59-.29-.92.16C561.58,101.12,561.8,100.78,562.08,100.43Z"/><path class="cls-1" d="M639,232.3l.07,0c-.12.11-.36,0-.61-.09,1.25,1.45,2.32,2.75.72-.91,1,1.86,1.75,2.59,1.52,2.12s-.19-.69-.25-1c0,.16.06.34.11.54,0-.2-.08-.38-.11-.54-.32-1.67.49-1.26,1.28-.71.43.26,1.3.4,1.78.87l.19.16-.26-.31a13.13,13.13,0,0,1-.07-1.56c-.14-.28-.24-.55-.45-.92l.15.16a3,3,0,0,1-.1-1.25c.13.44.23.5.3.55l-.12-.28c.27.11.39-.34.59-.34,0,0,.1.15.17.3l.06-.4c.18.59.32.47.35.86-.09-.73.18-.35.09-1.11.43-.23.79-.82,1-1.95l-.07-.22c.08-.44,0-1.67.27-1.33a13.51,13.51,0,0,0-.1-2.59c.16-.22.1-.87.24-1.24-.19-.61,0-.8-.16-1.26-.33-.84-.18-.1-.45-.78l.05.21a4,4,0,0,0-2.14-1.34c-.25.63-.78.3-1.14.58a3.56,3.56,0,0,0-.9,1.51c0,.2-.25-.28-.42-.54-.24.38-.73.33-1,.78a0,0,0,0,1,0,0c-.15.17-.53-.39-.68-.22a1.22,1.22,0,0,1,.06.29c-.36-.78-.46,2.07-.69,1.65a.35.35,0,0,1,0,.11c-.52-.19-1.59-1.53-1.87-1.23.09.39.15.75.28,1.19-.21-.31.07.34,0,.28-.89-1.46-.7-.76-.35-.26-.05.27-.26.21-.36.32s0,.29,0,.45-.12-.06-.33-.41c0,.28-.17-.11-.39-.2-.3-.51.09,1,0,.88l0-.09c-.2,0-.84-1-1-.94-.64-.15-.91.5-1.4.55.3.54,0-.17.43.54-.28,0-.91-.49-1.2-.44a5.72,5.72,0,0,1-.46-.51c-.2-.16.11.28,0,.24l-.3-.47c.16.44-.44-.46-.4-.22s.1.24.06.24c-.31-.5-.06.09-.34-.37l0,0s0,0-.09,0c.08.2.65,1.77.76,2l-.07-.08a1.34,1.34,0,0,0,.27.51h-.07v0h-.07a3.78,3.78,0,0,1-.33-.5c.09.2.11.31,0,.24a14.26,14.26,0,0,1,1.06,1.09c.07.19-.16,0-.16,0a5.18,5.18,0,0,0-.74-.7s.35.6.16.38c-.27-.38,0,0-.25-.22s0-.16,0-.16c-.3-.45-.29-.26-.4-.37.08.16-.08.05,0,.2-.27-.44-.22-.25-.4-.47-.06,0,0,.16.15.3.3.48.3.21.58.73-.16-.22-.16-.11-.18-.07.17.26.15.19.3.45-.07,0,.1.29-.1,0,0-.08,0,0,0,0s-.88-1.83-.83-1.65.76,1.69.8,1.69.29.47.37.55l-.17-.34a4.24,4.24,0,0,1,.51.7c-.09,0-1-1.87-.86-1.57l.1.1c.09.19.12.37-.08.12a1.33,1.33,0,0,1,.23.47l0,0a.84.84,0,0,0,.22.43c.12-.13,1.62,2.65,1.86,2.7-.43-.52-.37-.58-.35-.69a3.51,3.51,0,0,0,.48.57c0-.06-.11-.22-.2-.36a2.5,2.5,0,0,1,.4.49c-.2-.37.19.2.15.05s-.11-.15-.19-.33a.84.84,0,0,1,.24.06,12.39,12.39,0,0,1,.8,1.2c-.1,0-.43-.73-.44-.59.44.62,0,.21.35.71.21.27.26.24.24.14l-.06-.08c0-.1,0-.28.21,0a3.89,3.89,0,0,1,.27.46l.07,0a.63.63,0,0,0-.13-.2c-.09-.19,0-.1.1,0s-.4-1.15-.31-1c0,0,.26.33.14.07s.2,1,.2.9c.19.25-.38-1.42-.08-1,0,0,0-.1-.14-.34.11.09.27.47.44.68,0,0-.08-.12-.06-.11l.21.29c-.16-.42.22,0,0-.53.14.28.4.76.5,1l-.09-.13a2.43,2.43,0,0,0,.21.43c.14.14.14.08,0-.19l.14.19-.06-.1a1.37,1.37,0,0,1,.17.27l0,.06c.46.71-.11-.55.18-.21,0-.12-.07-.13-.13-.28a6.89,6.89,0,0,0,.59.56,3.65,3.65,0,0,0-.44-.76l.12.06c.42.87.56.74,1,1.61.12.18.18.2.13,0s-.3-.55-.26-.57c.21.25.14.15.34.4s.21.39.33.6c-.13-.39.39.57.43.48s0-.18-.21-.66C638.59,231.55,638.78,231.9,639,232.3Z"/><path class="cls-1" d="M632.59,217l.13,0a2,2,0,0,1-1.15.38c1.79,1,3.57,1.76,1.74-1.84,1.31,1.67,2.55,2,2.26,1.55a7.18,7.18,0,0,1-.16-1.09c0,.2,0,.41,0,.64,0-.23,0-.44,0-.64-.08-2,1.31-2.1,2.79-2.17.79-.07,2.57-.8,3.5-.72h.37l-.5-.11a13.51,13.51,0,0,1,.09-1.9,6.06,6.06,0,0,0-.8-.68l.28.05c-.38-.82,0-1-.1-1.43.24.39.42.38.56.36l-.22-.22c.52-.14.76-.78,1.16-1,.05,0,.19.07.3.18l.14-.54c.34.52.61.23.67.66-.17-.78.35-.61.15-1.4a5.67,5.67,0,0,0,1.79-3.28l-.16-.17c.08-.57-.36-1.76.27-1.71a7,7,0,0,0-.73-2.63c.22-.38,0-1,.08-1.49-.46-.46-.15-.85-.6-1.13-.74-.57-.3.05-.9-.4l.13.17a7.45,7.45,0,0,0-3.55.36c-.23.84-1.1.93-1.58,1.49a6.84,6.84,0,0,0-1.14,2.29c0,.24-.42-.13-.71-.29-.32.6-1.08.88-1.42,1.57h0c-.24.31-.84-.06-1.07.24.11.14.07.18.11.28-.55-.65-.65,2.66-1,2.34a.54.54,0,0,1,0,.15c-.83.14-2.43-.73-2.86-.23.12.4.2.78.37,1.21-.31-.22.09.36-.08.36-1.28-1.16-1-.47-.53-.09-.1.35-.42.4-.59.6s0,.34-.05.53-.19,0-.47-.29c-.07.35-.25,0-.58,0-.4-.44,0,1.17-.16,1.07v-.1c-.32.1-1.17-.7-1.44-.56-1,.15-1.45,1.06-2.21,1.36.37.51.06-.21.56.45-.44.19-1.28-.16-1.72,0a3.9,3.9,0,0,1-.59-.41c-.25-.1.11.29,0,.29l-.34-.45c.14.47-.56-.36-.55-.08s.1.24,0,.26c-.35-.48-.11.13-.42-.31l0,0s0,.05-.12,0c.08.21.57,1.87.67,2.11l-.08-.06c-.06.06.17.44.28.5l-.11,0v0l-.11,0a1.88,1.88,0,0,1-.36-.47c.08.2.09.33,0,.28a12.47,12.47,0,0,1,1.32.88c.06.21-.23,0-.25.12a4.47,4.47,0,0,0-.94-.55s.36.6.13.41c-.3-.35-.06.06-.3-.17s0-.19.1-.21c-.33-.43-.35-.2-.49-.29.08.16-.14.1-.12.27-.28-.44-.25-.23-.46-.42-.08,0,0,.17.14.31.32.46.39.13.67.66-.18-.21-.22-.07-.25,0a2.45,2.45,0,0,1,.31.43c-.09,0,.07.33-.15.09,0-.07,0-.05,0-.05s-.79-1.92-.78-1.7c.18.2.67,1.78.73,1.76s.29.47.4.52l-.17-.34a2.25,2.25,0,0,1,.58.66,16,16,0,0,1-.85-1.6l.12.09c.08.19.08.4-.15.17a1,1,0,0,1,.22.49l0,0c0,.15-.05.14.21.44.23-.22,1.67,2.63,2,2.59-.5-.47-.37-.58-.31-.73a1.94,1.94,0,0,0,.58.5c0-.09-.11-.23-.2-.38a1.48,1.48,0,0,1,.48.44c-.2-.38.24.16.22,0s-.11-.14-.19-.34a1.2,1.2,0,0,1,.38,0,6.33,6.33,0,0,1,.89,1.12c-.17,0-.45-.71-.51-.52.5.57,0,.25.32.73.24.25.33.19.35.06l-.08-.07c0-.13,0-.35.35-.07.14.22.29.36.28.45l.12,0a.41.41,0,0,0-.14-.19c-.08-.2,0-.13.15,0s-.24-1.29-.15-1.14c.06-.05.33.28.22,0s0,1.22,0,1.08c.23.21-.12-1.65.23-1.25,0-.05.06-.14-.12-.36.16.05.29.45.51.63,0,0-.09-.11-.07-.12l.27.25c-.14-.44.38-.11.16-.68a6.66,6.66,0,0,1,.51,1l-.1-.11a1.18,1.18,0,0,0,.2.43c.19.1.23,0,.14-.28a1.37,1.37,0,0,1,.18.16l-.06-.09a.8.8,0,0,1,.2.25l0,.05c.55.64,0-.65.39-.41,0-.12-.08-.11-.12-.28a3.89,3.89,0,0,0,.86.34,1.82,1.82,0,0,0-.53-.71h.19c.46.85.76.58,1.21,1.44.16.16.26.14.23,0s-.36-.52-.27-.58c.3.18.2.1.48.28a6.14,6.14,0,0,1,.4.56c-.1-.43.53.46.63.32s.17-.29-.15-.74C632.1,216.32,632.34,216.65,632.59,217Z"/><path class="cls-1" d="M620.88,199.72H621c0,.14-.26.16-.52.17,1.79.64,3.41,1.13,0-1,1.88,1,2.88,1.2,2.42,1s-.57-.44-.77-.61l.4.35-.4-.35c-1.27-1.12-.44-1.13.48-1.12a9.86,9.86,0,0,1,1.84-.27h.23l-.39-.08c-.43-.4-.85-.78-1.11-1.06-.28-.13-.54-.26-.94-.42l.21,0a4.54,4.54,0,0,1-.94-.8c.4.23.51.23.59.22l-.28-.13c.25-.06,0-.41.14-.52s.17.05.31.12L622,195c.54.3.53.15.84.39-.59-.44-.14-.32-.76-.78.1-.37-.13-.94-.86-1.77l-.2-.1c-.3-.32-1.31-1-.88-.95a15.45,15.45,0,0,0-2.09-1.5c-.09-.2-.63-.56-.86-.84-.58-.27-.62-.47-1.09-.65-.82-.35-.16,0-.83-.26l.19.1a4.15,4.15,0,0,0-2.08.07c.36.46-.15.48-.12.77a3.21,3.21,0,0,0,.66,1.24c.14.14-.35-.08-.63-.18.15.32-.17.45,0,.82h0c0,.16-.58-.07-.55.09a1.56,1.56,0,0,1,.24.16c-.75-.38,1.21,1.47.77,1.28a.33.33,0,0,1,.06.08c-.45.05-2-.5-2-.24.32.23.61.45,1,.7-.34-.14.28.2.17.19-1.55-.7-1-.3-.4-.07.16.2,0,.21,0,.32l.29.3c.11.09-.12,0-.48-.18.17.19-.19,0-.38,0-.54-.27.72.65.54.59l-.07-.06c-.14.05-1.18-.43-1.28-.37-.52.05-.28.54-.59.69.54.29-.1-.12.63.27-.17.09-.93-.14-1.09-.05s-.46-.17-.64-.25.25.17.16.16l-.5-.26c.38.27-.58-.22-.4-.07s.21.14.19.15c-.53-.28,0,.07-.47-.19l0,0s0,0-.08,0l1.73,1.2-.09,0a1.73,1.73,0,0,0,.48.29l0,0,0,0h0a3.79,3.79,0,0,1-.52-.27c.17.11.26.19.15.15.35.13.84.31,1.4.55.17.11-.13,0-.08.06-.37-.16-.69-.26-.95-.35,0,0,.6.35.33.24s0,0-.3-.11-.09-.11-.06-.12c-.48-.25-.35-.12-.5-.17.15.09,0,0,.09.14a2.07,2.07,0,0,0-.56-.25c-.06,0,.11.1.28.18.49.27.33.09.84.39-.24-.12-.18,0-.16,0,.27.15.21.1.46.25-.07,0,.25.19,0,0-.07,0,0,0,0,0s-1.7-1.11-1.56-1,1.53,1,1.56,1,.48.27.59.31l-.32-.2a6.21,6.21,0,0,1,.77.39c-.06,0-1.79-1.11-1.53-.93l.13.06c.17.11.3.23,0,.09a2.24,2.24,0,0,1,.44.28l0,0a1.44,1.44,0,0,0,.41.26c0-.12,2.7,1.53,2.91,1.52-.62-.28-.61-.34-.65-.41.2.1.51.24.68.3a1.8,1.8,0,0,0-.36-.22,4.13,4.13,0,0,1,.58.26c-.36-.22.25.1.14,0s-.17-.08-.34-.19a.53.53,0,0,1,.22,0c.3.14.83.39,1.28.66-.09,0-.73-.42-.66-.31.68.33.16.14.66.42.31.15.33.12.26,0l-.09,0c-.08-.07-.19-.19.18,0a4.54,4.54,0,0,1,.46.26h.06a1.36,1.36,0,0,0-.2-.11c-.17-.11-.06-.07.08,0s-1-.73-.8-.64.38.16.14,0,.73.69.67.61c.28.13-1.1-.93-.62-.69,0,0,0-.08-.31-.21.14,0,.48.27.73.37,0,0-.13-.06-.12-.07l.33.16c-.36-.26.18,0-.31-.38.27.16.74.44,1,.6l-.14-.07a4,4,0,0,0,.4.26c.18.06.15,0-.08-.16l.22.1-.1,0,.28.14.06,0c.74.38-.41-.36,0-.21l-.25-.16c.32.1.56.18.76.22a5.64,5.64,0,0,0-.77-.42l.12,0c.83.49.85.35,1.68.85.2.09.25.09.13,0a2.41,2.41,0,0,1-.54-.34l.49.18c.28.14.38.21.6.33-.32-.24.63.28.61.2s-.07-.16-.55-.42A3,3,0,0,1,620.88,199.72Z"/><path class="cls-1" d="M57,218.62l0-.18a2.49,2.49,0,0,1,.39.76,7.93,7.93,0,0,1,.31.9,7.07,7.07,0,0,0,.56-2.67c-.16-.55-.84-.64-2.87-.28a6.59,6.59,0,0,0,1.93-1.36c.34-.36.42-.56.16-.5a3.48,3.48,0,0,1-1.06-.27,2.14,2.14,0,0,0,.59.24,2.14,2.14,0,0,1-.59-.24c-1.88-.93-1.08-2.49.2-3.3a11.31,11.31,0,0,1,1.37-1.08,2.58,2.58,0,0,1,1.6-.5,1.6,1.6,0,0,0,.31,0l-.44-.12a5.49,5.49,0,0,1-.06-1,3,3,0,0,1,.13-.85,4,4,0,0,0-.74-.77l.3.07c-.26-.88.24-1.06.32-1.5.13.45.33.45.5.48l-.16-.27c.62,0,1.22-.51,1.79-.52.08,0,.15.17.19.33l.52-.37c-.05.61.41.58.15.94.42-.71.76-.2,1.3-.88l2.36.38,2.81.54.12-.21c.36.08.88,0,1.35,0s.89.21,1,.69c1,0,1.92.61,3.21.27.54.72,1.31.78,1.94,1.6.26-.23.52-.06.76.09s.41.22.6,0c.62-.94-.11-.74.35-1.57l-.19.09a12.64,12.64,0,0,0-3.85-8.12c-1.89-.86-3.53-2.33-5.59-2.94a12.75,12.75,0,0,0-6.66,0c-.45.2-.79-.35-1.22-.6-1.79.4-4.14.82-5.77,2l.09,0c-.87.55-1.89.37-2.68,1.06.1.15,0,.25,0,.37-.31-.3-1.31.95-2,2.34-.35.67-.61,1.4-.84,1.91s-.36.9-.51.9a2.47,2.47,0,0,1-.1.29,9.22,9.22,0,0,1-1.18,1l-1.29,1.07a9.61,9.61,0,0,0-1.09,1.23,3.85,3.85,0,0,0-.6,1.37,7,7,0,0,0,.91,1.43c-.41.26.25.43.11.79-.89.37-1.18.78-1.16,1s.35.25.67,0c.18.82,0,1.67.15,2.35a9.93,9.93,0,0,0,.49.91c.17.25,0,.43-.42.63.37.65-.08.52-.1,1.3-.54.35,1.4,1.54,1.31,1.73l-.12-.08c.19.78-.69,1.76-.36,2.53.6,2.31,2.36,4.05,3.4,5.62.49-.37-.37-.24.25-.77.61.93.77,2.28,1.46,3.14a2.63,2.63,0,0,1-.12.86c.08.42.35-.06.48.17l-.38.43c.59-.07,0,.82.37.9.17-.15.29-.08.36,0-.4.44.31.23-.08.61l0,0c.05.06.11.07.11.21.25-.05,2.31-.37,2.57-.49l0,.12c.15.11.51-.17.5-.32l.14.18h0l.15.18a1,1,0,0,1-.38.46c.24-.07.42-.06.45.1a8,8,0,0,1,.11-1.89c.25,0,.24.37.41.43a3.45,3.45,0,0,0,0,1.36c.07,0,.54-.45.47-.13-.24.4.14.1,0,.44-.27.09-.31-.09-.41-.21-.33.42,0,.52,0,.71.16-.09.26.23.5.24-.4.34-.1.35-.2.63,0,.13.25,0,.33-.16.39-.4-.16-.57.36-.91-.14.24.1.32.21.38.2-.23.09-.23.34-.4.07.14.42,0,.28.25-.08.05-.09,0-.11-.06.12.14-2.08.88-1.78.9.13-.25,2-.71,1.91-.8s.42-.38.4-.54l-.34.2c0-.19.26-.64.44-.77.17.21-2,1.12-1.57,1l0-.17c.21-.09.52-.06.38.25a.63.63,0,0,1,.53-.24v.06c.19,0,.26.12.46-.24-.52-.38,2.33-2.09,2-2.63-.23.68-.51.47-.77.35a1.33,1.33,0,0,0,.22-.79c-.17-.07-.24.12-.38.23a.87.87,0,0,1,.23-.64c-.38.23,0-.34-.2-.34s-.12.15-.33.24a3.65,3.65,0,0,1-.38-.59,3.08,3.08,0,0,1,.86-1.15c.19.26-.65.55-.33.68.4-.66.36,0,.78-.36.15-.33,0-.47-.2-.51l0,.1c-.19,0-.52-.12-.38-.53.21-.18.29-.37.42-.35l-.13-.18c-.07.05-.15.09-.15.18-.21.09-.21-.07-.16-.23s-1.63.1-1.49,0c-.12-.1.14-.43-.16-.32s1.73.29,1.52.21c.12-.3-2.24-.14-1.94-.61-.09-.07-.23-.12-.41.1,0-.23.42-.35.51-.63,0,0-.09.11-.12.07l.17-.35c-.53.11-.42-.61-1.06-.42a4.34,4.34,0,0,1,1.09-.51l-.09.13a.83.83,0,0,0,.47-.2c0-.27-.14-.34-.48-.29,0-.08.06-.16.1-.24l-.08.08c.09-.16.11-.18.21-.24l.06,0c.53-.65-.89-.14-.78-.69-.15,0-.11.09-.31.1a5.21,5.21,0,0,0,0-1.19,1.09,1.09,0,0,0-.66.57l-.08-.28c.89-.43.41-.95,1.32-1.35.13-.19.07-.33-.14-.34-.2.14-.52.36-.62.22a3.13,3.13,0,0,1,.19-.61c.22-.23.37-.24.56-.4-.49,0,.41-.6.21-.78a.65.65,0,0,0-.84,0C56.26,219.06,56.6,218.84,57,218.62Z"/></svg>