<svg id="Layer_1" data-name="Layer 1" xmlns="http://www.w3.org/2000/svg" viewBox="0 0 654 238"><defs><style>.cls-1{fill:#fff;}</style></defs><path class="cls-1" d="M386,25.67c-8.92-6.28-20.8-6.92-30.6-2.33S339.91,37.83,339.26,48.4c-1.42,23.05,23.34,37.06,43.26,27.66,6.92-3.27.89-13.53-6-10.28-12.23,5.77-26.41-4-25.34-17.38C352.32,33.87,368.68,28,380,36c6.28,4.43,12.23-5.89,6-10.28Z"/><path class="cls-1" d="M190,175.76c10.4,10.27,28.43,17.49,42.37,9.93,7.36-4,10.11-11.33,9.34-19.25-1.93-19.69-18.6-32.57-36.65-37.47-13.23-3.58-25.71-3.9-38.5,1.28-8.86,3.59-22.36,9.55-26.16,19.21-4.77,12.11,11.46,17.68,20.36,13.16,5.68-2.88,6.73-9.16,3.85-14.64-3.41-6.48-10.87-10.21-17.53-12.44a50.2,50.2,0,0,0-44.17,6.79c-6.31,4.58-12.75,11.06-14.35,19-1.78,8.87,3.73,16.77,12.67,17.75,7.61.84,7.55-11.08,0-11.9-4.21-.47,2.39-9.56,3.38-10.61a35.45,35.45,0,0,1,11.81-8.29A38.93,38.93,0,0,1,142,146.43a31.57,31.57,0,0,1,6,2.33c1.94,1,3.75,3.19,5.58,4l.61,1.06a9.36,9.36,0,0,1,1.11-1.72c-.33-.72,3.78,2.55-.69.11,0,0-4,0-3.83-.25.5-.59.78,2.18.49,2.06-.1,0,.69-1,1.08-1.41,2.33-2.72,5.63-4.71,8.67-6.51,6.77-4,14.76-7.64,22.71-8.19,8.45-.59,18.24,1.83,26,5.2,10,4.38,17.9,12.2,19.94,22.66a24.19,24.19,0,0,1,.23,4.62c0,1.43.53-.51-.16,1.2a6.22,6.22,0,0,1-1,2.08c-3,3.61-9.28,3.45-13.4,2.7a32.31,32.31,0,0,1-16.9-9c-5.45-5.39-13.88,3-8.42,8.42Z"/><path class="cls-1" d="M598.09,148.22c7.08,7.07,23.23,9.53,29.51.21,4-5.92,1.87-13.36-2.54-18.38-4.83-5.5-13-7.75-20.06-8.5-13.6-1.44-28.6,7.85-25.41,23.17,3.23,15.51,19.13,20.08,32.75,22,7.49,1,10.73-10.44,3.16-11.48-7.09-1-16.18-1.74-21.3-7.39-4.8-5.29-3.64-12.22,3.58-14.15,4.23-1.13,9-.06,13,1.3,2.2.73,8.07,3.14,7.14,6.38s-9.88,0-11.4-1.54c-5.43-5.42-13.85,3-8.42,8.42Z"/><path class="cls-1" d="M463.81,165.91a114.8,114.8,0,0,0,35.35-15c9-5.83,17.78-14,19.33-25.13s-5.22-21.84-14.85-27.26C493.25,92.65,480,91.88,468.45,94c-9.18,1.65-23.84,7.62-24,18.86-.14,10.5,15.9,20.31,22.67,9.63,5.58-8.8,2.95-21.33-2.54-29.47-6.23-9.25-16.3-14.8-27.18-16.59-24.25-4-59.59,5.6-60.33,35.27-.2,7.66,11.71,7.66,11.9,0,.42-16.7,19.14-23.17,33.1-24.13,13.74-.94,30.66,2.73,35.3,17.64,1.05,3.37.16,5.87.37,9.12l-.2.68c-.47.8-.19,1,.82.54l1-.13-1.3-.75c-1.53-1.68-2.24-1.36-.43-3.21,4.93-5,13.53-6.35,20.2-6.53,7.62-.19,16.19.8,22.44,5.58,5.44,4.17,8.22,11.09,5.28,17.55-3.41,7.51-11.59,12.37-18.49,16.21a105.53,105.53,0,0,1-26.46,10.2c-7.44,1.82-4.29,13.3,3.17,11.48Z"/><path class="cls-1" d="M345.91,223.49c25.67-14.08,33.36-51.69,29.06-78.34-4.89-30.24-26.13-57.2-48.54-76.95a190.54,190.54,0,0,0-43.49-28.82c-6.87-3.31-12.92,6.95-6,10.28,31.41,15.09,59.89,39.47,76.62,70.38,9.17,16.94,12.67,35.08,9.08,54.11-2.83,15-8.55,31.28-22.73,39.06-6.71,3.68-.71,14,6,10.28Z"/><path class="cls-1" d="M294.26,168.59c5-8.11,6.12-18.44,6.43-27.77a135,135,0,0,0-3.18-33.53c-5.35-23.92-23.17-41.54-46.38-49-14.59-4.69-31.07-5.6-46.31-5.79a173.61,173.61,0,0,0-46.62,5.39C144.53,61.51,130.14,67,119.82,77c-2.41,2.34-5.23,4.94-4.87,8.55.28,2.93,2,5.84,3.8,8.09,3.81,4.69,9.51,7.4,15.16,9.22a98.58,98.58,0,0,0,50.83,2.51c7-1.58,15.42-4,18.73-11.05,3.14-6.67-.12-13.7-6.64-16.4-2.94-1.21-6.6,1.34-7.32,4.16a15.81,15.81,0,0,0,1.57,12.21c3.69,6.72,14,.72,10.28-6a2.74,2.74,0,0,1-.37-3l-7.33,4.15c-1.44-.59-2.83,1.63-4.63,2.37A52.18,52.18,0,0,1,179,94.47a79.71,79.71,0,0,1-20.58.92,96.36,96.36,0,0,1-20-3.58c-4.68-1.37-10.41-3.45-11.86-8.61L125,89c11.72-13.92,31.5-19.33,48.76-22.35,18.89-3.3,38.53-2.8,57.49-.37,16.9,2.17,32.82,8.31,44.18,21.49,8.38,9.73,11.25,22.32,12.61,34.8,1.34,12.32,2.81,29-4.07,40-4.05,6.53,6.25,12.51,10.29,6Z"/><path class="cls-1" d="M256.79,3.33c-4.28,4.62-5.63,11.89-7,17.83-1.08,4.72-2,9.49-2.74,14.27L257,32.81c-5.77-7-11.7-13.86-16.92-21.23l-3.56,8.74a71.13,71.13,0,0,1,31.58-4.39c7.62.7,7.58-11.21,0-11.91a79.45,79.45,0,0,0-34.75,4.82c-3.28,1.22-6,5.35-3.55,8.75,5.81,8.19,12.36,15.91,18.78,23.63,2.71,3.26,9.28,1.67,10-2.62q1-6.12,2.27-12.17c.68-3.14,1.41-6.27,2.33-9.34a30.69,30.69,0,0,1,1.35-4c.23-.5,1.45-2.15.71-1.35,5.2-5.62-3.2-14.06-8.42-8.42Z"/><path class="cls-1" d="M238.62,86.58c-6.69,4.3-13.76,10.49-12.15,19.38s11,13.09,19.33,11.58c7.68-1.4,15.62-6.82,17.77-14.64a14.49,14.49,0,0,0-9.49-17.65c-7.31-2.36-10.44,9.13-3.16,11.48,1.72.56,1.31,3,.65,4.2-1.36,2.5-4.63,4.16-7.29,4.78-2.49.58-6.85.34-5.91-3.22.67-2.5,4.33-4.39,6.26-5.63,6.42-4.13.46-14.44-6-10.28Z"/><path class="cls-1" d="M495.43,80.37a196.61,196.61,0,0,1,32.41-24.81L519.1,52a83.31,83.31,0,0,1,.28,24.22l10-2.63a164.9,164.9,0,0,0-31.19-25.34l-3,11.1a272.8,272.8,0,0,1,37.23,2.54L530.94,51c-12.28,9-26.86,14.47-41.18,19.22-7.24,2.4-4.14,13.9,3.17,11.48,15.2-5,31-10.91,44-20.42,3.55-2.58,4.22-10.09-1.43-10.88a296.62,296.62,0,0,0-40.39-3c-6,0-7.92,8-3,11.1A151.67,151.67,0,0,1,520.91,82c2.82,2.93,9.33,1.92,10-2.63a103.18,103.18,0,0,0-.28-30.54c-.6-3.82-5.75-5.39-8.75-3.56A212.61,212.61,0,0,0,487,72c-5.58,5.27,2.85,13.68,8.42,8.42Z"/><path class="cls-1" d="M514.14,60.64a23.91,23.91,0,0,1,.19,7.69l10.17-4.21a42.27,42.27,0,0,1-4.69-4.58,21.6,21.6,0,0,1-2.07-2.69c-.7,1.52-.52,1.58.52.18,1.87-1.09,3.64-3.55,5.21-5.06,1.74-1.68,3.5-3.35,5.26-5l-10-2.62,1.68,8.79c1.44,7.52,12.91,4.33,11.48-3.17l-1.68-8.79c-.88-4.59-6.92-5.48-10-2.62-4.77,4.5-13.19,10.12-14.52,16.94s5.75,13.13,10.29,17.05c4.14,3.58,9.57,1,10.16-4.21a34.17,34.17,0,0,0-.62-10.86c-1.52-7.5-13-4.33-11.48,3.17Z"/><ellipse class="cls-1" cx="111.12" cy="260.54" rx="92.2" ry="60.09" transform="translate(-62.6 36.82) rotate(-14.73)"/><ellipse class="cls-1" cx="290" cy="235.89" rx="120" ry="82.89"/><ellipse class="cls-1" cx="500.45" cy="267.89" rx="121.02" ry="159.61" transform="translate(82.42 651.9) rotate(-70.73)"/><path class="cls-1" d="M532.23,243.23q28.41-97,50.76-195.65c1.69-7.46-9.78-10.64-11.48-3.16Q549.19,143,520.75,240.06c-2.16,7.37,9.32,10.52,11.48,3.17Z"/><path class="cls-1" d="M574.9,83.84a55,55,0,0,1,13.93-7.65c3-1.1,5.06-4,4.16-7.33-.8-2.91-4.29-5.26-7.33-4.15a65.38,65.38,0,0,0-16.77,8.85c-2.58,1.91-3.89,5.16-2.14,8.15,1.49,2.54,5.55,4.06,8.15,2.13Z"/><path class="cls-1" d="M572.35,102.32a54.67,54.67,0,0,1,13.93-7.65c3-1.1,5.06-4,4.16-7.33-.8-2.91-4.29-5.26-7.32-4.16A65.62,65.62,0,0,0,566.34,92c-2.58,1.91-3.89,5.16-2.14,8.15,1.49,2.54,5.55,4.06,8.15,2.13Z"/><path class="cls-1" d="M565,123.69a54.83,54.83,0,0,1,13.39-8.6c2.92-1.35,3.65-5.56,2.14-8.14-1.75-3-5.22-3.49-8.15-2.14a65.33,65.33,0,0,0-15.8,10.46c-2.41,2.13-2.17,6.25,0,8.42a6.07,6.07,0,0,0,8.42,0Z"/><path class="cls-1" d="M567.71,113.32c1.55-9.32-5.83-16.23-15-15.65-8.48.54-18.29,5.25-22.32,13-3.53,6.79,6.74,12.82,10.29,6,1.53-2.94,4-4.38,7-5.6.34-.13,8.86-2.74,8.55-.91-1.24,7.5,10.23,10.72,11.48,3.17Z"/><path class="cls-1" d="M636.69,234.25A33.59,33.59,0,0,1,648,229.52c3.14-.7,5-4.34,4.15-7.32a6.05,6.05,0,0,0-7.32-4.16A43.29,43.29,0,0,0,630.68,224c-6.41,4.14-.44,14.46,6,10.28Z"/><path class="cls-1" d="M627.31,221.44,649.78,205c6.12-4.48.19-14.82-6-10.28L621.3,211.16c-6.12,4.48-.18,14.82,6,10.28Z"/><path class="cls-1" d="M620.18,202l4.52-8.39c1.48-2.74.78-6.6-2.13-8.14s-6.57-.79-8.15,2.14L609.9,196c-1.47,2.74-.77,6.61,2.14,8.14s6.57.79,8.14-2.13Z"/><path class="cls-1" d="M65.19,226.36c-3.83-3.26-11-8.57-9-14.46a6.38,6.38,0,0,1,12.07-.11c2.63,7.13,14.15,4.05,11.49-3.16-4.69-12.69-21-17.94-30.81-7.24-10.65,11.66-2,25,7.82,33.39,5.8,4.94,14.27-3.44,8.42-8.42Z"/><path class="cls-1" d="M54.69,179.2,54,156.36c-.19-6.07-.34-11.86-6.07-15.34-5.24-3.18-12.67-3.81-18.59-4.78-3.61-.59-7.25-1.08-10.89-1.48-1.58-.17-4-.72-5.61-.52q-3.21-1-1,1.19c.83,1.91,1.3,1.75,1.43-.49,1.71-2.69,2.13-7.73,3-10.84.23-.83.54-2.77,1.09-3.11.9-.54,4-.15,5.14-.21l22.77-1.2L57.18,119l5.94-.31c1.12-.06,4.45-.7,5.54-.25-1.39-.57-.13,1.21.22,2.27.6,1.8,1.18,3.61,1.77,5.42l3.54,10.82c2.37,7.26,13.87,4.15,11.48-3.16l-4.13-12.63c-1.09-3.34-1.88-7.18-3.91-10.1-4.8-6.91-15.38-4.23-22.43-3.86l-27.71,1.46c-7.52.4-17.1-.9-20.93,7.15-1.71,3.58-2.44,7.7-3.49,11.5s-2.91,8-2,11.93C3,147.26,13,146.05,19.37,146.78c4.44.51,8.86,1.24,13.25,2.12,2.49.51,8.17.76,9.3,3,.7,1.4.16,4.77.21,6.35l.21,6.66.45,14.28c.24,7.64,12.14,7.67,11.9,0Z"/></svg>