<svg id="Layer_1" data-name="Layer 1" xmlns="http://www.w3.org/2000/svg" viewBox="0 0 116 238"><defs><style>.cls-1{fill:#626b77;}</style></defs><path class="cls-1" d="M43.41,206c.15-.07.22-.26.29-.44A.72.72,0,0,0,43.41,206Z"/><polygon class="cls-1" points="43.7 205.52 43.7 205.52 43.7 205.52 43.7 205.52"/><path class="cls-1" d="M25.89,191.3l.06-.07A.13.13,0,0,0,25.89,191.3Z"/><path class="cls-1" d="M44.57,196.38h-.2c-.09-.45.2-.17.07-.59-.3-.1-.13-.7-.32-.81,0,0,0-.21.07-.22-.16,0-.09-.2-.16-.32s0,.05-.07.1a1.47,1.47,0,0,0-.14-.28c0-.13.09-.18.15-.07-.06-.19-.16-.57-.29-1s-.36-1-.63-1.57a10.35,10.35,0,0,0-1.5-2.45c0,.16.21.34.12.53-.22-.13-.18-.3-.32-.32.16-.24-.25-.46-.17-.77l-.16.05v-.15c-.82-.68-.18-.13-.83-.84-.43-.37-.76-.4-.94-.65,0,0,.07.17-.07.12.07-.12-.36-.16-.33-.31-.12-.07-.47-.35-.45-.11,0-.12-.31-.39-.07-.31a.75.75,0,0,0-.31-.19l.12.13c-.4-.21-.53-.46-.87-.47l.11.15c-.24-.13-.44-.23-.45-.43a2.13,2.13,0,0,1,.27.08,3.2,3.2,0,0,0-1-.38l.12.06c-.24,0-.95-.21-1.65-.37a4.72,4.72,0,0,0-1.63-.1l.16.17-.36,0s.25-.42.28-.37a13.57,13.57,0,0,0-2.75-.2,18.35,18.35,0,0,0-2.74.3c-.31,0-.11-.21-.11-.23-.34.13-.11.17-.41.25-.09,0,0-.11,0-.15-.12.06-.26.05-.25.12.18,0,.16.19.26.28l-.38.1,0-.11c-.08,0-.11.35-.49.42a9.49,9.49,0,0,0-1.81.89c0-.06.07-.17.17-.28a.74.74,0,0,1-.28.14c.2,0-.2.21-.06.18-.26.48-.88.7-1.09,1.11.07.1.62,1,1.26,1.89a16.3,16.3,0,0,0,1.44,1.75.25.25,0,0,1-.14.09.18.18,0,0,0,.21-.12l-.11-.11c.08-.16.1,0,.2-.09.1.08,0,.21-.06.3.09-.07.23-.08.17-.22.11,0,.1.12.22.07s.06-.26.19-.27v0c.28-.05.18-.42.48-.42v0c.11,0,.2-.15.37-.16-.05,0-.13-.06-.06-.13s.29-.12.45-.09l.07-.16c.14-.07.43-.14.75-.27a7.44,7.44,0,0,1,1.2-.25,8,8,0,0,1,2.16,0l0,0a7.71,7.71,0,0,1,2.21.62,10.8,10.8,0,0,1,2,1.12c0,.21.24.34.34.5,0-.11.06-.15.11-.08.38.46.08,0,.53.39a6.31,6.31,0,0,1,1.15,1.71,7.63,7.63,0,0,1,.64,1.93c.29.28.25.75.45,1.05l0,0a7.37,7.37,0,0,1,.22,1.43c0,.63,0,1.28.07,1.5l0-.06c.11.38-.09.33-.15.63.21,0,.31.3.31.43h0a5.13,5.13,0,0,1,.16,1l-.11,0a2.35,2.35,0,0,1,0,1,7.13,7.13,0,0,0-.45,1.66l-.41.27v.06s.88.43,1.87.81,2.1.69,2.62.33l.11.05,0-.19c.11-.22,0-.35.12-.31l-.1.31c.09-.22.11-.05.14.06a1,1,0,0,1,.13-.25c0-.06,0,0-.08,0a.84.84,0,0,1,0-.47c.07-.23.18,0,.26-.24a16,16,0,0,0,.75-4.42s0,0,.06.05c-.05-.46,0-.88-.09-1.3a.39.39,0,0,1,.15-.19C44.85,198.82,44.61,196.42,44.57,196.38Z"/><path class="cls-1" d="M80.9,203.8a.5.5,0,0,0,.09-.38A.39.39,0,0,0,80.9,203.8Z"/><polygon class="cls-1" points="80.99 203.42 80.99 203.42 80.99 203.42 80.99 203.42"/><path class="cls-1" d="M98.41,177.76l-.15.05Z"/><path class="cls-1" d="M82.5,197l-.17-.11c.16-.31.25,0,.35-.28-.18-.25.28-.44.21-.61,0,0,.11-.11.18-.06-.11-.12.05-.15.07-.25s0,0-.1,0a1.6,1.6,0,0,1,.08-.23c.1-.06.19,0,.14.07.21-.26.79-1,1.37-1.77s1.2-1.42,1.4-1.7c-.15,0-.23.2-.42.14,0-.21.2-.18.18-.31.25.13.31-.25.61-.17l-.08-.14h.13c.42-.69.07-.19.58-.67.27-.31.26-.6.48-.7,0,0-.16,0-.1-.08.1.08.14-.27.27-.2.06-.09.32-.31.12-.36.1,0,.35-.15.27,0,.08-.07.17-.11.2-.19l-.14.05c.25-.25.49-.26.55-.53l-.14,0c.15-.15.27-.27.45-.18l-.13.18a3,3,0,0,0,.58-.61l-.09,0a6.87,6.87,0,0,1,.9-1,4.89,4.89,0,0,0,.92-1l-.21,0,.18-.26s.13.46.09.44a21.42,21.42,0,0,1,3.93-2.2c.25,0,.13.19.14.21.24-.17,0-.19.27-.28s0,.11,0,.14.2-.06.18-.12-.16-.18-.26-.26l.29-.12,0,.11c.06,0,0-.36.35-.42.51-.15,1-.4,1.53-.57,0,.06-.08.14-.17.22.07,0,.17-.08.24-.06-.16-.06.18-.15.07-.16.28-.39.84-.31,1.11-.6-.07-.23-.58-4.22-.65-4.51a1,1,0,0,1,.27,0c0-.06-.28,0-.38.06l0,.16c-.25.14-.09-.07-.35,0-.05-.11.18-.22.39-.31-.19.05-.42,0-.45.19-.2,0,0-.15-.27-.13s-.31.27-.51.26v0c-.48,0-.61.4-1,.44l0-.06c-.17,0-.41.19-.69.22.08,0,.18,0,0,.13-.32,0-.48.19-.73.18l-.16.2a27.63,27.63,0,0,0-2.88,1.44c-1.19.64-2.3,1.41-2.76,1.7l0,0c-.68.49-1.73,1.21-2.72,2-.49.4-1,.84-1.4,1.24s-.8.81-1.08,1.14a3,3,0,0,0-.73.56c.14-.08.17,0,.08.1-.6.6,0,.1-.52.76-.29.4-1.08,1.29-1.81,2.2L79,192.49c-.09.46-.56.95-.69,1.42v-.06c-.11.24-.54,1-.91,1.8a10.38,10.38,0,0,0-.73,2l.05-.07c-.05.55-.21.43-.38.83.21,0,.22.46.2.64l0,0c0,.27.05.89,0,1.32l-.11,0a9.25,9.25,0,0,1,0,1.31,5.68,5.68,0,0,0,0,2.35c-.09.19-.15.39-.23.58l0,.08a12.56,12.56,0,0,0,2-.13,4.77,4.77,0,0,0,2.5-.89h.11l0-.14c0-.17-.1-.23,0-.24s0,.16,0,.24c0-.18.08-.07.16,0a.34.34,0,0,1,0-.2s0,0-.07.06-.16-.2-.13-.32.17,0,.17-.23a15.18,15.18,0,0,1,.47-3.17c.05,0,0,0,.06.05,0-.33.13-.62.18-.92a.3.3,0,0,1,.2-.08A5.17,5.17,0,0,1,82.5,197Z"/><path class="cls-1" d="M46.3,182.46a1.71,1.71,0,0,0,.51-.62A1.46,1.46,0,0,0,46.3,182.46Z"/><polygon class="cls-1" points="46.82 181.84 46.82 181.83 46.81 181.84 46.82 181.84"/><path class="cls-1" d="M41.27,170.53l.21.12Z"/><path class="cls-1" d="M53.83,170.36l-.13-.17c0-.09.16.17.15.1-.14-.32,0,0,0-.21a.7.7,0,0,1,.05.16c0-.23,0-.07,0-.14a.68.68,0,0,0,0-.14l0-.13a1.37,1.37,0,0,1,0,.27l0,0s0,.19,0,.22,0,0,0,0,0,0,.2-.12,0,0,.08,0c-.14,0-.11.18-.07.39a.88.88,0,0,1,0,.58l.17.06,0,.19.3.82a.07.07,0,0,0,0,0s.28.12.2.13a.35.35,0,0,1,.15.07c-.15-.08.14.13,0,0,0,0,0,.1.25.24-.11-.06-.14,0-.26-.16s0,0,0,.07l.06,0c.06.13-.13-.05.12.26l.09.07c0,.08.07.17-.19-.13l-.1-.14a2.69,2.69,0,0,0,.22.4v0c.06.1.13.21.2.34l.11.22c0,.07.1.19.07.18s-.2.09-.19.27l.21.34a.36.36,0,0,1-.07.1s-.3-.82-.26-.72l-.92-.65L53,172.42c-.6-.44-1.08-.78-1.28-1s.06-.23.08-.25c-.47-.27-.28,0-.64-.28-.09-.09.08-.08.15-.05-.17-.1-.29-.25-.35-.2.18.18,0,.26,0,.42l-.47-.35.09-.08c-.11-.07-.45.06-.88-.31-.77-.59-1.67-1.14-2.47-1.69,0,0,.24,0,.43.11a1.35,1.35,0,0,1-.35-.28c.13.23-.39-.15-.26,0-.75-.16-1.39-.87-2-1.05-.18.17-3.35,2.85-3.49,3.1a1.61,1.61,0,0,1-.35-.26c0,.09.3.31.49.38l.11-.11c.42.19,0,.13.43.35-.05.12-.41-.07-.72-.25.26.19.49.44.67.39.23.2-.11.11.17.35a2.48,2.48,0,0,1,.81.41l0,0c.54.5,1,.43,1.53.91h-.08c.15.19.6.36.9.66-.08-.09-.12-.23.1-.1.36.34.68.46.92.74l.35.09c.7.49,2.45,1.65,4.17,2.87,3.29,2.37,6.53,5,7.88,6.12l-.09-.05,5.27,4.31c0-.23-.12-.52-.2-.83l-.24-.9-.48-1.82c-.33-1.21-.65-2.43-1-3.61-.63-2.36-1.23-4.52-1.7-6.12a25.62,25.62,0,0,0-.53-2.57c.06.45-.06.3-.14,0l-.16-.59a1,1,0,0,0-.06-.2c0-.09,0-.1-.06-.11s-.08,0-.27-.68c-.06-.18-.12-.39-.2-.65-.12-.43-.25-.91-.39-1.45a22.4,22.4,0,0,0-1.15-3.71,13.43,13.43,0,0,0-1.71-2.63l-.47-.6-.25-.3a1,1,0,0,0-.21-.23c-.25-.19-.47-.38-.65-.54l-.6.87c-.69,1.42-1.59,2.58-2.23,3.81l0-.15c-.31.56-1.72,2.77-2.49,4s-1.43,2.28-1.64,2.69l.09-.09c-.31.75-.43.56-.8,1.07.22,0,0,.68-.15.92l0,0c-.17.36-.47,1.22-.77,1.81l-.08-.08a14.12,14.12,0,0,1-.9,1.75,17.75,17.75,0,0,0-1.76,3l-.65.53,0,.11s2.78,2.9,4.23,1.91l.09.08.13-.28c.23-.3.2-.51.28-.44l-.25.44c.2-.31.13,0,.12.1a2.65,2.65,0,0,1,.25-.35c0-.08-.06,0-.11.07a1.7,1.7,0,0,1,.27-.68c.19-.33.16.06.39-.32,1.2-2,2.43-3.91,3.6-6,.07,0,0,0,0,.1.32-.64.66-1.17,1-1.76a.59.59,0,0,1,.28-.16,12.31,12.31,0,0,1,.83-1.54c.16-.27.32-.54.45-.74S53.82,170.35,53.83,170.36Z"/><path class="cls-1" d="M67,158.79a.66.66,0,0,0,0-.49A.64.64,0,0,0,67,158.79Z"/><polygon class="cls-1" points="67.09 158.3 67.08 158.29 67.08 158.3 67.09 158.3"/><path class="cls-1" d="M42.07,156.33l.12-.08Z"/><path class="cls-1" d="M63.85,149.81l-.17.09c-.29-.37.1-.25-.22-.56-.32,0-.46-.59-.68-.6,0,0-.13-.19-.06-.24-.15.06-.18-.14-.31-.21s0,.06,0,.12l-.27-.18c-.05-.13,0-.21.09-.13A12.22,12.22,0,0,0,60,146.26,9.55,9.55,0,0,0,57.28,145c.08.15.39.16.42.37-.26,0-.33-.15-.47-.08,0-.29-.49-.23-.61-.53l-.11.13-.1-.12a3.8,3.8,0,0,1-1.25-.18c-.59,0-.87.17-1.19.09.05,0,.17.1,0,.13,0-.14-.39.1-.47,0-.15,0-.63,0-.45.21-.08-.09-.51-.07-.27-.18a1.1,1.1,0,0,0-.39.06l.19,0c-.47.08-.76,0-1,.24l.18,0c-.27.07-.49.15-.64,0l.26-.13a3.14,3.14,0,0,0-1,.44l.13,0c-.2.16-.85.5-1.4.88a4.8,4.8,0,0,0-1.17,1l.22,0-.22.25s-.09-.47,0-.45c-.62.36-3.38,2.13-3.95,2.35-.24.06-.15-.17-.16-.19-.22.19,0,.19-.25.31s0-.11,0-.14-.2.08-.17.14.18.15.29.22l-.28.15,0-.1c-.06,0,0,.35-.29.46-.48.22-1,.54-1.42.79,0-.06,0-.15.12-.24s-.14.1-.22.09c.17,0-.16.18,0,.18-.2.42-.76.47-1,.8.1.22,1.5,4,1.65,4.23a.79.79,0,0,1-.23.09c.06.05.25,0,.33-.12l-.06-.15c.19-.17.09.05.3-.08.08.1-.11.24-.27.35.16-.08.36-.09.36-.25.17,0,.06.15.26.09s.21-.31.4-.33v0c.41-.09.44-.48.82-.56v.06c.15,0,.33-.22.57-.28-.07,0-.17,0-.05-.12.27-.07.39-.23.62-.25l.1-.21c.82-.45,4-2.54,4.77-3l0,0a13.69,13.69,0,0,1,2.2-1.14,7.49,7.49,0,0,1,2-.45c.15.13.37.12.53.18-.09-.06,0-.14,0-.12.51.11,0-.1.59,0a4.44,4.44,0,0,1,1.75.69,5.94,5.94,0,0,1,1.44,1.23c.36.09.54.47.83.65h0a5.24,5.24,0,0,1,.8,1.1c.32.52.57,1.1.7,1.27v-.06c.26.29.06.33.13.63.17-.12.4.13.47.24l0,0a6.62,6.62,0,0,1,.56.8l-.11,0a2.73,2.73,0,0,1,.37.91,6.82,6.82,0,0,0,.35,1.72l-.23.45,0,.05s1,0,2-.18,2.17-.4,2.48-.94H67l0-.18c0-.23-.14-.3,0-.31l.05.3c0-.23.08-.09.15,0a2.25,2.25,0,0,1,0-.26s0,0,0,.08c-.06-.11-.2-.25-.18-.4s.17-.06.11-.32a16.81,16.81,0,0,0-1.21-4.2c0-.05,0,0,.08,0-.23-.41-.4-.78-.64-1.14a.43.43,0,0,1,0-.24,7.57,7.57,0,0,1-.66-1Z"/><path class="cls-1" d="M35.84,173.61a1.25,1.25,0,0,0,.25-.64A1.19,1.19,0,0,0,35.84,173.61Z"/><polygon class="cls-1" points="36.1 172.97 36.1 172.96 36.09 172.97 36.1 172.97"/><path class="cls-1" d="M7.42,152.45Z"/><path class="cls-1" d="M34.41,161.11l-.19.06c-.26-.52.13-.26-.16-.72-.35,0-.42-.8-.64-.89,0,0-.1-.24,0-.27-.18,0-.18-.21-.3-.33s0,.06,0,.12l-.25-.29c0-.15,0-.23.12-.11a20.76,20.76,0,0,0-2-2.79,17.1,17.1,0,0,0-2.48-2.44c0,.18.33.34.31.55-.28-.1-.29-.29-.46-.29.1-.28-.42-.46-.43-.79l-.15.07-.06-.16a4.37,4.37,0,0,1-1.13-.79c-.54-.35-.91-.33-1.16-.58,0,0,.11.18,0,.13,0-.13-.41-.15-.41-.31s-.58-.34-.52-.09c0-.13-.41-.38-.13-.32a1.36,1.36,0,0,0-.37-.2l.15.15c-.47-.24-.65-.49-1-.5l.13.16c-.28-.13-.51-.24-.54-.46l.31.1a4.08,4.08,0,0,0-1.18-.44l.13.07a22.85,22.85,0,0,0-3.79-.84l.18.2h-.44c.05,0,.33-.38.36-.32-.44-.14-1.79-.51-3.15-.78s-2.72-.46-3.12-.54,0-.23,0-.25c-.41,0-.19.12-.53.07-.1,0,0-.11.08-.12-.15,0-.29-.07-.3,0,.18.07.08.24.15.36l-.44-.06,0-.11c-.1,0-.28.28-.7.19a10.87,10.87,0,0,0-2.5,0c0-.07.18-.12.37-.18a1.19,1.19,0,0,1-.42,0c.23.09-.36.13-.19.16-.59.34-1.56.35-2.1.85a7.94,7.94,0,0,0,.67,2.2,6.38,6.38,0,0,0,1.31,1.83s0,0,0,0,.08.06.07,0l-.11-.12c0-.07.07.07.09,0a.91.91,0,0,1,.08.16s.07.08,0,0c0,0,.08.14.13.17s0-.18.09-.14v0c.2.07.28-.28.6-.19l0,0c.11.06.32-.06.55,0-.06,0-.12-.11,0-.13s.46,0,.67.12a1.63,1.63,0,0,1,.23-.11c.58.05,2,.14,3.43.36a27.68,27.68,0,0,1,3.37.7h-.05a22.41,22.41,0,0,1,3.36,1.19c1.23.52,2.41,1.16,3.21,1.58a3.32,3.32,0,0,0,.7.65c-.1-.14,0-.17.1-.1.69.54.09,0,.83.47a11.62,11.62,0,0,1,2.18,2,12.69,12.69,0,0,1,1.64,2.33c.42.31.62.89.94,1.25l-.06,0a8.83,8.83,0,0,1,.83,1.77c.32.79.54,1.62.64,1.89v-.08c.23.46,0,.44.07.84.18-.1.38.31.43.47h0a7.89,7.89,0,0,1,.43,1.19h-.12a4.47,4.47,0,0,1,.18,1.24c0,.27-.08.65-.13,1a5.66,5.66,0,0,0-.08,1.16l-.38.43,0,.07s.91.36,1.93.64,2.17.47,2.67-.13l.11,0,0-.26c.11-.3,0-.46.11-.43l-.08.43c.08-.31.1-.09.15,0a1.6,1.6,0,0,1,.11-.35c0-.07-.05,0-.09.08a1.82,1.82,0,0,1,0-.62c0-.32.18,0,.22-.38a16.67,16.67,0,0,0-.3-5.93s0,0,.07.06c-.18-.58-.31-1.1-.52-1.61a.49.49,0,0,1,.08-.28,10.93,10.93,0,0,1-.59-1.37c-.16-.35-.3-.72-.43-1S34.41,161.13,34.41,161.11Z"/><path class="cls-1" d="M78.62,175a1.06,1.06,0,0,0,0-.57A.74.74,0,0,0,78.62,175Z"/><polygon class="cls-1" points="78.67 174.42 78.67 174.41 78.67 174.42 78.67 174.42"/><path class="cls-1" d="M101.23,147l-.19,0A.62.62,0,0,0,101.23,147Z"/><path class="cls-1" d="M78.9,165.5l-.18-.08c.11-.38.25,0,.32-.4-.23-.24.24-.56.15-.73,0,0,.1-.15.18-.1-.12-.12,0-.19.06-.31s-.05,0-.11,0l.07-.26c.09-.08.18-.06.14.05a16.39,16.39,0,0,1,1.39-1.95c.66-.8,1.46-1.55,1.73-1.85-.16,0-.29.21-.48.15.08-.23.26-.19.25-.33.24.14.39-.28.69-.18l0-.16h.14c.62-.74.12-.21.79-.71.38-.32.44-.63.71-.73,0,0-.17,0-.09-.09.09.09.22-.29.35-.21.1-.08.45-.3.23-.38.11,0,.44-.13.3.06.11-.07.23-.11.28-.19l-.16,0c.34-.25.61-.25.76-.54l-.17,0c.21-.15.39-.26.57-.15l-.2.18a4,4,0,0,0,.84-.61l-.12.05c.29-.39,2.36-1.56,2.67-1.92l-.23,0,.29-.25s0,.49,0,.46c.36-.15,1.46-.64,2.59-1a15.38,15.38,0,0,1,2.65-.69c.3,0,.1.21.1.23.33-.12.12-.18.41-.23.08,0,0,.11,0,.14.12,0,.25,0,.24-.08-.17,0-.13-.21-.22-.3l.38-.07v.11c.08,0,.16-.33.54-.34.64-.07,1.33-.2,2-.24,0,.07-.13.12-.26.17a.76.76,0,0,1,.3,0c-.17-.1.26-.11.13-.14.44-.33,1.07-.11,1.48-.33,0-.25.77-4.21.8-4.5a1.39,1.39,0,0,1,.34,0c0-.07-.33-.09-.48-.05l0,.16c-.35.06-.08-.09-.43-.07,0-.13.3-.16.58-.18-.26,0-.52-.1-.61.05-.25-.05,0-.16-.28-.2a1.53,1.53,0,0,1-.71.13v0c-.59-.1-.86.26-1.4.18l0-.05c-.19-.05-.54.08-.89.06.1,0,.2.09,0,.13-.39,0-.65.08-.94,0l-.25.17a28.6,28.6,0,0,0-3.87,1,38.94,38.94,0,0,0-3.73,1.4l0,0a38.72,38.72,0,0,0-3.71,1.86A23.09,23.09,0,0,0,81.28,154a4.06,4.06,0,0,0-1,.59c.18-.08.18,0,.06.12-.83.66,0,.1-.78.84-.43.45-1.52,1.46-2.5,2.61A24,24,0,0,0,75,161.11c-.14.64-.58,1.29-.69,1.91l0-.07c-.07.32-.48,1.35-.71,2.43a12.8,12.8,0,0,0-.34,2.54l0-.1c.09.65-.11.55-.18,1.05.21-.06.31.49.34.69h-.05c0,.31.25,1,.32,1.48h-.12a9.17,9.17,0,0,1,.23,1.47,9.34,9.34,0,0,0,.31,2.56l-.21.61.05.08a14.88,14.88,0,0,0,2-.08c1.05-.12,2.17-.41,2.47-1h.11l-.05-.21c0-.26-.14-.35,0-.36l.05.35c0-.26.08-.09.15,0a1.48,1.48,0,0,1,0-.3s0,0-.06.09c-.06-.13-.2-.3-.17-.47s.17,0,.13-.35a41.68,41.68,0,0,1-.21-4.52s0,0,.06,0c0-.44,0-.82,0-1.21a.38.38,0,0,1,.18-.15,3.18,3.18,0,0,1,.07-1c0-.26.1-.51.15-.71Z"/><path class="cls-1" d="M42.41,138.16c.13,0,.17-.22.21-.37A.49.49,0,0,0,42.41,138.16Z"/><polygon class="cls-1" points="42.63 137.78 42.62 137.78 42.62 137.79 42.63 137.78"/><path class="cls-1" d="M40.83,135.42l-.06,0A.11.11,0,0,0,40.83,135.42Z"/><path class="cls-1" d="M39.87,126.63l-.13.16c-.68-.3-.1-.31-.78-.52-.34.17-1.17-.33-1.45-.18,0,0-.35-.06-.32-.14-.12.15-.39,0-.57.07s.05,0,.11.08l-.44.08c-.18,0-.23-.12,0-.15a11.78,11.78,0,0,0-3.3.66A12.3,12.3,0,0,0,30,128.06c.18,0,.41-.2.61-.1-.19.22-.37.17-.41.32-.23-.19-.56.28-.89.17v.18l-.18,0a4.76,4.76,0,0,0-.57.58l-.17.17a3.29,3.29,0,0,0-.66.69,7.06,7.06,0,0,0-.63,1.8c0-.07.16-.24.14,0-.15,0-.06.66-.2.71,0,.2-.08.81.12.61-.1.1-.16.62-.23.31a1.44,1.44,0,0,0,0,.47l.05-.22c0,.58-.08.88.12,1.2l.05-.2c.05.31.1.55-.06.7l-.1-.3a3.5,3.5,0,0,0,.31,1.14l0-.13a21,21,0,0,1,.79,2A3.07,3.07,0,0,0,29.89,140l-.15-.28a3.24,3.24,0,0,0,.52.19c-.05,0-.49.25-.51.17a5.75,5.75,0,0,0,1.59.7l.59.14a3.85,3.85,0,0,0,.49.08c.32.05.66.09,1,.12,1.3.1,2.5,0,2.87.07s.07.22.07.24c.35-.07.14-.16.45-.16.09,0,0,.11-.06.13.14,0,.27,0,.27-.05-.17,0-.11-.22-.19-.33h.39v.11c.09,0,.2-.32.58-.3a16.52,16.52,0,0,0,2-.23c0,.07-.13.13-.26.19a.81.81,0,0,1,.31,0c-.18-.09.26-.13.12-.15.42-.35,1.09-.24,1.47-.53,0-.12,0-1.2-.15-2.26a13.06,13.06,0,0,0-.41-2.24c.06,0,.09,0,.11,0s-.11-.06-.18,0l0,.15c-.15.11-.06-.08-.25,0-.05-.12.14-.2.24-.25-.1,0-.27,0-.29.12-.15,0,0-.15-.21-.16s-.25.24-.42.2v0c-.4-.05-.56.31-1,.24l0,0c-.14-.06-.38.09-.63,0,.07,0,.14.1,0,.13s-.47.07-.68,0l-.19.15c-.48,0-1.7.18-2.85.19a10.53,10.53,0,0,1-1.49-.09c-.25,0-.17,0-.23,0h-.07l0,0a.17.17,0,0,1-.15-.1.47.47,0,0,1-.06-.15c-.06-.26-.13-.52-.19-.78a7.56,7.56,0,0,1-.21-1.33,2,2,0,0,1,0-.42.89.89,0,0,1,0-.14c.13,0,.14,0,.19-.06s-.12-.08-.1-.09,0-.07,0-.09-.09,0,.14-.22a6.41,6.41,0,0,1,2-1.08,6.23,6.23,0,0,1,2.11-.43c.3-.2.46-.07.66-.13l0,0a1.26,1.26,0,0,1,.74.42,2.29,2.29,0,0,1,.21.23,1.07,1.07,0,0,1,.14.18.83.83,0,0,0,.09.15l0,0c.15.08-.06.13-.11.2a.36.36,0,0,1,.24,0,.48.48,0,0,1,.09.24h0a4.75,4.75,0,0,1,.16,1l-.11,0a3.49,3.49,0,0,1-.08,1.14,8.25,8.25,0,0,0-.45,2.1c-.13.14-.26.31-.4.47l0,.09a10.49,10.49,0,0,0,2,.56,4.5,4.5,0,0,0,2.65-.09l.11,0v-.17c.09-.21,0-.33.09-.3l-.06.3c.06-.21.1-.05.14,0a1.33,1.33,0,0,1,.1-.24s0,0-.08.05a.69.69,0,0,1,0-.45c0-.23.18,0,.24-.25.17-.73.35-1.48.5-2.28.07-.4.14-.81.18-1.26,0-.21,0-.46,0-.7s0-.26,0-.39a4.84,4.84,0,0,0,0-.53c0-.07,0,0,.07.09a5,5,0,0,0-.79-2.31.88.88,0,0,1-.05-.38s0,0-.11-.11l-.31-.37a10.3,10.3,0,0,0-.88-.9,9,9,0,0,0-1.06-.79C40.11,126.76,39.88,126.65,39.87,126.63Z"/><path class="cls-1" d="M76.29,149.22a3.76,3.76,0,0,0-.34-1.58C76,148.09,76.13,148.57,76.29,149.22Z"/><path class="cls-1" d="M75.94,147.63h0v0Z"/><path class="cls-1" d="M72.54,150.9l.32-.1Z"/><path class="cls-1" d="M64.56,133.37l-.2-.06a1.1,1.1,0,0,1,0-.4h.07s.1,0,.07,0-.13-.08-.11-.09.08,0,0-.06a.22.22,0,0,1,.11.08c-.1-.13,0,0,0-.08a.42.42,0,0,0-.06-.08l0-.06a.21.21,0,0,1,0,.15s0,0,.11,0H66a11.79,11.79,0,0,1,2.77.27,5.11,5.11,0,0,1,1.07.39,1.12,1.12,0,0,1,.24.15,2.4,2.4,0,0,1,.29.28,8.84,8.84,0,0,1,1,1.29c0-.21-.29-.52-.24-.75.3.23.28.46.46.54-.08.14,0,.32.11.52a1.82,1.82,0,0,1,.11.3.4.4,0,0,1,0,.15,1.63,1.63,0,0,1,0,.31l.22.16.08.45a1.8,1.8,0,0,0,.36.56c.43.46.67.71.8.86a1.84,1.84,0,0,1,.2.23c.07.09.23.32.76,1l.07.08.27.29.07.08h0s0,0,0,0a2.65,2.65,0,0,1,.29.29c-.06-.07-.21-.26,0-.1,0,.1.57.42.69.67l.56.51c.34-.19.58-.38.38-.39.18,0,1.23-.56.61-.08a5.81,5.81,0,0,0,1-.68,4.76,4.76,0,0,1-.48.27A12.23,12.23,0,0,0,80.38,138l-.48.36c.36-.36.65-.64.92-.88a.67.67,0,0,1,.26-.16.58.58,0,0,1,.19,0l-.41.44.21-.19.09-.08.17-.16c.11-.09.21-.17.3-.26l.5-.44-.14.08a1.87,1.87,0,0,1,.62-.43c1-.43,1.16-.56,1.37-.61a1.09,1.09,0,0,1,.73.1c.31.13.6.34.76.4l-.13-.3a2.94,2.94,0,0,1,.5.31c0-.06-.52.12-.52.06s.26.27.47.48l.34.4.16.19.07.11a.79.79,0,0,1-.06,1,4.81,4.81,0,0,1-.88.83,10,10,0,0,1-1.17.75,17.36,17.36,0,0,1-1.9.91c-.93.45-.27-.1-.27-.14a3.82,3.82,0,0,0-.59.44c-.21.23-.09.19-.42.45-.14.08,0-.11,0-.18-.19.17-.41.28-.38.34.28-.15.28.07.46.07l-.6.45,0-.11c-.14.1-.16.5-.79.87a16.12,16.12,0,0,1-3.25,1.67c0-.07.22-.19.43-.32a2,2,0,0,1-.52.17c.31,0-.44.25-.22.21-.74.56-2,.66-2.76,1.06,0,.26-.69,4.53-.61,4.81a4.67,4.67,0,0,1-.6.12,1.89,1.89,0,0,0,.86-.17v-.16c.61-.22.17,0,.77-.12.07.11-.49.29-1,.43.44-.1.91-.13,1.06-.32.43-.06,0,.17.51.08a5.4,5.4,0,0,1,1.25-.44v0c1.09-.18,1.57-.67,2.63-.93l-.1.08a16.07,16.07,0,0,0,1.74-.7c-.19.07-.39.06,0-.14.77-.29,1.2-.65,1.75-.87l.4-.41c.24-.14.52-.35.94-.65l.71-.53.43-.34.37-.3.07-.05.62-.3c.46-.23,1-.5,1.51-.81a11.38,11.38,0,0,0,3.37-2.82,6,6,0,0,0,1.2-2.74,5.27,5.27,0,0,0,0-1.43,7.51,7.51,0,0,0-.35-1.3,10.5,10.5,0,0,0-.58-1.06l-.28-.46-.22-.27a9,9,0,0,0-.76-.86l.1.07A8.22,8.22,0,0,0,86,131.07a5.81,5.81,0,0,0-2.89-.25,9.53,9.53,0,0,0-2,.64,8,8,0,0,0-2.23,1.12,10.92,10.92,0,0,0-.89.68l-.39.34-.09.09,0,0-.37.42-.19.18-.1.07s0,0,0,0a1.05,1.05,0,0,0,.09-.36v-.15c0,.1-.08.19-.09.13-.07-.27-.08-.09-.15-.16a.87.87,0,0,1-.14-.21l-.24-.43c-.11-.2-.23-.4-.37-.62a15.09,15.09,0,0,0-1-1.49,9.89,9.89,0,0,0-1.65-1.67,8.3,8.3,0,0,0-2.4-1.23,15.4,15.4,0,0,0-4.32-.66c-.6,0-1.12,0-1.56,0h-.62l-.78,0a7.07,7.07,0,0,0-2.67,1.05,3.32,3.32,0,0,0-1.43,2.27v-.18a6.56,6.56,0,0,0-.11,1.43c0,.31,0,.67,0,1.05,0,.23,0,.49,0,.75,0,.54,0,1.11.1,1.72l.08.95a5.35,5.35,0,0,0,.35,1.43c.32.57.5.93.73,1.26l.65.86c.41.48.76.83,1,1l-.12-.17c1,.79.72.84,1.41,1.5,0-.23.89.34,1.2.55l0,0c.47.33,1.59,1,2.31,1.48l-.1.06a16.14,16.14,0,0,1,2.1,1.56,18.07,18.07,0,0,1,2.59,3,2.51,2.51,0,0,1,0,.74l0,.07h.63l1.45,0c1,0,2.27-.17,2.21-1.85H76l-.25-.55c-.24-.71-.53-.89-.41-.9a5.39,5.39,0,0,1,.42.87c-.27-.68,0-.24.17,0-.11-.27-.21-.52-.31-.79-.11-.1,0,.1,0,.22a11,11,0,0,1-.78-1.09c-.39-.56.12-.15-.35-.77a25.16,25.16,0,0,0-4-3.83c-1.3-1.06-2.58-2-3.71-3,0-.08,0,0,.11,0a15.08,15.08,0,0,1-1.71-1.56.58.58,0,0,1,0-.32s-.07-.05-.19-.18a1.08,1.08,0,0,1-.18-.24.54.54,0,0,0-.07-.12h0s0,0,0-.05l0-.25c0-.38-.07-.75-.1-1.08C64.57,133.91,64.56,133.39,64.56,133.37Z"/><path class="cls-1" d="M14.43,131.82a2.9,2.9,0,0,0,.66-.82A2.55,2.55,0,0,0,14.43,131.82Z"/><path class="cls-1" d="M15.1,131h0Z"/><path class="cls-1" d="M39.59,68.49l.18.13A1,1,0,0,0,39.59,68.49Z"/><path class="cls-1" d="M25.58,115.3l-.13-.17c.53-.76.34-.09.79-.82,0-.44.84-1.15.89-1.47,0,0,.26-.32.32-.25-.06-.19.22-.37.33-.61s-.07,0-.15.06l.3-.52c.18-.17.29-.16.15.06.94-1.27,5.58-7.28,6.58-8.66-.23.1-.48.57-.75.62.19-.42.43-.51.47-.73.32,0,.66-.74,1.08-.84l0-.2.21-.12A8.49,8.49,0,0,1,37,99.89c.62-.8.75-1.31,1.17-1.71-.06.07-.27.18-.14-.05.14.05.37-.6.55-.62.15-.21.7-.84.37-.74.16,0,.67-.61.45-.21a3.44,3.44,0,0,0,.42-.53l-.25.22c.52-.68.93-.94,1.15-1.48l-.26.2c.31-.4.58-.74.85-.77l-.29.43A15.55,15.55,0,0,0,42.21,93l-.17.19c.43-.81,3.37-4.46,3.76-5.22l-.36.19.38-.61c-.06.06.12.56,0,.58l1.4-1.61a8.41,8.41,0,0,0,.65-.89,5,5,0,0,0,.55-1.08,5.42,5.42,0,0,0,.35-1.08A8.94,8.94,0,0,0,49,82.39,21.64,21.64,0,0,0,49,76.3c0-.63.2-.15.23-.15-.19-.74-.2-.3-.32-.94,0-.18.12,0,.16.11-.08-.28-.09-.55-.16-.55,0,.36-.18.25-.25.42l-.18-.81h.11A4.21,4.21,0,0,1,48,73.21a20.7,20.7,0,0,0-1.61-4c.07,0,.23.24.4.49a6.21,6.21,0,0,1-.27-.6c.08.35-.38-.48-.28-.22-.75-.76-1.34-2-2.15-2.59a21.14,21.14,0,0,0-2.23.89,9.83,9.83,0,0,0-2,1.29,1.38,1.38,0,0,1-.3-.29c0,.09.25.34.42.42l.13-.1c.38.24,0,.1.35.41,0,.06-.12,0-.24-.07a2.33,2.33,0,0,1-.41-.26c.23.2.41.44.59.45.17.26-.14.09.08.39.2.14.54.31.66.63h0c.37.65.84.87,1.11,1.55l-.07-.05c0,.27.36.69.51,1.15,0-.13,0-.28.13,0a12.73,12.73,0,0,1,.4,1.29l.24.34a19.84,19.84,0,0,1,1,5.76,7,7,0,0,1-.43,2.77c0,.13-.1.12-.11.21s0,.06-.08.11l-.13.15-.24.28-.76.88,0-.08c-2.31,2.66-7,8.2-9.11,11.17A13.63,13.63,0,0,0,32.25,97c.24-.22.24-.08.08.12-1.12,1.4,0,.14-1.08,1.61-1.23,1.69-6.09,8-7.23,9.48-.44.91-1.26,1.85-1.73,2.72l0-.11c-.57.88-4,5.7-4.63,6.76l.11-.12c-.48,1-.57.72-1.08,1.39.23,0-.17.84-.34,1.14l0,0c-.26.46-.74,1.55-1.18,2.3l-.08-.09c-.28.67-1.05,1.79-1.3,2.24a30.4,30.4,0,0,0-2.46,3.87l-.8.71,0,.15s2.45,3.34,4.21,2l.08.09.19-.36c.3-.39.31-.65.38-.57l-.35.57c.28-.4.15-.08.11.11a3.51,3.51,0,0,1,.34-.45c0-.11-.08,0-.14.09a3.8,3.8,0,0,1,.41-.87c.27-.42.17.07.48-.43,1.7-2.58,3.35-5.08,5-7.68.08,0,0,0,0,.12.47-.81.94-1.5,1.38-2.24a.75.75,0,0,1,.34-.22,18.23,18.23,0,0,1,1.22-2l.94-1.39Z"/><path class="cls-1" d="M100.78,125.58a3.3,3.3,0,0,0-.52-.93A2.58,2.58,0,0,0,100.78,125.58Z"/><path class="cls-1" d="M100.26,124.64h0v0Z"/><path class="cls-1" d="M71.58,66.53l-.34.16A2.6,2.6,0,0,0,71.58,66.53Z"/><path class="cls-1" d="M88.12,109.59l-.18.09c-.65-.7,0-.36-.65-1-.44-.06-1-1.09-1.29-1.21,0,0-.26-.32-.18-.37-.2,0-.33-.29-.55-.46s0,.08,0,.17l-.47-.41c-.13-.21-.11-.32.09-.14-.54-.61-2.14-2.33-3.78-4s-3.36-3.36-4-3.92c.08.24.53.55.55.82-.41-.24-.47-.49-.69-.55.05-.32-.7-.75-.76-1.19l-.2,0-.11-.23a8.52,8.52,0,0,1-1.65-1.49,17.21,17.21,0,0,1-1.6-1.3c.06.06.15.28-.06.13.06-.13-.57-.41-.56-.6-.2-.16-.78-.75-.71-.42,0-.17-.52-.71-.16-.46a2.85,2.85,0,0,0-.47-.46l.19.26c-.62-.57-.81-1-1.31-1.27l.16.27c-.35-.35-.64-.64-.63-.91l.38.33a17.92,17.92,0,0,0-1.4-1.38l.15.18a17.86,17.86,0,0,1-2.11-2.2c-.43-.49-.79-1-1.12-1.41a7.51,7.51,0,0,0-.68-.88l0,.37a4.82,4.82,0,0,1-.41-.51c0,.07.55.06.54.14a8.47,8.47,0,0,1-1.19-4.15c0-.21,0-.42,0-.64l.15-.62a5.15,5.15,0,0,1,.42-1.14,5.23,5.23,0,0,1,.5-.89,3.49,3.49,0,0,1,.39-.54c.36-.34.24.06.25.08.32-.49,0-.29.35-.67.1-.1.07.09,0,.16.11-.18.28-.3.25-.36-.23.17-.28,0-.44,0,.13-.17.31-.32.46-.48l.06.09c.11-.09,0-.49.56-.91a26,26,0,0,1,2.82-2.21c0,.07-.16.24-.34.42a2.08,2.08,0,0,1,.46-.29c-.3.06.38-.34.16-.25.58-.71,1.68-1.09,2.28-1.61,0-.12-.16-1.24-.24-2.38s-.11-2.29-.17-2.42a3.61,3.61,0,0,1,.64-.25,2.37,2.37,0,0,0-.9.34l0,.16c-.58.34-.18,0-.76.29-.09-.1.43-.4.91-.64-.44.19-.91.33-1,.54-.42.16,0-.16-.53,0a6,6,0,0,1-1.12.72v0c-1,.43-1.29,1-2.18,1.45l.06-.1c-.33.15-.84.62-1.39.94.16-.09.34-.12,0,.13-.63.41-1,.76-1.44,1.06l-.31.45a10.9,10.9,0,0,0-.94.92,14.36,14.36,0,0,0-1.24,1.46,13,13,0,0,0-2.3,4.51,10.36,10.36,0,0,0-.09,5.32A14.23,14.23,0,0,0,60,87.28l-.06-.09a29.06,29.06,0,0,0,4.5,6.38,59.33,59.33,0,0,0,5.31,5.2A12.62,12.62,0,0,0,71,100.19c-.2-.26-.06-.25.12-.07,1.29,1.23.15,0,1.49,1.21.79.66,2.59,2.36,4.3,4.11s3.36,3.52,4,4.22c.8.58,1.54,1.56,2.28,2.19l-.1,0c.77.69,4.53,5.14,5.34,6l-.08-.14c.76.72.52.74,1,1.4.09-.21.76.39,1,.65l0,0c.36.37,1.24,1.15,1.8,1.79l-.11,0a18,18,0,0,1,1.67,1.93,42.12,42.12,0,0,0,2.72,3.61l.36,1,.11.1a8.9,8.9,0,0,0,1.94-.77c.93-.52,1.79-1.3,1.48-2.38l.11,0-.27-.32c-.25-.43-.5-.54-.39-.58l.41.56c-.28-.42,0-.18.14-.07a3.41,3.41,0,0,1-.3-.49c-.1,0,0,.08,0,.16a3.49,3.49,0,0,1-.66-.71c-.31-.41.12-.14-.24-.62-1.87-2.54-3.71-5-5.79-7.42,0-.08,0,0,.11,0-.66-.7-1.2-1.36-1.81-2a.72.72,0,0,1-.13-.39c0,.08-.8-.82-1.64-1.73l-1.15-1.28Z"/><path class="cls-1" d="M24.68,117.59a.65.65,0,0,0,.46.11A.57.57,0,0,0,24.68,117.59Z"/><polygon class="cls-1" points="25.15 117.71 25.15 117.7 25.14 117.7 25.15 117.71"/><path class="cls-1" d="M57.91,111.18h0Z"/><path class="cls-1" d="M33.32,117.48v-.2c.4,0,.13.22.5.15.12-.29.61,0,.73-.16,0,0,.18,0,.17.11.05-.16.19,0,.3-.09s0-.05-.07-.09l.26-.07c.11,0,.14.13,0,.15.68,0,4,0,4.7-.08-.1-.12-.33,0-.42-.21.19-.11.29,0,.37-.08.08.26.43,0,.59.31l0-.15.1.09c.85-.19.19-.09,1-.08.44,0,.64-.25.89-.18,0,0-.14-.1,0-.14,0,.14.3-.1.36,0,.11,0,.47,0,.35-.2.06.09.38.12.19.21.11,0,.22,0,.3,0l-.14,0c.36,0,.57.11.8-.07l-.14-.07c.22,0,.41,0,.5.15l-.23.06a2.52,2.52,0,0,0,.89-.14h-.11c.38-.19,2.4-.38,2.75-.61l-.16-.14.3-.13s-.14.47-.17.42c.66,0,4.08-.17,4.68-.07.25.08.05.23.05.25.29,0,.12-.15.38-.14.07,0,0,.11-.06.13s.22,0,.23,0-.08-.23-.14-.34h.32v.11c.07,0,.18-.3.5-.24.54.05,1.13,0,1.68,0,0,.07-.13.11-.24.15a.43.43,0,0,1,.25,0c-.13-.12.23-.08.12-.13.4-.26.92,0,1.27-.19,0-.24.81-4.18.81-4.47a.74.74,0,0,1,.26,0c0-.07-.25-.11-.36-.07l0,.16c-.26,0-.06-.1-.32-.09,0-.13.23-.15.44-.16-.19,0-.38-.11-.45,0-.18-.06,0-.16-.2-.22s-.35.16-.53.09v0c-.43-.13-.66.19-1.05.06l.05-.05c-.14-.07-.41,0-.66,0,.07,0,.13.12,0,.13s-.48,0-.69-.1l-.2.12c-1,0-4.92.17-5.92.21l0,0c-1.52.08-4.65.14-6.21.37a3,3,0,0,0-.84-.1c.15.05.1.14,0,.13-.77,0-.05.09-.83.17a44.52,44.52,0,0,1-5.14.11c-.42.2-1,.1-1.37.24l0,0c-.45.09-3,.08-3.53.18l.07,0c-.45.15-.4-.06-.76-.09.06.2-.32.34-.47.36v0A10.34,10.34,0,0,1,28,113v-.11a4.35,4.35,0,0,1-1.11.17,6.39,6.39,0,0,0-2,.06l-.46-.28-.06,0s-.39,3.86.57,4.59v.12l.18,0c.21,0,.3-.1.29,0h-.29c.22,0,.08.09,0,.15a.93.93,0,0,1,.25,0s0,0-.07-.06.26-.17.4-.13,0,.18.28.17c1.34,0,2.64,0,4-.1,0,0,0,0,0,.07.4-.08.76-.09,1.13-.16a.32.32,0,0,1,.17.15A11.1,11.1,0,0,1,33.32,117.48Z"/><path class="cls-1" d="M49.57,126.35a1.14,1.14,0,0,0,.62,0A.92.92,0,0,0,49.57,126.35Z"/><polygon class="cls-1" points="50.19 126.39 50.19 126.39 50.19 126.39 50.19 126.39"/><path class="cls-1" d="M91.5,113.23h0Z"/><path class="cls-1" d="M60.79,124.4l0-.2c.51-.13.2.19.66,0,.12-.32.79-.16.91-.35,0,0,.24,0,.24.07,0-.17.23-.09.36-.17s0,0-.1-.07l.32-.13c.14,0,.19.09.06.14.88-.16,5-1,6-1.32-.15-.09-.42.06-.57-.09.22-.16.37,0,.45-.18.16.24.55-.07.8.15l0-.16.14.06c1-.41.23-.14,1.19-.32.54-.15.76-.42,1.08-.41,0,0-.19-.06,0-.13,0,.13.35-.18.45-.06.14,0,.6-.14.4-.28.1.07.51,0,.29.15a1.11,1.11,0,0,0,.36-.09h-.18c.45-.13.73,0,1-.27l-.19,0c.27-.07.5-.13.65,0l-.27.11a4.15,4.15,0,0,0,1.08-.35l-.13,0c.44-.3,3-.92,3.36-1.24l-.24-.1.37-.19s-.11.49-.15.45l3-.55a23.73,23.73,0,0,1,2.91-.35c.31,0,.08.22.08.24.36-.09.14-.17.46-.19.08,0,0,.11-.06.14.14,0,.27,0,.28-.06-.18,0-.13-.22-.21-.32l.41,0v.11c.09,0,.2-.32.61-.31l2.09-.1c0,.07-.15.12-.29.17a.65.65,0,0,1,.31,0c-.17-.11.28-.09.15-.13.49-.32,1.13,0,1.57-.24,0-.25,1-4.19,1-4.48a1.39,1.39,0,0,1,.35,0c0-.07-.34-.1-.5-.06l0,.16c-.36.05-.08-.1-.43-.09,0-.12.31-.15.59-.16-.25,0-.51-.11-.62,0-.24,0,0-.16-.27-.21a1.58,1.58,0,0,1-.72.09v0c-.59-.14-.88.21-1.41.11l0,0c-.19-.06-.55.06-.89,0,.1,0,.19.11,0,.13a8.57,8.57,0,0,1-.94,0l-.26.15c-.65.06-2.3.23-3.9.52s-3.18.6-3.83.71l0,0c-2,.41-5.94,1.22-7.87,1.87a4.36,4.36,0,0,0-1.08.11c.19,0,.15.11,0,.14-1,.21,0,.09-1,.38s-5.44,1.3-6.45,1.45a15.92,15.92,0,0,1-1.68.58l0-.06c-.55.21-3.75.81-4.38,1h.09c-.54.24-.51,0-1,.07.1.18-.36.41-.54.46v0c-.27.09-.87.41-1.32.54v-.11a6.34,6.34,0,0,1-1.36.37,11.43,11.43,0,0,0-2.46.39l-.6-.21-.07,0a17,17,0,0,0,0,2c.1,1,.36,2.19,1,2.48v.11l.23-.06c.28,0,.39-.15.39,0l-.38,0c.28,0,.1.08,0,.16a2,2,0,0,1,.34,0s-.05,0-.1,0c.14-.06.33-.21.52-.19s0,.17.39.12a50.12,50.12,0,0,0,5.18-.92s0,0,0,.08c.51-.16,1-.26,1.44-.42a.48.48,0,0,1,.24.11,6.78,6.78,0,0,1,1.26-.38l.92-.23Z"/><path class="cls-1" d="M72.73,96.6a.54.54,0,0,0-.39-.12A.41.41,0,0,0,72.73,96.6Z"/><polygon class="cls-1" points="72.34 96.48 72.33 96.48 72.34 96.48 72.34 96.48"/><path class="cls-1" d="M46.9,105.8l.11,0A.2.2,0,0,0,46.9,105.8Z"/><path class="cls-1" d="M65.59,97v.2c-.32,0-.12-.21-.42-.12-.07.3-.5,0-.58.21,0,0-.15,0-.15-.09,0,.15-.14.06-.23.11s0,0,.06.08l-.2.09c-.09,0-.12-.12,0-.15a33.11,33.11,0,0,0-3.79.51c.1.1.27,0,.37.16-.14.13-.24,0-.29.12-.1-.25-.35,0-.51-.25l0,.16-.09-.08c-.66.28-.15.1-.75.18-.35.08-.48.32-.68.28,0,0,.12.07,0,.13,0-.13-.23.14-.29,0-.09,0-.38.07-.25.23-.06-.08-.33-.07-.19-.18-.09,0-.17,0-.23,0l.12,0c-.28.08-.47,0-.63.16l.12.06c-.17,0-.31.08-.41-.09l.17-.09a1.77,1.77,0,0,0-.68.24h.09c-.28.23-1.84.66-2.08.93l.15.12-.22.16s0-.47.07-.43a34.12,34.12,0,0,1-3.66.62c-.2,0-.07-.21-.07-.24-.22.09-.08.17-.28.19s0-.12,0-.14-.17,0-.16.06.09.21.16.32l-.26,0v-.11c-.05,0-.1.32-.36.3-.42,0-.88.11-1.3.15,0-.07.08-.12.16-.17s-.14,0-.2,0c.12.1-.16.1-.08.14-.27.32-.7.11-1,.33,0,.24-.11,4.23-.08,4.52a.44.44,0,0,1-.21,0c0,.07.21.08.3,0v-.16c.2-.08.06.09.27,0,0,.13-.17.18-.34.21.16,0,.32.07.37-.08.15,0,0,.16.18.19s.27-.19.42-.14v0c.36.09.5-.26.83-.17l0,0c.12.06.32-.07.53,0-.06,0-.12-.1,0-.13s.38,0,.57,0l.14-.14c.8-.09,3.89-.76,4.66-.93l0,0c1.18-.27,3.63-.69,4.81-1.08a1.52,1.52,0,0,0,.67,0c-.11,0-.09-.12,0-.13.61-.09,0-.09.63-.25a22.64,22.64,0,0,1,4-.56c.3-.23.73-.16,1-.32l0,0c.34-.13,2.33-.25,2.72-.36l0,0c.33-.16.31,0,.6.07-.07-.2.22-.35.33-.38v0a4.87,4.87,0,0,1,.83-.34v.11a2.36,2.36,0,0,1,.85-.18,4.17,4.17,0,0,0,1.52,0l.36.29,0,0s.07-1,0-2a4.53,4.53,0,0,0-.54-2.58v-.11l-.14,0c-.18,0-.25.09-.25,0h.24c-.18,0-.06-.08,0-.15a.45.45,0,0,1-.2,0s0,0,.05.07-.21.16-.33.12,0-.18-.24-.18a24.25,24.25,0,0,0-3.3.18s0,0,0-.07c-.33.09-.62.11-.92.21a.31.31,0,0,1-.15-.15s-.38.13-.8.2S65.61,97,65.59,97Z"/><path class="cls-1" d="M36.27,98a.26.26,0,0,0,.24.12C36.43,98,36.36,98,36.27,98Z"/><polygon class="cls-1" points="36.51 98.11 36.51 98.11 36.51 98.11 36.51 98.11"/><path class="cls-1" d="M51.9,90.82l-.07,0A.08.08,0,0,0,51.9,90.82Z"/><path class="cls-1" d="M40.56,98l0-.2c.2,0,.09.22.26.14,0-.28.31,0,.35-.16,0,0,.1,0,.1.11,0-.16.09-.05.14-.09s0,0,0-.09l.12-.07c.06,0,.08.13,0,.16a14.07,14.07,0,0,0,2.32-.16c-.06-.11-.17,0-.23-.19s.14,0,.17-.09c.07.26.22,0,.33.3v-.16l.06.09c.4-.21.09-.09.47-.1.21,0,.29-.27.42-.21s-.08-.08,0-.13c0,.13.14-.11.18,0,.05,0,.23,0,.15-.21,0,.09.2.11.12.2s.11,0,.14,0l-.07-.05c.17,0,.29.09.39-.09l-.08-.07c.11,0,.2,0,.26.13l-.1.07a.74.74,0,0,0,.42-.17h-.06c.17-.2,1.14-.47,1.29-.72l-.1-.13.14-.13s0,.46,0,.42a15.16,15.16,0,0,1,2.29-.31c.13.07.05.22.05.25s0-.16.17-.16,0,.11,0,.13.11,0,.11-.05-.07-.22-.11-.33h.16V96s.06-.31.22-.27.55-.06.82-.06c0,.06,0,.11-.1.15s.09,0,.13,0c-.08-.11.1-.09,0-.13.16-.29.44-.08.59-.28,0-.25-.13-4.2-.16-4.49,0,0,.1,0,.12,0a.11.11,0,0,0-.18,0v.15c-.12.07,0-.09-.17-.06,0-.13.09-.17.19-.19-.09,0-.19-.09-.21.06-.09-.05,0-.16-.12-.2s-.15.18-.24.12v0c-.22-.1-.29.23-.49.13v0c-.07-.06-.19,0-.32,0,0,0,.08.11,0,.13s-.23,0-.35-.06l-.08.14c-.48,0-2.36.43-2.84.51l0,0a28.8,28.8,0,0,0-3,.58c-.14-.1-.29-.06-.42-.08.07,0,.06.14,0,.14-.38,0,0,.09-.39.18a9.23,9.23,0,0,1-2.5.18c-.18.21-.46.1-.65.24l0,0c-.21.1-1.47.08-1.71.18l0,0c-.21.13-.21-.07-.39-.11a.32.32,0,0,1-.2.36v0a2.86,2.86,0,0,1-.51.3v-.11c-.14.13-.43.12-.53.14s-.66-.16-1,0l-.25-.29,0,0s.11,3.83.65,4.59V98l.09,0c.11,0,.14-.09.15,0H36.5c.11,0,0,.08,0,.15a.28.28,0,0,1,.13,0s0,0,0-.06.12-.16.19-.12,0,.18.15.18a13.07,13.07,0,0,0,2-.05s0,0,0,.07c.19-.07.37-.08.55-.15a.33.33,0,0,1,.1.15C39.51,98.09,40.54,98,40.56,98Z"/><path class="cls-1" d="M63.07,82.19c0-.12-.08-.12-.13-.14S63,82.21,63.07,82.19Z"/><polygon class="cls-1" points="62.94 82.05 62.94 82.05 62.94 82.05 62.94 82.05"/><path class="cls-1" d="M54,87.78h0Z"/><path class="cls-1" d="M60.71,81.86v.2c-.11,0,0-.22-.14-.17,0,.29-.17,0-.2.13,0,0,0,0,0-.11,0,.15,0,0-.07.08s0,0,0,.09l-.07.06s0-.14,0-.16a4.24,4.24,0,0,0-1.28-.06c0,.11.09,0,.12.21s-.08,0-.1.08c0-.27-.12-.06-.17-.34V82l0-.09c-.22.16,0,.08-.25,0s-.17.24-.24.16a.16.16,0,0,1,0,.14c0-.14-.08.1-.1,0,0,0-.13,0-.09.19,0-.09-.11-.13-.06-.21s-.06,0-.08,0l0,.05c-.1,0-.15-.11-.21.06l0,.07c-.06,0-.11,0-.14-.15l.06-.06a.28.28,0,0,0-.24.12h0c-.1.18-.65.34-.74.57l0,.14-.08.12s0-.46,0-.41a4.59,4.59,0,0,1-1.28,0c-.07-.08,0-.22,0-.24s0,.15-.11.13a.3.3,0,0,1,0-.13s-.06,0-.06,0,0,.22,0,.34l-.09,0v-.11s-.05.31-.13.25a3.57,3.57,0,0,0-.46,0,.2.2,0,0,1,.06-.14s-.05,0-.06,0c0,.12-.07.08,0,.13-.11.27-.25,0-.35.2s-.23,4.19-.24,4.48c0,0-.07,0-.08,0s.07.1.11.06v-.16c.08,0,0,.1.09.09a.13.13,0,0,1-.12.16c.05,0,.1.11.13,0,0,.05,0,.16,0,.21s.1-.16.15-.09v0c.12.13.19-.19.3-.06l0,0c0,.07.12,0,.19,0s0-.12,0-.13.14,0,.2.1l.06-.13a15.81,15.81,0,0,0,1.67-.19v0a8.88,8.88,0,0,0,1.74-.28c.08.12.17.09.24.12s0-.13,0-.13c.22,0,0-.08.23-.15a3.37,3.37,0,0,1,1.45.06c.11-.19.27-.06.38-.18v0c.13-.07.86,0,1,0l0,0c.12-.12.11.07.22.13a.33.33,0,0,1,.11-.34v0c.06,0,.19-.22.29-.26v.11c.08-.12.25-.09.31-.1s.38.21.56,0l.15.31,0,0A30.36,30.36,0,0,0,63,82.32v-.11l0,0c-.06,0-.08.08-.08,0H63c-.06,0,0-.09,0-.15a.12.12,0,0,1-.07,0s0,0,0,.07-.06.14-.1.1,0-.18-.09-.19a4.07,4.07,0,0,0-1.09-.1s0,0,0-.07-.21,0-.3.1a.35.35,0,0,1-.06-.16C61.28,81.84,60.72,81.89,60.71,81.86Z"/><path class="cls-1" d="M56.41,228.14a1,1,0,0,0,.21-.56A.87.87,0,0,0,56.41,228.14Z"/><polygon class="cls-1" points="56.63 227.58 56.63 227.58 56.62 227.58 56.63 227.58"/><path class="cls-1" d="M47.7,189.57l.07.11A.41.41,0,0,0,47.7,189.57Z"/><path class="cls-1" d="M57.56,217.36l-.2,0c0-.5.23-.14.19-.61-.28-.18,0-.76-.11-.92,0,0,0-.23.12-.21-.15-.07,0-.24-.08-.38s0,0-.09.08l0-.33c0-.13.14-.16.15,0a52.57,52.57,0,0,0,0-5.89c-.11.12,0,.4-.2.52-.11-.24,0-.36-.09-.47.27-.1,0-.53.31-.73l-.16-.06.09-.13c-.21-1.07-.09-.24-.1-1.2-.07-.55-.3-.8-.24-1.11,0,0-.09.18-.13,0,.13,0-.13-.38,0-.46s0-.59-.21-.42c.08-.08.09-.49.19-.26a1,1,0,0,0,0-.36l0,.18c-.06-.46.06-.73-.14-1l-.06.18c0-.28-.08-.51.09-.63l.09.27a4,4,0,0,0-.23-1.1v.14c-.21-.47-.69-3-1-3.4l-.12.23-.17-.37c0,.05.48.12.44.17,0-.41-.31-1.69-.57-2.95s-.62-2.52-.65-2.92.2-.11.22-.11c-.14-.37-.18-.13-.27-.45,0-.09.12,0,.15,0-.06-.13-.06-.28-.12-.27,0,.19-.19.17-.27.27l-.12-.41h.11c0-.1-.36-.14-.44-.56s-.2-.7-.31-1.05l-.44-1c.06,0,.16.11.26.24a.81.81,0,0,1-.11-.33c0,.21-.2-.25-.18-.1a1.7,1.7,0,0,1-.48-.75,2.07,2.07,0,0,0-.5-.71c-.11,0-1.16.35-2.15.73a17.07,17.07,0,0,0-2.07.93.76.76,0,0,1-.1-.22c0,.06,0,.25.12.32l.14-.07c.17.18-.05.1.09.3-.1.08-.24-.09-.35-.25.08.16.09.35.24.34,0,.17-.14.07-.08.26s.3.19.32.36h0c.07.42.44.51.49.92l-.06,0c0,.16.19.37.22.63,0-.08.06-.17.13,0a3.09,3.09,0,0,1,.15.72l.19.17c.07.26.23.7.41,1.24s.34,1.23.53,1.89c.33,1.36.64,2.75.72,3.32l0,0c.34,1.73.72,5.37,1,7.21a4.13,4.13,0,0,0-.07,1c0-.17.13-.12.14,0,0,.91.08.05.18,1a39,39,0,0,1,0,6.11,11.49,11.49,0,0,1,.15,1.64l0,0c.07.54-.17,3.57-.14,4.2l0-.08c.1.54-.1.46-.18.89.21,0,.3.42.3.6h0c0,.27.16.88.16,1.33l-.11,0a5.32,5.32,0,0,1,0,1.33,10.36,10.36,0,0,0-.3,2.31l-.37.48,0,.08a16.32,16.32,0,0,0,2,.52c1,.2,2.19.29,2.65-.22l.11,0v-.23c.08-.26,0-.39.08-.36l-.05.36c.06-.27.09-.07.15,0a1,1,0,0,1,.09-.31c0-.05,0,0-.08.08a1,1,0,0,1,0-.53c0-.28.18,0,.23-.32a49.18,49.18,0,0,0,.53-5s0,0,.06.06c0-.51,0-1,0-1.43a.36.36,0,0,1,.17-.19,5.46,5.46,0,0,1,0-1.26c0-.33,0-.66,0-.91A2.42,2.42,0,0,1,57.56,217.36Z"/><path class="cls-1" d="M68.34,228.36a1.33,1.33,0,0,0,0-.64A.92.92,0,0,0,68.34,228.36Z"/><polygon class="cls-1" points="68.39 227.71 68.39 227.71 68.39 227.72 68.39 227.71"/><path class="cls-1" d="M72.69,180.37c0,.06-.09.12-.13.19A1.27,1.27,0,0,0,72.69,180.37Z"/><path class="cls-1" d="M68,216.3l-.2,0c0-.57.23-.16.19-.68-.27-.22.05-.87-.08-1.06,0,0,0-.25.13-.23-.15-.08,0-.26-.05-.42s0,0-.09.08l0-.38c.06-.14.15-.17.15,0,.08-1,.66-5.58.8-6.61-.13.11-.1.44-.3.54-.06-.29.1-.4,0-.53.28-.07.15-.59.45-.76l-.14-.1L69,206c0-1.23,0-.29.18-1.34.09-.61-.07-.94.08-1.27,0,0-.13.17-.14,0,.14,0,0-.44.13-.49s.12-.66-.09-.53c.11-.06.23-.5.26-.22a1.34,1.34,0,0,0,.08-.41l-.1.19c.1-.52.3-.76.21-1.13l-.11.17c.06-.3.1-.56.31-.63l0,.32a5.88,5.88,0,0,0,.18-1.25l0,.15c-.08-.58.58-3.37.51-3.92l-.21.18,0-.45c0,.05.37.34.32.36.15-.43.56-1.82,1-3.15a22.74,22.74,0,0,1,1.31-3c.22-.27.23,0,.25.06.13-.39-.06-.22.11-.53.06-.08.09.06.08.12,0-.14.16-.25.11-.29-.13.15-.26,0-.39,0l.21-.4.09.07c0-.09-.16-.37.09-.74.38-.66.8-1.34,1.19-2,0,0,0,.2,0,.35a.9.9,0,0,1,.2-.27c-.19.09.1-.31,0-.22,0-.64.68-1,.8-1.54-.08-.09-.78-.91-1.45-1.77s-1.33-1.76-1.44-1.85a1.87,1.87,0,0,1,.26-.3c-.08,0-.31.25-.39.42l.11.12c-.21.38-.13,0-.37.37-.11-.06.09-.39.28-.66-.19.23-.44.42-.41.6-.21.2-.1-.12-.35.13a2,2,0,0,1-.43.73v0c-.53.48-.43,1-.86,1.42v-.08c-.17.15-.31.56-.57.86.08-.08.2-.12.1.09-.3.34-.39.65-.64.88,0,.11,0,.23,0,.34a40.17,40.17,0,0,0-1.85,4.15c-.72,1.75-1.2,3.54-1.46,4.26v-.07a57.15,57.15,0,0,0-2,9.09,6.37,6.37,0,0,0-.36,1.2c.09-.2.17-.11.13.05-.2,1.13.07.09,0,1.25-.17,1.39-.78,6.34-.93,7.58.14.65-.07,1.44,0,2.07l0-.07c0,.34,0,1.46-.08,2.59s0,2.29,0,2.68l0-.11c.12.68-.09.59-.11,1.14.19-.08.34.5.37.72h0c0,.34.28,1.09.34,1.64h-.12a11.49,11.49,0,0,1,.26,1.66c0,.37,0,.88,0,1.39a7.71,7.71,0,0,0,.29,1.58l-.2.72,0,.09a11.77,11.77,0,0,0,2,0c1-.11,2.17-.42,2.47-1.1h.11l-.05-.24c0-.29-.14-.4,0-.4l0,.39c0-.29.08-.1.16,0a1.29,1.29,0,0,1,0-.34c0-.05,0,0-.06.1a1.24,1.24,0,0,1-.18-.55c0-.3.17,0,.13-.39-.11-.91-.12-1.84-.2-2.75s0-1.84-.13-2.79c0,0,0,0,.07.06-.09-.56-.06-1.07-.12-1.59a.41.41,0,0,1,.16-.23,7,7,0,0,1-.11-1.41c0-.37,0-.74,0-1A4,4,0,0,1,68,216.3Z"/><path class="cls-1" d="M46.79,61.11a4.78,4.78,0,0,0,1.27-.4A4,4,0,0,0,46.79,61.11Z"/><polygon class="cls-1" points="48.07 60.71 48.08 60.7 48.06 60.71 48.07 60.71"/><path class="cls-1" d="M69.71,53.39l-.32.08A1.67,1.67,0,0,0,69.71,53.39Z"/><path class="cls-1" d="M70.35,50.68l0-.21c1.11-.8.46,0,1.46-.85.23-.51,1.68-1.47,1.87-2,0,0,.44-.51.49-.42,0-.26.39-.6.59-1,0-.16-.1.08-.2.15a9.51,9.51,0,0,0,.46-.9c.23-.32.36-.37.17,0A10.53,10.53,0,0,0,76.31,42a12.07,12.07,0,0,0-.42-5.38A12.94,12.94,0,0,0,73.31,32a12.77,12.77,0,0,0-1.57-1.51,12.44,12.44,0,0,0-1.19-.83c.24.27,1,.72,1.11,1.07-.64-.36-.83-.68-1.16-.75-.08-.39-1.31-.88-1.7-1.32l-.25.06-.29-.23c-1.5-.49-1.69-.44-1.81-.51a11.2,11.2,0,0,0-1.54-.37,26.92,26.92,0,0,0-3.17,0c.13,0,.47.09.07.14-.07-.13-1,.14-1.24,0-.39,0-1.63.24-1.18.35-.23-.07-1.33.16-.69-.07a4.85,4.85,0,0,0-1,.26l.48-.08a8.51,8.51,0,0,0-2.64,1L56,29a6.15,6.15,0,0,1-1.66.64l.71-.44a9,9,0,0,0-2.71,2l.32-.27a15.36,15.36,0,0,0-1.36,1.61,12,12,0,0,0-1.46,2.78A11.64,11.64,0,0,0,49.14,40c.06-.18.11-.36.18-.53q0,.51.06,1c0-.12-.44-.51-.39-.62A17.49,17.49,0,0,0,49.11,43a18.72,18.72,0,0,0,1.24,4.6,18.15,18.15,0,0,0,2.35,4.1,20.08,20.08,0,0,0,2,2.24c.55.62,0,.27-.07.28.79.64.43.18,1.07.74.17.17-.1.05-.22,0,.3.23.56.46.62.43-.35-.32-.08-.34-.17-.55l.87.66-.1.06a6.69,6.69,0,0,1,1.55.67,17.31,17.31,0,0,0,5.12,1.92,2,2,0,0,1-.79,0,6.69,6.69,0,0,1,.8.21c-.4-.19.75.06.43,0a25,25,0,0,0,4.14,0c0-.12.59-1.22,1-2.32a9.76,9.76,0,0,0,.56-2.39,5.93,5.93,0,0,1,.6-.1,2.32,2.32,0,0,0-.85.12l0,.17c-.62.15-.16-.06-.77,0-.05-.12.51-.22,1-.33-.44.07-.89.05-1,.2-.43,0,0-.16-.48-.16a3.57,3.57,0,0,1-1.24.11v0a13.63,13.63,0,0,1-2.45-.21l.1,0c-.3-.14-1-.2-1.49-.45.15.07.27.2-.08.11a9.73,9.73,0,0,1-1.47-.7l-.48-.1a13.18,13.18,0,0,1-6.64-8.63,12.53,12.53,0,0,1-.34-2.85v.09a10.11,10.11,0,0,1,.46-3.14,6.28,6.28,0,0,1,1.84-2.88,9,9,0,0,1,3.39-1.66,13.17,13.17,0,0,1,3.34-.45c.57.14,1.35.22,1.91.39-.3-.13-.18-.19.07-.12.87.23.9.24.94.21s.09-.06.93.28a7.32,7.32,0,0,1,2.06,1.28,7.42,7.42,0,0,1,2,2.8,7.29,7.29,0,0,1,.52,3.27,5.21,5.21,0,0,1-.56,2,6.14,6.14,0,0,1-1.71,2.48l0-.1a14.08,14.08,0,0,1-3.7,2.39c-1.84.89-4,1.76-4.62,2.11l.2-.06a8.53,8.53,0,0,1-2.06.76c.21.13-.78.7-1.17.89v-.05c-.58.3-1.86,1.07-2.83,1.53v-.12c-.77.48-2.33,1.13-2.91,1.4a54,54,0,0,0-5.27,2.27l-1.29.23-.16.11s-.31,4.32,2.4,4v.12l.46-.22c.59-.21.8-.44.81-.32l-.78.33c.58-.22.21,0,0,.16a5.66,5.66,0,0,1,.68-.24c.1-.09-.1,0-.2,0a5.4,5.4,0,0,1,1.07-.58c.58-.25.11.15.79-.14,3.61-1.53,7.13-3,10.73-4.62.1,0,0,0-.09.12l3-1.44a1.28,1.28,0,0,1,.5-.05c-.11,0,1.25-.62,2.73-1.36.74-.36,1.49-.78,2.07-1.11Z"/><path class="cls-1" d="M44.18,48.81c0-.13,0-.14,0-.18C44.11,48.75,44.13,48.8,44.18,48.81Z"/><polygon class="cls-1" points="44.13 48.63 44.13 48.63 44.13 48.63 44.13 48.63"/><path class="cls-1" d="M46.67,24.13l-.09.09S46.65,24.17,46.67,24.13Z"/><path class="cls-1" d="M42.78,44.26h-.2c-.06-.34.21-.13.11-.44-.3-.08,0-.52-.22-.61,0,0,0-.15.1-.15-.16,0-.06-.15-.11-.24s0,0-.09.06l-.08-.2c0-.1.12-.13.15,0,0-.28-.07-1.09-.08-1.85s0-1.46,0-1.71c-.12.06-.06.22-.24.27-.1-.14,0-.2-.06-.26.28,0,.09-.3.38-.37l-.15,0,.1-.06c-.07-.58-.07-.14.06-.62,0-.28-.12-.47,0-.6,0,0-.12.06-.13,0s0-.22.09-.22.11-.3-.09-.28c.1,0,.21-.21.24-.06,0-.07.08-.12.06-.19l-.08.07c.05-.25.25-.31.16-.53l-.1.06c0-.15.09-.27.28-.25v.17a1.75,1.75,0,0,0,.17-.61l0,.07c-.09-.34.63-1.68.64-2h-.19l0-.26s.3.37.25.36a17.46,17.46,0,0,1,1.16-1.45,9.5,9.5,0,0,1,1.38-1.31c.2-.08.18.14.19.16.14-.21,0-.19.14-.32s.07.09.06.13.15-.1.11-.15-.2-.13-.31-.18l.21-.17.07.09s-.09-.33.16-.46.73-.61,1.12-.89c0,.06,0,.15-.07.24s.11-.11.19-.11c-.16,0,.1-.18,0-.16.09-.43.6-.51.73-.85-.14-.2-2.07-3.7-2.24-3.93a.57.57,0,0,1,.2-.12c-.06,0-.23.06-.29.15l.08.14c-.15.18-.1,0-.28.11-.08-.09.07-.25.21-.37-.14.09-.33.12-.3.27-.16.06-.08-.13-.27-.06s-.15.33-.32.37v0c-.38.14-.34.52-.7.64v-.06c-.14,0-.27.26-.5.34.07,0,.17,0,.08.12-.26.1-.34.28-.55.33l-.07.22a26.07,26.07,0,0,0-3.87,4.2v0a17.83,17.83,0,0,0-1.67,2.7,10.94,10.94,0,0,0-1,3.16,2.57,2.57,0,0,0-.32.85c.08-.14.16-.07.13,0-.13.81.06.07,0,.89,0,.47-.07,1.58,0,2.64s.08,2,.09,2.42c.23.37.17.88.34,1.23l0,0c.07.22.14.83.24,1.56a9.27,9.27,0,0,0,.38,1.74v-.08c.24.42,0,.41.09.8.18-.11.42.24.49.39h0c.12.21.49.65.71,1l-.1,0c.25.25.58.86.77,1.07A4,4,0,0,0,42,52.72a3.79,3.79,0,0,0,.45.54h.1a8.47,8.47,0,0,0,.9-1.82,13.26,13.26,0,0,0,.62-2.56l0-.1h-.05c0-.08-.11,0,0-.07l.06.05c0-.06,0-.09.07-.14a.15.15,0,0,1,0-.08s0,0,0,.07-.13.1-.13,0,.09-.16,0-.19a6.88,6.88,0,0,1-.75-1.72s0,0,.07,0c-.13-.23-.18-.48-.3-.73a.28.28,0,0,1,.13-.15A6,6,0,0,1,42.78,44.26Z"/><path class="cls-1" d="M73.64,56.72a.22.22,0,0,0,0,.24C73.7,56.84,73.7,56.76,73.64,56.72Z"/><polygon class="cls-1" points="73.65 56.96 73.66 56.96 73.65 56.96 73.65 56.96"/><path class="cls-1" d="M85.7,66.64l0-.07A.09.09,0,0,0,85.7,66.64Z"/><path class="cls-1" d="M75.54,59.75l.17-.11c.1.13-.16.17,0,.27.27-.13.13.22.28.17,0,0,0,.08,0,.12.13-.07.07,0,.13.06s0,0,.06-.08l.11.06c0,.06-.09.12-.13.1a13.82,13.82,0,0,0,1,1.66c.08-.09,0-.13.1-.26s0,.12.14.09c-.21.18,0,.19-.16.38l.14-.06-.06.09c.32.21.12,0,.24.31s.34.1.33.23,0-.1.11-.08c-.11.08.15.06,0,.15s.1.17.23,0c-.06.07,0,.21-.14.18s0,.09.07.1v-.08c.1.12,0,.26.21.27l0-.09c.05.08.1.14,0,.26l-.1-.06a.57.57,0,0,0,.28.27l0,0c.24.05.77.72,1,.76l.1-.13.16.06s-.44.15-.4.12a9.18,9.18,0,0,1,.85,1.76c0,.13-.2.11-.22.12s.16,0,.19.09-.11,0-.13,0,0,.09.06.07.2-.12.3-.18l0,.13-.1,0s.31,0,.31.11.16.44.22.66c-.06,0-.11,0-.17,0s0,.07,0,.11.11.06.14,0c.31.06.15.36.38.43l4.33-1.2a.19.19,0,0,1,0,.13.12.12,0,0,0,0-.19l-.15,0c-.09-.1.08-.06,0-.17.12,0,.18,0,.23.13,0-.08,0-.2-.11-.19,0-.09.15,0,.17-.16s-.21-.1-.17-.2h0c0-.23-.28-.22-.23-.44h.05c0-.09-.1-.18-.07-.31,0,0-.09.1-.13,0s-.08-.21,0-.34l-.16,0a22.47,22.47,0,0,0-1.3-2.48h0A16.12,16.12,0,0,0,82.15,60c0-.16-.06-.28-.09-.4,0,.08-.1.11-.12.06-.18-.31-.08,0-.32-.26a10.94,10.94,0,0,1-1.24-2.06c-.26-.06-.3-.34-.51-.43h0c-.17-.13-.77-1.18-1-1.33v0c-.23-.09,0-.19-.11-.36a.33.33,0,0,1-.41,0l0,0A3.25,3.25,0,0,1,78,55L78,55c-.18,0-.32-.27-.4-.34s-.22-.61-.55-.74l.1-.37h-.05s-.75.59-1.53,1.3a9,9,0,0,0-1.79,1.93l-.08.07.06,0c0,.1.14,0,0,.12l-.07-.1c0,.09,0,.08-.11.1a.2.2,0,0,1,0,.11s0,0,0-.06.19,0,.19.06-.13.12-.07.21a11.65,11.65,0,0,0,.93,1.36s0,0-.07,0c.15.1.23.22.36.31a.35.35,0,0,1-.09.16C75,59.05,75.56,59.72,75.54,59.75Z"/><path class="cls-1" d="M78.76,52.4c0,.13.1.16.17.2C78.9,52.47,78.85,52.41,78.76,52.4Z"/><polygon class="cls-1" points="78.93 52.6 78.93 52.6 78.93 52.6 78.93 52.6"/><path class="cls-1" d="M95.07,51h0Z"/><path class="cls-1" d="M82.55,53.86l.06-.19c.18,0,0,.23.18.23.13-.26.27.09.37,0,0,0,.07,0,0,.14.06-.15.1,0,.16,0s0-.05,0-.1l.13,0c0,.06,0,.15,0,.15a12.3,12.3,0,0,0,2.11.65c0-.12-.14-.07-.14-.26s.12.07.19,0c0,.28.18.11.18.4l.06-.14,0,.1c.43-.06.11-.06.45.06s.35-.15.44-.05,0-.11,0-.13.16-.06.16.08c0,0,.21,0,.2-.14,0,.09.14.17,0,.22s.08.06.13,0l0-.07c.17,0,.23.18.38,0l0-.08c.11,0,.19,0,.19.2l-.12,0a.63.63,0,0,0,.43,0l0,0c.22-.13,1.18,0,1.39-.23l0-.16.17-.08s-.18.43-.18.39a15,15,0,0,1,2.13.49c.09.11,0,.23,0,.25s.09-.13.2-.09,0,.1,0,.12.09,0,.11,0,0-.23,0-.35l.15.06,0,.1s.15-.27.28-.18a7.08,7.08,0,0,0,.75.22c0,.07-.08.09-.14.12s.08,0,.1.06c0-.13.13,0,.09-.11.25-.22.42.08.62-.06s1.35-4,1.42-4.26c0,0,.1,0,.11.06a.11.11,0,0,0-.15-.1l0,.15c-.13,0,0-.1-.12-.12S94.91,51,95,51c-.08,0-.14-.15-.21,0-.06-.07,0-.15,0-.23s-.2.12-.26,0v0c-.16-.18-.34.11-.48-.06l0,0c0-.09-.18,0-.28-.13s0,.13,0,.13-.21-.05-.28-.17l-.12.1c-.44-.14-2.23-.4-2.68-.49l0,0c-.7-.1-2.09-.46-2.83-.47-.08-.14-.24-.15-.34-.21s0,.14,0,.12c-.35-.09,0,.08-.41,0a8.55,8.55,0,0,1-2.27-.69c-.23.13-.44-.06-.66,0l0,0c-.22,0-1.32-.43-1.57-.42l0,0c-.23.06-.16-.13-.3-.23a.33.33,0,0,1-.31.27l0,0a3.33,3.33,0,0,1-.55.11l0-.11c-.17.08-.42,0-.52,0s-.52-.38-.86-.31L80,47.78l0,0s-1.24,3.62-1,4.51l0,.11H79c.08.08.16,0,.13.07l-.13,0c.09,0,0,.09,0,.14a.22.22,0,0,1,.1.09s0,0,0-.08.16-.11.21,0,0,.17.07.21a9.49,9.49,0,0,0,1.76.63c0,.05,0,.05,0,.06.2,0,.36.06.54.05a.4.4,0,0,1,0,.18C81.59,53.6,82.54,53.83,82.55,53.86Z"/><path class="cls-1" d="M75.17,28.27a11.91,11.91,0,0,0,2-.91A11.57,11.57,0,0,0,75.17,28.27Z"/><polygon class="cls-1" points="77.16 27.35 77.16 27.35 77.14 27.36 77.16 27.35"/><path class="cls-1" d="M86.68,29.16l.43,0Z"/><path class="cls-1" d="M72.82,16.88l-.2.17h0c0-.11.22-.18.17-.2s-.13,0-.11-.08a4.14,4.14,0,0,0,0-1.13s0-.55.12-.52c-.15-.17,0-.58-.07-.93,0-.13,0,.09-.09.19l0-.82c0-.31.14-.39.15-.05,0-.13,0-.29,0-.49s0-.18,0-.28v0l0-.06s.06,0,.09,0h0l1.15,0c3.11-.09,6.23-.2,7.37-.28-.29-.1-1,0-1.27-.17.6-.13.89,0,1.15-.12.24.27,1.33,0,1.8.27l.17-.16.31.08a15,15,0,0,1,3-.15c1.37-.08,2-.32,2.77-.27-.11,0-.42-.08-.07-.13.07.13.94-.14,1.12,0,.35,0,1.47-.06,1.08-.22.2.08,1.2.08.61.18a6.13,6.13,0,0,0,.9,0l-.43,0a13.38,13.38,0,0,0,2.5-.15l-.42-.05a3.23,3.23,0,0,1,1.52.09l-.69.09a26.69,26.69,0,0,0,2.75-.22h-.34c.33-.06,1.06-.14,2-.22l.31,0,.07,0,.16,0a.48.48,0,0,1,.37,0c.15.13.16.33.24.49a2.26,2.26,0,0,1,.07.34c0,.14.06.27.08.38a5,5,0,0,0,.14.54l.08-.53.23.94c0-.11-.51-.41-.48-.51.13,1,.52,4.16.91,7.28.12,1,.25,2.06.35,2.91,0,.09,0,.19-.05.25a.36.36,0,0,1-.22.05h-.33c-.24-.06-.11-.22-.13-.24a.18.18,0,0,0-.12.1s0,0,0,0h0l-.23,0c-.22,0,0-.12.15-.15-.34,0-.66,0-.69.08.44,0,.27.21.46.32l-1,0,0-.12a4.07,4.07,0,0,1-1.54.35c-1.68.06-3.5.22-5.18.31,0-.07.37-.13.72-.19a4.08,4.08,0,0,1-.78,0c.42.09-.7.13-.38.16-1.21.35-2.83.21-3.9.46-.08.25-2.06,4.34-2,4.63a7.14,7.14,0,0,1-.78,0,3.41,3.41,0,0,0,1.11,0l0-.16c.81-.11.2.08,1,0,0,.12-.68.2-1.32.25A4,4,0,0,0,88.5,29c.55,0,0,.16.61.17a8.05,8.05,0,0,1,1.61-.2v0c1.31,0,2-.33,3.18-.28l-.12.06c.42,0,1.24-.11,2-.08-.22,0-.42-.1,0-.14.88,0,1.47-.1,2.11,0l.61-.17,4.07-.28A12.9,12.9,0,0,0,105,27.8a3.25,3.25,0,0,0,2.46-3.09,6.71,6.71,0,0,0-.09-1.32l-.16-1.34L106,12.87l0,.12c-.08-.6-.17-1.28-.26-2a17.23,17.23,0,0,0-.32-2.12,3.9,3.9,0,0,0-1-1.78,4.1,4.1,0,0,0-3-1.06l-2.66.1-4,.19c-2.61.13-5,.27-6.84.4-.75-.09-1.77,0-2.55,0,.43,0,.29.13,0,.14-2.37.08-.16.09-2.55.23-1.37.12-4.7.24-8,.34l-2.64.08a9.51,9.51,0,0,0-2,.16,3.39,3.39,0,0,0-1.51.73A3.66,3.66,0,0,0,67.57,11c0,.84,0,1.53-.07,2a16.34,16.34,0,0,1,.1,2.14v1.09c0,.47,0,.93,0,1.39l0-.23c.05.6-.2,2.22.64,3.45a3,3,0,0,0,1.38,1,3.19,3.19,0,0,0,.91.21l1.07.05c.36,0,.71,0,1.07,0l.52,0h1c.37,0,.65,0,.82,0v0c.5-.08.16.1.22.18a2.9,2.9,0,0,1,1.15-.24l-.12,0,.8,0h.68l0,0-.13.08-.36.06c0,.12-.88.53-1.12.66l-1.37.57a5.29,5.29,0,0,0-1.19.64,4.78,4.78,0,0,1-.74,0l0,.06a4.34,4.34,0,0,1,.25.55c.14.35.28.84.43,1.36.33,1,.8,2.09,2.92,1.38l0,.12.71-.41c.91-.44,1.19-.74,1.23-.64l-1.19.64c.89-.45.34-.09,0,.15.38-.2.75-.39,1.08-.53.14-.13-.17,0-.33.1a12.34,12.34,0,0,1,1.62-1c.91-.5.26.05,1.34-.54l8.72-4.69,2.21-1.2c.72-.25-.16-.27-.49-.36l-1.26-.25L85.16,18c-.07-.06.11,0,.33,0a57.71,57.71,0,0,0-6-.79,2.56,2.56,0,0,1-.79-.24c.07,0-.66,0-1.8,0-.57,0-1.28,0-2,0h-1l-.64,0-.36,0S72.81,16.88,72.82,16.88Z"/><path class="cls-1" d="M20.24,35.13a.3.3,0,0,0,.07-.21c0-.1,0-.21,0-.32A.82.82,0,0,0,20.24,35.13Z"/><polygon class="cls-1" points="20.27 34.6 20.27 34.59 20.27 34.6 20.27 34.6"/><path class="cls-1" d="M38.75,5.85l-.2,0Z"/><path class="cls-1" d="M18.66,23.53l-.2,0c0-.55.22-.17.15-.68-.29-.19,0-.84-.15-1,0,0,0-.25.12-.24-.16-.07,0-.25-.09-.41s0,0-.09.08l0-.36c0-.15.13-.18.15,0,0-.47.07-1.89.08-3.39,0-.75,0-1.5-.06-2.13,0-.07,0-.13,0-.18h0c-.12,0,0,0-.22,0s0,0-.08-.07c.28.09.06,0,.35.11l-.16-.1.09.06-.07-.07c0-.05,0,0,.06,0s-.09-.23,0-.16a.44.44,0,0,1-.05-.13c.05.13,0-.1.07,0l.28-.07c.12-.05.2-.1.09-.18.11.08.57,0,.31.16a1.52,1.52,0,0,0,.41-.07l-.2,0c.51-.12.82,0,1.13-.24l-.2,0c.3-.07.56-.12.71,0l-.3.11a5.26,5.26,0,0,0,1.23-.32l-.15,0c.52-.27,3.35-.9,3.82-1.21l-.25-.1.41-.19c-.05,0-.13.49-.18.45.92-.17,5.74-1.09,6.62-1.14.36,0,.1.21.1.23.41-.12.15-.17.51-.22.1,0,0,.11,0,.14.15,0,.31,0,.31-.09-.21,0-.15-.2-.25-.3l.46-.06v.11c.1,0,.21-.34.67-.36.77-.08,1.6-.26,2.37-.36,0,.07-.16.13-.31.2a.88.88,0,0,1,.36,0c-.21-.08.31-.13.15-.15.52-.37,1.29-.24,1.76-.51,0-.25.37-4.31.32-4.59A2,2,0,0,1,39,6c-.05-.06-.36,0-.51,0v.16c-.36.12-.1-.07-.46,0,0-.13.29-.21.58-.27-.27,0-.54,0-.63.14-.25,0,0-.16-.3-.16a1.77,1.77,0,0,1-.73.21v0c-.61,0-.87.35-1.44.31l0-.05c-.2,0-.56.12-.92.1.1,0,.2.08,0,.13-.42,0-.67.12-1,.07l-.26.17C32,7,26.5,8.08,25.11,8.33l.05,0-4.3.79-2.37.45-2.87.58a20.94,20.94,0,0,0-2.22.25c.41,0,.36.08.08.12s-.66.11-.77.14A6.8,6.8,0,0,1,13,12.06c.09.58.18,1.54.28,2.68,0,.42.05.87.07,1.34l0,1.09c0,1.46,0,2.95-.09,3.53.18.62.06,1.4.2,2l-.05-.06c0,.32.06,1.43.12,2.54,0,.56.06,1.12.1,1.58,0,.12,0,.24,0,.35s0,.34.08.48l.09.42v-.11c.24.62,0,.57.07,1.09.19-.11.42.42.47.62h0c.1.31.42,1,.56,1.49h-.11a9.27,9.27,0,0,1,.41,1.53,12.11,12.11,0,0,0,.54,2.8c-.06.23-.1.48-.15.72l.06.12s.26,0,.64,0l.31,0a.86.86,0,0,1,.17,0,1.28,1.28,0,0,0,.25.15.69.69,0,0,0,.84-.14,6.89,6.89,0,0,0,.39-.7,3.78,3.78,0,0,0,.17-.35c0-.13.14-.22.35-.22a.88.88,0,0,1,.67.34c.13.06.19-.08.28-.11a.83.83,0,0,0,.34-.4h.11l-.07-.22c0-.29-.17-.39-.06-.4l.08.39c0-.29.07-.1.16,0a1,1,0,0,1,0-.34c-.06,0,0,.05-.05.1a1.05,1.05,0,0,1-.22-.54c-.06-.29.17,0,.1-.4-.33-1.86-.59-3.7-1-5.58,0-.05.05,0,.08.05-.08-.28-.15-.54-.21-.8l-.09-.37c0-.18,0-.07-.05-.12a.4.4,0,0,1,.15-.22A18,18,0,0,1,18.66,23.53Z"/><path class="cls-1" d="M22,21.46a.23.23,0,0,0,.23.11C22.1,21.47,22,21.43,22,21.46Z"/><polygon class="cls-1" points="22.18 21.57 22.18 21.57 22.18 21.57 22.18 21.57"/><path class="cls-1" d="M36.71,14.26h0Z"/><path class="cls-1" d="M26,21.3v-.2c.18,0,.08.22.24.15,0-.29.29,0,.32-.17,0,0,.09,0,.1.1,0-.15.08-.05.12-.09s0-.05,0-.09l.11-.07c.06,0,.08.13,0,.15A13.31,13.31,0,0,0,29,20.91c-.06-.11-.16,0-.22-.2s.14,0,.16-.09c.07.26.2,0,.31.3v-.16l.06.09c.37-.21.08-.09.43-.1.2-.05.27-.27.39-.2a.11.11,0,0,1,0-.14c0,.14.13-.11.17,0s.22,0,.14-.2c0,.09.19.1.11.19s.1,0,.14,0l-.07,0c.16-.05.27.08.36-.1l-.07-.06c.1,0,.18-.05.24.13l-.1.06a.59.59,0,0,0,.4-.16h-.05c.15-.2,1.06-.46,1.2-.7l-.09-.13.13-.13s0,.46,0,.41a13.23,13.23,0,0,1,2.15-.24c.12.06,0,.22,0,.24s0-.15.17-.15,0,.11,0,.13.1,0,.09,0,0-.23-.09-.34h.15v.11s.06-.31.21-.26.52,0,.78,0a.21.21,0,0,1-.1.16s.08,0,.12,0,.1-.08,0-.13c.16-.29.42-.06.57-.26s0-4.2,0-4.49c.06,0,.11,0,.13,0a.12.12,0,0,0-.18-.05v.15c-.11.07,0-.08-.15-.06,0-.13.09-.17.19-.19-.09,0-.19-.09-.21.05-.09,0,0-.15-.11-.2s-.15.18-.24.11v0c-.21-.12-.29.21-.48.1v0c-.07-.07-.19,0-.31,0s.07.11,0,.13-.22,0-.33-.07l-.08.14c-.47,0-2.29.37-2.75.45l0,0a20.77,20.77,0,0,0-2.87.56c-.13-.11-.29-.06-.41-.08.07,0,.06.13,0,.14-.36,0,0,.08-.37.18a9.38,9.38,0,0,1-2.4.22c-.18.2-.44.11-.62.25v-.05c-.2.1-1.41.12-1.64.23l0,0c-.2.14-.2-.06-.38-.09a.31.31,0,0,1-.17.36v0a3.62,3.62,0,0,1-.48.32v-.11c-.12.14-.4.14-.5.17s-.64-.14-.93.06l-.26-.27,0,0s.35,3.81.9,4.54v.11l.08,0c.1,0,.13-.1.14,0h-.13c.1,0,0,.08,0,.15a.28.28,0,0,1,.13,0s0,0,0-.06.1-.17.18-.13,0,.18.15.17a11.3,11.3,0,0,0,1.84-.12s0,0,0,.07c.17-.08.34-.09.5-.17a.39.39,0,0,1,.1.15C25,21.44,25.93,21.28,26,21.3Z"/><path class="cls-1" d="M22.21,29.9a.18.18,0,0,0,.17.13C22.32,29.93,22.27,29.88,22.21,29.9Z"/><polygon class="cls-1" points="22.38 30.04 22.38 30.04 22.38 30.03 22.38 30.04"/><path class="cls-1" d="M33.11,23.2l0,0A0,0,0,0,0,33.11,23.2Z"/><path class="cls-1" d="M25.28,30l0-.2c.14,0,.07.22.2.16,0-.29.21,0,.24-.16,0,0,.07,0,.07.12,0-.16.06-.05.1-.09s0-.05,0-.09l.08-.07c0,.05.06.14,0,.16a7,7,0,0,0,1.65-.09c0-.11-.11,0-.17-.2s.11,0,.12-.09c.07.27.16.05.25.31v-.15l0,.09c.28-.2.06-.09.33-.09s.2-.26.29-.2a.12.12,0,0,1,0-.13c0,.13.09-.11.13,0s.17,0,.1-.19c0,.08.15.11.09.2s.08,0,.1,0l-.05,0c.12,0,.21.09.27-.09l0-.06c.07,0,.13-.05.19.13l-.07.07a.45.45,0,0,0,.29-.16h0c.11-.2.8-.44.9-.68l-.08-.13.09-.13s0,.46,0,.41a8.42,8.42,0,0,1,1.63-.23c.1.06.05.22.05.24s0-.16.12-.16,0,.11,0,.14.08,0,.08-.05-.06-.22-.1-.33h.12v.11s0-.31.14-.26a5.65,5.65,0,0,0,.59,0,.2.2,0,0,1-.06.15s.06,0,.09,0,.07-.08,0-.13c.1-.29.31-.06.41-.26s-.28-4.19-.31-4.48c0,0,.07,0,.09,0s-.1-.09-.13-.05v.16c-.08.06,0-.09-.12-.07s.06-.16.13-.18-.15-.09-.15.05c-.07-.05,0-.16-.1-.2s-.1.17-.17.11v0c-.16-.11-.2.23-.35.11v0c-.06-.07-.14,0-.24,0s.07.11,0,.13-.17,0-.25-.07l-.06.13c-.34,0-1.67.37-2,.44v0a14.66,14.66,0,0,0-2.11.5c-.1-.11-.21-.07-.3-.09s.05.13,0,.13c-.27,0,0,.09-.27.17a4.72,4.72,0,0,1-1.79.11c-.12.2-.32.09-.45.22v0c-.15.08-1.05,0-1.22.12l0,0c-.14.13-.14-.06-.27-.11a.32.32,0,0,1-.13.35v0c-.07,0-.22.24-.35.28v-.11c-.09.13-.29.11-.37.13s-.48-.18-.69,0l-.2-.29v0s.24,3.82.66,4.58v.11l.06,0c.08,0,.09-.09.1,0h-.1c.08,0,0,.09,0,.16a.13.13,0,0,1,.1,0s0,0,0-.06.07-.16.13-.11,0,.17.12.17a5.55,5.55,0,0,0,1.41,0s0,0,0,.07.26-.07.39-.13a.34.34,0,0,1,.07.15C24.53,30.09,25.27,30,25.28,30Z"/></svg>