<svg id="Layer_1" data-name="Layer 1" xmlns="http://www.w3.org/2000/svg" viewBox="0 0 688 482"><defs><style>.cls-1{fill:#fff;}</style></defs><path class="cls-1" d="M365.62,159.55c-.51.31-1,.67-1.47,1a57.6,57.6,0,0,1,15.58-8.38,55.62,55.62,0,0,0-9.62,3.3,46.22,46.22,0,0,0-8.93,5.37,35.57,35.57,0,0,0-6.92,7,22.88,22.88,0,0,0-3.77,7.78c-.58-.09-1.55.44-2.62,1.34a23.41,23.41,0,0,0-3.26,3.57c-2.1,2.71-3.55,5.72-3.36,5.94l-.55,2-.5,2c-.36,1.31-.6,2.65-.92,4,.22-.92.44-1.83.65-2.73l.75-2.7-.75,2.7c-.21.9-.43,1.81-.65,2.73a94.41,94.41,0,0,0-1.95,26.27,74.19,74.19,0,0,0,7.06,27A62.83,62.83,0,0,0,350,257a70.15,70.15,0,0,0,9.57,10.72,71.31,71.31,0,0,0,11.67,8.64,86.51,86.51,0,0,0,10,5c1.52.58,3,1.2,4.58,1.67-1.29-.44-1.91-.71-2.54-1s-1.26-.49-2.49-1.06a74.84,74.84,0,0,0,18.51,2.61,24.34,24.34,0,0,0-3.48-1.41c1,.18,1.92.41,2.89.54a15.42,15.42,0,0,1,2.58-.3c1-.09,2.1-.15,3.21-.18l3.23-.24c1-.12,1.92-.25,2.62-.39-.29.25.13.37.88.39s1.8-.06,2.8-.14l-.82-.22a55.24,55.24,0,0,0,11.56-2.45,75.55,75.55,0,0,0,10.38-4.27,7.35,7.35,0,0,1,2-.68c.92-.56,1.84-1.13,2.72-1.77s1.79-1.22,2.63-1.89c0,.4,1.16-.25,2.07-.74s1.48-.9.35.2c3.51-3.45,7.47-6.47,10-10.43a61.86,61.86,0,0,0,12.52-21.7,60.93,60.93,0,0,0,2.82-25l-.22.41a49.18,49.18,0,0,0-1.7-8.31c-.73-2.76-1.58-5.6-2.42-9A75.57,75.57,0,0,0,462,189c-1.42-2.18-2.88-3.87-3.88-4.37-.75-1.15-1.4-2.11-2.06-2.94s-1.28-1.54-1.93-2.23l-2-2.1c-.73-.73-1.54-1.52-2.48-2.44.22.71-.79-.1-1.67-.79s-1.75-1.31-1-.17c1.69,3.09,2.36,2.73,3.62,5.42l.12-.2a62.41,62.41,0,0,1,8.41,17.94,60.9,60.9,0,0,1,2.24,19.5,44,44,0,0,1-1.7,13.46,67.22,67.22,0,0,1-9.19,19.2c-.77,1-1.47,2.06-2.3,3L447,253.75l-1.26,1.41a62.32,62.32,0,0,1-10.65,9.32,8,8,0,0,1-2.46,1.25c-.81.29-1.61.48-2.47.71a51,51,0,0,1-12.14,4.5,68.76,68.76,0,0,1-13.67,1.68l.44,0c-4.76,0-8.22-1.06-12.7-1.95,0,.18-.72,0-1.08.05a3.3,3.3,0,0,0-1.31-.54c-.38-.11-.84-.24-1.36-.37l-1.72-.5a69,69,0,0,1-8.95-3.24,55.62,55.62,0,0,1-8.52-4.81c-.57-.4-1.1-.76-1.57-1.11l-1.21-1a6.43,6.43,0,0,1-1.24-1.18c-.38-.31-.77-.64-1.16-1a48.17,48.17,0,0,1-8.27-12.29,99.21,99.21,0,0,1-4.86-12.62l-.69-1.24c-.22-.43-.43-.86-.64-1.29-.42-.85-.84-1.67-1.2-2.39,0-1.53-.69-1.68-.88-3.49a18.88,18.88,0,0,0,.53-5.11c-.1-.93-.43-1-.65.19a46.64,46.64,0,0,1,.18-10.87c.05-1.56.21-3.1.35-4.68a3.93,3.93,0,0,1,1.12-2.56c.68-3.34.79-2.28,2.1-5.56.43-.3,1-2.44,1.67-4.6.36-1.07.74-2.15,1.06-3a10.12,10.12,0,0,1,.81-1.68l-.21.55c2.17-3.55,4.69-5.12,7.24-8.1a74,74,0,0,1,6-5.85,68,68,0,0,1,6.75-5.11,62,62,0,0,1,7.29-4,53.25,53.25,0,0,1,7.43-2.68c-.08-.63-2.09.8-2.47,0,5.81-1.8,12-2.12,18-2a12.75,12.75,0,0,1,2.87.73c1.88.31,1.14-.23,2.53,0l.13.57a4.32,4.32,0,0,1,2.44.39,7.26,7.26,0,0,0,2.3.65c.13-.2.83-.13,1.48,0-.09.59,2,.42,1.81.93l0,0a4.07,4.07,0,0,1,1.12.37l1.62.06c.82,0,1.83.16,2.87.25l2.89.4c.82.15,1.44.27,1.65.29l.3.24c1,.42,1.63.27,1.1-.13L431,164l-.16,0,1.21.65c.2.15.31.55-.14.58a6.44,6.44,0,0,1,2.19,1c-1.67-1.39-3.79-3.13-5.68-4.57a7.43,7.43,0,0,1,1.66.71,18.19,18.19,0,0,0,1.64.91c.23.22.53.48.87.76s.72.61,1.12.94c.81.63,1.67,1.34,2.4,2,.37.21,1-.22,1.63.59.12.65.89.62,1.35,1.35a10.8,10.8,0,0,1-2.31-1.48c-.15.51,1.63,1.6,2.14,2.13.38.07,1.67,1.31,2.64,1.89-.7.08.46.85.77,1.5.52.53,1,.69.92.36.57-.26-2-2.23-.86-2,0,.4,1.23,1.29,1.82,1.82.22-.21-.23-.55.34-.4.6.67,1.55,1.08,1.7,1.66-.18-.06-.41-.35-.59-.54.4.43-1.07-.36-2.52-1s-2.85-1.24-2.23-.84c-.06-.23,1.45.48,2.94,1.23a13.37,13.37,0,0,0,2.58,1.35c-.41-.61.77,0,.31-.63l-.86-.31c-.65-.79-.58-1.48-.18-1.38.59.63-.62.11-1.88-.33s-2.47-.94-1.83-.59c-.12-.16-.22-.34-.35-.49a5.24,5.24,0,0,1,2.2,1.84c.21-.23.88.27,1.45.67l.14.2c.62.39,1.28,1.13,1.24.52-1.53-1.43-.51-1.52.58-1.59s2.24-.11.75-1.67c.81,1.74-.88,0-2.33-1.12a4.46,4.46,0,0,0-1.3-2.12c-1-.68-.7-.23-1-.24-.42-.52-1.31-1.39-1-1.57-1-.22-1-1.07-2-1.6s-.05.18-.72,0c-1.19-.83-2.87-2-3.85-2.6-.22-.51-1.15-1.72,0-1.67,1.93,1.18-1.15.31.93,1.37-.25-.58.23-.37.85-.05s1.34.82,1.68.69a4.71,4.71,0,0,0-1.18-1.09,12.07,12.07,0,0,0-1.73-1l.18.21a17.38,17.38,0,0,1-4-2.27c.37-.11,0-.53.75-.22-.45-.25-.92-.49-1.39-.71-.22,0-.44,0,0,.23a3.71,3.71,0,0,1-1.83-.89,17.24,17.24,0,0,0-4.06-1c-2-.37-3.95-.57-3.81-.62-1.06-.28-1.21-.79-2.34-.74-.08.09,2.55.47,5,1,1.23.26,2.41.53,3.19.75s1.18.29.83.18a10.54,10.54,0,0,0-2.28-.78c-1.22-.28-2.76-.66-4.31-.89s-3.1-.45-4.28-.65a6.44,6.44,0,0,1-2.18-.44c-.81-.14-1.8-.21-1.65.1-1.35-.31.49-.48-.46-.88,0,.05.06.16-.25.11l-.9-.49a23.88,23.88,0,0,1-3.78-.16,12.74,12.74,0,0,0-3.85.19,7.87,7.87,0,0,1,2.9-1.08l.26.16c.21-.1,1.43-.12,1.42-.39a10.34,10.34,0,0,0-4.11,0c-.28-.08-.6-.15-.81-.22,0,0,0,.06,0,.11-.49-.17-.44-.2-.26-.32l.1-.06c-.45-.41-1.86-.29-3.45,0a26.13,26.13,0,0,1-4.69.65c-.74.24-.06.15-1,.46-1.33,0-2.46.08-3.6.2-.57.06-1.14.11-1.75.19l-1.91.34c-.77.57-.79.72.34.82-.69.13-1.37.27-2,.45,1.56-1.49-4,.31-2.31-1.24a7.51,7.51,0,0,0-3,.95c0,.28-.07.68-1.44,1.27-2.05.53-1.56.41-3.25.89-.51-.1,0-.49-.16-.69-2.27,1.54-2.44.45-4.69,1.74-1.36.87-4,2.61-3.78,3.14C365.94,160.36,365.7,160,365.62,159.55Z"/><path class="cls-1" d="M288.35,86l.11.16A15.91,15.91,0,0,1,287,84.87a13.78,13.78,0,0,0,.67,2.66c.31.49,1,.34,3-.35a5.54,5.54,0,0,0-1,1,5.2,5.2,0,0,0-.57.84c-.24.45-.28.71,0,.61a3.14,3.14,0,0,1,1.16.29,3.19,3.19,0,0,0-.66-.28,3.19,3.19,0,0,1,.66.28,2.31,2.31,0,0,1,1.24,2.51,4,4,0,0,1-1.61,2.45A8.78,8.78,0,0,1,288,96.22a3,3,0,0,1-2.1.29c-.14,0-.25,0-.38-.09a3,3,0,0,0,.47.24,3.89,3.89,0,0,1-1.22,1.78,2.85,2.85,0,0,0,.49,1,3.54,3.54,0,0,1-.34-.16,1.29,1.29,0,0,1-.63.84,3,3,0,0,0-.76.38c.11-.45-.16-.56-.39-.67l.06.31a13.25,13.25,0,0,1-2.79-.7c-.11,0-.1-.25-.07-.41-.27,0-.59,0-.87-.11.39-.49-.2-.82.32-.93a1.06,1.06,0,0,1-1-.14,1.79,1.79,0,0,0-1-.25A16.73,16.73,0,0,1,274,91.5l-.23.06c-.2-.47-.56-1-.78-1.51a1.68,1.68,0,0,1,.08-1.69c-.54-1.12-.31-2.58-1.18-3.59a8,8,0,0,0,.41-1.58,4.44,4.44,0,0,1,.5-1.63c-.35-.08-.28-.46-.2-.8s.09-.57-.27-.57c-1.3.12-.79.66-1.88.85l.18.12a15.07,15.07,0,0,0-5.5,11.18c.32,1.47.53,3,.93,4.46a19.52,19.52,0,0,0,.7,2.21,13.71,13.71,0,0,0,1,2.06A15,15,0,0,0,275,106.9c.64.15.75.87,1.14,1.37a29.29,29.29,0,0,0,3.95,1.19,12.52,12.52,0,0,0,4.3.24l-.13,0c1.44-.15,2.63.39,4.06-.05-.05-.18.16-.24.25-.36.21.39,2.26-.59,3.87-2s2.77-3.2,3.1-3.18a2.92,2.92,0,0,1,.24-.37c.57-.42,1.17-.85,1.79-1.27a22.39,22.39,0,0,0,1.8-1.45c.28-.26.55-.53.82-.81a8.47,8.47,0,0,0,.69-.89,5.54,5.54,0,0,0,.91-1.9,7.29,7.29,0,0,0-.73-1.93c.46-.37-.22-.58,0-1.09.94-.54,1.25-1.11,1.21-1.4s-.36-.34-.67,0c-.16-1.13-.05-2.25-.23-3.24-.19-.44-.39-.87-.61-1.29s0-.61.3-.9c-.48-.93,0-.74-.2-1.83.24-.23-.22-.81-.79-1.3s-1.16-.91-1.17-1.07l.17.1c-.5-1.09-.06-2.43-.84-3.47a13.19,13.19,0,0,0-4-3.74A27.12,27.12,0,0,0,289.41,74c-.21.58.74.1.51.89-1.72-.69-3.54-1.83-5.58-1.93a5,5,0,0,1-1-.65c-.68-.2-.38.32-.86.27l-.12-.56c-.66.52-1.12-.48-1.79-.15,0,.23-.23.3-.48.33-.13-.58-.72.22-.81-.32v.05a.78.78,0,0,1-.44,0,17.89,17.89,0,0,0-1.22,1.45,9,9,0,0,0-1,1.55l-.15,0c-.32.17-.26.64,0,.65l-.41.15,0,0-.41.16a.57.57,0,0,1-.32-.5c-.12.31-.31.55-.58.58a7.44,7.44,0,0,1,2.64.32c-.16.3-.75.22-1,.42a4.43,4.43,0,0,0-2,0c-.09.11.19.69-.21.62-.38-.29-.26.21-.66.09.09-.36.38-.45.64-.59-.35-.43-.79.12-1.08.14,0,.2-.56.41-.74.75-.22-.5-.44-.06-.79-.12-.22.13-.2.39,0,.46.32.46.94-.4,1.08.27-.25-.15-.53.24-.7.43.21.23.29.06.37.38-.25.14-.2.59-.53.47,0-.09.09-.13.16-.18-.14.11-.15-.57-.11-1.26s.14-1.36,0-1.13c.13.06,0,.78-.07,1.44s-.15,1.25,0,1.18c.26,0,.29.49.52.42l-.09-.43A.78.78,0,0,1,273,80c-.19.14-.32-.47-.36-1.07s0-1.21-.1-.94h.23c0,.28-.27.74-.63.63.2.23.09.48,0,.7h-.09c-.05.26-.31.41.07.6.43-.44.81.27,1.24,1s.91,1.39,1.32,1.13c-.77-.2-.39-.58-.11-.94a1.19,1.19,0,0,0,.88.19c.18-.19,0-.28-.09-.44.21,0,.51,0,.7.26-.09-.46.41,0,.51-.23s-.11-.14-.1-.4a6,6,0,0,1,1-.38,2.07,2.07,0,0,1,.85,1.16c-.41.17-.26-.82-.61-.48.56.55-.25.4,0,.92a.46.46,0,0,0,.7-.13l-.09-.06a.57.57,0,0,1,.83-.26c.06.26.24.4.13.52l.27-.07c0-.09,0-.18-.1-.21,0-.24.2-.19.35-.09s.29-.27.54-.7.53-.83.53-.74c.21-.06.37.34.5,0,0-.1-.47.23-.83.63s-.64.8-.53.71c.14.13.52-.43,1-.88s1-.89,1.14-.62c.15,0,.34-.13.26-.41.29.1,0,.55.22.79,0,0,0-.14,0-.14l.22.33c.35-.48,1,.06,1.38-.53a5.45,5.45,0,0,1-.49,1.15l-.05-.15c0,.09-.24.2-.21.49.24.18.42.11.67-.18,0,.08.1.16.13.24v-.11c.07.18.07.21,0,.32s0,0,0,.06c.1.85.9-.51,1.29,0,.14-.11,0-.14.2-.28.39.36.6.72,1,1a.92.92,0,0,0,.21-.86c.1.07.2.13.3.21-.55.83.28,1.07-.32,1.88,0,.23.14.32.35.23s.27-.59.46-.49a4.15,4.15,0,0,1,.19.65,3.58,3.58,0,0,1-.31.62c.48-.24-.06.73.21.81a.73.73,0,0,0,.83-.29C288.86,85.3,288.63,85.63,288.35,86Z"/><path class="cls-1" d="M402,141l0-.1a2,2,0,0,1-.09,1,17.24,17.24,0,0,1,1.65-1.29c.15-.2-.47-.22-2.41-.76,1.05.09,1.85.07,2.3.1s.59,0,.33-.06a3.38,3.38,0,0,1-.81-.58,3,3,0,0,0,.41.37,3,3,0,0,1-.41-.37c-.61-.64-.48-1.25-.08-1.5a1.49,1.49,0,0,1,1.49.12,4,4,0,0,1,.91.53,1,1,0,0,1,.35.91,1.33,1.33,0,0,1,0,.21,2.49,2.49,0,0,0,.09-.37,2.62,2.62,0,0,1,1.21-1,4.12,4.12,0,0,0,.47-.92c0,.09,0,.17,0,.26a1.32,1.32,0,0,1,.77-.4,2.25,2.25,0,0,0,.58,0c-.36.28-.33.45-.32.59l.21-.23c.16.49.78.79.89,1.27,0,.06-.13.16-.27.24a4.13,4.13,0,0,1,.46.31c-.61.12-.48.44-.89.33.4.06.48.21.56.36a1.06,1.06,0,0,0,.55.46,15.4,15.4,0,0,1-.26,4.35l.19.14c-.07.68.14,2-.82,2.16-.11,1-.87,1.79-.81,3.1a4,4,0,0,0-1,.78,3.4,3.4,0,0,1-1.08.79c.16.3-.07.52-.29.71s-.32.35-.14.59c.81.83.79.08,1.53.71l-.05-.21a11.32,11.32,0,0,0,9.34-3.16c.57-1.06,1.25-2,1.83-3.12a10.87,10.87,0,0,0,1.31-3.42,11.31,11.31,0,0,0-1.26-7.24c-.32-.41.1-.91.21-1.43-.94-1.73-2.17-4-4-5.2a.24.24,0,0,1,.06.09c-.91-.67-1.22-1.73-2.3-2.23-.08.16-.25.09-.37.13.14-.42-1.62-.88-3.33-.81s-3.28.58-3.45.34l-.33.1c-1.07-.16-2.26-.51-3.5-.61a5.37,5.37,0,0,0-3.4.62,6.39,6.39,0,0,0-.47,1.72c-.5-.11-.14.51-.51.68-.94-.34-1.46-.21-1.59,0s.08.44.48.47c-.47.76-1.15,1.31-1.56,2a11,11,0,0,0-.26,1.1c0,.33-.32.34-.75.29-.17.81-.43.4-.93,1.12-.31,0-.32.57-.19,1.17s.31,1.17.21,1.26l-.06-.15c-.31.87-1.54,1.37-1.66,2.4a9.53,9.53,0,0,0,.25,4.3,23.59,23.59,0,0,0,1.59,3.89c.55-.29-.4-.45.31-.87.59,1.33.9,3.06,2,4.25a3.56,3.56,0,0,1,.13,1c.27.52.43,0,.68.28l-.3.48c.72,0,.32,1,.93,1.13.15-.17.33-.08.48,0-.29.52.56.27.26.73l0,0c.1.07.19.08.28.24.15,0,.89-.16,1.6-.37a7.93,7.93,0,0,0,1.51-.55l.06.12c.28.07.53-.32.4-.47l.32.14,0,0,.32.14a.67.67,0,0,1-.12.58c.25-.16.49-.22.66-.07a6,6,0,0,1-1.25-1.9c.27-.13.54.29.78.3a3.47,3.47,0,0,0,1.08,1.27c.11,0,.29-.64.47-.33,0,.47.26,0,.41.37-.25.21-.46.08-.68,0-.05.55.51.44.68.61.1-.16.54.07.84-.06-.16.51.21.34.38.62.2.06.33-.15.25-.33.07-.56-.75-.35-.46-.94.05.28.43.19.62.16,0-.31-.13-.23,0-.53.22.07.43-.3.56,0,0,.08-.13,0-.19,0,.14,0-.21.53-.61,1s-.83.9-.63.82c0-.13.43-.58.83-1s.75-.82.66-.83.09-.56-.08-.67l-.17.38c-.24-.12-.33-.66-.25-.87.18,0-.07.55-.37,1s-.63.91-.44.75l-.14-.15c.16-.19.55-.36.7,0,0-.31.2-.41.36-.52l.06,0c.16-.16.39-.09.27-.49-.48,0-.32-.75-.2-1.55s.19-1.63-.15-1.72c.31.67-.09.69-.42.76a1.21,1.21,0,0,0-.36-.74c-.19,0-.12.23-.17.4-.1-.17-.29-.31-.22-.66-.2.4-.2-.3-.38-.17s0,.18-.16.37a3.07,3.07,0,0,1-.68-.33,2.93,2.93,0,0,1,.22-1.42c.28.13-.32.79,0,.75,0-.77.33-.14.49-.7,0-.35-.21-.39-.39-.33v.1c-.16.08-.49.14-.52-.3.12-.24.12-.45.23-.49l-.16-.1c-.05.08-.1.15-.07.22-.14.17-.19,0-.2-.13s-.28.05-.64.24-.74.34-.68.27c-.14-.06,0-.45-.23-.27-.06.09.37.07.76,0a1.82,1.82,0,0,0,.65-.25c0-.17-.47,0-1,.13s-1,.14-.9-.12c-.1,0-.25-.07-.39.18-.07-.22.36-.42.41-.71,0,0-.08.12-.11.09l.12-.36c-.49.19-.42-.5-1-.26a7.43,7.43,0,0,1,1-.61l-.08.13a.81.81,0,0,0,.42-.27c0-.24-.12-.27-.42-.17a1.6,1.6,0,0,1,.1-.23l-.08.08c.09-.16.11-.18.2-.24l.06,0c.54-.65-.78,0-.62-.53-.14,0-.11.09-.3.11a8.21,8.21,0,0,0,.23-1,1.37,1.37,0,0,0-.74.47,1.93,1.93,0,0,1,0-.24c.91-.34.63-.77,1.56-1.06.17-.15.17-.24,0-.25s-.58.26-.62.14a3.29,3.29,0,0,1,.37-.43,5.39,5.39,0,0,1,.65-.24c-.45,0,.59-.37.5-.47a.81.81,0,0,0-.74-.09C401.14,141.15,401.54,141.08,402,141Z"/><path class="cls-1" d="M373.92,164l-.41.42a27.19,27.19,0,0,1,1.85-2.22c.67-.7,1.37-1.39,2.07-2.06a28.19,28.19,0,0,0-3.07,1.72,14.66,14.66,0,0,0-2.62,2.24,6.43,6.43,0,0,0-1.52,6.26c-2-.95-5.1,2.11-4.7,2.47-.16.94-.31,1.9-.55,2.8.18-.61.35-1.23.49-1.87-.14.64-.31,1.26-.49,1.87-1.44,5.71-4.69,10.84-7.49,16.78a72,72,0,0,0-2.82,8c-.23.8-.51,1.61-.71,2.4s-.39,1.55-.58,2.28c-.39,1.44-.72,2.7-1,3.61-.13.52-.26,1-.38,1.57.29-.87.29-.87.57-1.73.33,2.27.62,4.33.9,6.29a3.83,3.83,0,0,0,1.09-1.12l-.26,1c.84.94.65,3,1,3.93-.46-.22-.56.53-.63,1.2l.31-.26a28.75,28.75,0,0,0,0,3.94c.11,1.32.24,2.61.25,3.73a1,1,0,0,1-.3.71c.14.71.34,1.41.51,2.12-.63-.12-.4,1.82-.87.82a7.32,7.32,0,0,1,.71,2.37,6.34,6.34,0,0,0,.8,2.28,57.35,57.35,0,0,0,4.61,16.18l.19-.18c.83,1.8,2.52,3.09,2.73,5.46,1.27,1.37,2.4,3.48,3.81,3.71.76,1.75,1.65,2.24,2.56,3.87.44-.66,1.32,1.43,1.48.4.44-1.44-.3-1.25,0-2.46l-.19.1c-.36-2.41-.67-4.8-1.11-7.16s-.81-4.71-1.19-7.07a19.82,19.82,0,0,1-.8-2.32c-.2-.79-.36-1.61-.52-2.44-.33-1.64-.53-3.31-.87-4.93-.81-3.47-1.6-7.25-2.35-10.27-.25-.72.28-1.28.55-1.91-.42-2.78-.25-6.34-.43-9.49a.65.65,0,0,1,0,.16c0-1.68.66-2.89.77-4.5-.19,0-.17-.26-.25-.39.22,0,.28-.68.27-1.6,0-.46-.05-1-.07-1.58s0-1.19-.05-1.81c-.14-2.48-.06-5,.23-5.25,0-.18,0-.36,0-.54a24.09,24.09,0,0,1,2.45-4.66,19.33,19.33,0,0,0,2.23-4.2c-.18-.74-.2-1.52-.41-2.19.54-.33-.07-.7.26-1.24,2.16-.77,2-1.86,1.05-1.39a19.56,19.56,0,0,1,1.56-3.45c.15-.54.29-1.08.42-1.63s.44-.59.91-.59c.39-1.14.58-.63,1.36-1.62.62,0,.86-3.15,1.2-3.36l0,.22c.86-1.18,2.39-1.3,3.22-2.44,2.61-2.94,5-6.58,7.53-9.25-.45-.44-.43.7-1.09.2,1.5-1.6,3.55-2.74,5.11-4.3a3.6,3.6,0,0,1,1.23-.33c.65-.37.06-.51.47-.84l.46.33c.18-.87,1.21-.38,1.53-1.06-.14-.18,0-.39.21-.57.44.4.51-.59.88-.19l0,0c.11-.1.16-.21.36-.27,0-.36.78-3.47.81-3.86l.16,0c.28-.31.08-.74-.16-.65l.38-.34v.07l.38-.34a.49.49,0,0,1,.46.38,1,1,0,0,1,.48-.8,16.59,16.59,0,0,1-2.91.85c.09-.39.75-.62,1-.93a7.84,7.84,0,0,0,2.17-.78c.08-.14-.32-.68.14-.73.45.2.27-.3.72-.28-.07.42-.38.58-.64.81.43.33.85-.34,1.15-.43,0-.21.57-.56.75-1,.24.5.48,0,.85,0,.24-.15.22-.43,0-.48-.34-.46-1,.57-1.18-.13.27.12.6-.34.79-.57-.22-.22-.31,0-.39-.37.29-.19.27-.7.63-.61,0,.11-.12.17-.19.23.32-.28-.22,3.08.05,2.56-.3-.09.43-3,.21-2.85s-.26-.53-.53-.41l0,.48a.69.69,0,0,1-.89-.33c.47-.41.25,2.74.4,2.15l-.25.05c0-.31.31-.86.71-.8-.22-.21-.08-.5,0-.76l.1,0c.08-.29.38-.5,0-.66-1.05,1.12-1.5-2.9-2.67-2,.92,0,.35.63-.06,1.15a1.35,1.35,0,0,0-1.1.07c-.25.33,0,.35.07.52-.27.06-.66.27-.88,0,.08.53-.54.18-.71.55s.15.11.13.43c-.39.32-.92.79-1.26,1-.35-.13-1.1-.2-1.23-.81.59-.49.4.8.88.15-.79-.28.34-.65,0-1.15-.42-.06-.78.3-1,.68h.13c-.19.34-.61,1-1.18,1-.13-.25-.4-.26-.25-.51l-.4.34c0,.11,0,.22.18.15,0,.32-.28.42-.53.45-.24-.16-1.08,2.82-1.14,2.64-.25.28-.62.05-.67.51a13.38,13.38,0,0,0,1.52-2.84c-.46,0-1.93,4.06-2.48,3.86-.17.22-.36.5-.11.65-.42.25-.3-.48-.73-.41,0,0,.13.07.05.15h-.49c-.17.84-1.32,1.24-1.41,2.2a3.26,3.26,0,0,1-.18-1.48l.17,0c0-.11.19-.47,0-.66a1.45,1.45,0,0,0-.83,1.11c-.11,0-.24,0-.35,0l.09.07c-.24,0-.25,0-.3-.16a.11.11,0,0,1,0-.06c-.83-.35-.85,1.74-1.75,2.09-.08.27.09.11,0,.45a13,13,0,0,0-2.18,1.31c.08.46.18.57.69.55l-.54.45c-.32-1.11-1.55.4-1.83-.76a.94.94,0,0,0-.74.71c.16.19.42.49.1.87-.69.33-.49.28-1.1.53-.33-.1-.29-.34-.5-.48-.25.94-1,.17-1.51.86-.26.47-.87,1.32-.45,1.68C374.55,164.57,374.23,164.32,373.92,164Z"/><path class="cls-1" d="M385.28,186.39l-.26.41a28.73,28.73,0,0,1,2.42-4.25c-3.23,2.39-6.52,5.58-4,9.73-2.06-.6-4.37,2.18-3.91,2.45a17.5,17.5,0,0,1,0,2.4c.06-.52.11-1.06.12-1.6,0,.54-.06,1.08-.12,1.6-.33,5-2.91,9.37-5.41,14.26-.67,1.35-1.73,4-2.7,6.66s-1.83,5.49-2.42,7c-.16.45-.3.89-.44,1.35l.64-1.48c.11,1,.23,2,.34,2.91s.24,1.82.31,2.68a3.7,3.7,0,0,0,1.15-.92l-.32.83c.8.88.56,2.65.9,3.51-.46-.21-.59.45-.69,1l.32-.21c-.36,2.21.06,4.85.09,6.84a.84.84,0,0,1-.28.64l.5,1.89c-.65-.09-.35,1.66-.85.78a6.25,6.25,0,0,1,.78,2.1,5,5,0,0,0,.88,2,33,33,0,0,0,2.33,7.19,28,28,0,0,0,4.08,6.53l.14-.22c1.21,1.36,3,2,3.88,3.86,1.51.72,3.22,1.93,4.5,1.44,1.26,1,2.12.94,3.48,1.58.05-.37.45-.3.79-.24s.69.11.51-.33c-.16-1.29-.67-.72-.8-1.75l-.12.17a47.24,47.24,0,0,1-2.76-4.67c-.85-1.56-1.56-3.22-2.26-4.88-1.6-1.92-2.14-4.65-3-7.12-1-2.65-1.86-5.66-2.59-8.12-.22-.59.26-1.06.54-1.58-.41-2.27-.12-5.17-.21-7.85a.42.42,0,0,1,0,.13c0-1.42.82-2.38.9-3.75-.18,0-.16-.23-.23-.35.44-.06.32-2.12.29-4.27s0-4.39.33-4.56a3.62,3.62,0,0,1,0-.47c1.18-2.82,3.73-5.24,4.47-7.71-.19-.66-.3-1.38-.54-2,.5-.3-.13-.63.16-1.12,2.09-.71,1.75-1.73.92-1.28a19.9,19.9,0,0,1,1.14-3.19c.06-.49.13-1,.19-1.5s.36-.55.81-.59c.19-1.07.46-.62,1.06-1.57.64,0,.26-3,.55-3.18v.21c.62-1.15,2-1.47,2.59-2.6,1.85-3,3.08-6.69,4.68-9.53-.54-.3-.18.71-.94.38.93-1.69,2.48-3.09,3.44-4.77a3.28,3.28,0,0,1,1-.54c.48-.45-.1-.46.17-.82l.53.19c-.11-.79,1-.58,1.07-1.24-.19-.13-.11-.34,0-.53.54.26.28-.63.75-.35l0,0c.07-.11.08-.21.24-.31-.07-.32-.42-3.18-.53-3.53l.14-.06c.15-.32-.17-.66-.36-.53l.24-.37v.06l.23-.37a.58.58,0,0,1,.55.24.77.77,0,0,1,.17-.79,15,15,0,0,1-2.37,1.32c0-.36.48-.69.57-1a6.47,6.47,0,0,0,1.72-1.12c0-.13-.51-.52-.1-.66.47.09.14-.31.56-.38.07.38-.16.57-.32.82.5.21.66-.46.91-.59-.1-.18.32-.6.36-1,.39.38.43-.1.78-.16a.23.23,0,0,0-.15-.41c-.46-.34-.75.68-1.12.1.29.05.43-.41.53-.64-.27-.15-.29,0-.47-.25.19-.22,0-.66.37-.65,0,.09-.05.17-.1.24.2-.31.82,2.72.89,2.21-.3,0-.61-2.72-.74-2.52s-.42-.4-.62-.25l.2.41a.74.74,0,0,1-.92-.12c.3-.45,1.13,2.34,1.07,1.79l-.21.09c-.09-.26,0-.8.38-.82-.26-.15-.23-.43-.23-.67l.08-.05c0-.27.19-.51-.24-.57-.58,1.18-2.31-2.25-3.07-1.2.85-.16.52.48.32,1a1.25,1.25,0,0,0-1,.27c-.12.33.12.3.24.44-.23.1-.51.37-.8.16.24.44-.45.26-.47.61s.17.07.25.35c-.24.36-.58.87-.81,1.14-.36,0-1.07.05-1.39-.45.37-.56.63.61.85-.05-.81-.09.1-.63-.35-1-.41,0-.62.42-.71.79l.13,0c-.07.34-.23,1-.76,1.12-.19-.2-.44-.15-.39-.4l-.25.38c0,.09.09.18.21.09.08.29-.12.42-.33.5-.28-.09-.06,2.67-.18,2.53-.14.29-.55.17-.44.58a11,11,0,0,0,.45-2.78c-.41.1-.44,3.92-1,3.85-.09.23-.17.51.11.59-.3.3-.43-.35-.8-.22,0,0,.14.05.09.13l-.45.08c.11.76-.82,1.33-.59,2.19a3.25,3.25,0,0,1-.64-1.26h.17c-.06-.09,0-.45-.25-.57a1.1,1.1,0,0,0-.4,1.12,1.86,1.86,0,0,1-.31.1l.1.05c-.22,0-.24,0-.31-.08l-.05,0c-.86-.15-.23,1.66-.95,2.13,0,.25.12.08.14.4a11.05,11.05,0,0,0-1.61,1.52c.22.38.34.46.81.35l-.37.49c-.63-.91-1.31.61-1.91-.35a.73.73,0,0,0-.48.74c.2.14.53.35.35.73-.55.39-.38.32-.87.63-.33,0-.37-.25-.6-.34,0,.85-.9.3-1.15,1-.11.44-.45,1.26,0,1.51C386,186.8,385.66,186.63,385.28,186.39Z"/><path class="cls-1" d="M405.51,252.72l0-.44a29.63,29.63,0,0,1,.49,4.39,14,14,0,0,0,1-5.29,4.65,4.65,0,0,0-.84-2.25,5.26,5.26,0,0,0-2.29-1.74c2.07-.59,2.62-3.74,2.09-3.74a8.77,8.77,0,0,1-1.17-1.82,10.19,10.19,0,0,0,.64,1.28,10.19,10.19,0,0,1-.64-1.28,14.71,14.71,0,0,1-1.49-6.41c0-1.12.08-2.27.2-3.42a28.28,28.28,0,0,1,.52-3.49c.25-1.29.44-3.69.84-6.07a46,46,0,0,1,1.29-6c.13-.37.25-.73.36-1.11l-.54,1.22c-.36-1.64-.73-3.17-.91-4.63a3.21,3.21,0,0,0-1.12.75l.29-.7a2.58,2.58,0,0,1-.6-1.55,10,10,0,0,0-.16-1.54c.43.23.62-.32.78-.8l-.33.15a20.1,20.1,0,0,0,.52-3c.06-.51.12-1,.18-1.48s.18-.92.29-1.34a.7.7,0,0,1,.45-.44l0-1.68c.57.27.85-1.19,1-.34-.41-1.36.26-2.47-.1-3.79.57-2,1-4.16,1.45-6.31s.84-4.38,1.18-6.61l-.25,0c.21-1.57-.38-3.31.72-4.9-.27-1.59.23-3.5-.7-4.55.53-1.51.23-2.37.61-3.94-.74.07,0-1.72-.79-1.26-1.25.54-.6.94-1.64,1.43l.2.07a49.24,49.24,0,0,0-3.74,5.23c-1.09,1.85-2.13,3.74-3.07,5.68a22.47,22.47,0,0,1-1.24,4.29l-.81,2.12c-.24.72-.44,1.45-.62,2.17-.35,1.58-.67,3.23-.93,4.83s-.32,3.18-.39,4.57c0,.67-.6,1-1,1.49-.19,1.25-.38,2.68-.63,4.13a36.92,36.92,0,0,0-.55,4.38.84.84,0,0,1,0-.14c-.08,1.51-.88,2.55-1,4,.19,0,.17.24.25.36-.42.08-.34,2.29,0,4.53s.69,4.46.43,4.71a3.55,3.55,0,0,1,.06.47,30.25,30.25,0,0,1-1.23,4.61c-.23.76-.45,1.51-.6,2.24a7.53,7.53,0,0,0-.12,2.1,14.85,14.85,0,0,0,1.26,1.69c-.35.48.35.54.28,1.11-1.65,1.52-.91,2.34-.34,1.56.25,1.17.26,2.36.39,3.4.17.48.34.95.53,1.42s-.06.66-.44.91c.34,1-.11.77-.18,1.9-.59.35,1.32,2.68,1.17,3l-.11-.17c.08,1.29-.94,2.31-.81,3.59a29.49,29.49,0,0,0,.8,5.39c.38,1.78.76,3.53,1.11,5.14.61-.12-.31-.67.48-.9.36,1.89.08,4,.47,5.91a3.38,3.38,0,0,1-.38,1.09c0,.67.4.27.45.74l-.52.21c.64.52-.31,1.12.1,1.67.23,0,.32.18.37.4-.56.18.25.65-.28.78h0c0,.14.1.22,0,.41.29.19,2.52,2,2.88,2.14l0,.15c.14.33.61.33.64.1l.12.42-.06,0,.12.42a.53.53,0,0,1-.54.24.76.76,0,0,1,.46.66,12.54,12.54,0,0,1,.64-2.61c.29.21.17.81.34,1.09a6.41,6.41,0,0,0-.33,2c.08.11.74,0,.57.36-.38.3.13.32-.1.67-.32-.19-.32-.49-.4-.78-.49.23-.1.8-.16,1.08.2,0,.23.64.49.93-.54,0-.21.39-.39.69a.23.23,0,0,0,.41.17c.55-.13,0-1,.65-.92-.22.18,0,.59.14.82.29-.11.16-.25.49-.2,0,.29.48.44.24.71-.1,0-.09-.15-.11-.23.1.37-2.57-1.17-2.24-.78.22-.21,2.44,1.33,2.37,1.09s.57-.06.59-.31l-.43-.11a.76.76,0,0,1,.69-.63c.14.52-2.48-.66-2-.35l.08-.23c.25.12.59.54.36.84.28-.1.47.1.65.26l0,.09c.22.16.25.48.58.19-.49-1.19,3.18-.33,2.91-1.57-.45.73-.7.09-1-.39a1.26,1.26,0,0,0,.46-.91c-.17-.3-.3-.1-.48-.1.08-.23.07-.62.42-.69-.49-.11.11-.49-.13-.74s-.17.08-.43,0c-.1-.41-.24-1-.28-1.32.27-.23.69-.79,1.28-.7.14.61-.88.05-.55.63.62-.52.39.48,1,.39a.8.8,0,0,0-.09-1l-.07.1c-.2-.26-.57-.79-.3-1.24.28,0,.42-.21.56,0l-.1-.42c-.09,0-.19,0-.21.09-.27-.12-.22-.35-.13-.54s-1.79-1.79-1.61-1.79c-.1-.29.29-.49-.08-.69-.22.05,1.78,2.52,1.58,2.15.22-.34-2.36-2.89-1.91-3.24-.09-.21-.23-.46-.49-.33,0-.41.56,0,.74-.38-.05,0-.13.06-.15,0l.27-.35c-.6-.45-.3-1.44-1.05-1.88a3.43,3.43,0,0,1,1.32.44l-.12.11c.1,0,.29.32.56.23a1,1,0,0,0-.46-1,3.18,3.18,0,0,1,.17-.27l-.11,0c.13-.17.17-.16.29-.15h.07c.75-.45-.87-1.3-.62-2.08-.17-.17-.15,0-.36-.19a10.54,10.54,0,0,0,.29-2.06c-.41-.14-.55-.13-.85.24l0-.57c1.06.27.64-1.22,1.71-.9a.61.61,0,0,0-.09-.79c-.24,0-.63.06-.73-.32a7,7,0,0,1,.33-.95c.29-.17.44,0,.68-.11-.52-.59.56-.73.38-1.35-.17-.37-.36-1.14-.91-1.06C404.66,252.83,405.06,252.76,405.51,252.72Z"/><path class="cls-1" d="M415.8,188.46v.41a21.66,21.66,0,0,1-.32-4.07c-1.34,3.28-2.38,6.89,1.86,8.57-2.07.55-2.64,3.48-2.12,3.47a11.68,11.68,0,0,1,1.16,1.64c-.2-.39-.41-.78-.65-1.16.24.38.45.77.65,1.16a12,12,0,0,1,1.54,5.8,28,28,0,0,1-.55,6.26c-.29,2.36-.86,8.62-1.76,10.85-.11.32-.21.65-.31,1,.25-.54.25-.54.49-1.08a41.51,41.51,0,0,1,1.1,4.1,3,3,0,0,0,1.09-.66l-.27.62c.81.7.53,2.05.79,2.75-.43-.21-.6.27-.74.7l.33-.12a14,14,0,0,0-.42,2.64,24.85,24.85,0,0,1-.48,2.48.58.58,0,0,1-.43.37v1.51c-.58-.27-.81,1-1,.25.49,1.26-.35,2.16.07,3.37-.54,1.78-.92,3.68-1.5,5.54s-.83,3.91-1.33,5.85h.25c-.27,1.4.24,3.07-.89,4.39.15,1.49-.46,3.16.39,4.27-.61,1.32-.37,2.16-.86,3.56.73.05-.11,1.61.68,1.3,1.26-.32.66-.79,1.69-1.09l-.19-.1a49.3,49.3,0,0,0,4.05-4.37q1.74-2.4,3.3-5c.2-.64.41-1.3.63-2s.5-1.29.78-1.93a34.3,34.3,0,0,0,1.59-3.9,40.23,40.23,0,0,0,1.38-8.68c0-.63.58-.92,1-1.36a72.19,72.19,0,0,0,1.05-7.84.83.83,0,0,1,0,.12c.15-1.37.85-2.33.88-3.69-.18,0-.17-.23-.26-.34.42-.07.21-2.11-.14-4.13s-.88-4.05-.63-4.28a3,3,0,0,1-.09-.43,40.27,40.27,0,0,1,1.12-4.21,10.25,10.25,0,0,0,.62-4,12.51,12.51,0,0,0-1.3-1.48c.33-.45-.37-.49-.31-1,1.6-1.42.84-2.13.29-1.41-.29-1.05-.23-2.13-.41-3.05-.17-.43-.34-.84-.54-1.27s0-.59.43-.82c-.35-.92.1-.69.16-1.71.58-.33-1.24-2.38-1.12-2.68l.11.15c-.06-1.15,1-2.08.86-3.21a25.3,25.3,0,0,0-.59-4.8c-.31-1.58-.61-3.14-.8-4.57-.62.09.26.6-.55.78-.21-1.68.22-3.52,0-5.23a2.68,2.68,0,0,1,.5-.94c.11-.59-.36-.26-.36-.67l.54-.16c-.57-.49.43-1,.09-1.46-.22,0-.29-.18-.31-.37.58-.13-.17-.58.37-.67h0a.49.49,0,0,1,0-.36c-.25-.17-2.28-1.9-2.57-2.06l.07-.13c-.08-.3-.54-.34-.61-.14l-.05-.38.05,0,0-.38a.61.61,0,0,1,.57-.16c-.25-.17-.41-.38-.36-.62a11.42,11.42,0,0,1-1,2.25c-.25-.21,0-.73-.16-1a5.52,5.52,0,0,0,.65-1.74c-.06-.11-.73-.05-.5-.37.42-.22-.08-.29.2-.58.29.2.24.47.27.73.52-.16.23-.7.33-.93-.18-.06-.12-.58-.33-.86.54,0,.27-.32.51-.56a.22.22,0,0,0-.38-.18c-.57,0-.15.89-.8.73.25-.13.07-.52,0-.73-.3.06-.19.2-.51.12,0-.26-.41-.44-.12-.65.09,0,.06.14.07.22,0-.33,2.33,1.28,2.07.91-.25.17-2.18-1.41-2.15-1.2s-.57,0-.64.2l.42.15a.81.81,0,0,1-.79.47c-.05-.47,2.34.85,1.95.53l-.11.19c-.23-.13-.5-.53-.22-.77-.29.06-.45-.14-.59-.3l0-.08c-.19-.16-.18-.44-.54-.23.28,1.11-3.19-.08-3.13,1,.56-.59.71,0,.88.47a1.2,1.2,0,0,0-.59.76c.12.28.28.12.46.14-.12.2-.17.54-.53.57.46.14-.18.43,0,.67s.18,0,.41.08a8.67,8.67,0,0,1,.07,1.21c-.3.18-.8.65-1.36.5-.05-.57.87,0,.64-.51-.69.4-.32-.47-.9-.46a.7.7,0,0,0-.06.92L417,170c.16.26.43.77.1,1.15-.28,0-.44.16-.55,0l0,.39c.09,0,.19.06.22-.06.24.14.17.34,0,.51s1.58,1.77,1.4,1.75c.06.27-.34.42,0,.63.23,0-1.49-2.41-1.32-2.07-.26.29,2,2.8,1.53,3.08.06.2.17.43.44.33-.06.37-.56,0-.77.3.05,0,.14-.05.14,0l-.3.31c.54.44.14,1.33.82,1.77a3.33,3.33,0,0,1-1.25-.47l.14-.1c-.1,0-.26-.3-.54-.24a.85.85,0,0,0,.34,1,2.23,2.23,0,0,1-.19.24l.11,0c-.15.15-.18.15-.3.12H417c-.78.38.78,1.23.47,1.93.16.16.15,0,.35.19a9.05,9.05,0,0,0-.44,1.87.62.62,0,0,0,.86-.19l0,.53c-1-.28-.72,1.09-1.76.77a.54.54,0,0,0,0,.74c.25,0,.64,0,.7.31a6.63,6.63,0,0,1-.38.87c-.29.15-.44,0-.68.08.5.55-.58.66-.42,1.24.15.35.31,1.06.86,1C416.65,188.37,416.25,188.43,415.8,188.46Z"/><path class="cls-1" d="M445.7,260.19l.24-.58a33.92,33.92,0,0,1-2.33,5.83c3.37-3.59,6.47-8.68,3.41-13,2.14.13,4.08-4.1,3.55-4.3a25.62,25.62,0,0,1-.47-3c0,.67.1,1.34.18,2-.08-.68-.14-1.35-.18-2-.66-6.17.62-12.43,1.41-19.22a38.08,38.08,0,0,0,.23-3.82c0-.78.05-1.61.08-2.46s0-1.73,0-2.61c0-1.76-.08-3.52-.14-5.09s-.11-2.95-.13-3.93c0-.57,0-1.13-.06-1.71l-.08,1.93c-.47-1.12-.92-2.18-1.36-3.21s-.9-2-1.29-2.95a4.15,4.15,0,0,0-.74,1.46v-1.06c-1-.75-1.5-2.85-2.11-3.75.5.1.39-.7.29-1.4l-.23.35a24.56,24.56,0,0,0-1.14-4.05c-.43-1.34-1-2.62-1.31-3.76a1.08,1.08,0,0,1,.08-.81c-.36-.68-.69-1.38-1.08-2.05.64,0-.17-2,.58-1.08-1.3-1.36-1.48-3.17-2.84-4.38a58.75,58.75,0,0,0-9.63-15.26l-.12.24c-1.47-1.55-3.44-2.43-4.56-4.69-1.66-1-3.57-2.74-5-2.51-1.34-1.52-2.42-1.68-3.91-3-.15.8-1.8-.95-1.55.11.14,1.57.76,1.13.9,2.42l.14-.16c2.47,4.49,4.89,8.87,7.23,13.33,2.17,2.64,3.58,6,5.18,9.16.94,1.64,1.82,3.41,2.76,5.08s1.77,3.34,2.57,4.8c.42.68.1,1.39,0,2.11,1.25,2.75,2,6.5,3.17,9.71a.56.56,0,0,1,0-.17c.5,1.74.11,3.2.57,4.89.18,0,.23.22.35.34-.2.11-.08.78.19,1.74s.74,2.21,1.11,3.49c.85,2.55,1.56,5.2,1.34,5.53a3.53,3.53,0,0,1,.14.56,31.42,31.42,0,0,1-.88,5.63,21.75,21.75,0,0,0-.81,5.15,23,23,0,0,0,1.1,2.1c-.39.54.31.69.18,1.37-1.85,1.6-1.22,2.64-.55,1.81a22.48,22.48,0,0,1-.29,4.11c.05.6.1,1.19.17,1.8s-.2.77-.65,1c0,1.3-.33.86-.72,2.16-.32.11-.23,1-.09,1.86a6.49,6.49,0,0,1,.12,2l0-.23c-.44,1.51-1.74,2.26-2.19,3.7-1.4,3.95-2.43,8.41-4,11.95.56.26.19-.84,1-.59a23.86,23.86,0,0,1-1.73,3,26.89,26.89,0,0,0-1.85,2.95,3.53,3.53,0,0,1-1.07.71c-.53.55.08.51-.24,1l-.53-.18c.06.89-1.07.73-1.18,1.48.18.13.09.39,0,.61-.53-.26-.33.72-.8.43l0,0c-.09.13-.11.24-.29.36,0,.34.12,3.57.17,4l-.16.07c-.21.36.08.74.3.59l-.31.42v-.07l-.3.42a.46.46,0,0,1-.53-.26,1,1,0,0,1-.3.89,19.1,19.1,0,0,1,2.68-1.52c0,.41-.61.79-.76,1.15a8.44,8.44,0,0,0-2,1.28c-.05.15.45.61,0,.76-.48-.1-.22.34-.66.41,0-.42.27-.63.47-.92-.47-.24-.76.51-1.05.65.07.2-.46.65-.58,1.09-.32-.45-.46.09-.83.14-.21.19-.14.46.07.47.41.4.92-.74,1.18-.07-.28-.07-.52.44-.67.71.25.18.31,0,.44.29-.25.24-.15.75-.52.73,0-.1.09-.19.15-.27-.26.34-.31-3.1-.49-2.53.32,0,.1,3.09.28,2.87s.34.49.59.32l-.13-.47a.66.66,0,0,1,.93.17c-.39.49-.7-2.71-.75-2.07l.24-.1c0,.3-.17.91-.57.91.25.18.17.5.11.77l-.09.05c0,.31-.3.57.13.67.86-1.34,1.92,2.68,2.94,1.5-.92.15-.44-.59-.11-1.2a1.35,1.35,0,0,0,1.1-.29c.2-.39-.06-.35-.15-.52.26-.11.62-.41.88-.17-.16-.51.53-.29.64-.71s-.17-.08-.2-.4c.32-.43.76-1,1-1.35.37,0,1.14-.09,1.39.5-.5.66-.55-.71-.91.07.84.1-.22.75.18,1.2.43-.05.73-.52.9-1l-.14,0c.13-.4.43-1.17,1-1.34.17.22.45.16.34.45l.35-.45c0-.11-.08-.21-.21-.11a.57.57,0,0,1,.43-.6c.28.08.43-3.2.54-3,.19-.35.61-.24.55-.72a15.32,15.32,0,0,0-.87,3.34c.45-.16,1-4.69,1.55-4.68.12-.27.22-.62-.06-.69.35-.39.42.38.82.18,0,0-.14,0-.08-.13l.48-.15c-.05-.91,1-1.68.8-2.69a3.25,3.25,0,0,1,.59,1.43l-.18,0c.05.11-.06.55.2.66a1.56,1.56,0,0,0,.51-1.4,3.48,3.48,0,0,1,.33-.17l-.1,0c.23-.09.25-.06.32.05a.1.1,0,0,1,.05.06c.89,0,.34-2.06,1.12-2.73,0-.3-.12-.08-.13-.45a16.72,16.72,0,0,0,1.7-2.13c-.22-.44-.35-.51-.84-.29l.39-.66c.64,1,1.38-1,2,.07a1.07,1.07,0,0,0,.5-1c-.21-.13-.56-.33-.38-.83a12.4,12.4,0,0,1,.88-.95c.34,0,.39.22.63.28-.06-1.05.93-.58,1.17-1.46.12-.57.39-1.66-.12-1.85C444.91,259.87,445.29,260,445.7,260.19Z"/><path class="cls-1" d="M372.56,217l.57.29c-1-.36-1.92-.79-2.88-1.26s-1.89-1-2.82-1.55c3.42,3.64,8.2,7.19,12.83,4.49-.33,2.17,3.69,4.43,3.92,4a25.1,25.1,0,0,1,3-.15c-.67,0-1.34,0-2,0,.68,0,1.35,0,2,0,6.18,0,12.18,2.18,18.51,4.29,3.5,1.18,13.25,3.36,16.91,4.47.53.16,1.06.31,1.6.45l-1.76-.64c2.36-.22,4.5-.5,6.54-.59a4,4,0,0,0-1.11-1.18l1,.34c1-.75,3.17-.46,4.21-.71-.27.44.51.62,1.2.76l-.24-.33c2.62.49,5.73.42,8.09.69a1,1,0,0,1,.7.39l2.3-.17c-.23.61,1.84.69.73,1,1.76-.62,3.45,0,5.12-.7a85.82,85.82,0,0,0,18.05-1l-.16-.22a18.7,18.7,0,0,0,3.17-1.12,19.16,19.16,0,0,1,3.48-1.17c.37-.34.75-.72,1.12-1.1,1.19-1.26,1.8-2.86,1.22-3.76a2.81,2.81,0,0,0,.3-1.9,3.7,3.7,0,0,0-.57-1.36c-.3.17-.51,0-.73-.05l-.14,0a.75.75,0,0,0-.2-.12c-.12,0-.2,0-.21.3-.39.28-.42.25-.43.3s0,.09-.37.14h.22a10.32,10.32,0,0,1-.91.7,2.89,2.89,0,0,1-1.15.42,21.92,21.92,0,0,1-6.05.1c-3.52.5-7.4,0-11.08,0-4,.05-8.31.19-11.77.43-.83.11-1.37-.47-2-.82-3.16,0-7.12-.61-10.68-.72l.17,0c-1.89-.11-3.2-1-5-1.09,0,.18-.3.15-.45.22-.1-.44-2.84-.38-5.64-.33s-5.65.07-5.93-.22q-.3,0-.6,0c-3.78-1.08-7.4-3.47-10.68-4a23.27,23.27,0,0,0-2.35.71c-.49-.49-.76.18-1.43-.08-1.38-2-2.55-1.62-1.79-.81a31.94,31.94,0,0,1-4.18-.9c-.62,0-1.24-.07-1.87-.08s-.76-.31-.9-.77c-1.34-.14-.86-.43-2.14-1-.16-.64-3.61-.09-3.94-.39l.25,0c-1.52-.56-2.15-2-3.6-2.55-3.93-1.81-8.41-3.16-11.87-5-.3.54.84.25.53,1a23.43,23.43,0,0,1-2.92-2,27.64,27.64,0,0,0-2.83-2.07,3.87,3.87,0,0,1-.62-1.15c-.51-.57-.52,0-.94-.31l.22-.51c-.91,0-.66-1.1-1.38-1.3-.15.17-.39.05-.6-.11.32-.51-.68-.4-.36-.83l0,0a.88.88,0,0,1-.34-.31c-.37.06-3.55-.22-4-.21l-.06-.16c-.35-.23-.76,0-.62.25l-.41-.33h.08l-.39-.34a.49.49,0,0,1,.32-.51,1,1,0,0,1-.84-.4c.39.81.88,1.84,1.24,2.82-.41-.05-.75-.67-1.09-.85a8.28,8.28,0,0,0-1-2.11c-.14-.07-.65.37-.75-.08.15-.47-.33-.24-.35-.69.42,0,.62.32.87.56.3-.46-.43-.8-.54-1.1-.21,0-.59-.54-1-.7.48-.27,0-.48,0-.85-.17-.23-.44-.19-.48,0-.45.36.62,1-.07,1.18.11-.27-.37-.57-.62-.75-.21.22,0,.31-.35.4-.2-.28-.72-.24-.65-.61.1,0,.17.12.24.19-.29-.3,3.11.06,2.57-.19-.06.32-3.07-.26-2.88-.06s-.52.27-.39.54l.49-.07a.68.68,0,0,1-.28.91c-.44-.45,2.76-.37,2.14-.5l.07.25c-.3,0-.88-.27-.84-.67-.2.22-.51.1-.78,0l0-.1c-.3-.06-.53-.36-.68.05,1.23,1-2.9,1.57-1.85,2.74,0-.94.64-.36,1.21,0a1.38,1.38,0,0,0,.17,1.13c.36.25.35,0,.53-.09.08.28.34.68.07.91.52-.09.24.56.65.71s.1-.16.43-.16c.4.37,1,.89,1.24,1.23-.08.36,0,1.15-.64,1.32-.61-.57.76-.46,0-.92-.18.83-.73-.31-1.22,0,0,.44.45.8.88,1l0-.14c.39.18,1.13.58,1.26,1.15-.25.15-.2.43-.49.3l.44.38c.11,0,.22-.05.12-.2.34,0,.49.25.57.49-.11.28,3.16.81,3,.87.35.21.2.62.69.6a6.22,6.22,0,0,0-1.79-.71,6.15,6.15,0,0,0-1.51-.48,6.46,6.46,0,0,0,2.36,1c1.15.36,2.25.72,2.22,1,.27.15.61.3.7,0,.37.38-.42.39-.25.8,0,0,.05-.13.15-.07l.11.49c.92,0,1.65,1.12,2.66,1a3.16,3.16,0,0,1-1.48.44v-.17c-.11,0-.54-.11-.68.14a1.72,1.72,0,0,0,1.38.64,3.31,3.31,0,0,1,.14.36s0-.07.05-.1c.06.24,0,.26-.08.32a.09.09,0,0,1-.06,0c-.12.9,2.06.5,2.69,1.33.3,0,.09-.11.47-.09a13.92,13.92,0,0,0,2,1.88c.45-.18.53-.3.34-.81l.64.44c-1,.56.9,1.45-.2,2a1.1,1.1,0,0,0,1,.57.62.62,0,0,1,.86-.31c.56.6.44.42.9,1,0,.34-.26.36-.33.61,1,0,.51,1,1.38,1.28.58.13,1.65.52,1.88,0C373,216.21,372.8,216.59,372.56,217Z"/><path class="cls-1" d="M357.9,239.7l.38.37a19.29,19.29,0,0,1-3.77-3.78,12.86,12.86,0,0,0,3.43,5.52,5.26,5.26,0,0,0,5.92.88c-.79,2,2.25,4.62,2.55,4.13.88-.06,1.72,0,2.55,0-.56,0-1.12-.09-1.7-.12.58,0,1.14.08,1.7.12,5.16.27,9.83,2.13,14.89,3.81,1.4.44,4,1.05,6.61,1.59s5.15,1.07,6.55,1.52c.4.12.81.23,1.22.33l-1.35-.51c1.8-.4,3.42-.8,5-1a3.42,3.42,0,0,0-.87-1.1l.76.27c.78-.82,2.4-.64,3.2-1-.2.45.4.59.93.69l-.19-.32c2,.34,4.39.1,6.2.23a.71.71,0,0,1,.54.36l1.76-.29c-.15.61,1.44.59.59,1,1.33-.69,2.65-.21,3.91-1a48.52,48.52,0,0,0,13.73-2l-.12-.22c1.57-.54,2.85-1.86,4.81-1.69,1.28-1,3.15-1.66,3.49-3,1.52-.39,2-1.16,3.46-1.74-.5-.56,1.31-1,.48-1.37-1.14-.71-1.06.05-2-.52l.06.21c-4-.29-7.91-.39-11.86-.42-2.59.74-5.48.39-8.23.59-3,.28-6.21.61-8.81,1-.62.16-1.05-.39-1.56-.71-2.38.18-5.39-.23-8.1-.09l.13,0c-1.44,0-2.45-.74-3.86-.77,0,.18-.22.17-.34.26-.15-.83-8.41.93-8.83.36a3.42,3.42,0,0,1-.46,0c-2.89-.74-5.56-2.82-7.92-3.15A17.94,17.94,0,0,0,381,239c-.34-.44-.57.22-1.05,0-.87-1.94-1.73-1.47-1.26-.71a15.12,15.12,0,0,1-3-.72c-.45,0-.9,0-1.37,0s-.51-.3-.54-.74c-1-.12-.57-.4-1.4-.92,0-.32-.64-.34-1.33-.32s-1.38,0-1.47-.1h.19a2.92,2.92,0,0,1-1-1.28,3.56,3.56,0,0,0-.92-1.24c-2.22-1.79-4.88-3.46-6.48-5.54-.48.4.49.32-.09.91-1-1.22-1.36-2.92-2.06-4.21a2.43,2.43,0,0,1,.2-1c0-.5-.39-.08-.48-.41l.47-.31c-.63-.21.19-.89-.18-1.17-.22.08-.31-.06-.35-.2.53-.26-.24-.41.27-.61h0c0-.09-.1-.13,0-.27a12,12,0,0,1-1.3-.55c-.62-.27-1.16-.6-1.32-.65l.07-.11c-.09-.24-.55-.24-.61-.07l-.06-.32.05,0a1.87,1.87,0,0,1,0-.32.72.72,0,0,1,.57-.17c-.23-.13-.38-.3-.31-.5-.13.28-.31.6-.49.95a11,11,0,0,1-.56,1.06c-.26-.17-.07-.66-.2-.88a5.74,5.74,0,0,0,.72-1.52c-.06-.09-.73-.06-.46-.33.44-.17,0-.26.27-.48.26.18.17.4.17.62.53-.12.32-.57.45-.75-.17-.06-.06-.47-.22-.71.52.07.33-.22.61-.38.06-.16-.15-.26-.34-.19-.56-.05-.32.69-.92.48.27-.08.17-.42.14-.6-.3,0-.23.13-.52,0,.06-.21-.32-.44,0-.56.08,0,0,.13,0,.19,0-.14.52.25,1,.57s.93.61.84.46c-.14,0-.6-.27-1-.63s-.84-.74-.85-.65-.56-.14-.66,0l.38.2c-.11.24-.65.35-.86.27,0-.22.55.09,1,.37s.92.53.77.38l-.15.14c-.2-.13-.38-.51-.06-.66-.3,0-.41-.18-.53-.35l.05-.06c-.16-.16-.09-.4-.49-.3,0,.5-.74.35-1.55.15s-1.64-.44-1.72.15c.66-.48.69.17.78.66a1.19,1.19,0,0,0-.73.67c.09.32.27.17.45.22-.14.18-.23.53-.58.52.44.21-.23.43-.05.72s.18,0,.4.12c0,.4.07,1,0,1.28-.3.19-.8.7-1.36.53-.05-.65.87.06.64-.56-.7.42-.32-.53-.91-.56a.87.87,0,0,0-.05,1.05l.08-.09c.15.3.44.88.16,1.32-.28,0-.43.19-.56,0l.07.46c.1,0,.2.06.22-.08.26.15.21.39.1.59-.29.18,1.92,1.86,1.71,1.83.12.29-.22.52.17.69.1,0-.43-.61-.91-1.2a7.16,7.16,0,0,0-.86-1c-.12.18.55.95,1.16,1.67s1.3,1.35,1.1,1.56c.11.21.31.42.53.24.07.41-.54.15-.64.52,0,0,.11-.09.15,0l-.19.41a1.64,1.64,0,0,1,.67.87,1.42,1.42,0,0,0,.83.78,3,3,0,0,1-1.41-.1l.09-.14c-.11,0-.37-.26-.61-.11a1.09,1.09,0,0,0,.75,1,1.5,1.5,0,0,1-.07.32l.09-.06c-.07.21-.1.22-.22.23h-.07c-.58.71,1.36,1.07,1.45,1.92.23.11.13-.07.42.06a10.38,10.38,0,0,0,.75,2.13c.45,0,.57-.12.64-.6l.33.52c-1.1.23.11,1.47-1,1.67a.81.81,0,0,0,.56.75c.2-.14.51-.37.83-.07.22.66.2.47.36,1.05-.13.32-.35.28-.51.47.86.27.05,1,.69,1.46.43.25,1.18.84,1.55.42C358.47,239.06,358.22,239.38,357.9,239.7Z"/><path class="cls-1" d="M389.52,186.78l.34.36a20.33,20.33,0,0,1-3.36-3.5c1.18,3.81,3.74,7.93,8.25,6.19-1,1.92,1.34,4.64,1.68,4.24a15.92,15.92,0,0,1,2.34.29c-.5-.12-1-.23-1.54-.32.53.09,1,.2,1.54.32a23.67,23.67,0,0,1,6.62,2.5c1.06.55,2.09,1.18,3.13,1.85s2.11,1.31,3.19,2c.59.39,1.49.82,2.51,1.35s2.2,1.1,3.4,1.62c2.37,1.12,4.82,2.09,6.12,2.8.37.2.76.37,1.15.54-.62-.37-.63-.36-1.24-.74,1.84-.06,3.51-.23,5.07-.2a3.61,3.61,0,0,0-.68-1.23l.7.39c.89-.68,2.45-.32,3.26-.52-.25.42.31.64.81.82l-.14-.35a15.92,15.92,0,0,0,3.06.57c1,.12,2.06.23,2.94.36a.69.69,0,0,1,.5.4l1.73-.12c-.21.6,1.34.74.49,1,1.35-.57,2.6,0,3.88-.64a41.8,41.8,0,0,0,13.38-1.24l-.11-.22c1.54-.48,2.8-1.78,4.68-1.49,1.26-.95,3.07-1.56,3.43-2.89,1.46-.37,2-1.1,3.35-1.63-.47-.57,1.28-1,.49-1.34-1.07-.75-1,0-1.91-.6l.06.21c-3.82-.41-7.53-.69-11.26-.88-2.47.61-5.18.13-7.76.15l-4.28.16c-1.42.07-2.8.16-4,.24-.6.1-.94-.48-1.38-.85-2.23,0-5-.76-7.47-1a.28.28,0,0,1,.11,0c-1.33-.16-2.13-1.08-3.4-1.29,0,.17-.24.14-.36.2,0-.22-.49-.33-1.23-.41s-1.72-.15-2.72-.2c-2-.08-4.06-.3-4.2-.58l-.43,0a22,22,0,0,1-3.46-2.54,10.85,10.85,0,0,0-3.19-2.19c-.64.17-1.29.22-1.88.44-.22-.51-.59.09-1-.21-.41-2.08-1.38-1.76-1.06-.95a15.07,15.07,0,0,1-2.74-1.27c-.43-.1-.87-.2-1.32-.28s-.44-.38-.4-.82c-.93-.27-.48-.49-1.22-1.14.1-.61-2.57-.51-2.71-.83l.18,0c-.9-.7-.83-2.1-1.68-2.76-2.15-2.1-4.86-3.87-6.58-6-.46.42.52.33-.05.93a8.87,8.87,0,0,1-.71-1c-.2-.35-.38-.73-.57-1.09a22.26,22.26,0,0,0-1.13-2.12,2.4,2.4,0,0,1,.07-1c-.11-.53-.41-.06-.55-.39l.43-.37c-.67-.16.08-1-.39-1.22-.2.1-.33,0-.41-.17.5-.33-.3-.42.17-.69l0,0c0-.09-.11-.13-.09-.29-.14,0-.79-.2-1.46-.4s-1.29-.44-1.45-.47l0-.13c-.15-.23-.6-.14-.61.06l-.14-.33.06,0-.14-.32a.64.64,0,0,1,.52-.29c-.28-.09-.46-.24-.44-.46a22.33,22.33,0,0,1-.52,2.28c-.29-.12-.22-.65-.4-.85a6.65,6.65,0,0,0,.3-1.73c-.07-.08-.71.12-.54-.22.37-.29-.13-.25.09-.56.33.12.31.36.39.59.48-.26.11-.66.17-.89-.2,0-.17-.49-.41-.7.53-.07.24-.32.45-.57,0-.19-.24-.23-.39-.1-.56.12-.07.81-.71.77.23-.16,0-.48-.08-.66-.29.1-.17.21-.5.18,0-.24-.44-.35-.18-.57.09,0,.07.12.09.18-.06-.25,2.43.81,2.13.51-.21.21-2.28-.92-2.24-.75s-.57,0-.61.25l.43.09c0,.27-.5.55-.73.53-.1-.41,2.4.46,2,.21l-.09.19c-.24-.08-.54-.41-.29-.66a.59.59,0,0,1-.62-.19l0-.07c-.2-.12-.22-.38-.56-.15.2.49-.59.58-1.42.65s-1.69.13-1.58.69c.48-.65.71-.06,1,.37a1.2,1.2,0,0,0-.48.85c.15.28.29.08.47.08-.08.22-.09.57-.43.67.48.06-.1.46.16.67s.16-.08.42,0c.12.38.28.9.34,1.22-.26.25-.63.85-1.21.82-.18-.59.85-.15.5-.68-.58.57-.42-.42-1-.29a.83.83,0,0,0,.16,1l.07-.11c.2.25.63.7.43,1.18-.28.06-.39.28-.55.11l.15.4c.1,0,.21,0,.2-.12.28.08.27.31.2.52s.41.46,1,.78,1.1.58,1,.6c.16.25-.16.54.24.64.21-.08-2.34-2-2-1.71-.08.2.67.79,1.4,1.33s1.41,1.09,1.26,1.31c.14.17.35.36.55.15.1.39-.51.22-.58.59,0,0,.11-.1.15,0l-.15.42c.7.23.75,1.28,1.61,1.39a3.15,3.15,0,0,1-1.39.08l.08-.15c-.11,0-.38-.2-.61,0,.07.43.34.65.81.8a3.06,3.06,0,0,1,0,.32l.09-.08c-.06.22-.09.23-.21.26l-.07,0c-.49.71,1.35.88,1.51,1.66.23.08.12-.07.41,0a9.08,9.08,0,0,0,.76,2c.43-.07.55-.16.62-.63l.31.49c-1.06.29.1,1.41-1,1.67a.71.71,0,0,0,.53.68c.19-.15.5-.39.79-.1.19.62.17.45.31,1-.13.31-.34.28-.5.48.82.2,0,.94.58,1.37.38.25,1.07.77,1.45.36C390.12,186.17,389.86,186.48,389.52,186.78Z"/><path class="cls-1" d="M414,103.39l0-.69a50,50,0,0,1-.22,6.89c1.84-5,3.21-11.11-.92-14.81,2.13-.52,2.83-5.45,2.3-5.52a28.36,28.36,0,0,1-1.15-3c.2.71.41,1.4.65,2.1-.24-.7-.45-1.39-.65-2.1a41.49,41.49,0,0,1-1.65-10.11c-.16-3.51-.09-7.12,0-10.81.08-4.1-.45-15.1-.2-19.27,0-.6,0-1.2,0-1.81l-.2,2c-.8-2.47-1.54-4.69-2.08-6.86a4.22,4.22,0,0,0-.9,1.46l.11-1.14c-1-.95-1.13-3.31-1.59-4.39.48.2.5-.68.5-1.46l-.28.33c0-2.94-.64-6.31-.77-8.92a1.14,1.14,0,0,1,.27-.83l-.5-2.48c.63.16.43-2.1.89-.93-.84-1.83-.5-3.75-1.35-5.5-.17-3.19-.42-6.47-.79-9.79s-.7-6.66-1.21-10l-.23.16c-.36-2.31-1.53-4.39-1.06-7.21-.82-2-1.06-4.94-2.31-5.81,0-2.36-.64-3.33-.84-5.66-.68.55-.64-2.3-1.2-1.2-1,1.47-.23,1.61-1,2.87l.22,0c-.62,3-1.25,6.06-1.6,9.13s-.67,6.16-.83,9.27c.59,4.15.11,8.66.47,13a122.83,122.83,0,0,0,1.82,13.49,4.48,4.48,0,0,1-.5,2.47c.56,3.59.64,8.22,1.35,12.24a1.21,1.21,0,0,1,0-.2c.28,2.15-.24,3.82.05,5.92.18,0,.22.3.33.45-.81.44,2.85,12.2,2.43,13a6.37,6.37,0,0,1,.16.66c0,4.46-1.25,9.16-.79,12.92a27,27,0,0,0,1.39,2.35c-.31.69.4.77.36,1.58-1.54,2.17-.75,3.32-.23,2.22a46.5,46.5,0,0,1,.49,4.86l.54,2.05a1.09,1.09,0,0,1-.44,1.26c.32,1.51-.12,1.08-.2,2.69-.57.41,1.17,3.94,1,4.4l-.1-.26c0,1.85-1.12,3.13-1.09,4.93-.12,2.5,0,5.11.11,7.67s.18,5.08.12,7.4c.62,0-.16-1,.66-1.09,0,2.74-.77,5.49-.92,8.24a4.85,4.85,0,0,1-.68,1.32c-.24.88.29.52.21,1.16l-.56.09c.45.94-.63,1.36-.41,2.25.23.05.26.37.24.68-.6,0,0,1-.51.92h0a1.27,1.27,0,0,1-.07.56c.23.36,1.76,3.76,2,4.13l-.11.17c0,.5.44.73.56.44l-.05.62,0-.07-.06.62a.42.42,0,0,1-.59.05,1.37,1.37,0,0,1,.18,1.1,22.36,22.36,0,0,1,1.59-3.17c.19.42-.15,1.17-.1,1.63a10.65,10.65,0,0,0-1.08,2.5c0,.2.69.35.39.77-.47.2,0,.49-.34.84a2,2,0,0,1-.08-1.24c-.54,0-.4,1-.56,1.33.17.17,0,1,.1,1.48-.51-.24-.34.4-.63.69-.07.34.13.57.31.43.57.14.38-1.35,1-.85-.27.12-.2.8-.19,1.16.31,0,.25-.24.53,0-.08.4.28.84,0,1.06-.08-.08,0-.25,0-.36,0,.52-1.92-2.92-1.77-2.24.28-.16,1.74,3.06,1.77,2.71s.55.26.67-.07l-.36-.39c.13-.44.67-.61.88-.44-.07.76-2-2.24-1.75-1.57l.16-.26c.19.28.34,1,0,1.29.3,0,.4.39.5.7l-.06.11c.15.32.06.76.47.57,0-1.87,3.06,1.36,3.29-.44-.69.73-.68-.28-.73-1.08a1.55,1.55,0,0,0,.77-1c0-.5-.24-.3-.41-.4.16-.27.3-.8.66-.72-.41-.4.29-.61.15-1.08s-.18,0-.37-.27c.06-.61.15-1.47.24-2,.34-.18,1-.74,1.45-.31-.1.94-.83-.38-.75.6.77-.4.18.86.75,1.06a1.66,1.66,0,0,0,.3-1.46l-.11.1a2.51,2.51,0,0,1,.21-1.88c.26.12.47-.09.53.25l.07-.64c-.09-.08-.17-.17-.24,0a.72.72,0,0,1,.1-.84c.29-.06-1.09-3.41-.94-3.31,0-.46.42-.56.14-1a7.26,7.26,0,0,0,.37,2.11,8.51,8.51,0,0,0,.43,1.69c.36-.39-1.33-5.24-.8-5.51,0-.34-.07-.75-.36-.68.14-.57.55.18.82-.23-.05,0-.15,0-.14-.09l.37-.4c-.44-.89.14-2.2-.44-3.14a3.52,3.52,0,0,1,1.13,1.19l-.15.1c.09.09.18.58.47.57a2.1,2.1,0,0,0-.14-1.67c.08-.11.16-.24.24-.33a.21.21,0,0,1-.11,0c.18-.19.21-.17.32-.1l.06,0c.84-.36-.52-2.25-.08-3.3-.12-.31-.14,0-.3-.41a22.55,22.55,0,0,0,.73-2.94c-.37-.35-.51-.38-.88.06l.1-.85c1,.76.89-1.59,1.86-.76a1.31,1.31,0,0,0,.09-1.23.66.66,0,0,1-.64-.71,14.05,14.05,0,0,1,.49-1.34c.31-.17.44.08.69.05-.42-1.05.67-.94.59-2-.11-.62-.16-1.87-.72-1.88C413.15,103.33,413.56,103.32,414,103.39Z"/><path class="cls-1" d="M352.87,302.43l-.25.36a23.8,23.8,0,0,1,2.19-3.7c-3.05,2-6.11,4.63-3.58,8.53-2-.68-4.23,1.62-3.79,1.9a11.83,11.83,0,0,1,0,2.14c.06-.46.1-.94.12-1.42,0,.48-.06,1-.12,1.42-.31,4.39-2.92,8-5.71,11.78-1.5,2.09-5.05,8-6.79,10.05-.24.3-.48.6-.71.91l.92-.94c-.23,1.67-.4,3.2-.72,4.6a3.15,3.15,0,0,0,1.31-.3l-.51.54c.48,1-.24,2.29-.24,3.08-.34-.34-.68.1-1,.5l.36,0c-1,1.55-1.7,3.63-2.53,5.07a.65.65,0,0,1-.54.29l-.43,1.57c-.49-.39-1.1.91-1.08.06.08,1.39-.88,2.25-.75,3.61a60.46,60.46,0,0,0-4.62,11.8l.25,0c-.36,1.49.08,3.21-1.14,4.58.1,1.52-.42,3.32.45,4.39-.57,1.38-.29,2.21-.71,3.64.74,0,0,1.61.76,1.23,1.25-.4.61-.82,1.64-1.18l-.2-.09a63.87,63.87,0,0,0,7.19-9.18c.77-2.53,2.52-4.77,3.65-7.21a65.84,65.84,0,0,0,3-8c.11-.61.79-.74,1.29-1,.82-2.15,2.35-4.63,3.24-7.07a.52.52,0,0,1-.07.11c.53-1.27,1.58-1.87,2.1-3.11-.16-.08-.08-.27-.11-.4.87.19,2-7.79,2.67-8a3.34,3.34,0,0,1,.1-.43c1.61-2.34,4.4-4.2,5.35-6.43a12.93,12.93,0,0,0-.38-1.93c.52-.22-.08-.61.24-1,2.1-.41,1.81-1.42,1-1.08a19.71,19.71,0,0,1,1.25-2.85c.08-.46.16-.91.23-1.37s.36-.49.8-.48c.21-1,.46-.54,1.07-1.38.64,0,.26-2.71.55-2.89v.18c.6-1,2-1.22,2.53-2.23,1.78-2.7,2.89-6.05,4.33-8.65-.55-.29-.15.65-.91.33.84-1.54,2.29-2.81,3.13-4.37a3,3,0,0,1,1-.48c.45-.42-.13-.43.12-.77l.53.18c-.16-.74.93-.54,1-1.15-.19-.13-.13-.33,0-.5.55.24.23-.59.71-.33l0,0c.06-.1.06-.2.22-.29-.1-.3-.67-2.95-.8-3.27l.13-.06c.12-.3-.22-.61-.4-.49l.2-.35v.06l.2-.34a.58.58,0,0,1,.56.2.65.65,0,0,1,.09-.73,12.6,12.6,0,0,1-2.2,1.26c-.08-.33.41-.64.47-.94a5.41,5.41,0,0,0,1.58-1.06c0-.12-.55-.47-.17-.61.48.07.12-.29.52-.36.11.34-.1.53-.23.77.51.18.6-.45.83-.58-.11-.16.26-.56.26-.92.42.35.41-.1.75-.16a.23.23,0,0,0-.19-.39c-.48-.29-.67.66-1.08.14.28,0,.37-.39.45-.62-.28-.13-.28,0-.49-.21.17-.2-.06-.61.3-.61,0,.08,0,.16-.08.22.17-.29,1.08,2.49,1.1,2-.3,0-.87-2.5-1-2.3s-.44-.36-.63-.22l.24.37a.76.76,0,0,1-.91-.08c.24-.42,1.34,2.13,1.23,1.62l-.2.09c-.11-.24-.07-.74.3-.77-.28-.13-.28-.39-.3-.61l.08,0c-.06-.25.12-.48-.3-.53-.45,1.11-2.5-2-3.14-1,.82-.16.56.43.43.93a1.19,1.19,0,0,0-.94.27c-.09.31.14.27.28.4-.21.09-.47.34-.77.16.28.4-.41.24-.4.57s.17.06.28.31a10.87,10.87,0,0,1-.68,1.06c-.36,0-1,.06-1.4-.4.31-.5.67.56.82-.05-.8-.07,0-.58-.44-.92-.39,0-.56.4-.61.74l.12,0c0,.3-.13.9-.63,1-.21-.18-.45-.14-.42-.36l-.21.35c.05.08.11.16.21.08.11.26-.07.39-.28.45s.19,2.44,0,2.31c-.11.26-.53.15-.38.53a8.69,8.69,0,0,0,.2-2.54c-.38.1-.09,3.58-.66,3.52-.07.2-.12.46.16.53-.28.28-.45-.32-.8-.2,0,0,.14,0,.09.11l-.43.07c.17.7-.7,1.21-.42,2a3.21,3.21,0,0,1-.71-1.15H361c-.06-.09,0-.41-.28-.52a.89.89,0,0,0-.31,1,1.67,1.67,0,0,1-.3.08l.11.05c-.22,0-.24,0-.32-.08l-.05-.05c-.85-.15-.12,1.5-.79,1.92,0,.22.12.07.16.36a9.94,9.94,0,0,0-1.48,1.33c.23.36.35.44.81.35l-.34.43c-.66-.85-1.25.51-1.89-.38a.57.57,0,0,0-.42.65c.2.13.53.34.37.67a8.55,8.55,0,0,1-.82.53c-.32,0-.37-.24-.6-.33.08.77-.87.23-1.08.82-.09.39-.39,1.11.1,1.36C353.61,302.85,353.25,302.67,352.87,302.43Z"/><path class="cls-1" d="M313.34,285l-.63.49a78.37,78.37,0,0,1,6.14-5c-5.51,2.45-11.86,5.86-12.25,11.9-1.81-1.2-6.57,2-6.28,2.47-.56,1.1-1.15,2.17-1.8,3.2.47-.69.92-1.39,1.34-2.11-.42.72-.87,1.42-1.34,2.11-4.14,6.5-10.24,11.9-16.52,17.59-3.47,3.16-12.22,12.33-15.81,15.53l-1.52,1.42,1.81-1.49c-1.48,2.57-2.8,4.91-4.19,7.07a4.84,4.84,0,0,0,1.81-.53l-1,.85c-.11,1.47-1.92,3.5-2.48,4.71-.17-.51-.9.19-1.54.82l.47-.07c-2.36,2.43-4.64,5.64-6.67,7.87a1.43,1.43,0,0,1-.86.48l-1.63,2.41c-.32-.57-2,1.45-1.37.15-.87,2.11-2.64,3.48-3.45,5.51-2.41,2.78-4.8,5.73-7.18,8.73s-4.68,6.12-6.9,9.25l.3,0c-1.53,2.21-2.26,4.76-4.78,6.83-1,2.28-3,4.9-2.75,6.47-1.76,2-2.06,3.24-3.68,5.36.93,0-1.27,2.36,0,1.8,1.87-.61,1.4-1.22,3-1.77l-.18-.12c2.77-2.15,5.55-4.32,8.16-6.66s5.19-4.74,7.72-7.22c2.75-3.85,6.57-7.29,9.66-11.06,3.33-4.07,6.77-8.6,9.31-12.34.56-.93,1.47-1.16,2.3-1.65,2.5-3.3,6.08-7.12,8.87-10.86a2.21,2.21,0,0,1-.17.16c1.54-1.93,3.25-2.89,4.74-4.78-.14-.11.09-.4.14-.59.89.22,8-11.8,8.94-12.11.14-.21.28-.43.44-.64,3.68-3.51,8.38-6.3,11.22-9.57a27.51,27.51,0,0,0,1-2.85c.79-.31.38-.89,1.08-1.5,2.84-.55,3.26-2,2-1.57a47.75,47.75,0,0,1,3.76-4.11c.47-.65.93-1.3,1.38-2a1.3,1.3,0,0,1,1.35-.64c1.05-1.41,1-.75,2.38-1.93.71.08,2.58-3.88,3.09-4.1l-.16.27c1.59-1.39,3.39-1.53,4.9-2.91,2.17-1.86,4.41-3.81,6.55-5.79s4.2-4,6.31-5.54c-.36-.5-.8.85-1.38.26,2.45-1.9,5.34-3.31,7.8-5.22a5.22,5.22,0,0,1,1.6-.41c.93-.41.28-.58.91-1l.42.38c.56-1,1.61-.44,2.26-1.23-.09-.21.18-.46.47-.66.38.47.84-.69,1.13-.22l0-.05a1.64,1.64,0,0,1,.54-.32c.22-.4,2.22-4,2.45-4.47l.22,0c.45-.33.4-.83.06-.73l.6-.37,0,.08.6-.37a.39.39,0,0,1,.4.44,1.75,1.75,0,0,1,.9-.88,26.43,26.43,0,0,1-3.86.85c.27-.44,1.16-.67,1.55-1a13.41,13.41,0,0,0,2.94-.81c.16-.15-.1-.78.47-.82.46.24.45-.33,1-.28a2.47,2.47,0,0,1-1.09.88c.38.4,1.16-.35,1.55-.44.05-.24.9-.61,1.29-1.06.09.57.57,0,1,.05.36-.16.45-.48.21-.54-.2-.54-1.45.59-1.34-.21.27.15.85-.36,1.17-.61-.17-.26-.36,0-.3-.44.41-.2.61-.79,1-.67,0,.12-.21.19-.33.25.5-.3-1.53,3.5-1,2.92-.33-.11,1.76-3.44,1.43-3.23s-.09-.62-.46-.49l-.14.54c-.49.2-1-.13-.92-.41.73-.45-.85,3.14-.42,2.46l-.32.05c.14-.34.73-1,1.17-.87-.16-.26.12-.58.35-.87l.13,0c.21-.33.66-.56.25-.76-1.72,1.24-.54-3.39-2.34-2.37,1.09.07.14.74-.57,1.32a1.68,1.68,0,0,0-1.35,0c-.44.36-.14.39-.14.6-.34.05-.91.28-1-.05-.13.6-.74.18-1.09.6s.13.13,0,.49c-.6.36-1.45.87-2,1.12-.37-.15-1.25-.26-1.15-1,.92-.55.15.92,1,.19-.83-.35.69-.73.53-1.31a2.12,2.12,0,0,0-1.53.74l.16,0a3.27,3.27,0,0,1-1.88,1.11c0-.3-.36-.32-.08-.59l-.63.37c0,.13-.06.25.15.18a.9.9,0,0,1-.82.49c-.24-.17-2.4,3.32-2.41,3.11-.41.32-.77.06-1,.6a24.59,24.59,0,0,0,2.93-3.34c-.55,0-3.91,4.76-4.49,4.53-.3.25-.63.58-.39.76-.6.29-.17-.56-.71-.48,0,0,.12.09,0,.17h-.58c-.54,1-2.11,1.41-2.57,2.56a3.55,3.55,0,0,1,.36-1.73l.19,0c0-.13.41-.55.23-.76a2.59,2.59,0,0,0-1.43,1.28,3.84,3.84,0,0,1-.44.06l.08.08c-.29,0-.29,0-.29-.17a.19.19,0,0,1,0-.08c-.84-.39-1.65,2.07-2.85,2.5-.2.32.06.14-.17.54a25.56,25.56,0,0,0-3.09,1.56c-.08.54,0,.67.61.64l-.82.53c.05-1.3-2,.47-1.87-.88a1.74,1.74,0,0,0-1.16.82c.12.22.3.56-.21,1-.92.39-.67.33-1.47.63-.34-.11-.21-.4-.4-.57-.64,1.13-1.25.21-2.07,1-.48.55-1.51,1.54-1.17,2C313.84,285.72,313.57,285.42,313.34,285Z"/><path class="cls-1" d="M262.41,259.3l.34,0a16.72,16.72,0,0,1-3.31.46c2.85,1.17,5.88,2.15,6.83-2.12.66,2,3,2.54,3,2a7.52,7.52,0,0,1,1.21-1.19,6.56,6.56,0,0,0-.86.68,6.56,6.56,0,0,1,.86-.68,7.15,7.15,0,0,1,4.37-1.54,7.88,7.88,0,0,1,1.09.06l.54.07.64.11c.86.17,1.73.38,2.6.59,1.93.43,7.2,1.16,9.19,1.94l.87.28-1-.46a32.89,32.89,0,0,1,3.58-1.21,3.19,3.19,0,0,0-.61-1.07l.55.25c.58-.84,1.76-.7,2.35-1-.16.45.28.58.66.68l-.13-.32a42.76,42.76,0,0,0,4.57.23c.18,0,.31.19.39.36l1.31-.28c-.14.61,1,.61.41,1,1-.67,2-.17,2.95-.89a29.49,29.49,0,0,0,10.33-1.65l-.1-.23c1.18-.5,2.12-1.78,3.58-1.52.94-.94,2.32-1.54,2.54-2.86,1.12-.35,1.47-1.06,2.52-1.56-.39-.59.94-.93.31-1.33-.87-.77-.78,0-1.5-.63l.05.21a75.71,75.71,0,0,0-8.67-.9c-1.87.63-3.95.23-5.95.35a62.89,62.89,0,0,0-6.5.9c-.46.16-.76-.4-1.13-.73-1.78.16-4-.24-6.1-.05a.24.24,0,0,1,.1,0c-1.09,0-1.84-.71-2.93-.68,0,.18-.17.18-.26.27-.11-.88-6.44,1.33-6.78.85l-.35.08c-2.25-.48-4.61-2.19-6.61-2.05a16.42,16.42,0,0,0-1.32,1.21c-.4-.35-.46.35-.93.27-1.3-1.65-1.92-.84-1.28-.31a22.63,22.63,0,0,1-2.68.42c-.36.18-.72.35-1.07.55s-.51,0-.73-.4c-.77.37-.6-.08-1.48-.11-.31-.55-1.92,1.32-2.18,1.19l.12-.11c-1,.09-1.84-.9-2.79-.75-2.68.16-5.35,1.29-7.72,1.73.14.6.47-.28.71.51-1.39.27-3-.09-4.38.2a2.64,2.64,0,0,1-.85-.46c-.5-.09-.17.36-.52.38l-.2-.53c-.34.58-.86-.39-1.24,0,0,.22-.11.3-.27.33-.18-.57-.47.18-.6-.34v0c-.1,0-.16.08-.3,0-.12.26-1.32,2.32-1.42,2.62l-.11-.07c-.25.1-.22.55-.05.61l-.31.06,0,0-.31.06a.68.68,0,0,1-.21-.55c-.11.25-.27.42-.48.37a10.24,10.24,0,0,1,2,.94c-.15.26-.61.07-.82.2a4.26,4.26,0,0,0-1.53-.57c-.08.06.05.71-.25.5-.24-.41-.23.09-.51-.17.13-.3.36-.26.57-.3-.19-.5-.61-.19-.81-.29,0,.19-.48.14-.68.36-.05-.53-.3-.25-.53-.47-.19,0-.23.23-.11.38.12.56.77.11.71.75-.14-.24-.44-.05-.61,0,.09.3.19.19.17.51-.22,0-.31.41-.52.14,0-.09.11-.07.17-.08-.27,0,.77-2.35.5-2.08.17.24-.91,2.21-.73,2.17s.06.57.25.62l.06-.41c.26,0,.51.53.5.75-.39.07.41-2.34.19-1.94l.17.1c-.07.23-.38.51-.61.24a.62.62,0,0,1-.17.61l-.07,0c-.11.2-.35.2-.13.55.89-.33.34,3.15,1.27,3-.57-.53-.09-.7.27-.89a1.21,1.21,0,0,0,.71.55c.22-.12.07-.28.06-.46.18.11.47.15.54.5.06-.46.38.16.56,0s-.07-.18,0-.41a7.73,7.73,0,0,1,1-.12c.19.29.64.77.59,1.32-.47.07-.07-.85-.51-.6.43.66-.35.32-.26.9a.52.52,0,0,0,.77,0l-.08-.08c.19-.16.59-.45.95-.13,0,.27.19.43,0,.54l.32-.05c0-.09,0-.18-.08-.21.09-.25.27-.18.42-.06s1.28-1.63,1.28-1.45c.22-.07.4.32.53,0-.05-.23-1.83,1.56-1.56,1.38.27.24,2.09-2.1,2.38-1.63.16-.06.34-.18.22-.44.31.05.07.55.34.75,0-.05-.05-.14,0-.15l.29.3c.31-.55,1.09-.19,1.38-.88a3.4,3.4,0,0,1-.25,1.26l-.09-.13c0,.09-.23.26-.14.53.32.1.54,0,.75-.37a2.13,2.13,0,0,1,.22.18l0-.11c.14.15.14.18.14.3a.13.13,0,0,1,0,.06c.41.76.93-.81,1.55-.54.12-.15,0-.14.12-.34a6.84,6.84,0,0,0,1.6.37.76.76,0,0,0-.25-.85h.43c-.11,1,1,.68.84,1.72a.39.39,0,0,0,.61-.05c0-.24-.11-.62.18-.7a5.94,5.94,0,0,1,.75.34c.16.28.07.43.15.67.39-.52.6.55,1.06.37.27-.16.84-.34.72-.88C262.24,258.46,262.34,258.86,262.41,259.3Z"/><path class="cls-1" d="M397,305.7l-.07.13a2.83,2.83,0,0,1,.46-1.36c-1.93.9-3.66,2,.28,3-2.12,0-3.16.88-2.64.93a6.43,6.43,0,0,1,.93.67,4.51,4.51,0,0,0-.5-.45,4.51,4.51,0,0,1,.5.45c1.57,1.41.77,2.8-.13,4.23-.46.8-1.05,3-1.71,3.8-.08.12-.16.24-.23.36l.4-.39a15.26,15.26,0,0,1,1.4,1.51,5.12,5.12,0,0,0,1-.22l-.22.22c.87.26.8.74,1.16,1-.46-.07-.56.1-.64.25l.31,0c-.23.59.11,1.3,0,1.83,0,.08-.18.12-.34.15l.33.53c-.62-.07-.57.39-.94.13.71.42.24.79,1,1.19a7.53,7.53,0,0,0,1.36,4.14l.24,0c.38.5,1.57,1,1.13,1.53a6.3,6.3,0,0,0,2.48,1.31c.15.48.79.71,1.09,1.19.65-.08.75.49,1.25.29.91-.25.15-.31.89-.53h-.22a9.38,9.38,0,0,0,2-3.57c-.5-.86,0-1.73-.12-2.6a9,9,0,0,0-1-2.78c-.17-.2.37-.3.68-.45-.25-.74,0-1.66-.28-2.5,0,0,0,0,0,0-.08-.44.59-.73.5-1.16-.18,0-.19-.08-.28-.12.85,0-1.61-2.61-1.12-2.73a.8.8,0,0,1-.09-.14c.43-.88,2.13-1.72,2-2.5-.39-.19-.73-.4-1.17-.57.37-.11-.33-.18-.23-.34,1.72-.32,1-.6.42-.42-.21-.36,0-.7-.08-1s-.24-.3-.38-.45.12-.19.53-.22c-.23-.33.19-.21.38-.53.59,0-.9-.87-.72-1l.09.06c.12-.37,1.29-.56,1.36-.92.49-1,.12-2.14.37-3.08-.62,0,.13.22-.69.18.14-.55.94-1.07,1.07-1.63a2.87,2.87,0,0,1,.7-.23c.24-.17-.29-.12-.21-.25h.57c-.45-.22.63-.24.41-.44-.22,0-.25-.09-.23-.15.6,0,0-.2.51-.16h0s0-.07.08-.11c-.21-.08-1.8-.87-2-1l.1,0c0-.1-.45-.17-.56-.12l0-.12h0l0-.12a1.73,1.73,0,0,1,.59,0c-.21-.08-.31-.17-.2-.24a10.4,10.4,0,0,1-1.53.58c-.2-.1.13-.24.07-.34a3.77,3.77,0,0,0,1-.46s-.7-.1-.4-.18c.46,0,0-.1.32-.15s.13.17.1.26c.54,0,.38-.19.54-.25-.17,0,0-.2-.13-.31.52.08.34-.06.62-.11.06-.07-.14-.12-.33-.11-.56-.05-.35.26-.94.13.28,0,.19-.15.17-.23a1.86,1.86,0,0,1-.53,0c.07-.08-.29-.19,0-.22.08,0,0,.05,0,.07s2,.7,1.81.55c-.28,0-1.8-.71-1.82-.64s-.55-.08-.66,0l.36.1a1.9,1.9,0,0,1-.87,0c.06-.15,2.08.57,1.78.41l-.15.05c-.2-.07-.37-.23,0-.27a.81.81,0,0,1-.51-.17h.05c-.15-.08-.07-.16-.48-.15,0,.39-3.08-.42-3.28-.06.69-.12.69.09.76.25a1.83,1.83,0,0,0-.75.17c.05.1.24.07.41.1a1.12,1.12,0,0,1-.64.11c.42.1-.28.11-.13.21s.18,0,.38.08a1.47,1.47,0,0,1-.21.39,5.35,5.35,0,0,1-1.44,0c.08-.19.84.12.74-.09-.77.05-.2-.18-.77-.25-.35,0-.36.17-.27.28h.1c.09.09.24.29-.17.37s-.47,0-.53-.08l-.06.13a.4.4,0,0,0,.24,0c.2.07.08.12-.08.16s1.14.76,1,.72c0,.1-.42.1-.14.2s-.91-.94-.83-.81c-.31.06,1.35,1.13.81,1.16,0,.07.07.16.36.16-.15.1-.54-.07-.82,0,.05,0,.15,0,.14,0l-.37.06c.43.21-.16.44.42.67a6.58,6.58,0,0,1-1.12-.31H401a1.12,1.12,0,0,0-.47-.14c-.19.1-.15.2.13.34l-.24,0h.11a.67.67,0,0,1-.32,0h-.06c-.84,0,.5.48.06.67.11.07.14,0,.29.1a3.56,3.56,0,0,0-.81.55,1.74,1.74,0,0,0,.88,0l-.13.16c-.95-.21-.93.27-1.88,0-.22,0-.27.14-.12.25s.63.06.62.18c-.33.14-.21.11-.53.23a4.65,4.65,0,0,1-.69-.05c.39.24-.69.15-.64.35s.11.39.66.42C397.82,305.76,397.42,305.74,397,305.7Z"/><path class="cls-1" d="M275.23,220.61l-.82,0c2.64-.11,5.43,0,8.18.19-6-1.74-13.08-3.24-17.63.85-.53-2.11-6.35-3-6.45-2.45a35.94,35.94,0,0,1-3.64,1.05c.85-.17,1.69-.36,2.52-.58-.83.22-1.67.41-2.52.58-7.75,1.82-16.22,1.29-25,.66-4.86-.3-18-.47-23-1l-2.17-.16,2.42.33c-3,.63-5.76,1.24-8.41,1.67a5.37,5.37,0,0,0,1.69,1l-1.36-.17c-1.22.91-4.07.93-5.41,1.33.28-.47-.78-.54-1.71-.58l.38.29c-3.55-.11-7.64.35-10.81.37a1.61,1.61,0,0,1-1-.31l-3,.42c.22-.62-2.53-.49-1.09-.9-2.25.78-4.56.38-6.71,1.18a209.7,209.7,0,0,0-23.9,2.13l.2.22c-2.78.47-5.21,1.75-8.63,1.42-2.4.88-5.84,1.39-6.77,2.7-2.79.23-3.89.91-6.63,1.3.73.62-2.64.84-1.27,1.3,1.85.85,1.92.09,3.49.77l-.05-.21c7.24.8,14.48,1.19,21.8,1.32,4.87-.65,10.17-.32,15.24-.6,5.46-.35,11.36-.9,16-1.53a5.78,5.78,0,0,1,2.89.59c4.3-.39,9.79-.29,14.65-.75h-.24c2.58-.17,4.53.45,7.05.28,0-.18.37-.2.56-.3.46.84,14.8-2.09,15.71-1.62.26,0,.53-.09.8-.12,5.34.26,10.88,1.79,15.44,1.54a29.76,29.76,0,0,0,2.92-1.26c.82.34,1-.36,1.93-.29,2.51,1.64,3.94.9,2.66.33,2-.27,4.07-.17,5.88-.27l2.5-.45a1.39,1.39,0,0,1,1.49.48c1.84-.29,1.3.14,3.23.27.48.59,4.81-1.05,5.36-.88l-.31.1c2.23,0,3.73,1.17,5.91,1.17,6,.3,12.65-.29,18.26-.21,0-.62-1.24.17-1.32-.65,3.31,0,6.66.73,10,.76a6.53,6.53,0,0,1,1.62.64c1.07.21.63-.31,1.41-.24l.11.55c1.14-.48,1.68.59,2.75.33.05-.22.45-.26.83-.25,0,.59,1.17-.07,1.12.48v0a1.64,1.64,0,0,1,.68.06c.43-.22,4.5-1.94,4.94-2.2l.21.09c.61,0,.87-.48.51-.58l.75,0-.08,0,.75,0a.38.38,0,0,1,.09.59,2,2,0,0,1,1.32-.25,29.81,29.81,0,0,1-3.91-1.4c.51-.22,1.43.08,2,0a14.47,14.47,0,0,0,3.08.94c.23,0,.38-.71.91-.43.26.45.59,0,1,.29a2.86,2.86,0,0,1-1.5.15c.09.53,1.24.34,1.64.48.19-.18,1.17,0,1.79-.18-.27.52.5.32.87.59.41.05.68-.16.51-.34.12-.57-1.66-.3-1.09-.91.15.27,1,.16,1.41.12,0-.31-.31-.23,0-.53.49.06,1-.32,1.29,0-.09.09-.29,0-.44,0,.64,0-3.41,2.09-2.59,1.9-.22-.27,3.59-1.91,3.17-1.92s.27-.57-.14-.67l-.44.39c-.54-.11-.78-.64-.59-.86.92,0-2.57,2.17-1.79,1.84l-.32-.14c.33-.21,1.21-.4,1.56-.09,0-.3.44-.42.81-.54l.14,0c.38-.16.91-.1.66-.5-2.25.1,1.44-3.13-.74-3.26.92.65-.3.7-1.26.8a1.82,1.82,0,0,0-1.22-.72c-.6.07-.35.26-.46.43-.33-.14-1-.26-.89-.61-.46.43-.75-.26-1.31-.1s0,.18-.31.4c-.74,0-1.77-.07-2.36-.14-.23-.32-.94-.9-.44-1.43,1.12.05-.41.85.75.72-.51-.75,1-.23,1.23-.81a2.29,2.29,0,0,0-1.75-.22l.12.1a3.46,3.46,0,0,1-2.26-.1c.13-.26-.13-.46.28-.53l-.77,0c-.09.09-.19.18,0,.23a1,1,0,0,1-1,0c-.09-.28-4,1.27-3.93,1.1-.55,0-.69-.4-1.22-.11a27.15,27.15,0,0,0,4.52-1c-.47-.3-6.21,1.55-6.56,1-.41,0-.9.1-.8.39-.69-.13.2-.56-.3-.81,0,0,0,.14-.11.13l-.48-.35c-1.06.47-2.64-.07-3.75.54a4.07,4.07,0,0,1,1.4-1.17l.12.15c.1-.09.7-.2.68-.49a2.94,2.94,0,0,0-2,.19,3.6,3.6,0,0,1-.4-.22s0,.06,0,.11c-.24-.18-.21-.21-.13-.32l.05-.06c-.44-.83-2.68.59-3.94.18-.36.13,0,.14-.49.31a28.68,28.68,0,0,0-3.51-.7c-.42.37-.45.51.07.88l-1-.1c.9-1-1.9-.87-.9-1.85a1.84,1.84,0,0,0-1.47-.08c-.05.24-.13.63-.85.65-1-.3-.75-.19-1.58-.48-.2-.31.1-.44.06-.69-1.26.43-1.11-.66-2.31-.58-.74.11-2.22.18-2.24.74C275.14,221.46,275.13,221.06,275.23,220.61Z"/><path class="cls-1" d="M444.15,137.4l.13-.18a6,6,0,0,1-1,1.87c2.28-.87,4.41-2,1.05-4.44,2,.58,3.47-.47,3-.67a6.27,6.27,0,0,1-.58-1.21,5.48,5.48,0,0,0,.26.78,5.48,5.48,0,0,1-.26-.78c-.85-2.45.61-4.24,2.22-6,.84-1,2.58-3.92,3.66-4.82.14-.14.28-.27.41-.42l-.6.41a21,21,0,0,1-.47-2.58,3.81,3.81,0,0,0-1.1,0l.33-.23c-.68-.66-.33-1.31-.52-1.78.39.26.58,0,.75-.14l-.32,0c.57-.75.66-1.87,1.08-2.58.05-.11.24-.11.41-.08l0-.87c.53.33.77-.34,1,.17-.4-.85.26-1.19-.17-2a16.45,16.45,0,0,0,1.45-6.26l-.22-.06c0-.83-.77-2,0-2.58-.42-1-.34-2-1.34-2.82.22-.74-.2-1.32-.13-2.12-.64-.16-.31-1-.92-.94-1,0-.37.38-1.2.39l.19.09a18.53,18.53,0,0,0-4.44,4.29c-.13,1.44-1.21,2.49-1.69,3.8a17.93,17.93,0,0,0-.88,4.43c0,.35-.55.32-.93.42-.25,1.17-1.07,2.44-1.31,3.77a.1.1,0,0,1,.05,0c-.19.68-1,.89-1.19,1.56.17.07.14.17.2.25-.84-.23,0,4.39-.52,4.41a1.92,1.92,0,0,1,0,.24c-.89,1.17-3,1.93-3.32,3.14a10.2,10.2,0,0,0,.83,1.19c-.42.07.22.36,0,.57-1.83,0-1.31.63-.62.53a5.46,5.46,0,0,1-.44,1.53c0,.26.08.51.14.78s-.21.24-.62.19c.05.55-.29.27-.64.7-.61-.09.44,1.55.22,1.63l-.05-.11c-.3.53-1.52.52-1.76,1.06-1,1.41-1.12,3.25-1.79,4.63.59.21,0-.36.76-.12-.37.82-1.38,1.44-1.76,2.28a2.86,2.86,0,0,1-.78.22c-.31.21.23.25.1.43l-.55-.14c.35.43-.73.25-.59.6.21.08.21.2.16.29-.57-.17-.05.32-.57.15h0c0,.06,0,.11-.12.16.16.18,1.4,1.71,1.61,1.9l-.11,0c0,.17.38.36.51.3l-.09.19,0,0-.09.19a1.2,1.2,0,0,1-.58-.14c.17.16.24.32.11.4a9,9,0,0,1,1.72-.59c.16.19-.22.34-.19.5a3.45,3.45,0,0,0-1.19.52c0,.07.64.29.32.35s0,.16-.38.18c-.2-.2-.06-.3,0-.42-.52-.13-.44.22-.62.28.15.1-.09.3,0,.51-.48-.21-.36,0-.66.06-.09.09.09.21.28.22.54.19.45-.34,1,0-.28,0-.25.21-.25.33.29.08.24,0,.51.14-.11.1.21.34-.12.33-.07-.05,0-.09,0-.12-.07.16-1.68-1.45-1.57-1.19.28,0,1.5,1.45,1.55,1.34s.51.22.65.15l-.33-.22a1.3,1.3,0,0,1,.88.08c-.12.23-1.84-1.24-1.59-1l.16,0c.17.14.27.42-.07.42a.64.64,0,0,1,.44.36l-.06,0c.12.14,0,.26.42.3.12-.59,2.88,1.22,3.21.7-.72.06-.64-.26-.65-.53a1.31,1.31,0,0,0,.8-.11c0-.16-.21-.15-.36-.23a.88.88,0,0,1,.67-.05c-.37-.24.31-.12.21-.3s-.17,0-.34-.19a3,3,0,0,1,.35-.55,3.51,3.51,0,0,1,1.41.3c-.15.26-.78-.34-.76,0,.77.09.13.32.67.54.35,0,.41-.19.36-.38h-.1c-.06-.17-.13-.5.31-.53.24.11.45.1.49.22l.1-.18c-.08-.05-.15-.1-.23-.06-.17-.15,0-.21.14-.23s-.82-1.36-.66-1.28c0-.15.45-.06.21-.27s.52,1.6.49,1.39c.33,0-.87-2-.33-1.91,0-.11,0-.25-.29-.31.19-.13.51.21.8.17,0,0-.14,0-.12-.07h.38c-.34-.4.33-.63-.14-1.08a4.08,4.08,0,0,1,1,.69h-.15c.08.05.13.23.4.31.23-.12.23-.28,0-.54l.25,0-.11,0a.47.47,0,0,1,.32.06l.05,0c.84.15-.29-.82.23-1-.09-.12-.14,0-.25-.21a4.33,4.33,0,0,0,1-.63,1.09,1.09,0,0,0-.84-.26l.19-.21c.84.52,1-.18,1.85.36.24,0,.33-.13.22-.32s-.58-.24-.52-.41c.38-.14.25-.12.61-.23a4.3,4.3,0,0,1,.65.24c-.27-.44.74-.05.79-.36s.06-.59-.46-.77C443.35,137.1,443.74,137.23,444.15,137.4Z"/></svg>