<svg id="Layer_1" data-name="Layer 1" xmlns="http://www.w3.org/2000/svg" viewBox="0 0 207 259"><defs><style>.cls-1{fill:#fff;}.cls-2{fill:#202020;}</style></defs><path class="cls-1" d="M-.5-.5V262H210V-.5ZM197.63,246.24c-3.13,5.86-51,1.61-94.13,1.26-46.39-.37-88.29,2.79-92.51-1.26-8.13-7.83,69.46-115.4,69.46-115.4L75.63,11.5h50.56L124.5,130.78S204.13,234.07,197.63,246.24Z"/><path class="cls-2" d="M62.84,19.36a1.48,1.48,0,0,0,1,.32A1.28,1.28,0,0,0,62.84,19.36Z"/><path class="cls-2" d="M63.9,19.69Z"/><path class="cls-2" d="M138.62,4l-.32,0A.85.85,0,0,0,138.62,4Z"/><path class="cls-2" d="M82.7,19.84l0-.49c.92,0,.29.54,1.13.39.31-.69,1.42,0,1.7-.35,0,.06.41.06.39.27.12-.37.43-.1.69-.2.09-.11-.08-.11-.15-.22l.59-.15c.24.11.31.33.06.37,1.57.08,9.13.16,10.82-.09-.23-.27-.75-.06-1-.49.44-.26.66.06.85-.2.19.64,1,.11,1.35.76l.12-.37.23.22c2-.46.44-.21,2.19-.19,1-.09,1.47-.62,2-.45-.09,0-.32-.22-.06-.32.06.32.69-.26.83.06.25-.05,1.08,0,.79-.47.15.22.89.28.46.49a1.33,1.33,0,0,0,.67-.05l-.33-.11c.84-.09,1.31.23,1.85-.19l-.32-.16c.51,0,.93-.1,1.14.33l-.51.16a5.92,5.92,0,0,0,2-.35h-.25c.87-.47,5.5-1,6.3-1.58l-.39-.33.7-.31c-.09,0-.3,1.12-.38,1,1.51-.09,9.35-.64,10.75-.46.57.17.12.54.12.59.68-.15.28-.37.86-.36.16,0,0,.27-.11.32.25-.05.49.06.51-.1-.33-.11-.21-.54-.35-.81h.75l0,.27c.16,0,.39-.75,1.13-.63,1.25.07,2.59-.07,3.84-.06,0,.16-.27.27-.53.37.17,0,.42-.05.58.06-.31-.27.51-.2.27-.31.89-.69,2.1-.14,2.89-.61.05-.59,1.36-10.1,1.33-10.8a1.62,1.62,0,0,1,.58.06c-.07-.16-.57-.22-.82-.12l0,.38c-.59.15-.14-.22-.73-.17,0-.31.49-.39,1-.44-.43,0-.87-.22-1,.12-.41-.12,0-.38-.46-.49-.34.1-.78.42-1.19.25v0c-1-.28-1.46.51-2.35.23l.09-.1c-.32-.17-.92.09-1.49-.07.16,0,.31.27,0,.32-.65-.17-1.09,0-1.57-.19l-.44.32c-2.25,0-11.13.77-13.39.9l.09,0c-3.44.28-10.51.51-14.05,1a5.86,5.86,0,0,0-1.9-.23c.32.11.22.32,0,.32-1.75,0-.11.2-1.87.39A86,86,0,0,1,87,6.88c-1,.47-2.18.19-3.12.49l.09-.1c-1,.2-6.82,0-8,.21l.17,0c-1,.31-.91-.17-1.73-.29.13.48-.75.79-1.09.84V8c-.51.1-1.65.56-2.49.66l0-.27a9.07,9.07,0,0,1-2.52.29,13.9,13.9,0,0,0-4.49-.06l-1-.72L62.7,8s-1.28,9.21.84,11.08l0,.27.4,0c.49.11.71-.2.68.06h-.66c.49.06.15.21,0,.37a1.65,1.65,0,0,1,.57.11c.09-.1-.07-.1-.15-.16.26-.1.61-.36.94-.25.49,0,0,.42.63.43,3.07.1,6,.29,9.15.12.07.11,0,.11-.1.16.93-.15,1.76-.14,2.61-.29a.85.85,0,0,1,.38.38C77.79,20,82.62,19.78,82.7,19.84Z"/><path class="cls-2" d="M70,14.46c-.2,2.32-.06,6.32,0,10.11A95.22,95.22,0,0,0,70,14.46Z"/><path class="cls-2" d="M70,24.65v0Z"/><path class="cls-2" d="M78.43,18.3l3.12,0C80.51,18.27,79.45,18.27,78.43,18.3Z"/><path class="cls-2" d="M31.1,190.53l.09.74c-4.87,7.63-1.9,1.92-6.27,9.07-1.19,3.11-7.38,11.85-8.51,14.6,0-.09-2.1,3.49-2.15,3.17-.31,1.28-2,3.77-3.19,6.16-.36.9.43-.57.87-1.15-.92,1.8-1.83,3.62-2.7,5.48-1.17,2.12-1.62,2.58-.51.18C8,230.28,7,232.33,5.8,235.17q-.1.3-.24.6c-.11.32-.23.64-.35,1-.25.65-.46,1.33-.69,2a21.48,21.48,0,0,0-.9,4.3,11.33,11.33,0,0,0,.32,4.31,8.75,8.75,0,0,0,2.3,3.86c.57.42,1.15.83,1.73,1.23.15.1.29.21.45.3L9,253l1.07.45c.75.27,1.59.44,2.4.67s1.73.28,2.61.43c.44.07.89.13,1.34.18l1.27.12,1.54.12c1,.07,2.06.12,3.1.17,4.14.17,8.4.21,12.77.2,8.72,0,17.82-.2,26.48-.34,17.32-.32,32.81-.39,39.34-.41-2.11-.29-7.19-.1-9.12-.53,4.35-.26,6.41.08,8.32-.17,1.67.65,9.54.23,12.82,1l1.25-.35,2.15.28c19.16.12,4.37-.1,21.37.53,9.86.28,14.58-.07,20.09.28-.82,0-3-.32-.43-.33.43.34,6.85-.05,8.1.3,2.52,0,10.76.14,8-.33,1.39.25,8.81.27,4.39.5,2.51,0,5,0,6.79-.18l-3.26,0c2.13-.06,4-.13,5.81-.23.89,0,1.73-.1,2.57-.17l1.23-.12.61-.06.83-.1c5.22-.73,9.86-2.33,11.15-6.92a7.58,7.58,0,0,1-3.09,3.86,7.19,7.19,0,0,0,2.05-2.1,10.14,10.14,0,0,0,1.12-2.57,13.86,13.86,0,0,0,.16-5.2c-.17-.83-.28-1.62-.47-2.36s-.39-1.45-.56-2.11l-.21-.73c0-.18-.09-.37-.14-.54-.08-.34-.15-.67-.2-.93.19.43.36.9.54,1.35s.46,1.29.68,2l.37,1.14.25,1.15.26,1.15c0,.38.07.76.11,1.14a12.28,12.28,0,0,0-.14-1.36c-.1-.46-.19-.91-.28-1.35a26.64,26.64,0,0,0-.72-2.59c-.12-.42-.27-.88-.36-1.12s-.19-.49-.28-.73c-.18-.49-.36-.94-.55-1.39-.73-1.78-1.46-3.32-2.2-4.81-1.48-2.95-3-5.6-4.81-8.6l1.21,2.2c-1.17-1.92-3.53-5.86-6.6-10.66s-6.84-10.48-10.68-16c-7.69-11.16-15.66-22-18.21-25.06l1.87,3.21-4.24-5.46c.47.67,2.83,2.07,3.14,2.69-2.22-3.11-6.88-9.57-12.78-17.57l-9.63-12.92-5.23-6.92-4.28-5.6c.14-10.36.28-20.57.39-29,.13-8.91.26-15.89.36-19.18.27-5.49.56-1,.61-.92,0-6.69-.32-2.89-.21-8.57.08-1.55.26.32.3,1.2,0-2.5.14-4.81,0-5-.17,3.12-.57,1.79-.87,3.11l.14-7.32.27.33c0-1.63-.67-4.14-.43-11.32.15-6.06.24-12.38.33-18.71.11-7.17.22-14.36.32-21.26a16.89,16.89,0,0,1,.16,2.84c0,1.39.05,3.18.08,5,0-1.1,0-2.49.06-3.86,0-1.72.07-3.41.14-4.73-.28,4.07-.15-3.73-.18-5-.28,0-.33,0,0,0,0,.1,0,.27,0,.49,0-.15,0-.29,0-.46-3.84.16-7.72.24-11.67.28l-3.86,0h-3.72c-4.93,0-9.72-.05-13.62.17-.69.59-16.88,10-16.88,10.75-2.44,0-4.88,0-5.62-.08a70.22,70.22,0,0,0,8,.14l.44-.37c5.88-.13,1.38.22,7.12.2.31.3-5,.37-9.63.4,4.19,0,8.36.26,10.07-.08,3.93.13-.44.37,4.3.5,3.38-.09,7.81-.38,11.69-.2l-.07.05c3.86.13,7,.08,9.89,0,2.08-.05,1.34-.1,1.58-.14a.79.79,0,0,1,.26-.08.51.51,0,0,1-.08.27h-.1a.36.36,0,0,0-.07.09h0c0,.22,0,.43,0,.66,0,.59,0,1.22,0,1.86,0,2.56,0,5.44-.18,8.18.08-1.56.32-2.92.31.38-.28,6.32-.15,10.63-.45,15.24l.24,4.44c-.09,6.82-.25,19.89-.44,34.87-.16,15.71-.35,33.43-.51,48.62l6.58,8.56,4.8,6.34L137.72,159c5,6.75,8.83,12,11.27,15.39l-.54-.67c4.92,6.78,11.06,15.4,17.63,25,3.28,4.83,6.66,9.91,10,15.15s6.66,10.66,9.67,16.13c1.49,2.72,2.9,5.47,4.08,8.15.31.67.56,1.33.83,2l.41,1.11a1.91,1.91,0,0,1,.12.68c0,.26-.24.38-.45.44a1.87,1.87,0,0,1-.34.08,6,6,0,0,1-.9.13c-2.74.32-5.67.45-8.54.54-5.77.15-11.4.08-16.64,0l-14.46-.29c-5.36-.47-12.78-.67-18.4-.93,3.12.22,2,.4-.4.31-17.16-.53-1.15.12-18.53-.16-8.42-.09-26.83-.12-46.53.25-9.85.15-20,.37-29.42.41-4.69,0-9.18,0-13.26-.17-1-.05-2-.09-3-.16-.47,0-1-.06-1.4-.11l-.61-.06A3.89,3.89,0,0,1,17.2,242c-.31-.14-.25-.53-.21-.76a3.61,3.61,0,0,1,.22-.7c.2-.49.39-.94.55-1.34.33-.75.63-1.42.92-2a112.22,112.22,0,0,1,6.66-13.3c2.58-4.54,5.29-9,7.59-13l-.4.85C35,207.43,43.9,193.49,53.34,179.6S72.54,151.8,75.82,147l-.95,1.24c2.8-4.21,4.1-6,5.29-7.46L82,138.47l1.21-1.54.89-1.18,1.5-2c-.38.33-.15-.17.46-1.17-.11-.94-.23-2.25-.34-3.74-.09-.94-.18-2-.28-3.1-.16-2-.29-4-.35-5.26l.11.12c-.29-5-1.16-16.27-1.56-24.5l.28.31c-.57-6.86-1-19.78-1.2-24.72-.35-11.29-.59-28.72-1.55-43.81l.36-9.78-.13-1.43S71.66,1.3,70.51,21.32L70.24,21,70.43,25c.06,4.74.46,6.91.18,6.6l-.23-6.48c.11,4.75-.16,1.44-.38-.37,0,2,.1,3.92.08,5.5.14.93.08-.69.11-1.44.2,2.56.59,6.11.59,9.22.17,4.87-.42.33-.21,6,.48,14.63,1,29,1.43,43.47q.39,10.82.77,21.71.38,9.72.77,19.6l-.07.09c-.11,0-.08-.07-.11-.11v0h0l-.21.3-1,1.38-1.9,2.71-3.69,5.27c-2.42,3.46-4.77,6.85-7.1,10.31a24.72,24.72,0,0,1-2.39,2.76c.48-.51-6,9-12.61,18.78L35.41,184Z"/><path class="cls-1" d="M81,226.15a.24.24,0,0,0,0-.08C81.05,226.1,81.07,226.13,81,226.15Z"/><path class="cls-1" d="M80.6,225.33a1.43,1.43,0,0,1,.39.74C80.81,226,80.21,225.71,80.6,225.33Z"/><path class="cls-1" d="M80.41,226.79a3.37,3.37,0,0,1-.1-.34C80.54,226.49,80.33,226.63,80.41,226.79Z"/><polygon class="cls-1" points="80.69 226.36 80.85 226.24 80.82 226.49 80.69 226.36"/><path class="cls-1" d="M90.93,223.19a1,1,0,0,1-.29,0Z"/><path class="cls-1" d="M91.84,222.72a.41.41,0,0,0,0-.12S91.88,222.66,91.84,222.72Z"/><path class="cls-1" d="M91,223.6v-.09A.06.06,0,0,1,91,223.6Z"/><path class="cls-1" d="M86.92,227.65l-.32-.31C86.76,227.15,86.83,227.47,86.92,227.65Z"/><path class="cls-1" d="M93.21,218.58l-.15.06C93.1,218.57,93.14,218.51,93.21,218.58Z"/><path class="cls-1" d="M94.46,222.29a.72.72,0,0,1-.21,0l0-.06Z"/><path class="cls-1" d="M91.16,224h0l-.12,0C91,224,91.08,224,91.16,224Z"/><path class="cls-1" d="M92.71,217.54a1.92,1.92,0,0,1,.18-.34A.37.37,0,0,1,92.71,217.54Z"/><path class="cls-1" d="M91.88,222.58h0v0Z"/><path class="cls-1" d="M94.28,223.71l.1-.22A.18.18,0,0,1,94.28,223.71Z"/><path class="cls-1" d="M86.92,227.65l.11.1S87,227.71,86.92,227.65Z"/><path class="cls-1" d="M81.81,226.41c.07.06,0,.16,0,.26A.52.52,0,0,1,81.81,226.41Z"/><path class="cls-1" d="M81.56,223.19v0A0,0,0,0,1,81.56,223.19Z"/><path class="cls-1" d="M82.22,220.51l.13,0S82.31,220.55,82.22,220.51Z"/><path class="cls-1" d="M82.23,215.45c-.19.35-.69.05-1,.2l.19.12h-.35l.15.24c-.49.11-.92.86-1.37.71l.37.27a3.66,3.66,0,0,0-.7.25,3.55,3.55,0,0,1,.47-.09,4.8,4.8,0,0,1-.7.77,5.47,5.47,0,0,0-.46.47l.18,0c0,.13-.1.14-.2.2l.26.05c-.44.76,0,1.15-.44,2,0,.26.1-.12.25-.09s-.08.43-.2.49c.4,0,.34-.38.61-.06-.23.15.38-.06.25.24l-.52.06c.06.2.38.09.31.37-.25.33-.55-.48-.66.09,0,.31,1.15.6.92,1.08.31.38.75-.29.7.26.09-.13.19-.25.28-.37.16.07.4,0,.32.2s-.41.27-.41.4c.29-.52.64.25,1-.25a.53.53,0,0,0,0,.13s.06,0,.1,0l.07.16c.08-.14.08-.38.46-.35l.15.18a2.56,2.56,0,0,1,.6-.16,2.72,2.72,0,0,1,.44-.56,1.42,1.42,0,0,1-.44.11c-.17-.12.3-.13,0-.23l-.22.07c.09,0,.11,0,.14,0s0,.06-.16.07-.1-.18.1-.22c0-.17-.51,0-.6-.08.47-.09,0-.34.24-.44l-.31,0c-.36-.21,0-.32.1-.38l-.25,0c.09-.2-.68-.59.23-.48l-.17,0c0-.12-.16-.34.13-.32-.1,0-.21-.12-.22-.17.33.1.15-.1.16-.27-.12.05-.5-.2-.66-.14-.28-.46.56,0,.65-.15-.12-.23-.27,0-.43-.09.19-.08.07-.37,0-.61s0-.45.4-.2l.12.29c.22.05.25,0,.19,0s-.07,0-.14,0c0-.62.82.18,1-.13-.1-.14-.18-.16-.25-.29.1-.24.55.7.65.27l-.13-.16c0-.15.23.09.23.15-.27-.72.58-.18.52-1.19.28.36.76.58.85.34.12-.48-.26-.47-.27-.9.17,0,.32.38.54.2,0,.42-.32.91.11,1.1l0-.24s-.09.13-.15.08c-.15-.23,0-.29,0-.41a3.78,3.78,0,0,1,.46.1c0,.45-.2.35-.22.47a2.79,2.79,0,0,0,.52-.41c.18-.13.39-.21.54-.05l0-.17c.36.42.36-.79.59,0,.21-.08,0-.49.32-.46.08,0,0,.17,0,.23.3.24.27-.38.47.1l.07-.47c.32.46.31,1.35.64,1.32.16-.33,0-.4,0-.69a.79.79,0,0,0,.47.67c.2.15.46.24.46.52-.28.16-.4.65-.72.68.3-.39,0-.21,0-.32-.25.45-.06.45.15.48s.45,0,.12.34l.32-.19c0,.08-.13.37-.28.36l.44.19c.14-.28.44-.94.06-.77.23-.36.32,0,.6-.39-.29.62.32,0,.42.33-.51.21-.4.68-.63.82.14,0,.05.34-.06.5s.61.27.53.57a1.44,1.44,0,0,1,.56-.53c-.12.21-.06.33.32.2.43-.78-.87.25-.67-.34.34-.32.38-.49.35-.77.28,0,.34-.14.64-.27-.65.76.34.78.08,1.36-.2.26-.8.37-.79.7l-.36-.15c.34.17-.24.17-.27.39l.26-.17c.11.1.07.17-.14.29l.44-.23c.07,0,.16.18-.11.24l.29,0c-.08,0-.11.08-.08.16s0-.09.14-.12c-.05.35.52,0,.51.23a.28.28,0,0,1,.32.09c-.74.07-.83.48-1.27.52h0a2.11,2.11,0,0,1-.33.18.39.39,0,0,1,.32.14h0c.1.11.83.06.55.29l-.25.09s.13,0,.18.07l-.24.09c.58.48-.54.31-.35.74,0-.12.09-.22.28-.08s-.06.15-.19.16l.09,0c-.14.07-.3.21-.42.25l-.21,0a.54.54,0,0,0,.33,0,.29.29,0,0,1,.23.1h0c.25.2-.13.17-.18.22-.16-.12-.26-.31-.41-.26.09.06.17.28.33.31a1,1,0,0,1-.79-.14.25.25,0,0,0,.16.13l0-.05c.12,0,.36.36.32.1.5.44,0,.3-.12.48a4.25,4.25,0,0,0,.51.14.66.66,0,0,1-.62.82,7.53,7.53,0,0,0-1.07.11c.08-.26.28-.14,0-.59-.41-.08-.33,0-.68,0h0c-.08.31-.47-.08-.44.38.16.25.16-.33.35.21l-.45.1c.24.28.45-.1.64-.09s-.27,0-.33-.35c.39-.12.6.17,1,.58s0,.45-.11.48c-.5-.43-.94-.56-1.29-.18l-.13.47c-.31-.32-.4-1.09-.73-.92l.17.28c-.06.14-.1.19-.14.19l.65.62c-.08.69-.74-.17-1.06-.26,0,.08.14.09.21.25-.51.23-1.09-.52-1.35-.66-.17.27.26.22.17.63-.18-.17-.45.17-.44-.23,0,.57-.47,0-.17.54-.85.1-1.5-.74-1.94-1.37a.77.77,0,0,1-.21.37,1,1,0,0,1,.47.86c-.29.18-.22-.53-.33-.4s.18.24.06.49c-.36.18-.28-.29-.39-.41l.15-.08c-.25-.58.26-1-.24-1.11-.34.18-.16.23-.39.58,0-.2-.61-.06-.44-.5l.28.16c-.11-.23-.27-.35-.29-.56a.4.4,0,0,0-.09.22c0-.22-.24-.33-.11-.6l-.34.3c.21-.07.46.09.35.32-.28.29-.37-.11-.49-.18.37.5,0,1.07.58,1.16v-.16c.47-.09.45.57.73.72a.37.37,0,0,0-.23.26c.77,0,1.28.57,2.15.59,0,.17.08.34.13.5l.1-.32c.44-.07,0,.48.27.51-.11,0-.08-.08-.08-.16.45.47.33-.27.59-.13-.1-.37-.51-.2-.31-.66.39.48,1.17.24,1.27,1,.86-.38,1.93-.12,2.66-.27.05-.17-.09-.09-.09-.21.43.36.77-.63.92-.24a1.07,1.07,0,0,0,0-.59,1,1,0,0,0,.72.06l-.2,0v-.06l.29,0v0a17.64,17.64,0,0,1,2-.77c-.5.08-.28-.44-.53-.43.7.28,1.37-.44,1.57-1.16v0c-.13-.06-.22-.15-.35-.12a1.15,1.15,0,0,1,.36-.15l-.16,0c0-.43,1-.73.81-1.25-.15.21-.29.16-.51.11a9.17,9.17,0,0,1,.54-1.27.32.32,0,0,1-.14,0c0-.15.13-.3.23-.45l-.34,0c.17-.26,0-.61.22-1-.37-.07.21-.86-.06-1.19,0-.16-.28.39-.38,0,.68-.29-.15-.48.57-.79l-.4-.2.33-.24c-.79.06.1-.55-.33-.82-.06.06-.06.12-.12.13,0-.16-.11-.47.19-.36-.12-.2-.39-.9-.55-.4.18-.14.19.22.19.37-.3.16-.36-.17-.71,0l.08-.15-.2.08c.09-.54-.36-.66-.15-1.18-.1.05-.18.06-.28-.08l.32-.28-.35-.36c-.1.2-.19.4-.3.59-.42-.29-.21-1-.53-1.43-.27.25-.4.06-.56-.16s-.4-.42-.72-.24l.2.34c-.57-.49-.86-.12-1.38-.6a9.92,9.92,0,0,0,1.6,0,3.22,3.22,0,0,1-1.09-.57,1.3,1.3,0,0,0-1.1-.3c0,.18.17.33-.06.45-.06-.4-.7-.14-.51-.53-.27.11-.36.49-.5.53a6.88,6.88,0,0,0-.73-.58l0,.08a1.81,1.81,0,0,1-.94.33,4.1,4.1,0,0,1-.9-.14,2.16,2.16,0,0,0-1.86.08l.09.21-.42-.22c.32.13,0,.31,0,.5a7.32,7.32,0,0,0-1-.13C81.84,215.23,82.08,215.62,82.23,215.45Zm10.14,2,.11.17a.08.08,0,0,1,0,.1l0-.1C92.38,217.61,92.18,217.67,92.37,217.48Zm-5.66,12.36c-.1-.19.11-.08.17-.11l-.29,0C86.57,229.83,86.67,229.81,86.71,229.84Zm3.58-10.57-.26.13.1-.21Zm-1.47-1.14.08.24,0,0-.07-.23ZM87,215.3s0,0,0,.06l0-.06c-.19-.22-.29.29-.43-.21C86.79,214.67,86.91,215.12,87,215.3Zm4.35,1.8c0,.1,0,.15.11.18.08-.16.12-.48.26-.42-.07.21.12.48-.08.68C91.66,217.12,91,217.57,91.35,217.1Zm2.71,5.36,0-.07-.2.27Zm-.31,1.19c-.39.08-.37.41-.51.61.28.13.71,0,.72-.31C94.29,223.64,93.5,223.75,93.75,223.65Zm-4.41-7.21,0,.26h-.07a2,2,0,0,1,.14.25c-.41.18-.35-.48-.48-.65C89,216.38,89.13,217.09,89.34,216.44Zm3.59,9.27-.57.2a.35.35,0,0,1-.32,0,.66.66,0,0,0,.47.09c.19-.06.29-.09.31-.15S92.85,225.75,92.93,225.71Zm-.83-.36c.31-.17.52-.1,1-.14.07.35-.53.18-.75,0-.28.09,0,.17,0,.29Zm1.36.25v-.14c-.13-.21-.63-.44,0-.44l0,.44A.12.12,0,0,1,93.46,225.6Zm-1.8,2.49.22,0c-.13.08-.18,0-.22,0l-.18,0C91.63,227.73,91.6,228,91.66,228.09Zm1.44-2,.17-.27C93.05,225.7,93.08,225.94,93.1,226.05Zm-1.62,1.65a4.27,4.27,0,0,1,.39-.43C92,227.49,91.64,227.75,91.48,227.7Zm-7.58.83.19.09-.21.29Zm2.51.09,0,.18-.13,0Zm2.18-.51a.77.77,0,0,0,.1.23.21.21,0,0,1,.12.1s-.08,0-.12-.1a.2.2,0,0,0-.26.15c.09.15.21.08.3.17-.09.45-.89-.57-.44.5-.13-.11-.51-.32-.45-.55a.92.92,0,0,0,.75-.5.15.15,0,0,1,0-.14A.35.35,0,0,1,88.59,228.11Zm2.48-1.63a.2.2,0,0,1,.16,0,.55.55,0,0,1,.36.17c-.24,0-.25-.13-.36-.17S91.1,226.45,91.07,226.48Zm.27-.43a1.75,1.75,0,0,1-.33.06l.28.07a2.74,2.74,0,0,1-.59-.06C90.66,225.84,91.06,225.92,91.34,226.05Zm-.13-.19.26.11-.28-.09,0,0-.06,0a1.64,1.64,0,0,0,.32-.27A3.73,3.73,0,0,1,91.21,225.86Zm1.21-4.33c-1,.15-.52.57-1,.74.31-.06.84,0,.73-.41.4.3-.55.35.28.41-.1-.16.09-.44.11-.48l.08.21C93.2,221.73,92.29,221.72,92.42,221.53Zm-1.26-2-.16-.24.1.26Zm-6.24-2.1c0,.22-.19.69-.36.29C84.71,217.61,84.91,217.59,84.92,217.41Zm-2.73,1.06a2.06,2.06,0,0,1,.35,0c.23.45-.21.13-.27.28C82.06,218.56,82.26,218.63,82.19,218.47ZM81,220.09l-.11.06.51.1Zm.67.15c.19.14.36,0,.35,0Zm0,1.59,0-.11-.46.05Zm-.5-.23c.33,0,.74.08.58-.18a2.06,2.06,0,0,1-.72-.18c-.1.08,0,.18.05.23s-.06-.15.16-.13,0,.21-.07.26a.43.43,0,0,0-.27,0A.74.74,0,0,0,81.24,221.6Zm-.13-1.06a.26.26,0,0,0-.1-.13h.09c.12.09.08.11,0,.12a.89.89,0,0,1,.08.17c.27.11.5,0,.67,0-.11,0-.39,0-.26.19.09,0,.14,0,.15,0l0,.16c-.42.07-.51-.12-.58-.33a.87.87,0,0,1-.18-.11S81.06,220.55,81.11,220.54Zm-.89,1.31.08-.1a1.18,1.18,0,0,1,.32,0A.26.26,0,0,1,80.22,221.85Zm3.62-4.75c0,.1.21.38.33.25l0,.43c-.08-.27-.36-.15-.4-.17C83.63,217.26,83.8,217.38,83.84,217.1Zm6.9,1.42c-.35.41.15.47.09.64C90.63,219.06,90.21,218.85,90.74,218.52Zm.63.4c.06.09.12.09-.1.24-.06.11.11.09.06.2-.32,0,0-.27,0-.44a.19.19,0,0,1,0-.1A.1.1,0,0,1,91.37,218.92Zm-3.76-2.36-.09-.41h-.26ZM85,215.85c0,.22-.23.26-.31.17.08.28.26.22.41.23a.15.15,0,0,0,.1,0,.17.17,0,0,0-.1,0c-.07-.06,0-.22-.07-.32l.07-.1-.23-.05ZM80.21,218c.07.3,0,.27-.15.33A.24.24,0,0,1,80.21,218Zm6.21-2.47c-.31.14.14.46-.06.6l.15,0c-.25.31-.17-.35-.35-.25l.12-.06c.09-.29-.19-.19-.22-.42C86.2,215.19,86.54,215.43,86.42,215.48Zm-6.55,2.62c.06.44-.41.07-.57.23C79.23,218,79.66,218.27,79.87,218.1Zm4.46-3.28v-.06l-.3-.11v.06Z"/><path class="cls-1" d="M82.21,220c0,.06,0,.09,0,.1A.19.19,0,0,1,82.21,220Z"/><path class="cls-1" d="M90.1,220.6a.18.18,0,0,1,.14,0A.29.29,0,0,1,90.1,220.6Z"/><polygon class="cls-1" points="90.18 221.04 90.18 221.06 90.17 221.08 90.18 221.04"/><path class="cls-1" d="M82.16,226.22c.16-.35.11,0,.17.06S82.08,226.41,82.16,226.22Z"/><path class="cls-1" d="M82.3,227.09a.42.42,0,0,0,0-.3S82.33,226.88,82.3,227.09Z"/><path class="cls-1" d="M82,226.64a.39.39,0,0,1,.3.15C82.18,226.76,82,226.83,82,226.64Z"/><path class="cls-1" d="M83.9,227.86a.21.21,0,0,0-.23-.22c.46,0,.09-.41.15-.58C84,227.24,83.89,227.49,83.9,227.86Z"/><path class="cls-1" d="M84.39,228.17a.19.19,0,0,0-.13,0C84.32,228.13,84.36,228.14,84.39,228.17Z"/><path class="cls-1" d="M84.61,228c.12.09.11.35.13.56-.23.13-.24-.29-.35-.39C84.49,228.2,84.59,228.25,84.61,228Z"/><path class="cls-1" d="M88.54,226.36s-.1,0-.15-.12l.19-.09C88.69,226.2,88.57,226.31,88.54,226.36Z"/><path class="cls-1" d="M89.57,226.63c.17-.07-.09-.34,0-.31l.23.42Z"/><polygon class="cls-1" points="90.6 228.84 90.51 228.83 90.59 228.81 90.6 228.84"/><path class="cls-1" d="M90,225.8l-.4-.37A.89.89,0,0,1,90,225.8Z"/><path class="cls-1" d="M90.06,225.26l-.16-.07.22,0Z"/><polygon class="cls-1" points="90.52 224.96 90.43 224.88 90.66 224.69 90.52 224.96"/><path class="cls-1" d="M87.9,218.21c.1-.45.38-.15.52-.21C88.15,218.51,88.22,217.69,87.9,218.21Z"/><path class="cls-1" d="M82.19,219.63a1.35,1.35,0,0,1,.26-.18C82.46,219.72,82.41,219.49,82.19,219.63Z"/><path class="cls-1" d="M94,162.84l-.09-.32c.38,1,.73,2.12,1.19,3.12-.21-1.25-.26-2.64-.57-3.81a6.13,6.13,0,0,0-.63-1.66,5.07,5.07,0,0,0-1.24-1.4c1-.38,1.41-2.55,1.21-2.58a7.54,7.54,0,0,1-.34-1.42,5.52,5.52,0,0,0,.16,1,5.52,5.52,0,0,1-.16-1,6.73,6.73,0,0,1,1.15-4.42c.25-.31.49-.63.74-.95s.61-.55.91-.83c.16-.13.29-.27.47-.4l.58-.41c.39-.25.76-.56,1.16-.78a17.52,17.52,0,0,1,4-2,6,6,0,0,1,3.67-.13,5.22,5.22,0,0,1,.68.21,7.35,7.35,0,0,0-.74-.31,8.7,8.7,0,0,1,3.24.08,2.1,2.1,0,0,0-.52-.72l.53.29a2.7,2.7,0,0,1,1.31.05l.75.16a1,1,0,0,0,.39.05c-.17.19,0,.3.27.52V145a10.68,10.68,0,0,1,2.75,3,.6.6,0,0,1,.06.44c.28.33.52.7.78,1.05-.32,0,.22,1.11-.22.63.76.72.91,1.75,1.58,2.51a29.42,29.42,0,0,1,1.32,5,14.64,14.64,0,0,1-.3,5.05l.13,0c-.23,1.23-.17,2.56-1.16,3.83-.2,1.19-1,2.64-.82,3.4a31.27,31.27,0,0,1-1.87,2.82c.48,0-.78,1.19-.11.94,1-.31.82-.62,1.66-.94l-.1-.06a20.48,20.48,0,0,0,4-4.17,21.14,21.14,0,0,0,2.78-5.24,30.34,30.34,0,0,0,.67-4.32,9.23,9.23,0,0,0,0-1.18l0-.6,0-.54a16.7,16.7,0,0,0-.35-2.08,24.57,24.57,0,0,0-3.42-7.7,3.91,3.91,0,0,1-.49-1.49,21,21,0,0,0-2.58-3.13c-.28-.26-.6-.52-.91-.77s-.72-.48-1.08-.7a11.21,11.21,0,0,0-1.28-.55l-.79-.23.1,0a30.72,30.72,0,0,0-3.37-1.34c0,.09-.22,0-.34.06s-.58-.25-1.41-.3a11.49,11.49,0,0,0-3,.22,27.4,27.4,0,0,0-4.26,1.53c-.12.08-.25.14-.38.22-2.64,1.07-5.37,2.19-7.1,3.94a14.06,14.06,0,0,0-.7,1.61c-.45.2-.21.51-.56.92a2.71,2.71,0,0,0-1.31,1c-.13.26,0,.35.31.13-.24.52-.47,1-.72,1.53a6.93,6.93,0,0,0-.6,1.46,13.1,13.1,0,0,0-.24,1.37.83.83,0,0,1-.42.73c-.06,1-.29.67-.47,1.71-.16.11-.1.79,0,1.46a8.61,8.61,0,0,1,.28,1.45l0-.16a12.25,12.25,0,0,1-.24,1.6,4.23,4.23,0,0,0-.11,1.6,21.33,21.33,0,0,0,3.61,9.26c.27-.15-.46-.55-.13-.81.25.39.46.8.77,1.22a8.3,8.3,0,0,0,1,1.28,7.18,7.18,0,0,0,.6.62l.55.48a10.68,10.68,0,0,0,1.19.84,4.87,4.87,0,0,1,.69.74c.52.36.4,0,.8.24l0,.29c.71,0,.81.66,1.47.74.06-.09.29,0,.51,0-.08.3.68.16.58.41v0a1.48,1.48,0,0,1,.39.13c.14,0,.86-.1,1.55-.23a11.06,11.06,0,0,0,1.48-.39l.12.06c.35,0,.5-.21.3-.27l.43,0,0,0,.42,0a.17.17,0,0,1,0,.29,1.44,1.44,0,0,1,.76-.13,8,8,0,0,1-2.17-.77c.28-.07.78.11,1.08.07a5.67,5.67,0,0,0,1.73.43c.13,0,.18-.37.49-.26s.32,0,.59.08a1.6,1.6,0,0,1-.83.16c.08.27.72.11,1,.13s.67-.1,1-.27c-.1.29.31.1.56.18s.36-.17.24-.23c0-.29-1,.06-.71-.3.11.11.56,0,.79-.13,0-.15-.2-.06-.08-.25s.49-.31.69-.21c0,.06-.16.06-.23.08.17,0-.21.35-.61.71s-.83.68-.6.58c-.08-.06.39-.39.81-.74s.81-.68.7-.65,0-.31-.17-.29l-.18.25c-.31,0-.5-.19-.43-.32.24-.07,0,.3-.31.63s-.63.63-.43.5l-.2,0a1.12,1.12,0,0,1,.86-.24c0-.15.18-.27.37-.39h.07c.19-.14.48-.2.28-.35-.59.2-.5-.23-.44-.67s.1-.89-.42-.77c.54.18,0,.38-.5.55a1,1,0,0,0-.67-.22c-.29.1-.15.16-.19.26s-.49-.06-.48-.24c-.2.25-.38-.06-.64,0s0,.09-.13.21a7.6,7.6,0,0,1-1.17,0c-.12-.16-.45-.45-.22-.71.53,0-.19.43.36.35-.25-.37.49-.13.56-.43a1.07,1.07,0,0,0-.82-.08l.06,0a1.4,1.4,0,0,1-1-.07c.07-.13,0-.23.14-.27a1.86,1.86,0,0,1-.34,0s-.1.08,0,.12a.42.42,0,0,1-.45-.06c0-.07-.48,0-1,.12a4,4,0,0,1-.91.11c-.26,0-.27-.28-.54-.2a3.31,3.31,0,0,0,1.18.06,3.26,3.26,0,0,0,.95-.12,8.89,8.89,0,0,0-1.55,0c-.73,0-1.47-.07-1.5-.23-.19,0-.41-.09-.42.06-.28-.18.18-.23,0-.43,0,0,0,.07-.08,0l-.14-.25c-.54,0-1.07-.53-1.66-.52a2.06,2.06,0,0,1,.83-.21l0,.09c.06,0,.32.05.37-.09a1.31,1.31,0,0,0-.81-.32,1.12,1.12,0,0,1-.1-.18s0,0,0,0c0-.13,0-.14,0-.17l0,0c0-.43-1.13-.37-1.45-.88-.14-.05,0,0-.23,0-.13-.24-.24-.41-.33-.62a5.93,5.93,0,0,0-.34-.66c-.25,0-.32,0-.33.29-.08-.12-.14-.26-.21-.39.61,0-.07-.93.57-.84a.67.67,0,0,0-.28-.53.31.31,0,0,1-.45-.16c-.06-.44-.06-.33-.09-.7.1-.14.21-.06.32-.13-.42-.38.11-.57-.12-1-.18-.25-.42-.82-.67-.74C93.62,163,93.81,162.88,94,162.84Z"/><path class="cls-1" d="M86.42,190.09l-.06.18c0-.15,0-.29.06-.44a1.31,1.31,0,0,1,.07-.31c0-.13.09-.27.13-.43a2.07,2.07,0,0,1-.63.46.93.93,0,0,0-.27.37c-.06.15-.15.31-.2.46a2.23,2.23,0,0,0,.63,2.17,1.76,1.76,0,0,0-1.35.23c-.37.18-.55.41-.45.49a3.31,3.31,0,0,1,0,.89c0-.19.06-.39.08-.58,0,.19,0,.39-.08.58a3,3,0,0,1-1.48,2l-.59.25c-.2.05-.42.08-.63.12a2.35,2.35,0,0,1-.65,0c-.22,0-.41,0-.72,0a12.82,12.82,0,0,1-2.62-.3,2.31,2.31,0,0,1-1.51-.92c0-.09-.1-.16-.15-.24l.12.33a2.25,2.25,0,0,1-1.49-.44,1.51,1.51,0,0,0-.16.6l-.12-.29c-.52.05-1-.6-1.35-.85.2,0,.1-.29,0-.45V194l-.11.12c-.1-.24-.18-.42-.29-.72a3.54,3.54,0,0,1-.14-1.13.27.27,0,0,1,.16-.22c0-.25-.09-.5-.12-.76.3.09.35-.59.5-.21-.29-.61,0-1.15-.18-1.79a23.81,23.81,0,0,1,.89-2.94,7.93,7.93,0,0,1,1.55-2.5l-.11-.07c.47-.59.79-1.5,1.78-1.74.46-.68,1.37-1.21,1.48-1.91.83-.33,1.11-.71,2-1-.27-.29.85-.47.39-.68-.7-.37-.7,0-1.3-.25l0,.1a12.9,12.9,0,0,0-7.47,2.41A24.85,24.85,0,0,0,70,183c-.15.24-.34.49-.46.72l-.37.65a10.4,10.4,0,0,0-.56,1.3,14.57,14.57,0,0,0-.71,5.6c0,.4-.22.68-.37,1a16.68,16.68,0,0,0,.28,2.06,6.85,6.85,0,0,0,1.1,2.48c.28.36.48.61.79,1a.25.25,0,0,1,0-.07c.54.65.73,1.46,1.53,2.15.06-.07.18,0,.27,0-.1.22,1.3,1.15,2.83,1.47s2.88.16,3,.31l.29,0c1.85.29,3.63,1,5.54.41a7,7,0,0,0,.88-1c.37.07.27-.3.61-.42a1.53,1.53,0,0,0,1.19,0c.16-.13.07-.28-.2-.26.57-.54,1.24-.93,1.69-1.44a4.45,4.45,0,0,0,.5-.8c.12-.25.31-.27.55-.25.34-.59.37-.31.85-.84.39,0,.5-1.74.64-1.86a.49.49,0,0,1,0,.12c.37-.68,1.13-.94,1.4-1.69a9.69,9.69,0,0,0,.79-2.92l.08-.82c0-.35,0-.7,0-1a9.84,9.84,0,0,0-.29-2c-.11-.35-.29-.64-.41-.95-.27.12.32.54,0,.73a6,6,0,0,0-3.29-3.6c-.26-.19-.69-.5-.71-.61-.38-.23-.28.08-.56,0l0-.28c-.48.1-.53-.46-1-.43,0,.11-.18.1-.31.06,0-.29-.4,0-.34-.31v0a.46.46,0,0,1-.23-.08c-.19.07-1.6.69-1.74.8l0-.06c-.19,0-.3.19-.2.26l-.22,0,0,0-.22-.05a.26.26,0,0,1,0-.29.42.42,0,0,1-.41,0,8.07,8.07,0,0,1,1.06.89c-.17.08-.43-.11-.59-.1a3.83,3.83,0,0,0-.82-.62c-.07,0-.16.33-.29.17s-.16,0-.25-.2c.15-.1.27,0,.41,0,0-.27-.3-.24-.4-.33-.06.08-.31-.05-.46,0,.11-.25-.09-.19-.14-.34s-.16,0-.15.14c-.11.27.36.24.16.5,0-.14-.23-.13-.31-.14,0,.15,0,.13,0,.26-.1-.06-.25.09-.27-.07s.06,0,.09,0,.18-.23.4-.42.47-.38.37-.36-1,.73-.89.76-.14.25-.06.32l.14-.16a.47.47,0,0,1,0,.46c-.21-.07.82-.9.61-.79l.07.09c-.1.08-.35.12-.38-.05,0,.15-.14.18-.23.21l0,0c-.1.05-.21,0-.21.2.25,0,.08.4-.11.77s-.42.74-.14.85c-.16-.38.17-.31.43-.29a.6.6,0,0,0,.27.43c.17,0,.12-.11.17-.18.07.09.25.18.2.35.17-.19.19.17.37.12s0-.09.12-.18c.21.06.51.13.68.19s.21.49,0,.73c-.32-.08.19-.4-.17-.39.1.4-.31.06-.42.34a.48.48,0,0,0,.51.19l0,0c.17,0,.51-.06.66.16-.06.13,0,.24-.12.25l.22.06s.07-.08,0-.12c.12-.09.22,0,.29.08s1.27-.42,1.22-.33c.17,0,.17.24.35.12a4.73,4.73,0,0,0-1.39.23c.11.16,1.93-.42,2-.11.12,0,.27,0,.28-.13.18.11-.12.25,0,.41,0,0,0-.07,0,0l.1.2c.35-.14.71.26,1.07.09-.15.11-.32.34-.53.42v-.09s-.21,0-.25.18a.39.39,0,0,0,.48.08.65.65,0,0,1,0,.13l0,0c0,.09,0,.11,0,.15l0,0c0,.2.1.19.29.17s.43,0,.47.14c.11,0,.06,0,.2-.06.1.3.12.5.19.77a.41.41,0,0,0,.38-.27,1.06,1.06,0,0,1,0,.23c-.51.1-.29.56-.82.61a.19.19,0,0,0-.07.16.12.12,0,0,0,.07.07c.11,0,.32-.09.33,0a2.09,2.09,0,0,1-.24.31,1.48,1.48,0,0,1-.34,0c.2.14-.35.18-.32.29s0,.38.3.42C86.84,190.18,86.64,190.15,86.42,190.09Z"/><path class="cls-1" d="M141.15,225.67l0,.07a5,5,0,0,1,.22-.65c-.52.46-1,.68-.35,1.48-.49-.19-.9,0-.8.05a1,1,0,0,1,0,.34.71.71,0,0,0,0-.21.71.71,0,0,1,0,.21.75.75,0,0,1-.52.65,2.1,2.1,0,0,1-1,0,3.34,3.34,0,0,1-.82-.22.46.46,0,0,1-.3-.37l0-.09V227a.85.85,0,0,1-.64-.18.63.63,0,0,0-.11.27l0-.13c-.16,0-.32-.12-.41-.19l-.12,0c.11,0,.11-.1.11-.15l-.06,0-.08-.29a2.08,2.08,0,0,1,0-.43.12.12,0,0,1,.09-.08c0-.1,0-.2-.05-.29.15,0,.17-.21.24-.07-.14-.24,0-.43-.11-.68.1-.36.21-.75.33-1.08a3.39,3.39,0,0,1,.55-.94l0,0c.17-.24.26-.65.65-.72.16-.3.5-.53.53-.87.32-.13.42-.32.78-.45-.11-.15.34-.23.15-.34s-.28,0-.53-.14l0,.05a5.15,5.15,0,0,0-3.05.85c-.27.29-.57.58-.86.94a4.14,4.14,0,0,0-.64,1.1,5.81,5.81,0,0,0-.3,2.24c0,.16-.11.27-.2.4a8.15,8.15,0,0,0,.1,1.08,2.76,2.76,0,0,0,.54,1.22l.11.12a0,0,0,0,1,0,0c.18.22.2.54.48.83,0,0,.07,0,.11,0s.44.51,1.08.72,1.21.18,1.26.26h.12a5.08,5.08,0,0,0,2.16.45,2.48,2.48,0,0,0,.4-.39c.15.06.12-.12.27-.14.51.27.67,0,.42-.06.26-.19.56-.29.77-.48a2.42,2.42,0,0,0,.25-.31c.05-.1.14-.09.25-.05.15-.24.18-.1.41-.29.07,0,.15-.16.21-.35s.07-.38.12-.4v.05c.2-.24.55-.3.71-.59a5.47,5.47,0,0,0,.66-2.67c-.15,0,0,.21-.17.22a5,5,0,0,0,0-1.18,2.67,2.67,0,0,0-.17-.65,1,1,0,0,1,0-.32c0-.19-.12-.06-.17-.18l.11-.09c-.21-.11,0-.34-.2-.46-.05,0-.1,0-.13-.08s-.14-.15,0-.23h0s-.06-.05-.07-.11a4.74,4.74,0,0,0-1-.2v0c-.08-.06-.18,0-.15.06l-.09-.08h0l-.09-.07a.13.13,0,0,1,.07-.13.26.26,0,0,1-.21-.08,2.06,2.06,0,0,1,.28.66c-.09,0-.15-.15-.23-.19a1.31,1.31,0,0,0-.26-.47s-.14.13-.18,0-.08,0-.11-.14a.27.27,0,0,1,.22.08c.06-.12-.13-.17-.17-.23s-.18-.09-.29-.09c.09-.1-.05-.11-.08-.2s-.12,0-.11,0,.23.18.08.28c0-.07-.12-.1-.19-.11s0,.07,0,.12-.18,0-.2-.06,0,0,.07,0,.7-.29.56-.28-.72.22-.65.26-.08.12,0,.17l.09-.07a.18.18,0,0,1,0,.23c-.14-.07.55-.36.41-.33l0,.06c-.07,0-.22,0-.24-.08,0,.07-.1.07-.17.08v0c-.07,0-.15,0-.14.09.32.08-.41.68-.14.81-.06-.19.09-.15.21-.13a.38.38,0,0,0,.08.23c.08,0,.07,0,.1-.07s.08.11,0,.19c.1-.07.05.09.13.09s0,0,.08-.06a1.11,1.11,0,0,1,.23.19c0,.08,0,.25-.16.32-.1-.08.16-.15,0-.2,0,.2-.13,0-.22.1a.14.14,0,0,0,.13.15v0c.06,0,.19.06.18.17s-.06.1-.1.09l0,.06s0,0,0-.05.08,0,.08.08.52.08.48.11,0,.13.07.13-.58-.24-.5-.2.72.24.64.38.07.07.13,0-.13.06-.15.14,0,0,0,0l0,.09c.15,0,.11.26.3.3a1.14,1.14,0,0,1-.32,0l0,0s-.07,0-.13,0,0,.12.12.15l0,.06h0s0,0-.07,0h0c-.16.1.17.18.16.29v0s0,0,.08,0-.11.2-.15.31a.22.22,0,0,0,.22,0l0,.1c-.24-.08-.23.16-.47.07-.06,0-.06.07,0,.12s.16,0,.15.09l-.14.12c-.08,0-.11,0-.17,0s-.19.07-.19.17,0,.19.12.22C141.35,225.74,141.25,225.71,141.15,225.67Z"/><path class="cls-1" d="M98.38,120l-.09-.06a9.44,9.44,0,0,1,.9.45c-.56-.69-1-1.37-2-.78.19-.49-.16-1-.23-.92a1.41,1.41,0,0,1-.42,0l.26,0-.26,0c-.4-.08-.72-.37-.72-.54s.07-.31.31-.57a2.29,2.29,0,0,1,.66-.47,2.94,2.94,0,0,1,1-.31l.23,0H97.8a3.75,3.75,0,0,1,.8-.64c-.08-.06-.1-.13-.26-.19h.17c.09-.25.45-.32.6-.44,0,.12.12.11.24.11l-.06-.07a5.72,5.72,0,0,0,1.07-.23.67.67,0,0,1,.18,0s0,0,.06.09a.6.6,0,0,1,.19-.06c-.06.14.17.2,0,.25.24-.11.42.09.71,0a11.29,11.29,0,0,1,1.17.73,3.71,3.71,0,0,1,1,.9l0,0c.2.26.58.52.52,1,.24.29.34.76.65.93,0,.41.14.59.12,1,.19-.06.07.46.25.3s.12-.31.35-.53h-.06a5.27,5.27,0,0,0,.08-3.76,7.78,7.78,0,0,0-.91-1.24,5.63,5.63,0,0,0-1-.88,5.42,5.42,0,0,0-2.67-1c-.25,0-.41-.15-.64-.21s-.37.07-.57.11a16.16,16.16,0,0,0-1.62.39h0c-.36.11-.68,0-1,.17,0,0,0,.06-.06.09s-.59.19-1.09.57-.94.85-1,.85l-.09.1a3.61,3.61,0,0,0-1.88,2.24,2.54,2.54,0,0,0,.23.69c-.07.17.11.2.11.4a.72.72,0,0,0-.11.64c.06.11.13.08.15-.07a6.13,6.13,0,0,0,.59,1,4.17,4.17,0,0,0,.37.26c.11.07.11.16.09.28.26.17.12.18.34.43,0,.19.77.27.81.35h0c.27.21.32.58.61.75a10.8,10.8,0,0,0,2.54,1.1c.05-.14-.19,0-.14-.22a6.5,6.5,0,0,0,1.58.62,1.68,1.68,0,0,1,.32.19c.23.06.13-.07.29-.06l0,.14c.23-.13.37.14.59,0,0-.06.08-.08.16-.09,0,.15.24-.06.26.08h0a.28.28,0,0,1,.14,0,5,5,0,0,0,.76-.84h0c.11-.06.1-.18,0-.17l.13-.06h0l.12-.06a.11.11,0,0,1,.09.12.33.33,0,0,1,.19-.18,2.43,2.43,0,0,1-.81,0c.06-.09.24-.09.32-.16a1.26,1.26,0,0,0,.61-.09s0-.18.07-.18.08-.08.2-.06-.12.14-.2.19c.09.11.24-.07.32-.09s.17-.16.23-.27c.06.13.13,0,.23,0s.07-.13,0-.13-.28.17-.31,0c.07,0,.16-.1.21-.17s-.08,0-.1-.09.06-.19.15-.18,0,.05,0,.07-.06.83,0,.69.14-.84.07-.78-.08-.12-.15-.08l0,.12a.18.18,0,0,1-.24-.06c.13-.12.08.71.11.55l-.07,0c0-.08.09-.23.2-.23-.06-.05,0-.13,0-.2h0c0-.08.09-.15,0-.17-.24.3-.46-.66-.72-.42.22,0,.11.14,0,.27a.33.33,0,0,0-.26,0c0,.07,0,.08,0,.12s-.15.05-.2,0c0,.13-.13,0-.17.1s0,0,0,.1a1.53,1.53,0,0,1-.31.16c-.08-.05-.23-.12-.24-.27s.06.21.18.1c-.16-.12.09-.12,0-.26s-.17,0-.23.08h0c0,.06-.15.17-.27.11s-.06-.09,0-.13l-.09,0s0,.05,0,.05-.07.06-.12,0-.37.46-.38.41-.12-.08-.17,0,.58-.43.48-.39-.65.58-.74.44c-.06,0-.12,0-.1.1s0-.14-.06-.2,0,0,0,0l-.07-.09c-.12.13-.32,0-.47.12a1.16,1.16,0,0,1,.19-.28v0s.08,0,.08-.12a.19.19,0,0,0-.23,0l0-.06v0a.09.09,0,0,1,0-.09h0c0-.21-.3.08-.44-.06-.06,0,0,0-.08.06a2.72,2.72,0,0,0-.38-.31.17.17,0,0,0-.06.22l-.11-.07c.18-.2-.16-.29,0-.48a.12.12,0,0,0-.16-.08s-.07.14-.16.11a1.82,1.82,0,0,1-.14-.19c0-.08,0-.1.07-.16-.19,0-.07-.2-.21-.24s-.27-.07-.33,0C98.28,120.22,98.32,120.12,98.38,120Z"/><path class="cls-1" d="M94.1,85.76l0,0S94.12,85.73,94.1,85.76Z"/><path class="cls-1" d="M93.42,85.64a1.76,1.76,0,0,1,.63.1C93.9,85.78,93.45,85.91,93.42,85.64Z"/><path class="cls-1" d="M94.16,86.19l-.24-.07C94.05,86.05,94,86.17,94.16,86.19Z"/><polygon class="cls-1" points="94.06 85.95 94.07 85.85 94.19 85.94 94.06 85.95"/><path class="cls-1" d="M97.7,78.3a.19.19,0,0,1-.09.11Z"/><path class="cls-1" d="M97.69,77.68a.22.22,0,0,0-.06-.07S97.67,77.64,97.69,77.68Z"/><path class="cls-1" d="M98,78.55l0,0S98,78.53,98,78.55Z"/><path class="cls-1" d="M98.1,83.23l-.26.08C97.85,83.14,98,83.22,98.1,83.23Z"/><path class="cls-1" d="M95.83,75.53l0,.08S95.76,75.53,95.83,75.53Z"/><path class="cls-1" d="M98.36,76.53a.19.19,0,0,1-.07.08l0,0Z"/><path class="cls-1" d="M98.26,78.72h0v.08S98.23,78.75,98.26,78.72Z"/><path class="cls-1" d="M95,75.36a.77.77,0,0,1-.1-.18A.18.18,0,0,1,95,75.36Z"/><path class="cls-1" d="M97.62,77.6Z"/><path class="cls-1" d="M99,77.24,99,77.1A.15.15,0,0,1,99,77.24Z"/><path class="cls-1" d="M98.1,83.23l.09,0S98.14,83.23,98.1,83.23Z"/><path class="cls-1" d="M94.67,85.52c.07,0,.09,0,.12.1A.23.23,0,0,1,94.67,85.52Z"/><path class="cls-1" d="M92.56,84.2h0Z"/><path class="cls-1" d="M91.13,82.39a.1.1,0,0,1,0,0S91.17,82.37,91.13,82.39Z"/><path class="cls-1" d="M89.18,79.87c.06.25-.24.4-.29.61l.11,0-.12.19.14,0c-.14.32,0,.8-.2,1l.22-.07-.12.43.11-.23c.09.39.12,1,.16,1.09l.06-.06c.07,0,0,.11,0,.19l.1-.1c.21.57.53.56.78,1.15.13.12,0-.1,0-.14s.19.24.18.31c.12-.16-.08-.32.16-.27,0,.17.09-.19.2,0l-.13.24c.13.07.17-.11.29,0s-.42,0-.16.3c.16.14.69-.15.89.16.32.06.09-.4.39-.13l-.11-.27c.09,0,.13-.15.23,0a.45.45,0,0,0,.09.33c-.21-.34.4-.11.25-.48l.09.06s0,0,0,0l.14,0c-.06-.09-.22-.21,0-.32l.19,0c0-.15.1-.17.14-.28a3.24,3.24,0,0,1-.28-.47c0,.08,0,.16-.07.22s0-.19-.17-.17l0,.12s0-.06,0,0,0,0,0,.1-.17-.07-.13-.17c-.14-.1-.2.17-.26.17.09-.23-.22-.2-.21-.36l-.07.15c-.24,0-.2-.19-.2-.28l-.09.1c-.09-.17-.52,0-.2-.41l-.07.06c-.07-.05-.22-.13-.13-.26s-.12,0-.14,0c.13-.11,0-.14-.09-.25,0,.09-.24.15-.25.26-.3-.13.17-.28.11-.43s-.09.12-.16.18c0-.27-.67-.48-.22-.71l.15.09c.09-.1.09-.14,0-.13s0,0-.06,0c-.25-.3.35-.44.32-.74-.09,0-.13,0-.19,0,0-.17.46,0,.35-.3h-.11c0-.09.13-.1.15-.08-.36-.14.19-.46-.18-.83.25,0,.55-.25.52-.39s-.29,0-.45-.18c.07-.11.29,0,.33-.25.17.13.17.53.44.33l-.06-.1s0,.1,0,.12-.09-.13-.12-.18a3.2,3.2,0,0,1,.27-.25c.19.12,0,.25,0,.3.12-.24.1-.72.4-.8l-.08-.05c.37-.08-.12-.44.32-.34.08-.14-.2-.16,0-.31s.07.06.08.09c.27-.09,0-.25.3-.22l-.17-.17c.37,0,.8.22,1,.06-.07-.17-.21-.1-.33-.21.44.18.82-.21,1.17,0-.07.15.16.36,0,.49-.08-.24-.14-.06-.24-.07.2.46.63-.29.69.14l0-.18s.16.18.08.23l.34-.1c-.1-.14-.35-.48-.44-.29-.09-.2.15-.12.07-.35.23.33.16-.12.41,0-.13.25.21.38.18.51.09,0,.24.11.29.2s.47-.11.64,0a.54.54,0,0,1-.09-.41c.08.13.19.16.27,0-.29-.46-.24.39-.52.09a.49.49,0,0,0-.31-.41c.11-.11.08-.17.14-.32.15.5.62.17.85.49s-.11.43.11.57l-.25,0c.26,0,0,.16.15.27v-.17c.12,0,.15.06.15.19l0-.26c.07,0,.19,0,.12.16a.47.47,0,0,0,.09-.12s0,.08.08.11-.06,0,0-.11c.22.2.19-.19.34-.06,0-.06.09-.09.17-.07-.22.3,0,.56-.09.77h0a2.46,2.46,0,0,1,0,.26s.11-.08.18,0h0c.09,0,.28-.32.33-.06l0,.16s.06,0,.09,0l0,.17c.42,0,0,.43.28.58-.06,0-.09-.16,0-.17s0,.11,0,.17l0,0,0,.44,0,.08a.2.2,0,0,0,.08-.1c0-.1,0-.19.11-.15s.09,0,.11,0,0,.15,0,.19-.22,0-.23.07.17.07.23,0a.94.94,0,0,1-.29.45s.08,0,.09,0h0c0-.08.25,0,.14-.17.33,0,.11.23.14.38a2.84,2.84,0,0,0,.23-.25c.45.49-.16,1.1-.31,1.5-.06-.16.06-.24-.18-.3a1.67,1.67,0,0,0-.28.45h0c.06.18-.24.26-.07.44.16,0,0-.24.22-.14l-.16.32c.2,0,.17-.32.25-.43s-.11.17-.26.06c.13-.3.31-.31.62-.39s.15.21.13.27a.8.8,0,0,0-.62.71l.11.26c-.25.07-.56-.18-.66.1h.18c0,.09,0,.14,0,.16L98.7,83c.21.31-.39.37-.58.54,0,0,.1-.06.19,0-.15.38-.71.46-.93.58,0,.18.23-.09.34.1-.16,0-.17.3-.33.18.24.17-.27.23.13.25a2.23,2.23,0,0,1-1.69.56.25.25,0,0,1,.07.2.79.79,0,0,1,.67,0c-.07.18-.37-.06-.37,0s.21,0,.27.12c-.11.22-.28,0-.41,0l0-.09c-.42,0-.35-.39-.69-.21-.09.2,0,.13.1.34-.11-.06-.36.24-.5,0l.23-.06c-.18,0-.33,0-.45,0s0,.09.07.1c-.14,0-.3,0-.39-.14v.23c.07-.11.3-.16.36,0s-.26.12-.36.14c.47,0,.55.34.92.11l-.08,0c.2-.22.52,0,.74-.1a.15.15,0,0,0,0,.18c.42-.33.94-.41,1.38-.83l.28.09-.09-.15c.19-.24.2.15.35,0-.06,0-.07,0-.11,0,.41-.07,0-.25.24-.34-.19-.06-.33.2-.42,0,.39-.05.66-.55,1-.34.25-.6.82-1.13,1.06-1.6,0-.09-.07,0-.11,0,.31-.1.1-.7.3-.63a.56.56,0,0,0-.21-.24.84.84,0,0,0,.3-.39l-.09.11,0,0,.12-.15h0c.17-.41.2-.9.41-1.36-.14.26-.26-.06-.34.06.3-.19.32-.75,0-1.25l0-.07c-.07,0-.13,0-.16.1l0-.23-.07.06c-.19-.27-.05-.85-.35-1,0,.17,0,.21-.1.28-.14-.26-.29-.49-.45-.84l0,.07c-.09-.06-.11-.19-.15-.3l-.13.11c-.09-.18-.32-.28-.43-.51-.17.1-.38-.44-.66-.48-.07-.07.11.26-.13.15.11-.35-.32-.14-.21-.52l-.27.07v-.2c-.3.29-.26-.25-.58-.19,0,0,0,.06,0,.08s-.3-.12-.11-.19c-.16,0-.66-.18-.46,0,0-.11.2,0,.29.07s-.26.07-.34.24c0,0,0,0,0-.08l0,.1c-.25-.23-.53-.09-.72-.35,0,0-.06.08-.17.08v-.22l-.34,0,.16.3c-.34.07-.63-.26-1-.24,0,.18-.15.18-.33.18s-.39,0-.46.23h.26c-.51.1-.48.34-.94.44.3-.27.3-.25.77-.71a4,4,0,0,1-.77.31,1.11,1.11,0,0,0-.65.42c.08,0,.22,0,.16.16-.2-.1-.39.3-.46.09-.08.16,0,.33,0,.41a3.81,3.81,0,0,0-.57.19h0a2.1,2.1,0,0,1-.76,1,1.89,1.89,0,0,0-.76,1l.11,0-.24.14c.17-.12.1.12.19.17-.14.16-.29.3-.42.48C89,80,89.19,80,89.18,79.87Zm5.66-4.4H95a.07.07,0,0,1,.08,0l-.08,0C94.92,75.5,94.85,75.6,94.84,75.47Zm3.94,8.67c-.11,0,0-.09,0-.13l-.14.15C98.72,84.22,98.76,84.16,98.78,84.14Zm-4-7.3-.06.14-.07-.11Zm-1.44.27.16,0v0l-.16,0Zm-2.18.08h0c-.17,0,0,.25-.28.16C90.87,77.1,91.1,77.18,91.21,77.19Zm3-1.46c.07,0,.1,0,.14,0s-.18-.2-.09-.24.31.11.31.25C94.33,75.62,94.24,76,94.17,75.73Zm4.14,1h0a1.08,1.08,0,0,1,.08.19Zm.52.67c-.08.19.1.35.15.51a.28.28,0,0,0,.07-.45C99,77.2,98.8,77.56,98.83,77.42Zm-6-1,.09.1,0,0h.19c-.13.24-.41,0-.55,0C92.67,76.51,93,76.67,92.86,76.38Zm6.73,2.45c0,.17,0,.43-.15.49s0,0,0,0h0a.32.32,0,0,0,.18-.37S99.59,78.89,99.59,78.83Zm-.41.19c0-.24.1-.3.23-.55.19.15-.07.34-.19.37s.09.09.15.14Zm.51-.5-.07-.06c-.14-.06-.39.05-.22-.21l.22.21A.11.11,0,0,1,99.69,78.52Zm.49,2.08.09-.1c0,.1,0,.11-.09.1l-.08.08C100,80.45,100.11,80.57,100.18,80.6Zm-.37-1.66-.09-.23C99.63,78.77,99.75,78.89,99.81,78.94Zm.16,1.58c0-.12,0-.44,0-.4S100.05,80.45,100,80.52Zm-3.1,4.69.15-.07v.19Zm1.34-1.32,0,.08-.06.07Zm.8-1.5a.24.24,0,0,0,.12,0,.12.12,0,0,1,.09,0s0,0-.09,0a.21.21,0,0,0-.06.22c.09,0,.12-.1.19-.11.12.23-.58.3,0,.45-.1,0-.34.18-.39.06a1,1,0,0,0,.15-.65.08.08,0,0,1,0-.08Zm.37-2.23a.25.25,0,0,1,0-.11.19.19,0,0,1,.18-.1c0,.15-.13.06-.18.1A.25.25,0,0,0,99.38,80.16Zm-.08-.38a1.8,1.8,0,0,1-.08.21l.11-.12a2.36,2.36,0,0,1-.2.31C99,80,99.16,79.85,99.3,79.78Zm-.13,0,.13-.08-.13.1v0l0,0a2.66,2.66,0,0,0,0-.28v0A1.19,1.19,0,0,1,99.17,79.74Zm-2-2.81c-.3.39.13.43.07.67.08-.14.33-.29,0-.45.33,0,0,.35.35.1-.13,0-.23-.24-.25-.26l.16.06C97.6,76.74,97.25,77.05,97.19,76.93ZM95.4,76.6l-.22,0,.21,0ZM91,79.08c.1,0,.15.38-.07.34C91,79.28,91.05,79.16,91,79.08Zm-.76,2.14.11-.23c.24.08,0,.2,0,.32C90.23,81.34,90.32,81.26,90.24,81.22Zm.35,1.5v.09l.19-.19Zm.26-.23c.13,0,.11-.17.09-.19Zm.89.92-.07-.06-.11.22Zm-.29.07c.11-.13.27-.26.07-.34-.14.09-.1.14-.31.2,0,.08.11.08.14.1s-.1,0,0-.14a.15.15,0,0,1,.12.18.22.22,0,0,0-.07.12A.21.21,0,0,0,91.45,83.48Zm-.61-.54a.19.19,0,0,0-.1,0l0,0c.08,0,.08,0,.07.06L91,83c.13-.06.14-.23.19-.3s-.09.2,0,.23.06,0,0-.09l.09.09c-.08.23-.21.16-.34.07a.2.2,0,0,1-.11,0S90.83,83,90.84,82.94ZM91.28,84l0-.09c0-.07.07-.09.09-.13S91.41,84,91.28,84Zm-.87-4.4c0,.06.22,0,.23-.1l.16.14c-.13,0-.2.16-.23.18C90.37,79.8,90.49,79.75,90.41,79.62Zm4.22-3.2c.05.27.34.1.41.18C94.88,76.64,94.54,76.73,94.63,76.42Zm.53-.1c.09,0,.11,0,.09.12s.11,0,.15,0c-.17.11-.15-.11-.24-.17l-.07,0Zm-3.14,1-.22-.08-.13.13ZM90.46,78.5c.11,0,0,.22-.08.23.14.06.19-.06.27-.15s0,0,.06,0l-.06,0c-.05,0-.1,0-.15-.07v-.07l-.12.11Zm-1,3.51c.14.11.11.13.09.23S89.39,82.11,89.41,82ZM91,77.56c-.1.21.24.08.19.23l.07-.09c0,.23-.22,0-.27.11l0-.09c-.06-.15-.16,0-.25,0S91.05,77.48,91,77.56Zm-1.64,4.69c.2.18-.09.23-.08.38C89.11,82.48,89.37,82.43,89.37,82.25Zm.45-3.78,0,0-.16.13,0,0Z"/><path class="cls-1" d="M90.87,82.06a.12.12,0,0,1,0,.09A.14.14,0,0,1,90.87,82.06Z"/><path class="cls-1" d="M95.54,77.36a.09.09,0,0,1,0-.06A.07.07,0,0,1,95.54,77.36Z"/><path class="cls-1" d="M95.86,77.5h0v0Z"/><path class="cls-1" d="M94.75,85.32c-.1-.17.07,0,.13,0S94.82,85.41,94.75,85.32Z"/><path class="cls-1" d="M95.3,85.52a.29.29,0,0,0-.18-.07S95.21,85.45,95.3,85.52Z"/><path class="cls-1" d="M94.88,85.53a.43.43,0,0,1,.24-.08C95.06,85.47,95,85.55,94.88,85.53Z"/><path class="cls-1" d="M96.56,85a.2.2,0,0,0-.23,0c.25-.23-.15-.17-.2-.24C96.32,84.79,96.38,84.92,96.56,85Z"/><path class="cls-1" d="M97,84.86l-.07.06A.1.1,0,0,1,97,84.86Z"/><path class="cls-1" d="M97,84.7c.11,0,.21,0,.32.09-.07.16-.26,0-.37.07C97,84.82,97.12,84.78,97,84.7Z"/><path class="cls-1" d="M98.39,81.68s0,.07-.1,0l0-.16C98.4,81.51,98.39,81.64,98.39,81.68Z"/><path class="cls-1" d="M98.9,81.15c0-.14-.15-.11-.09-.17L99,81Z"/><polygon class="cls-1" points="100.07 81.52 100.03 81.56 100.06 81.51 100.07 81.52"/><path class="cls-1" d="M98.77,80.45l-.27.07C98.58,80.43,98.79,80.43,98.77,80.45Z"/><path class="cls-1" d="M98.59,80l-.08.07c0-.07,0-.12,0-.17Z"/><polygon class="cls-1" points="98.54 79.54 98.48 79.55 98.45 79.34 98.54 79.54"/><path class="cls-1" d="M92.88,77.6c-.14-.19.16-.25.21-.33C93.17,77.55,92.83,77.28,92.88,77.6Z"/><path class="cls-1" d="M90.7,81.87a1.22,1.22,0,0,1,0-.27C90.82,81.78,90.7,81.66,90.7,81.87Z"/><path class="cls-1" d="M128.89,212.83a3.44,3.44,0,0,0,.45-1.52,2.67,2.67,0,0,0,1.28-2.41,6.86,6.86,0,0,1,.49-2.85,7.46,7.46,0,0,0,.07-3,17,17,0,0,1-.32-2.51c-1.05,0-1.18-.76-1.39-1.66s-.5-2-1.45-2.17a1.43,1.43,0,0,0-1.12-.38.49.49,0,0,0-.36.66,1.47,1.47,0,0,1-.49-.93c0-.25-.14-.49-.68-.58a6.55,6.55,0,0,1,.66-.41c-.22-.33-.49-.83-1-.9l-.62.5a1.26,1.26,0,0,0-1.37-.49,3,3,0,0,1-1.68,0c.84.53-.4.38-.27,1-.18-.27-.94-.29-.72-.53a2,2,0,0,0-1.33.68c-.35.28-.61.51-1.12.2-.06.15-.1.31-.15.45-.29.67-.95.52-1.49.76l.18.34a1.35,1.35,0,0,1-1.12.79,2.09,2.09,0,0,0-.76,1.45,6.28,6.28,0,0,0,.1,1.71c-.62.76.53.67.66,1.39-.3.44.23,1.22-.26,1.54-.07-.33-.32-.5-.57-.71a.65.65,0,0,1-.29-.81c-.18.13-.26-.21-.33-.52s-.13-.58-.46-.25a14.64,14.64,0,0,1,.38,2.57,3.07,3.07,0,0,0,1,2.18c-.5.11-.53.59-.3,1.09a3.85,3.85,0,0,0,.91,1.21l-.2.19a1.73,1.73,0,0,0,.9,1,2.74,2.74,0,0,0,.59.18,12.15,12.15,0,0,1,2.73,1.34,1.86,1.86,0,0,0,2.07,0,2.53,2.53,0,0,0,1.11-1.36,4.79,4.79,0,0,0-2,.08,1.23,1.23,0,0,1-1.48-1c.75.48.94.09,1.51-.42-.1-.12-.2-.23-.29-.35l.23-.21c-.1-.36.16-.68.11-1a4,4,0,0,1-.6,0c.29.36,0,.74-.14,1.11a2.82,2.82,0,0,1-.38-.21c.05.2.29.4-.07.56-.16-.12-.46,0-.56-.29a8.24,8.24,0,0,0,.55-.65c-.67.45-.4-1.14-.86-.71a5.4,5.4,0,0,1,.46-.68h0s-.06,0-.09,0l.22-.19c0-.05.08,0,0-.14a1.58,1.58,0,0,0-.84.14c-.12-.16-.32-.34-.2-.48l.57,0,0-.26c-.09.2-.35-.06-.55-.06-.08-.56-.07-.4.23-.82-.18-.13-.15-.33-.16-.48s0-.24-.33-.22a9.59,9.59,0,0,0,.52-1.47q-.17-.13-.33-.3c.13-.09.25-.13.29-.21a2,2,0,0,0,.06-.26c0-.09,0-.21,0-.34a1.54,1.54,0,0,1,.15-.36l.11.17a1.58,1.58,0,0,1,0-.69.88.88,0,0,0,.63-.58.59.59,0,0,1,.73-.39.56.56,0,0,0,.57-.48c.06-.28.08-.7.12-1.14.31-.49.78.12,1,.23a2.83,2.83,0,0,0-.23.28,3.17,3.17,0,0,1,.17.37.68.68,0,0,1,.44.07,2.19,2.19,0,0,0,.79.07c.34.22.35.2.46.15a1.52,1.52,0,0,0,.35-.31,2.58,2.58,0,0,1,.89-.72,2.83,2.83,0,0,1,0,1.17l.14-.13c.56-.06.73,0,.84.19a13.28,13.28,0,0,0,.51,1.26l.48-.29c-.35.74.54.63.73,1.34a3,3,0,0,1-.11,1,.94.94,0,0,0,.33,1c-.22.58,0,.94.26,1.45a1.86,1.86,0,0,1,.23,1.58c-.63.47,0,1.35-.89,1l0-.11-.92-.23.56.35c-.4.21-.52.82-1.3.65a9.75,9.75,0,0,1,.37,1.46c.06-.25.29-.4.5-.56l-.16-.1c.14-.2.36-.76.72-.87,0,.13,0,.27,0,.41.35-.26.43.19.44.35-.73.51-.08.69-.4,1.31-.15.07-.4.23-.47,0-.17.39-1.25.73-.87,1.24h-.12A5.94,5.94,0,0,0,128.89,212.83Z"/></svg>