<svg id="Layer_1" data-name="Layer 1" xmlns="http://www.w3.org/2000/svg" viewBox="0 0 752 1142"><defs><style>.cls-1{fill:#fff;}.cls-2{fill:#41b883;}.cls-3{fill:#35495e;}.cls-4{fill:#f7df1e;}.cls-5{fill:#80eec0;}.cls-6{fill:#00dc82;}</style></defs><circle class="cls-1" cx="467.5" cy="902.5" r="239.5"/><circle class="cls-1" cx="275.5" cy="550.5" r="275.5"/><circle class="cls-1" cx="517.5" cy="234.5" r="234.5"/><path class="cls-2" d="M360.65,446H417L276.2,688.8,135.44,446H243.12l33.08,56.3L308.57,446Z"/><path class="cls-2" d="M135.44,446,276.2,688.8,417,446h-56.3L276.2,591.68,191,446Z"/><path class="cls-3" d="M191,446,276.2,592.38,360.65,446H308.57L276.2,502.3,243.12,446Z"/><path class="cls-4" d="M364,789.41H580v216H364Z"/><path d="M420.78,969.87l16.53-10c3.19,5.65,6.09,10.43,13,10.43,6.67,0,10.87-2.6,10.87-12.75v-69h20.3v69.29c0,21-12.32,30.58-30.3,30.58-16.23,0-25.66-8.41-30.44-18.55"/><path d="M492.54,967.7l16.53-9.57c4.34,7.1,10,12.32,20,12.32,8.41,0,13.77-4.2,13.77-10,0-7-5.51-9.43-14.79-13.48L523,944.79c-14.64-6.23-24.35-14.06-24.35-30.58,0-15.22,11.6-26.82,29.72-26.82,12.9,0,22.17,4.49,28.84,16.23l-15.8,10.15c-3.48-6.23-7.25-8.7-13-8.7-6,0-9.72,3.77-9.72,8.7,0,6.09,3.77,8.55,12.47,12.32l5.07,2.18c17.25,7.39,27,14.93,27,31.89,0,18.26-14.35,28.26-33.62,28.26-18.85,0-31-9-37-20.72"/><path class="cls-5" d="M502.32,138.84a18.7,18.7,0,0,0-32.27,0L391.87,273.25A18.5,18.5,0,0,0,408,301h61a17.87,17.87,0,0,1-3.76-22.58l59.2-101.48Z"/><path class="cls-6" d="M551.85,168.32a15.58,15.58,0,0,1,26.72,0l64.69,110c5.94,10.09-1.48,22.7-13.36,22.7H500.52c-11.88,0-19.3-12.61-13.36-22.7Z"/></svg>