<svg id="Layer_1" data-name="Layer 1" xmlns="http://www.w3.org/2000/svg" viewBox="0 0 227 166"><defs><style>.cls-1{fill:#fff;}</style></defs><path class="cls-1" d="M192.49,166.66a8.25,8.25,0,0,0,.22-1.65A5.94,5.94,0,0,0,192.49,166.66Z"/><path class="cls-1" d="M192.71,165h0v0Z"/><path class="cls-1" d="M190.77,44.3c0,.16,0,.34,0,.52C190.76,44.64,190.77,44.47,190.77,44.3Z"/><path class="cls-1" d="M194,134.89l-.19-.1c0-1.47.24-.42.22-1.79-.27-.54.08-2.26-.06-2.73,0,0,0-.66.13-.62-.15-.2,0-.68-.05-1.1,0-.16,0,.11-.1.22l0-1c.06-.37.15-.46.16,0,.11-2.52.49-14.61.47-17.32a14.66,14.66,0,0,1-.25,1.5c-.09-.72.05-1.06,0-1.38.28-.27.1-1.57.38-2.11l-.15-.21.1-.35a21.31,21.31,0,0,1,0-3.52c0-1.61-.19-2.39-.09-3.29,0,.14-.11.49-.14.07.14-.07-.08-1.11.06-1.32,0-.41,0-1.74-.15-1.29.09-.22.15-1.41.22-.7a7.9,7.9,0,0,0,0-1.08l-.06.52a19.55,19.55,0,0,0,0-3l-.08.5a4.78,4.78,0,0,1,.19-1.8l0,.83c0-1.34,0-2.15,0-3.27V91c-.16-1.43-.13-8.87-.32-10.18l-.16.6L194,80.25c0,.13.44.55.4.66,0-2.41.29-15,.49-17.19.12-.9.23-.15.26-.14,0-1.1-.14-.48-.09-1.41,0-.25.11.06.12.2,0-.41.07-.78,0-.82-.07.51-.24.29-.36.5l.06-1.2.11.06a5.81,5.81,0,0,1-.18-1.86c.13-2,.19-4.13.3-6.12a2.35,2.35,0,0,1,.11.87,6.84,6.84,0,0,1,.08-.92c-.14.48,0-.84-.11-.46-.21-1.47.14-3.35,0-4.65-.24-.12-4-3-4.33-3,0-.4,0-.8.08-.92a5.05,5.05,0,0,0-.13,1.31l.16.08c0,1-.11.22-.15,1.17-.13,0-.11-.83-.08-1.59a5.26,5.26,0,0,0-.05,1.65c-.09.64-.16-.08-.25.7a10.29,10.29,0,0,1,0,1.92h0c-.22,1.54.07,2.38-.12,3.79l0-.16c-.09.5,0,1.49-.16,2.39,0-.26.14-.48.13.07-.12,1-.07,1.74-.2,2.5l.09.73c-.18,3.61-.47,17.88-.52,21.5l0-.14c-.09,5.53-.35,16.86-.28,22.57-.14.88-.13,2.1-.19,3,.07-.52.15-.34.14.06-.07,2.8.08.19.07,3,.06,3.27-.32,15.76-.48,18.65.15,1.56,0,3.5,0,5l0-.16c0,1.64-.36,10.9-.35,12.8l0-.25a13.11,13.11,0,0,1-.23,2.73c.21-.16.28,1.26.28,1.8l0,0c0,.82.14,2.67.11,4l-.11,0c.08,1.13,0,3.24,0,4-.11,1.85-.42,4.69-.37,7.16l-.38,1.59,0,.23s3.71,2.74,4.65-.5l.11.06v-.65c.09-.77,0-1.14.08-1.08l-.05,1.06c.06-.77.1-.23.15.07,0-.32,0-.64.09-.9s-.05.12-.08.24a8.42,8.42,0,0,1,0-1.52c0-.8.18-.05.23-1,.28-4.92.57-9.68.68-14.65.05-.12.05,0,.06.16,0-1.5.06-2.83,0-4.19a1.66,1.66,0,0,1,.18-.59c0,.11,0-1.78,0-3.7,0-1,.05-1.94.06-2.68S194,134.92,194,134.89Z"/><path class="cls-1" d="M164.79,57.61l-.14.53A3.46,3.46,0,0,0,164.79,57.61Z"/><path class="cls-1" d="M169.41,139.46l-.2-.09c0-1.32.24-.38.22-1.6-.27-.49.08-2-.06-2.46,0,0,0-.59.13-.55-.14-.18,0-.61-.05-1,0-.14,0,.1-.09.2l0-.87c.06-.33.15-.42.16,0,.11-2.26.48-13.1.45-15.54-.12.31-.06,1.06-.25,1.35-.09-.65.06-1,0-1.24.27-.24.09-1.41.37-1.89l-.15-.19.1-.32a16.31,16.31,0,0,1,0-3.15c0-1.46-.2-2.15-.11-3,0,.12-.1.44-.14.06.14-.06-.08-1,.06-1.18,0-.37,0-1.56-.16-1.16.09-.2.15-1.27.22-.63a8,8,0,0,0,0-1l-.06.46a16.45,16.45,0,0,0,0-2.66l-.08.45a3.77,3.77,0,0,1,.18-1.62l.05.75c0-1.21,0-1.93-.07-2.94V100c-.16-1.28-.21-8-.42-9.14l-.15.54-.1-1c0,.11.45.49.4.59,0-1.08,0-4.45.06-7.79,0-1.63,0-3.4,0-4.81s-.1-2.5-.12-3c0-.83.21-.17.23-.16-.12-1-.18-.41-.23-1.26,0-.23.12,0,.15.17,0-.37,0-.71-.09-.74,0,.47-.21.29-.31.49l-.07-1.08.12,0a4.67,4.67,0,0,1-.37-1.64c-.09-1.76-.25-3.66-.26-5.39.07,0,.11.39.17.75a3.46,3.46,0,0,1,0-.79c-.11.41-.08-.72-.13-.4a19.9,19.9,0,0,1,0-3.93,20.61,20.61,0,0,1-2-1.56c-.93-.79-1.78-1.73-1.92-1.77a9.47,9.47,0,0,1,.3-.93,4.79,4.79,0,0,0-.43,1.32l.13.11c-.13,1-.13.21-.3,1.16-.12,0,0-.85.17-1.64a4.73,4.73,0,0,0-.32,1.69c-.16.64-.15-.1-.31.68a18.55,18.55,0,0,1-.11,1.92l0,0c-.23,1.52.11,2.31,0,3.65l0-.14c-.06.47.06,1.39,0,2.23,0-.24.1-.45.14,0,0,1,.09,1.6,0,2.3l.17.65c.09,1.64.55,5.63.61,9.4,0,4,0,8,0,9.59l0-.12c0,5-.18,15.1-.1,20.22a24,24,0,0,0-.17,2.7c.05-.45.14-.3.13.06-.06,2.52.08.17.08,2.72.07,2.93-.29,14.13-.46,16.72.15,1.4,0,3.14.05,4.51l0-.14c0,1.47-.35,9.77-.34,11.48l0-.23a11.36,11.36,0,0,1-.22,2.46c.2-.15.28,1.13.28,1.61l0,0c0,.74.13,2.4.12,3.61l-.11-.05c.09,1,0,2.91,0,3.64-.11,1.66-.39,4.21-.32,6.43l-.37,1.42,0,.21s3.73,2.46,4.65-.45l.11.06v-.59c.08-.69,0-1,.07-1l0,1c.06-.7.1-.21.15.06,0-.29.05-.58.09-.81s0,.1-.08.21a6.69,6.69,0,0,1,0-1.36c0-.72.18,0,.22-.88.24-4.4.51-8.67.62-13.13.05-.1,0,0,.06.15,0-1.36,0-2.53,0-3.77a1.41,1.41,0,0,1,.18-.52c-.05.1,0-1.59,0-3.32,0-.86.05-1.74.06-2.4S169.4,139.49,169.41,139.46Z"/><path class="cls-1" d="M207,167.81a11.62,11.62,0,0,0,.22-2A8.44,8.44,0,0,0,207,167.81Z"/><polygon class="cls-1" points="207.25 165.83 207.25 165.82 207.25 165.84 207.25 165.83"/><path class="cls-1" d="M208.16,98.13c.26-.23.44-.41.62-.6Z"/><path class="cls-1" d="M208.64,130.06l-.2-.12c0-1.75.24-.51.22-2.13-.27-.64.09-2.69,0-3.25,0,0,0-.78.13-.73-.14-.25,0-.82,0-1.32,0-.18,0,.13-.1.27l0-1.15c.06-.45.15-.55.16-.07.12-3,.52-17.37.49-20.59a17,17,0,0,1-.25,1.78c-.09-.85.05-1.25-.05-1.63.28-.33.1-1.88.38-2.52l-.15-.24.1-.43a30,30,0,0,1,0-4.18c0-1.92-.2-2.84-.1-3.91,0,.16-.11.58-.14.08.14-.08-.08-1.33.06-1.57,0-.48,0-2.07-.16-1.53.1-.27.16-1.68.22-.84a11.36,11.36,0,0,0,0-1.28l-.06.61a29.28,29.28,0,0,0,0-3.53l-.09.59c0-.52,0-1,0-1.41a8.25,8.25,0,0,1,0-1.32l.15.62a7.41,7.41,0,0,1,.11,1c0-.2,0-.39,0-.58s0-.4-.07-.48-.09-.45-.14-.67c-.1-.38-.19-.71-.28-1-.2-.62-.4-1.19-.66-1.83l.15.47c-.18-.4-.49-1.24-.89-2.28l-.63-1.67c-.11-.29-.23-.58-.34-.88l-.1-.2c-.29-.55-.67-1.38-.89-1.87h-.18a3.79,3.79,0,0,1-.27-.74c0,.09.78,1.16.7,1.08s0-.11,0-.19.09-.14.18-.11a2.28,2.28,0,0,1,.59.29c.21.14.44.31.68.49l.37.29,1,.81c1.67,1.4,3.29,2.86,4.62,4.08l1.72,1.62.63.61a1.73,1.73,0,0,1,.22.24c.15.24-.16.15-.17.17.22.17.3,0,.3.27,0,.07-.11,0-.14,0s-.07.18,0,.19.26-.07.4-.15a2.85,2.85,0,0,1-.16.44l-.1-.06a3,3,0,0,1-.08.52,4.12,4.12,0,0,1-.56,1.27c-1.15,1.9-2.56,4-4,5.86a3.58,3.58,0,0,1,.48-.9,9.58,9.58,0,0,1-.66.85c.43-.39-.52.83-.22.51-.8,1.53-2.37,3.13-3.18,4.39.05.13.34,1.42.6,2.72s.42,2.67.5,2.79a9,9,0,0,1-.78.69,3.84,3.84,0,0,1-.4.27,4.72,4.72,0,0,1-.56.24,2.38,2.38,0,0,1-.81.14,2.5,2.5,0,0,1-.55,0,2.27,2.27,0,0,1-.25-.06l-.12,0-.21-.08a2.83,2.83,0,0,1-1.42-1.39,1.85,1.85,0,0,1-.15-.45,1.36,1.36,0,0,1-.06-.29,2.55,2.55,0,0,1,0-.85,2.73,2.73,0,0,1,.12-.46,3,3,0,0,0-.15.54,2.53,2.53,0,0,0,0,.73,3.06,3.06,0,0,0,.07.4l0,.09a1.19,1.19,0,0,0,.07.2,2.79,2.79,0,0,0,.32.58,2.9,2.9,0,0,0,1.11.9l.28.11.17.05c.12,0,.24,0,.37.06a2.91,2.91,0,0,0,.78,0l.32-.08.1,0a3.17,3.17,0,0,0,.65-.3c.11-.06.24-.16.29-.19a4.26,4.26,0,0,0,.35-.28,7.81,7.81,0,0,0,.82-.82l0-.18c.79-1,.27-.15,1-1,.12,0-.52.85-1.26,1.63a7.35,7.35,0,0,0,1.42-1.61c.56-.58.06.17.73-.53a17.51,17.51,0,0,1,1.42-1.88v0c1.27-1.4,1.62-2.39,2.74-3.7L215,90c.42-.45,1.05-1.48,1.74-2.35-.2.25-.43.42-.07-.14.79-1,1.2-1.78,1.79-2.54l.37-.85c.3-.5.7-1.18,1.15-2.11a11.08,11.08,0,0,0,.83-2.27,4.09,4.09,0,0,0-.25-2.87,4.55,4.55,0,0,0-1-1.24c-.33-.3-.65-.61-1-.93l-1.4-1.29c-1-.88-2-1.78-3-2.66s-2-1.77-3-2.61l-.91-.75-1.36-1.1c-.9-.7-1.78-1.35-2.6-1.89a11.14,11.14,0,0,0-2.21-1.19,4.69,4.69,0,0,0-1.56-.34,3.11,3.11,0,0,0-2,.51,1.09,1.09,0,0,1,.17-.13,2.13,2.13,0,0,0-.56.47,4.08,4.08,0,0,0-.28.44,4.28,4.28,0,0,0-.22.52c-.06.21-.13.42-.19.64-.2,1,.24,2.87.92,4.9.55,1.63,1.13,3.33,1.73,5.08.39,1.15.8,2.33,1.17,3.48.18.57.35,1.15.49,1.67a3.47,3.47,0,0,1,.08.36l.07.3h.55l.52,0h.2c-2.51,0-.7,0-1.26,0v.49c0,1.24,0,2.45,0,3.61,0,2.31,0,4.42,0,6.13-.14,1-.14,2.49-.19,3.58.06-.61.15-.4.13.08-.06,3.33.09.22.09,3.6.05,3.88-.33,18.73-.51,22.17.14,1.85,0,4.16,0,6l0-.18c0,2-.39,13-.39,15.22l0-.3a19.47,19.47,0,0,1-.24,3.25c.21-.2.28,1.5.28,2.14l-.05,0c0,1,.12,3.17.1,4.78l-.11-.07c.08,1.35-.05,3.86-.07,4.82-.12,2.2-.42,5.59-.38,8.53l-.39,1.89,0,.28s3.7,3.2,4.66-.66l.1.07,0-.77c.09-.92,0-1.35.08-1.29l-.06,1.27c.07-.93.1-.28.15.08,0-.39.05-.76.1-1.07s0,.13-.08.28a11.89,11.89,0,0,1,0-1.81c0-.95.19-.05.24-1.16.29-5.84.59-11.51.72-17.42.05-.13.05,0,.06.2,0-1.78,0-3.35.05-5a2.14,2.14,0,0,1,.19-.7c-.05.13,0-2.11,0-4.4,0-1.15,0-2.3.07-3.18S208.63,130.1,208.64,130.06Z"/><path class="cls-1" d="M155,166.1a4.18,4.18,0,0,0,.24-1.23A3.58,3.58,0,0,0,155,166.1Z"/><polygon class="cls-1" points="155.28 164.86 155.28 164.85 155.27 164.87 155.28 164.86"/><path class="cls-1" d="M153.49,72.85l-.25.45C153.33,73.15,153.41,73,153.49,72.85Z"/><path class="cls-1" d="M157.06,142.2l-.19-.08c0-1.11.24-.31.25-1.34-.27-.42.11-1.71,0-2.07,0,0,.05-.5.14-.46-.14-.16,0-.52,0-.84,0-.11-.05.08-.1.17l0-.73c.06-.28.15-.35.15,0,.16-1.9.7-11,.69-13-.12.25-.07.89-.26,1.12-.08-.54.06-.79,0-1,.27-.19.11-1.18.4-1.58l-.15-.16.1-.27a12.55,12.55,0,0,1,.06-2.65c0-1.22-.17-1.81-.07-2.48,0,.1-.11.36-.14,0,.14,0-.06-.85.08-1,0-.31.05-1.31-.15-1,.1-.16.17-1.06.23-.52a5.76,5.76,0,0,0,0-.81l-.07.38a11.38,11.38,0,0,0,0-2.24l-.09.38a2.67,2.67,0,0,1,.2-1.36l0,.63a19.73,19.73,0,0,0,0-2.46l0,.3c-.14-1.08-.12-6.7-.31-7.69l-.16.45-.09-.86c0,.1.44.43.4.51,0-.91.08-3.73.14-6.54a36.3,36.3,0,0,0-.05-4.19c-.13-1.2-.22-2.15-.27-2.6,0-.7.2-.15.23-.15-.18-.83-.21-.34-.3-1,0-.19.11,0,.15.13-.06-.31-.06-.6-.13-.61,0,.39-.19.25-.28.44l-.13-.9.12,0a3.42,3.42,0,0,1-.46-1.33,42.74,42.74,0,0,1-.42-4.36c.06,0,.1.3.16.59a2.63,2.63,0,0,1,0-.63c-.11.33-.08-.56-.13-.31a8.59,8.59,0,0,1,.13-3,11,11,0,0,1-1.79-1.65c-.81-.88-1.41-2-1.53-2,.2-.35.4-.69.48-.79a4.21,4.21,0,0,0-.69,1.11l.1.14c-.33.88-.18.16-.51,1-.12,0,.09-.83.49-1.5a3.59,3.59,0,0,0-.65,1.52c-.26.58-.14-.13-.42.59-.1.54-.18,1.25-.31,1.82h0c-.35,1.43,0,2.17-.13,3.38l0-.13c-.08.45.09,1.26.08,2,0-.21.07-.4.13,0,0,.85.16,1.4.15,2l.21.54a72.92,72.92,0,0,1,1,7.62c0,.66,0,1.6,0,2.39s0,1.58,0,2.3c0,1.43-.05,2.61-.07,3.3v-.11c-.07,4.15-.35,12.68-.34,17a18.77,18.77,0,0,0-.21,2.27c.06-.38.15-.25.13,0-.09,2.11.08.15.05,2.28,0,2.46-.49,11.85-.71,14,.12,1.18-.08,2.63,0,3.78l0-.11c0,1.23-.53,8.19-.56,9.62l0-.19a7.2,7.2,0,0,1-.27,2c.21-.11.26,1,.25,1.37l0,0c0,.62.08,2,0,3l-.11-.05a28.32,28.32,0,0,1-.12,3.05,50.22,50.22,0,0,0-.48,5.38l-.41,1.17,0,.18s3.66,2.23,4.65-.17l.11,0,0-.49c.1-.58,0-.86.1-.81l-.07.8c.07-.58.1-.17.15.06a5.81,5.81,0,0,1,.1-.68c0-.11,0,.09-.08.18a4.91,4.91,0,0,1,0-1.15c0-.6.18,0,.24-.73.36-3.7.73-7.28.93-11,.05-.08,0,0,.06.13,0-1.14.07-2.12.11-3.16a1,1,0,0,1,.19-.44,26.45,26.45,0,0,1,.07-2.79c0-.73.07-1.46.1-2S157.06,142.22,157.06,142.2Z"/><path class="cls-1" d="M71.73,120.11a1.21,1.21,0,0,0-.24.61A1,1,0,0,0,71.73,120.11Z"/><polygon class="cls-1" points="71.49 120.73 71.49 120.73 71.49 120.72 71.49 120.73"/><path class="cls-1" d="M69.53,132.21l.19.07c-.08.56-.25.13-.27.66.25.24-.16.86,0,1.06,0,0-.06.25-.15.22.14.1,0,.27,0,.44s.06,0,.11-.08V135c-.07.14-.17.16-.16,0-.19,1-1,5.57-1.11,6.61.13-.11.11-.44.3-.54.06.29-.09.4,0,.54-.29.06-.16.59-.46.76l.14.1-.12.12a3.12,3.12,0,0,1-.16,1.35c-.07.63.09.95,0,1.29,0-.06.13-.18.14,0-.14,0,0,.44-.12.5s-.1.66.11.52c-.1.07-.21.52-.25.24a1,1,0,0,0-.05.41l.08-.19c-.06.52-.24.78-.13,1.15l.1-.18c0,.31-.06.57-.26.66V148a5.7,5.7,0,0,0-.08,1.27l0-.15c.1.57-.21,3.44-.06,4l.17-.21,0,.45c0-.05-.42-.28-.37-.31-.13.92-.81,5.74-1.05,6.58-.14.33-.23,0-.25,0,0,.42.11.2,0,.55,0,.1-.1,0-.12-.09,0,.16-.08.29,0,.32.08-.19.24-.08.36-.14l-.09.45-.1,0c0,.11.25.31.12.75-.18.75-.28,1.58-.44,2.34-.06,0-.07-.19-.08-.36a1.4,1.4,0,0,1-.1.35c.15-.17,0,.33.1.2.17.6-.2,1.28-.11,1.8.23.09,3.94,1.79,4.22,1.84a1.52,1.52,0,0,1-.09.35.77.77,0,0,0,.15-.49l-.15-.06c0-.38.1-.07.16-.43.13,0,.09.34.06.63.06-.26.19-.5.08-.64.09-.23.14.06.25-.23a1.74,1.74,0,0,1,0-.75h0c.23-.57,0-.94.19-1.46l0,.06c.1-.18.07-.57.21-.9,0,.09-.15.16-.13-.05.15-.38.12-.67.26-.94l-.07-.3c.26-1.38,1-6.88,1.19-8.27v.06c.28-2.13,1-6.48,1.14-8.7a5.48,5.48,0,0,0,.31-1.14c-.08.19-.16.11-.13,0,.18-1.08-.07-.09,0-1.19.08-1.27.92-6.05,1.19-7.15-.09-.63.15-1.35.12-2l0,.07c0-.64.7-4.19.74-4.93l0,.1c0-.66.17-.54.3-1-.21,0-.25-.52-.23-.73h0c0-.32-.07-1.06,0-1.58l.11,0a8.23,8.23,0,0,1,.13-1.57,12.17,12.17,0,0,0,.47-2.75l.4-.57,0-.1s-3.65-1.5-4.62-.35l-.11,0,0,.25c-.09.29,0,.45-.09.41l.07-.4c-.08.29-.11.08-.15,0a1.36,1.36,0,0,1-.11.34c0,.06.05,0,.08-.08a1.3,1.3,0,0,1,0,.59c-.06.31-.18,0-.24.35-.35,1.88-.73,3.69-1,5.59,0,0,0,0,0-.07,0,.58-.13,1.09-.15,1.62a.37.37,0,0,1-.2.2,6,6,0,0,1-.12,1.43l-.14,1A4.41,4.41,0,0,1,69.53,132.21Z"/><path class="cls-1" d="M57.58,127s0,.11,0,.17A.49.49,0,0,0,57.58,127Z"/><path class="cls-1" d="M61.83,157.14l-.2,0c0-.48.23-.13.2-.58-.28-.19.05-.75-.09-.91,0,0,0-.21.13-.2-.16-.07,0-.22-.07-.36s0,0-.09.07l0-.32c0-.12.14-.15.15,0,.09-.83.38-4.81.35-5.71-.12.11-.06.39-.24.49-.1-.24,0-.35-.06-.45.28-.08.09-.52.37-.69l-.15-.07.1-.12c-.12-1-.07-.24,0-1.16,0-.53-.21-.8-.11-1.09,0,0-.11.16-.14,0,.14,0-.08-.37.06-.44s0-.57-.17-.43c.1-.07.15-.46.22-.22a.89.89,0,0,0,0-.36l-.06.17c0-.45.15-.68,0-1l-.08.16c0-.27,0-.49.18-.59l0,.28a3.77,3.77,0,0,0-.06-1.08v.13c-.16-.48-.19-2.94-.39-3.39l-.15.19-.1-.38c0,.05.45.21.4.24,0-.8.14-5,.29-5.68.1-.29.23,0,.25,0,0-.36-.14-.16-.11-.47,0-.08.11,0,.13.07,0-.13,0-.26,0-.27-.06.16-.23.08-.35.15l0-.4.11,0c0-.09-.29-.24-.21-.63.09-.65.1-1.36.17-2,.06,0,.09.16.12.3,0-.09,0-.23.06-.3-.13.15-.06-.29-.12-.16-.24-.5,0-1.11-.1-1.55-.24-.05-4.12-1.21-4.41-1.23a1.09,1.09,0,0,1,.06-.3c-.07,0-.12.29-.09.43l.15,0c0,.33-.1.07-.11.39-.12,0-.13-.29-.13-.54,0,.23-.14.45,0,.55-.07.21-.16,0-.23.22a1.16,1.16,0,0,1,0,.64h0c-.17.5.14.8,0,1.26l0-.06c-.08.16,0,.5-.1.79,0-.08.12-.15.13,0-.11.34,0,.58-.16.82l.11.25c-.1,1.2-.2,5.94-.23,7.14l0,0c0,1.83-.23,5.59-.14,7.49a4.19,4.19,0,0,0-.17,1c.06-.17.14-.11.13,0-.05.93.09.07.1,1a61.87,61.87,0,0,1-.36,6.19,15.74,15.74,0,0,1,.1,1.67l0-.05c.05.54-.22,3.61-.17,4.25l0-.09c.09.56-.1.48-.17.91.2-.05.3.42.31.6h0c0,.27.18.89.2,1.34l-.11,0a5.6,5.6,0,0,1,0,1.34,9.38,9.38,0,0,0-.15,2.38l-.33.53,0,.08s3.8.93,4.64-.13l.11,0V167c.06-.26-.07-.38,0-.36l0,.35c0-.25.09-.07.15,0a1.32,1.32,0,0,1,.07-.3s-.05,0-.07.08a.88.88,0,0,1-.08-.51c0-.26.17,0,.19-.32.13-1.62.3-3.18.32-4.82,0,0,0,0,.07.05,0-.49,0-.93,0-1.38a.32.32,0,0,1,.17-.19,4.81,4.81,0,0,1,0-1.22c0-.32,0-.64,0-.89A3,3,0,0,1,61.83,157.14Z"/><path class="cls-1" d="M6.56,148.9c-.12.07-.12.17-.14.26C6.53,149.08,6.58,149,6.56,148.9Z"/><polygon class="cls-1" points="6.42 149.17 6.42 149.17 6.42 149.16 6.42 149.17"/><path class="cls-1" d="M6.44,153.82h.2c0,.22-.22.09-.15.29.29,0,0,.35.16.41,0,0,0,.1-.11.11.16,0,0,.1.1.16s0,0,.08,0l.07.14c0,.07-.13.09-.15,0a15.11,15.11,0,0,0,.22,2.67c.11-.07,0-.18.18-.26.12.1,0,.17.1.2-.26.08,0,.25-.29.38H7l-.08.07c.22.46.09.1.12.53.06.25.29.33.23.48,0,0,.08-.09.13,0-.13,0,.13.16,0,.21s0,.26.21.17c-.09,0-.09.23-.19.14,0,.06,0,.12,0,.16l0-.09c.06.2-.06.34.13.45l.06-.09c0,.12.06.22-.11.3l-.08-.12a1,1,0,0,0,.2.48v-.06c.22.18.57,1.28.84,1.44l.12-.12.15.14s-.47,0-.42,0c.08.37.57,2.24.56,2.59,0,.15-.22.07-.24.07.09.16.16,0,.18.19s-.11,0-.13,0,0,.13.06.12.21-.09.31-.15l0,.18L9,165s.32,0,.3.22.14.62.18.92c-.07,0-.12,0-.17-.09s0,.1,0,.14.1.11.14,0c.31.16.14.5.37.65.24,0,4.16-.62,4.44-.69a.22.22,0,0,1,0,.14.14.14,0,0,0,0-.2l-.16,0c-.08-.12.08,0,0-.18.12,0,.18.08.22.18,0-.1.05-.22-.09-.22,0-.11.15,0,.18-.16s-.2-.14-.15-.24h0c.07-.25-.27-.29-.19-.52l0,0c.06-.09-.07-.21,0-.35,0,0-.1.09-.13,0s-.06-.25,0-.38l-.15-.07c-.09-.52-.7-2.51-.81-3l0,0c-.21-.78-.49-2.4-.78-3.2.1-.15,0-.32.05-.46,0,.08-.13.07-.13,0,0-.4-.09,0-.2-.41a10.12,10.12,0,0,1-.23-2.72c-.21-.21-.1-.51-.24-.72l.05,0c-.1-.23-.07-1.6-.15-1.87l0,0c-.14-.23.06-.22.11-.41a.33.33,0,0,1-.35-.24h0a3.36,3.36,0,0,1-.28-.57h.11c-.13-.15-.1-.47-.12-.59A2.08,2.08,0,0,0,11,149l.3-.25,0,0s-3.84-.19-4.62.35H6.58l0,.09c0,.13.08.17,0,.17v-.16c0,.12-.08,0-.15,0a.34.34,0,0,1,0,.14s0,0,.07,0,.15.15.1.23-.17,0-.18.16a13.23,13.23,0,0,0,0,2.27s0,0-.06,0c.06.22.06.43.13.64a.33.33,0,0,1-.15.1C6.34,152.61,6.45,153.8,6.44,153.82Z"/><path class="cls-1" d="M46.93,141.18v.11A.41.41,0,0,0,46.93,141.18Z"/><path class="cls-1" d="M52.33,160l-.2,0c0-.31.23-.08.2-.37-.27-.13.06-.47-.08-.58,0,0,0-.13.13-.12-.15-.05,0-.14-.06-.24s0,0-.1.05l0-.21c0-.07.14-.09.16,0a28.66,28.66,0,0,0,.3-3.63c-.12.07,0,.25-.23.31-.1-.15,0-.22-.06-.29.27-.05.08-.33.36-.43l-.16-.05.1-.07c-.13-.67-.07-.15,0-.74,0-.34-.22-.51-.14-.69,0,0-.1.1-.13,0,.13,0-.09-.24,0-.28s0-.36-.17-.27c.09-.05.14-.3.21-.15,0-.08,0-.16,0-.22l-.06.1c0-.28.13-.43,0-.62l-.08.1c0-.17,0-.31.17-.37l0,.18a1.67,1.67,0,0,0-.1-.69v.08c-.18-.3-.31-1.86-.54-2.14l-.14.13-.12-.24s.46.12.42.14c0-.5-.12-3.13,0-3.6.07-.19.22,0,.24,0,0-.23-.15-.1-.14-.29s.11,0,.13,0,0-.17,0-.18-.23.07-.34.12v-.26H52s-.3-.13-.25-.38c0-.42,0-.87,0-1.28.07,0,.11.09.15.18,0-.06,0-.15,0-.2-.11.11-.08-.17-.13-.09-.28-.3,0-.7-.23-1-.25,0-4.2-.45-4.49-.44,0-.08,0-.16,0-.19s-.1.19-.06.27h.16c.06.2-.09,0-.08.24-.12,0-.16-.16-.17-.31,0,.14-.1.28,0,.33,0,.13-.16,0-.21.15s.17.26.1.39h0c-.12.31.2.47.08.76l0,0c-.07.11,0,.31,0,.49,0,0,.12-.1.14,0s0,.36-.09.51l.12.15c0,.73.19,3.63.19,4.37l0,0c.06,1.13,0,3.44.14,4.61a1.44,1.44,0,0,0-.15.61c0-.11.14-.07.13,0,0,.58.09,0,.11.63a19.77,19.77,0,0,1-.3,3.8c.16.33,0,.71.09,1l0,0c.05.34-.25,2.21-.21,2.61l0,0c.08.34-.11.28-.2.54.21,0,.3.28.31.39H47a5.87,5.87,0,0,1,.17.84l-.11,0a2.33,2.33,0,0,1,0,.83,3.62,3.62,0,0,0-.23,1.45l-.35.3,0,.05s3.74.92,4.61.32l.11,0v-.13c.07-.16-.05-.25.06-.23l0,.22c0-.16.09,0,.15,0a.4.4,0,0,1,.07-.18s0,0-.07,0-.12-.22-.06-.32.18,0,.21-.19a25.93,25.93,0,0,0,.46-3s0,0,.06,0c0-.32,0-.59,0-.88a.24.24,0,0,1,.17-.11A8,8,0,0,1,52.33,160Z"/><path class="cls-1" d="M169.19,100.14a.28.28,0,0,0,.26-.06C169.32,100.05,169.24,100.07,169.19,100.14Z"/><polygon class="cls-1" points="169.45 100.08 169.45 100.07 169.45 100.08 169.45 100.08"/><path class="cls-1" d="M183.39,85.09l-.06,0A.15.15,0,0,0,183.39,85.09Z"/><path class="cls-1" d="M173.06,97.7l-.09-.18c.2-.12.18.17.33,0-.07-.28.33-.15.32-.32,0,0,.11,0,.14.06,0-.15.08-.09.12-.15s0,0-.07-.07l.11-.12c.07,0,.13.09.08.13a21,21,0,0,0,2.63-1.27c-.11-.07-.2.07-.34-.07.06-.14.18,0,.18-.17.17.22.27-.07.49.12l-.05-.15.1,0c.41-.4.08-.12.52-.33.24-.15.25-.4.43-.41,0,0-.12,0-.08-.11.08.11.13-.18.22-.08s.27-.15.11-.27c.08.06.28,0,.21.12s.14,0,.16-.09h-.1c.19-.14.37-.08.42-.3l-.11,0c.12-.08.22-.15.35,0l-.1.12a1.1,1.1,0,0,0,.44-.38l-.06,0c.13-.28,1.18-1.06,1.26-1.37l-.17-.07.11-.2s.15.44.11.41c.36-.21,2.18-1.43,2.55-1.56.18,0,.14.18.15.2.14-.15,0-.17.14-.25s.05.1,0,.13.13,0,.1-.1-.16-.17-.25-.24l.18-.1.05.1c.05,0-.06-.32.15-.38s.61-.37.92-.53c0,.06,0,.13,0,.2s.09-.07.15-.06c-.13-.05.08-.14,0-.15.07-.36.48-.33.57-.61-.11-.21-1.87-3.77-2-4,.06,0,.12-.07.15-.06s-.18,0-.22.07l.07.13c-.1.14-.08,0-.21,0-.07-.1,0-.2.14-.28-.11,0-.26,0-.22.18-.12,0-.07-.14-.21-.12s-.09.26-.22.25v0c-.29,0-.23.37-.5.39v0c-.11,0-.19.16-.36.17,0,0,.13.06.06.12s-.25.15-.41.14l0,.17c-.52.3-2.47,1.68-3,2v0c-.76.53-2.42,1.46-3.18,2.06-.19,0-.35.09-.5.13.1,0,.11.1.05.13-.42.21,0,.09-.38.36a16.8,16.8,0,0,1-2.89,1.41c-.16.3-.53.35-.71.59v0c-.22.19-1.77,1-2,1.24h0c-.19.27-.27.08-.51.18.14.15,0,.4-.08.48l0,0a7.16,7.16,0,0,1-.47.66l-.06-.09c-.09.23-.43.46-.54.58a2.74,2.74,0,0,0-1.08.93l-.45,0V97a20,20,0,0,0,1.41,1.43A7.62,7.62,0,0,0,169.2,100l.08.08,0-.08c.11,0,.05-.16.13-.08l-.11.1c.1-.06.09,0,.11.1l.12,0s0,0-.07,0,0-.2.08-.21.13.12.23,0c.52-.41,1.11-.73,1.67-1.17,0,0,0,0,0,.06.15-.16.32-.26.46-.41a.34.34,0,0,1,.16.08C172,98.32,173,97.69,173.06,97.7Z"/><path class="cls-1" d="M169.44,80.76c.14,0,.2-.09.27-.16A.26.26,0,0,0,169.44,80.76Z"/><polygon class="cls-1" points="169.72 80.59 169.72 80.59 169.71 80.59 169.72 80.59"/><path class="cls-1" d="M183,61l-.07.08A.18.18,0,0,0,183,61Z"/><path class="cls-1" d="M173.3,76.9l-.12-.16c.2-.18.21.12.36-.08-.11-.28.33-.25.3-.42,0,0,.11,0,.16,0-.07-.14.08-.11.11-.19s0,0-.09,0l.1-.16c.09,0,.16,0,.11.11a31.69,31.69,0,0,0,2.7-2c-.12,0-.21.12-.37,0,.05-.17.19-.11.17-.23.21.18.29-.15.55,0l-.06-.15.11,0c.4-.52.07-.15.53-.48.24-.22.23-.49.42-.54,0,0-.14,0-.1-.1.1.1.12-.21.23-.13.06-.07.28-.23.09-.31.09,0,.3-.08.24.07.07,0,.15-.08.16-.15l-.11,0c.2-.19.4-.18.43-.42h-.12c.12-.12.21-.21.38-.12l-.1.16a1.53,1.53,0,0,0,.44-.52l-.07,0c.11-.32,1.15-1.41,1.2-1.76l-.19,0,.1-.24s.22.42.17.4c.36-.33,2.18-2.09,2.57-2.33.19-.06.18.15.19.16.13-.18,0-.17.12-.29s.06.09.06.12.14-.08.1-.13-.2-.13-.31-.18l.19-.16.06.09c.05,0-.1-.31.11-.43s.62-.56.93-.81c0,0,0,.13,0,.22s.09-.1.16-.1c-.15,0,.07-.17,0-.16,0-.4.48-.48.54-.79-.15-.2-2.5-3.41-2.71-3.61.06,0,.12-.1.16-.1s-.2,0-.23.13l.1.12c-.1.17-.1,0-.22.1-.1-.09,0-.22.1-.33-.1.08-.26.1-.2.24-.13,0-.1-.12-.25-.06s-.07.29-.21.32h0c-.31.11-.2.45-.49.55v-.06c-.12,0-.19.22-.37.28,0,0,.14,0,.08.11s-.25.23-.42.25l0,.19c-.53.47-2.47,2.44-3,2.91v0c-.76.76-2.45,2.17-3.21,3a1.61,1.61,0,0,0-.54.27c.11,0,.14.07.08.11-.44.34,0,.09-.38.48a24.63,24.63,0,0,1-3,2.24c-.13.35-.53.51-.7.81v-.06c-.23.26-1.8,1.51-2,1.88l.06,0c-.17.34-.28.18-.52.35.18.11,0,.41,0,.51l0,0c-.09.16-.23.58-.39.83l-.08-.08a3,3,0,0,1-.47.76,3.46,3.46,0,0,0-1,1.27l-.46.15v.06A19.28,19.28,0,0,0,167,79.47a6,6,0,0,0,2.41,1.06l.09.07,0-.1c.11-.09,0-.21.12-.14l-.1.14c.1-.09.1,0,.13.09a.29.29,0,0,1,.12-.1s-.05,0-.08,0,0-.22.06-.27.16.09.25,0c.53-.65,1.11-1.19,1.66-1.83.05,0,0,0,0,.06.13-.22.3-.38.44-.58a.3.3,0,0,1,.18,0C172.27,77.84,173.26,76.89,173.3,76.9Z"/><path class="cls-1" d="M192.12,157.47a.47.47,0,0,0-.12-.36A.37.37,0,0,0,192.12,157.47Z"/><polygon class="cls-1" points="192 157.11 192 157.11 192 157.11 192 157.11"/><path class="cls-1" d="M173.39,130.11l.06.13A.38.38,0,0,0,173.39,130.11Z"/><path class="cls-1" d="M188.59,150.36l-.18.07c-.19-.35.15-.21-.06-.51-.32,0-.25-.56-.44-.6,0,0,0-.18,0-.2-.16,0-.11-.15-.2-.24s0,.05-.05.1l-.16-.21c0-.11.06-.17.13-.08-.26-.63-1.54-3.63-1.91-4.26-.06.13.1.3,0,.46-.18-.13-.09-.27-.23-.31.22-.18-.12-.41.07-.66l-.16,0,0-.13c-.5-.7-.15-.14-.43-.84-.21-.39-.49-.49-.52-.74,0,0,0,.16-.11.07.11-.07-.22-.24-.11-.34-.06-.1-.2-.43-.31-.24.05-.1,0-.41.11-.26a.62.62,0,0,0-.13-.27v.15c-.17-.32-.12-.56-.37-.71l0,.15c-.1-.19-.18-.35,0-.51l.14.19a2.57,2.57,0,0,0-.46-.76l0,.1c-.33-.28-1.27-2.07-1.62-2.3l-.06.2-.23-.23s.48-.05.45,0c-.28-.59-1.7-3.69-1.83-4.29,0-.25.19-.12.21-.13-.16-.25-.18-.06-.27-.3,0-.07.11,0,.14,0s-.05-.21-.11-.19-.18.16-.26.26l-.11-.31.11,0c0-.07-.35-.06-.42-.37-.15-.52-.41-1.05-.58-1.56.07,0,.15.08.22.17a.53.53,0,0,1,0-.25c-.07.17-.16-.18-.17-.07-.4-.27-.35-.83-.64-1.09-.24.06-4.19.78-4.46.88a.65.65,0,0,1-.06-.25c-.05.05,0,.26.07.36l.15,0c.15.23-.06.09,0,.33-.11.06-.22-.15-.31-.35.06.19,0,.4.19.42,0,.19-.15,0-.12.26s.28.27.27.47h0c0,.45.41.54.44,1l-.06,0c0,.16.17.37.19.63,0-.07.06-.16.13,0,0,.3.18.45.17.68l.19.14c.33.94,2,4.5,2.43,5.41l0,0c.66,1.37,1.91,4.23,2.73,5.59a2.58,2.58,0,0,0,.23.81c0-.15.08-.14.12,0,.31.71.1,0,.48.7a49.47,49.47,0,0,1,2.11,4.69c.36.31.47.85.76,1.18l-.06,0c.26.37,1.3,2.74,1.6,3.16v-.07c.3.33.09.37.2.7.16-.13.43.16.52.29h-.05c.13.19.53.57.74.91l-.11,0a5.92,5.92,0,0,1,.67,1,5.41,5.41,0,0,0,1.24,1.9c0,.2.06.41.11.61l.07,0a12.81,12.81,0,0,0,1.65-1.19,4.92,4.92,0,0,0,1.65-2.07l.09-.06-.1-.09c-.06-.16-.21-.14-.12-.2l.14.18c-.09-.15,0-.1.12-.09a.45.45,0,0,1-.07-.18c-.06,0,0,0,0,.08s-.24-.07-.27-.19.14-.12,0-.28c-.55-.89-.94-1.95-1.59-3.18,0-.05,0,0,.07,0-.22-.34-.41-.72-.61-1a.38.38,0,0,1,.07-.22A10.76,10.76,0,0,1,188.59,150.36Z"/><path class="cls-1" d="M85.85,166.15a1.41,1.41,0,0,0,.15-.69A1.26,1.26,0,0,0,85.85,166.15Z"/><polygon class="cls-1" points="86.01 165.45 86 165.45 86 165.46 86.01 165.45"/><path class="cls-1" d="M80.61,115.19v.22A.81.81,0,0,0,80.61,115.19Z"/><path class="cls-1" d="M86.35,152.9l-.2,0c0-.61.23-.17.18-.74-.28-.22,0-1-.12-1.14,0,0,0-.28.12-.26-.15-.08,0-.28-.07-.46s-.05.05-.1.09l0-.4c0-.16.14-.19.16,0,0-1.05.2-6.1.12-7.23-.11.15,0,.5-.22.63-.1-.3,0-.44-.07-.57.27-.12.07-.66.34-.89l-.15-.08.09-.15a3.69,3.69,0,0,1,0-1.47c0-.67-.24-1-.16-1.37,0,.06-.1.2-.13,0,.13,0-.1-.47,0-.55,0-.17,0-.73-.19-.54.09-.09.13-.59.21-.29a1.32,1.32,0,0,0,0-.45l0,.21c0-.56.12-.87,0-1.24l-.07.21c0-.34,0-.62.15-.75l.06.35a6.5,6.5,0,0,0-.11-1.37v.17c-.18-.59-.33-3.7-.56-4.25l-.14.25-.12-.47c0,.06.46.23.41.28,0-1-.12-6.26,0-7.19.07-.37.22-.07.24-.06,0-.46-.15-.2-.14-.59,0-.1.12,0,.14.08,0-.17,0-.32,0-.34-.05.22-.22.13-.34.22l0-.5.11,0c0-.11-.31-.28-.25-.78,0-.82,0-1.72,0-2.56.07,0,.1.19.14.36a1.2,1.2,0,0,1,0-.38c-.12.2-.08-.35-.13-.19-.27-.61,0-1.4-.21-1.94-.24-.05-4.19-1.16-4.48-1.16a2.17,2.17,0,0,1,0-.38c-.07,0-.1.37-.06.55l.15,0c.06.4-.09.09-.08.48-.13,0-.15-.34-.17-.65,0,.28-.1.57,0,.68-.06.27-.16,0-.21.3a1.92,1.92,0,0,1,.08.8h0c-.13.65.19,1,.06,1.58l0-.06c-.07.2,0,.61,0,1,0-.11.12-.2.13,0-.08.44,0,.73-.1,1.05l.13.3c0,1.5.15,7.45.17,9l0-.06c.06,2.3,0,7,.22,9.41a5.79,5.79,0,0,0-.12,1.26c.05-.22.13-.15.13,0,0,1.17.08.08.14,1.26.11,1.37,0,6.58-.13,7.79a18.73,18.73,0,0,1,.16,2.1l0-.07c.07.69-.1,4.55,0,5.35l0-.11c.11.69-.08.6-.15,1.15.21-.08.32.52.34.74h0c0,.34.21,1.11.24,1.67l-.11,0a9.22,9.22,0,0,1,.08,1.69,15.19,15.19,0,0,0-.09,3l-.32.67,0,.1s3.82,1.07,4.63-.29l.11,0v-.27c0-.32-.08-.47,0-.45l0,.44c0-.32.09-.1.16,0a2.06,2.06,0,0,1,0-.38c0-.06,0,.05-.07.1a1.46,1.46,0,0,1-.09-.63c0-.34.18,0,.19-.41.09-2,.22-4,.19-6.11,0-.05,0,0,.07.07,0-.63,0-1.18-.08-1.75a.48.48,0,0,1,.16-.25A29.76,29.76,0,0,1,86.35,152.9Z"/><path class="cls-1" d="M139.44,100.14v.28A2.62,2.62,0,0,0,139.44,100.14Z"/><path class="cls-1" d="M144.42,149.79l-.2,0c0-.81.23-.24.17-1-.28-.29,0-1.24-.13-1.5,0,0,0-.36.11-.33-.15-.12,0-.38-.07-.61-.05-.08-.05.06-.1.12l0-.52c0-.21.14-.26.15,0,0-1.37.19-8,.13-9.47-.12.19,0,.65-.23.83-.1-.4,0-.58-.07-.75.28-.15.07-.87.35-1.16l-.15-.11.09-.2a6.24,6.24,0,0,1,0-1.92,18,18,0,0,1-.14-1.8c0,.07-.1.27-.14,0,.14,0-.09-.61,0-.73,0-.22,0-1-.18-.7.09-.13.14-.77.22-.39a2.82,2.82,0,0,0,0-.59l-.05.29a6.06,6.06,0,0,0,0-1.63l-.08.27c0-.44,0-.81.17-1l.05.45a10,10,0,0,0-.09-1.78v.21c-.17-.78-.25-4.85-.46-5.58l-.15.33-.1-.62c0,.08.45.31.4.37,0-1.32.07-8.2.21-9.42.09-.49.23-.08.25-.08,0-.6-.14-.26-.11-.77,0-.14.11,0,.12.11,0-.22.05-.43,0-.45-.06.28-.23.16-.35.27l0-.65.11,0c0-.15-.3-.38-.21-1,.08-1.09.08-2.27.14-3.36.07,0,.1.25.13.48a2,2,0,0,1,0-.5c-.12.25-.06-.47-.12-.26-.24-.81,0-1.84-.11-2.55-.24-.07-4.12-1.68-4.41-1.69a2.42,2.42,0,0,1,.05-.51,1.44,1.44,0,0,0-.09.72l.15,0c0,.53-.09.12-.1.63-.13,0-.14-.45-.13-.87,0,.38-.14.75,0,.91-.06.35-.15,0-.22.38a3.32,3.32,0,0,1,0,1.05h0c-.16.84.14,1.3,0,2.08l0-.09c-.08.27,0,.82-.1,1.31,0-.14.13-.26.13,0-.1.56,0,1-.14,1.37l.11.4c-.1,2-.13,9.81-.14,11.81l0-.08c0,3-.11,9.26,0,12.4a11.26,11.26,0,0,0-.14,1.66c.06-.29.14-.19.13,0,0,1.54.09.11.13,1.66.1,1.8,0,8.67-.12,10.26.18.86.06,1.93.18,2.76l-.05-.08c.07.9,0,6,0,7l0-.14c.13.91-.07.79-.12,1.51.2-.1.32.68.34,1h0c0,.45.23,1.47.28,2.21l-.12,0a15.1,15.1,0,0,1,.13,2.23,24.7,24.7,0,0,0,0,3.95l-.3.88,0,.13s3.85,1.31,4.62-.5l.11,0,0-.36c0-.42-.09-.62,0-.59v.58c0-.42.09-.13.15,0a3.37,3.37,0,0,1,.05-.49c-.05-.08-.05.06-.07.13a2.45,2.45,0,0,1-.11-.83c0-.43.18,0,.18-.54,0-2.69.1-5.29,0-8,0-.06,0,0,.07.09-.05-.83-.08-1.52-.12-2.29a.75.75,0,0,1,.16-.32,15.16,15.16,0,0,1-.1-2c0-.53,0-1.06,0-1.46S144.41,149.8,144.42,149.79Z"/><path class="cls-1" d="M28.77,150.66v.07A.06.06,0,0,0,28.77,150.66Z"/><path class="cls-1" d="M34.72,162.75l-.2,0c0-.21.23,0,.19-.24-.28-.09,0-.32-.1-.39,0,0,0-.09.12-.08-.15,0,0-.09-.07-.15s0,0-.09,0l0-.13s.14-.06.16,0a12.85,12.85,0,0,0,.18-2.41c-.12.05,0,.17-.22.21s0-.15-.07-.19c.27,0,.07-.22.34-.3l-.15,0,.09,0c-.15-.44-.07-.1,0-.49,0-.23-.23-.34-.15-.46s-.1.07-.14,0c.14,0-.1-.15,0-.18,0-.06,0-.24-.18-.18.09,0,.12-.2.2-.1,0-.06,0-.11,0-.15l-.06.07c0-.19.12-.29-.05-.41l-.07.07c0-.11,0-.2.15-.25l.06.11a.8.8,0,0,0-.12-.45v.06c-.18-.2-.35-1.22-.59-1.4l-.14.09-.12-.15s.46.06.41.08a21.35,21.35,0,0,1-.13-2.38c.08-.12.23,0,.25,0-.06-.15-.15-.06-.15-.19s.11,0,.13,0,0-.11,0-.11-.22,0-.33.09v-.16h.12s-.31-.08-.26-.24,0-.57,0-.85c.06,0,.1.05.15.11s0-.09,0-.13-.08-.11-.13-.05c-.28-.19-.06-.46-.25-.63-.25,0-4.21,0-4.5,0,0-.05,0-.1,0-.12a.11.11,0,0,0-.05.17H29c.06.12-.09,0-.07.16s-.17-.09-.19-.19c0,.09-.09.18,0,.21,0,.09-.15,0-.2.11s.18.15.11.24h0c-.11.21.22.3.1.49l0,0c-.07.07,0,.19,0,.32,0,0,.11-.07.13,0s0,.22-.08.33l.13.09c0,.47.28,2.32.31,2.8l0,0c.09.72.1,2.21.27,2.95-.13.12-.1.28-.13.4,0-.07.14,0,.13,0,0,.37.09,0,.14.4a8.67,8.67,0,0,1-.18,2.45c.17.21,0,.46.13.67l0,0c.06.21-.17,1.42-.12,1.68l0,0c.09.22-.1.18-.17.35a.32.32,0,0,1,.31.25h0a3.27,3.27,0,0,1,.2.54h-.11c.1.16,0,.43,0,.54s-.29.6-.17.94l-.34.18,0,0s3.77.71,4.62.33l.11,0v-.09c.06-.1-.06-.16.05-.15l0,.15c0-.11.1,0,.16,0a.21.21,0,0,1,.07-.12s0,0-.08,0-.13-.15-.07-.22.18,0,.2-.12a10.56,10.56,0,0,0,.34-2c.05,0,.05,0,.07,0,0-.21,0-.4,0-.59a.34.34,0,0,1,.17-.07C34.65,163.84,34.7,162.77,34.72,162.75Z"/><path class="cls-1" d="M23,166.09a.4.4,0,0,0,.18-.3A.32.32,0,0,0,23,166.09Z"/><polygon class="cls-1" points="23.13 165.78 23.13 165.78 23.13 165.78 23.13 165.78"/><path class="cls-1" d="M18,143.24v.09A.28.28,0,0,0,18,143.24Z"/><path class="cls-1" d="M23.82,160.11l-.2,0c0-.28.23-.07.19-.33-.28-.11.05-.43-.1-.52,0,0,0-.13.13-.12-.16,0,0-.13-.07-.21s-.05,0-.09,0l-.05-.18c.05-.07.14-.09.16,0a23.68,23.68,0,0,0,.21-3.28c-.12.06,0,.22-.22.28-.1-.14,0-.2-.07-.26.27-.05.07-.3.35-.4l-.16,0L24,155c-.15-.6-.08-.13,0-.67,0-.3-.24-.45-.16-.62,0,0-.09.09-.13,0,.13,0-.09-.21,0-.25s0-.33-.18-.24c.09-.05.13-.27.21-.14,0-.07,0-.15,0-.2l0,.1c0-.26.12-.4-.05-.57l-.07.1c0-.16,0-.28.16-.34l.05.15a1.29,1.29,0,0,0-.11-.62v.08c-.18-.27-.34-1.68-.57-1.92L23,150l-.12-.21s.46.1.41.12c0-.46-.17-2.83-.09-3.26.07-.17.22,0,.24,0-.06-.21-.15-.09-.14-.26s.11,0,.13,0,0-.15,0-.15-.23.06-.34.1v-.22h.11c0-.05-.31-.12-.25-.34,0-.38,0-.78,0-1.16.06,0,.1.08.15.16s0-.13,0-.18c-.11.1-.08-.15-.13-.08-.28-.26,0-.63-.24-.87-.25,0-4.21-.31-4.5-.29,0-.08,0-.15,0-.18a.19.19,0,0,0-.05.25h.15c.06.18-.09.05-.07.22-.13,0-.16-.14-.18-.28,0,.13-.1.26.05.3-.05.12-.16,0-.21.14s.17.23.11.35h0c-.12.29.22.42.1.69l0,0c-.07.1,0,.27,0,.44,0-.05.11-.09.13,0s0,.32-.08.46l.13.13c0,.66.25,3.28.27,3.94l0,0c.07,1,.07,3.1.23,4.15-.13.16-.1.39-.14.56.05-.1.14-.06.13,0,0,.52.09,0,.13.56a16.28,16.28,0,0,1-.21,3.44c.17.29,0,.64.12.93l0,0c.06.3-.19,2-.15,2.36l0-.05c.1.32-.1.26-.17.5.2,0,.3.25.31.35h0a4.85,4.85,0,0,1,.2.76l-.11,0a2,2,0,0,1,0,.76,3,3,0,0,0-.19,1.31l-.34.27,0,0s3.77.78,4.63.22l.11,0v-.12c.07-.14-.06-.22.05-.2l0,.2c.05-.15.1,0,.16,0a.29.29,0,0,1,.07-.16s-.05,0-.08,0-.12-.2-.07-.29.18,0,.21-.17a21.28,21.28,0,0,0,.37-2.76s0,0,.06,0c0-.28,0-.53,0-.79a.43.43,0,0,1,.17-.11A6.39,6.39,0,0,1,23.82,160.11Z"/><path class="cls-1" d="M94,85.2a3.53,3.53,0,0,0-.15,1.12A3.13,3.13,0,0,0,94,85.2Z"/><path class="cls-1" d="M93.83,86.33h0Z"/><path class="cls-1" d="M93.49,106.64l.2.06c0,1-.23.29-.18,1.21.28.36,0,1.53.12,1.85,0,0,0,.44-.12.41.15.14,0,.47.07.75,0,.1,0-.08.1-.15l0,.65c0,.25-.14.32-.16,0,0,1.7-.2,9.86-.12,11.7.11-.24,0-.81.22-1,.1.48,0,.71.07.93-.27.18-.06,1.06-.34,1.43l.15.14-.09.24a9.54,9.54,0,0,1,0,2.37,21.38,21.38,0,0,1,.16,2.22c0-.09.1-.33.14-.05-.14.05.09.76,0,.89,0,.28,0,1.18.18.88-.09.15-.13.95-.21.47a4.3,4.3,0,0,0,0,.73l.05-.35a9,9,0,0,0,0,2l.07-.34a2.08,2.08,0,0,1-.15,1.22l-.06-.56a18.48,18.48,0,0,0,.11,2.2v-.27c.18,1,.33,6,.56,6.88l.14-.41.12.76c0-.09-.46-.36-.41-.44,0,1.63.12,10.12,0,11.63-.08.61-.23.11-.25.1,0,.74.15.32.14,1,0,.18-.11,0-.13-.13,0,.28,0,.53,0,.55,0-.34.23-.2.34-.34v.81l-.12,0a2.74,2.74,0,0,1,.25,1.26c-.05,1.34,0,2.79,0,4.14-.06,0-.1-.3-.14-.58a3.18,3.18,0,0,1,0,.62c.12-.33.08.56.13.31.27,1,0,2.27.21,3.14.24.08,4.19,1.87,4.48,1.87a3.8,3.8,0,0,1,0,.62,2.09,2.09,0,0,0,.06-.89l-.15,0c-.06-.65.09-.16.08-.79.13,0,.15.55.17,1.06,0-.46.1-.92,0-1.11,0-.44.15.05.2-.48a4.92,4.92,0,0,1-.08-1.29h0c.13-1.05-.19-1.6-.06-2.55l0,.1c.07-.34,0-1,.05-1.61,0,.17-.11.32-.13,0,.08-.7,0-1.18.1-1.69l-.12-.49c0-2.44-.16-12.05-.18-14.5l0,.1c-.06-3.73,0-11.38-.22-15.23a17.19,17.19,0,0,0,.13-2c0,.34-.14.22-.14,0,0-1.89-.08-.12-.13-2-.12-2.2,0-10.64.12-12.6-.18-1,0-2.37-.16-3.4l0,.11c-.07-1.11.1-7.37,0-8.66l0,.17a6.1,6.1,0,0,1,.15-1.85c-.21.12-.32-.84-.34-1.21h0c0-.55-.21-1.8-.24-2.71l.11,0a24.06,24.06,0,0,1-.08-2.74,37.64,37.64,0,0,0,.09-4.85l.32-1.08,0-.16s-3.82-1.74-4.63.47l-.11,0v.43c-.05.53.08.77,0,.73v-.71c0,.52-.09.15-.15,0a5,5,0,0,1-.06.61c0,.11,0-.07.07-.16a3.77,3.77,0,0,1,.09,1c0,.54-.18,0-.19.66-.09,3.32-.22,6.53-.19,9.89,0,.07,0,0-.06-.11,0,1,0,1.9.07,2.82a.81.81,0,0,1-.16.41C93.5,101.32,93.51,106.56,93.49,106.64Z"/><path class="cls-1" d="M110.29,165.67a4.21,4.21,0,0,0,.15-1.23A3.27,3.27,0,0,0,110.29,165.67Z"/><path class="cls-1" d="M110.44,164.43h0v0Z"/><path class="cls-1" d="M105,75.06c0,.12,0,.25,0,.38C105.05,75.32,105.05,75.19,105,75.06Z"/><path class="cls-1" d="M110.79,142.12l-.2-.07c0-1.09.23-.32.18-1.33-.28-.39,0-1.68-.12-2,0,0,0-.48.12-.45-.16-.15,0-.51-.08-.82,0-.11,0,.08-.09.17l0-.72c0-.28.14-.35.15,0,.06-1.87.2-10.84.13-12.85-.12.26,0,.88-.22,1.11-.1-.53,0-.78-.07-1,.27-.21.06-1.17.34-1.57l-.16-.16.1-.26a12.25,12.25,0,0,1,0-2.61c0-1.2-.23-1.77-.15-2.44,0,.1-.1.37-.14,0,.14,0-.1-.82,0-1,0-.31,0-1.3-.18-1,.09-.17.13-1,.21-.53a5.05,5.05,0,0,0,0-.79l-.05.38a11.68,11.68,0,0,0,0-2.21l-.08.37a2.54,2.54,0,0,1,.16-1.33l.06.61a20,20,0,0,0-.12-2.42v.3c-.19-1.06-.34-6.58-.56-7.56l-.15.45-.12-.84c0,.1.46.41.42.49,0-1.79-.12-11.12,0-12.77.08-.67.23-.12.25-.12,0-.81-.15-.35-.14-1,0-.19.11,0,.13.15,0-.31,0-.59,0-.61,0,.38-.23.22-.34.38v-.89l.11,0a3.49,3.49,0,0,1-.24-1.38c0-1.47,0-3.07,0-4.55.07,0,.11.33.15.64a3,3,0,0,1,0-.68c-.11.36-.08-.62-.13-.34-.27-1.09,0-2.49-.2-3.45-.25-.09-4.19-2-4.48-2,0-.3,0-.6,0-.69a2.7,2.7,0,0,0-.06,1l.16.06c0,.71-.09.17-.08.86-.13,0-.16-.6-.17-1.17,0,.51-.11,1,0,1.23,0,.48-.15-.06-.21.52a6,6,0,0,1,.09,1.42h0c-.14,1.15.19,1.76.06,2.81l0-.12c-.08.37,0,1.1-.06,1.77,0-.19.12-.36.14,0-.08.76,0,1.29-.1,1.85l.12.54c0,2.67.15,13.24.17,15.92l0-.1c.07,4.09.06,12.5.23,16.73a18.22,18.22,0,0,0-.13,2.24c0-.38.14-.25.13,0,0,2.08.09.14.14,2.25.11,2.42,0,11.69-.12,13.84.18,1.16,0,2.6.16,3.73l0-.11c.06,1.21-.1,8.09,0,9.5l0-.19a7.37,7.37,0,0,1-.15,2c.2-.13.32.93.33,1.33l0,0c0,.61.21,2,.24,3l-.12,0c.12.83.07,2.41.09,3a47.49,47.49,0,0,0-.1,5.33l-.31,1.18,0,.18s3.81,1.91,4.63-.52l.11,0,0-.48c.06-.57-.07-.84,0-.8v.79c0-.58.09-.18.15,0a4.25,4.25,0,0,1,.06-.66c0-.12,0,.08-.07.17a4.46,4.46,0,0,1-.09-1.12c0-.6.18,0,.19-.73.08-3.65.21-7.18.19-10.86,0-.09,0,0,.06.12,0-1.11,0-2.1-.08-3.11a1,1,0,0,1,.17-.44C110.77,148,110.76,142.21,110.79,142.12Z"/><path class="cls-1" d="M121.69,165.65a2.81,2.81,0,0,0,.13-1A2.53,2.53,0,0,0,121.69,165.65Z"/><path class="cls-1" d="M121.82,164.62h0Z"/><path class="cls-1" d="M117.09,90.15c0,.1,0,.2,0,.32C117.09,90.36,117.09,90.25,117.09,90.15Z"/><path class="cls-1" d="M121.79,146.09l-.2-.06c0-.91.23-.27.17-1.11-.28-.32,0-1.39-.13-1.68,0,0,0-.4.11-.38-.15-.12,0-.42-.08-.68,0-.09,0,.07-.09.14l-.06-.59c0-.23.14-.29.16,0,0-1.55.18-9,.12-10.67-.11.22,0,.73-.22.93-.1-.44,0-.65-.07-.85.27-.17.07-1,.35-1.3l-.15-.13.09-.22a7.47,7.47,0,0,1,0-2.16,19.51,19.51,0,0,1-.14-2c0,.08-.1.3-.14,0,.14,0-.08-.69.05-.81s0-1.07-.17-.8c.09-.14.14-.87.21-.43a2.89,2.89,0,0,0,0-.66l0,.31a8.31,8.31,0,0,0,0-1.83l-.08.31a1.78,1.78,0,0,1,.17-1.11l.05.51a14.17,14.17,0,0,0-.08-2V119c-.17-.88-.23-5.48-.43-6.29l-.15.37-.1-.7c0,.08.45.35.4.41,0-1.49.13-9.24.29-10.61.1-.55.23-.09.25-.08,0-.68-.14-.3-.1-.87,0-.16.11,0,.12.12,0-.25,0-.48,0-.5-.07.31-.24.17-.36.3l0-.74.11,0a2.44,2.44,0,0,1-.21-1.15c.1-1.23.12-2.56.19-3.79.07,0,.1.29.13.55a2.63,2.63,0,0,1,.05-.57c-.13.29-.05-.52-.11-.29-.24-.91.07-2.07-.08-2.87-.24-.08-4.11-1.9-4.4-1.92,0-.25,0-.49.06-.57a1.92,1.92,0,0,0-.1.81l.16,0c0,.6-.1.14-.12.72-.13,0-.13-.51-.12-1,0,.42-.15.84,0,1-.07.4-.16,0-.23.43a4.26,4.26,0,0,1,0,1.19h0c-.18,1,.12,1.47,0,2.34l0-.1c-.09.31,0,.92-.11,1.48,0-.16.13-.3.13,0-.11.64-.05,1.08-.16,1.54l.1.46c-.12,2.23-.23,11.06-.25,13.3v-.09c0,3.42-.17,10.44,0,14a12.86,12.86,0,0,0-.14,1.87c0-.32.14-.21.13,0,0,1.74.08.12.12,1.88.09,2,0,9.76-.12,11.55.18,1,.06,2.17.18,3.11l0-.09c.07,1,0,6.76.07,7.94l0-.16c.13,1-.07.89-.11,1.7.2-.11.33.77.35,1.1h0c0,.51.24,1.65.29,2.49l-.12,0a19.09,19.09,0,0,1,.14,2.5,31.73,31.73,0,0,0,0,4.45l-.28,1,0,.15s3.86,1.47,4.62-.57l.11,0,0-.4c0-.48-.09-.7,0-.67v.66c0-.48.09-.15.16,0a3.28,3.28,0,0,1,0-.56c0-.09,0,.08-.07.15a3,3,0,0,1-.11-.93c0-.49.17,0,.17-.61,0-3,.06-6,0-9,0-.07,0,0,.07.1-.05-.93-.09-1.72-.13-2.58a.93.93,0,0,1,.16-.37,17.62,17.62,0,0,1-.11-2.27c0-.59,0-1.19,0-1.65Z"/><path class="cls-1" d="M126.89,92.09a3.23,3.23,0,0,0-.16,1A2.51,2.51,0,0,0,126.89,92.09Z"/><path class="cls-1" d="M126.73,93.12h0Z"/><path class="cls-1" d="M126.33,111.74l.2.05c0,.92-.23.27-.18,1.11.28.33,0,1.4.12,1.69,0,0,0,.41-.12.38.15.13,0,.43.07.69,0,.09,0-.07.09-.14l.06.59c0,.24-.14.3-.16,0-.06,1.56-.23,9-.15,10.72.11-.22,0-.74.22-.93.1.44,0,.65.07.85-.27.17-.07,1-.35,1.31l.16.12-.1.23a8,8,0,0,1,0,2.17,20.13,20.13,0,0,1,.15,2c0-.09.1-.31.14,0-.14,0,.09.69,0,.82,0,.25,0,1.08.19.8-.1.14-.14.87-.21.43a3,3,0,0,0,0,.67l0-.32a7.56,7.56,0,0,0,.05,1.84l.07-.31c0,.5,0,.92-.16,1.12l0-.52a12.68,12.68,0,0,0,.11,2v-.24c.18.88.32,5.49.55,6.3l.14-.37.12.7c0-.08-.46-.34-.41-.41,0,1.5.09,9.28,0,10.66-.08.56-.22.1-.24.09.05.68.15.29.13.87,0,.16-.11,0-.13-.12,0,.25,0,.48,0,.5.06-.31.23-.17.35-.31l0,.74-.11,0a2.52,2.52,0,0,1,.24,1.15c0,1.23,0,2.57,0,3.8-.06,0-.1-.28-.14-.54a2.13,2.13,0,0,1,0,.57c.12-.29.08.52.13.29.27.91,0,2.08.2,2.88.24.07,4.18,1.78,4.47,1.78a3.49,3.49,0,0,1,0,.57,1.74,1.74,0,0,0,.06-.81l-.15,0c-.06-.6.09-.14.08-.72.13,0,.15.51.16,1,0-.42.11-.85,0-1,.06-.4.16.05.22-.44a4.17,4.17,0,0,1-.09-1.19h0c.14-1-.18-1.47,0-2.34l0,.09c.07-.3,0-.92.06-1.47,0,.16-.12.29-.14,0,.09-.64,0-1.08.11-1.55l-.13-.45c0-2.24-.12-11.07-.13-13.31l0,.08c-.06-3.42,0-10.44-.19-14a11.52,11.52,0,0,0,.13-1.87c0,.32-.13.21-.13,0,0-1.74-.08-.11-.13-1.87-.11-2,0-9.77.15-11.57-.18-1,0-2.17-.15-3.11l0,.09c-.06-1,.12-6.76.06-7.94l0,.15c-.11-1,.09-.88.15-1.7-.2.11-.31-.77-.33-1.11l.05,0c0-.51-.21-1.66-.23-2.5l.11,0a20.34,20.34,0,0,1-.08-2.52,33,33,0,0,0,.11-4.45l.32-1,0-.14s-3.81-1.56-4.63.48l-.11,0v.4c-.06.48.07.71,0,.67l0-.65c0,.48-.09.14-.16,0a3.1,3.1,0,0,1-.06.56c0,.09,0-.07.07-.15a2.84,2.84,0,0,1,.09.94c0,.49-.18,0-.19.61-.09,3-.23,6-.21,9.06-.05.07-.05,0-.07-.1,0,.92,0,1.74.08,2.59a.78.78,0,0,1-.17.37,17.11,17.11,0,0,1,.08,2.28V111C126.35,111.4,126.34,111.72,126.33,111.74Z"/><path class="cls-1" d="M99,108.85a1.36,1.36,0,0,0-.08-.75A1.54,1.54,0,0,0,99,108.85Z"/><polygon class="cls-1" points="98.89 108.09 98.89 108.09 98.89 108.1 98.89 108.09"/><path class="cls-1" d="M85.56,87.41l-.46-.07Z"/><path class="cls-1" d="M87.8,101.93l0,.19c-.5.23-.24-.14-.68.11,0,.34-.72.31-.78.51,0,0-.2.06-.23,0,0,.17-.17.13-.27.22s0,0,.1,0l-.24.17c-.12,0-.18-.07-.08-.13a6.9,6.9,0,0,1-1.81.51c-.27,0-.2,0-.22,0s0,0,0,0l-.35-.22c0,.16.26.23.24.43-.23,0-.24-.2-.38-.16.08-.27-.33-.32-.3-.63l-.13.09,0-.14c-.77-.39-.21-.06-.75-.55-.32-.25-.6-.22-.69-.43,0,0,0,.15-.09.1.08-.1-.26-.13-.18-.25-.08-.06-.26-.31-.33-.11,0-.1-.09-.33.07-.26-.05-.07-.09-.15-.15-.18s0,.08,0,.12c-.18-.23-.14-.42-.37-.51v.13c-.09-.14-.18-.26,0-.4l.13.12a2.54,2.54,0,0,0-.37-.57l0,.08a2.65,2.65,0,0,1-.53-1.06c-.07-.27-.15-.53-.2-.77A3.09,3.09,0,0,0,79.1,98a.26.26,0,0,0-.06-.14l-.16.11-.09-.22s.45.13.4.14a3.74,3.74,0,0,1,.52-1.7,6.54,6.54,0,0,1,1.38-1.74c.23-.12.19.12.2.14.17-.24,0-.19.18-.35s.06.09,0,.13.17-.12.13-.18-.21-.11-.33-.15l.25-.22.06.09c.06,0,0-.34.24-.5a11.2,11.2,0,0,1,1.38-.9c0,.06,0,.14-.12.24s.14-.11.22-.09c-.16,0,.14-.16,0-.16.21-.42.73-.36.88-.57a8.34,8.34,0,0,1,0-2.25,6.47,6.47,0,0,1,.42-1.48c.2-.4.39-.68.4-.75a3.92,3.92,0,0,1,.78.2,2.42,2.42,0,0,0-1.12-.27l-.06.15c-.64.08-.15-.09-.77,0,0-.06.11-.11.31-.15a2.46,2.46,0,0,1,.83,0l-.43-.07h-.32a.74.74,0,0,0-.45.11c-.43,0,0-.17-.47-.14a5.27,5.27,0,0,1-1,.36v0c-.77.14-1,.6-1.55.77l0-.07c-.24,0-.53.34-.89.47.1,0,.23,0,0,.12-.4.17-.58.41-.89.5l-.15.28a13.94,13.94,0,0,0-2.91,3.12,11.71,11.71,0,0,0-1.26,2.43,6.2,6.2,0,0,0-.33,1.16,4.24,4.24,0,0,0-.14.89v-.07a7.12,7.12,0,0,0,0,1.12c0,.34,0,.71.08,1.11a10.81,10.81,0,0,0,.61,2.55,9.68,9.68,0,0,0,1.32,2.37,9.48,9.48,0,0,0,1.47,1.53,3.87,3.87,0,0,0,.79.87c-.12-.16,0-.18.11-.08.81.65.1,0,1,.57L81,108a5.54,5.54,0,0,0,3,.78,12.61,12.61,0,0,0,3.76-.9c.45-.39,1.07-.55,1.45-.86l0,.06a6.56,6.56,0,0,1,1.34-.56,1,1,0,0,1,.38-.06l.2,0,.08,0v0c.33,0,.26.21.48.41.06-.2.42-.12.55-.06l0,0a4.09,4.09,0,0,1,.94.42l-.08.08a2.17,2.17,0,0,1,.76.66c.26.39.46,1,.79,1.5a4.48,4.48,0,0,1-.18.44l0,0,2-.3c1-.19,2.18-.47,2.35-1.29l.11,0-.11-.26c-.06-.34-.25-.43-.13-.46.06.15.1.3.15.45-.09-.34,0-.14.16,0a2.25,2.25,0,0,1-.09-.4c-.07,0,0,.06,0,.12-.1-.16-.31-.35-.35-.57s.15-.1,0-.47a10.26,10.26,0,0,0-4.28-4.53c0-.06,0,0,.09,0-.5-.24-.78-.38-1.5-.66l-.24-.07a1,1,0,0,1-.25,0,1.15,1.15,0,0,1-.34-.25,6.69,6.69,0,0,0-2.34.13A16.8,16.8,0,0,0,87.8,101.93Z"/><path class="cls-1" d="M208.51,142.28a1,1,0,0,0,0-.46A.43.43,0,0,0,208.51,142.28Z"/><polygon class="cls-1" points="208.51 141.82 208.51 141.82 208.51 141.82 208.51 141.82"/><path class="cls-1" d="M209.05,128.46a.35.35,0,0,1,0-.12A.21.21,0,0,0,209.05,128.46Z"/><path class="cls-1" d="M219.12,130.62l-.13-.16c.52-.91.35-.15.79-1,0-.46.72-1.4.72-1.76,0,0,.21-.4.28-.34-.07-.19.14-.45.2-.73,0-.11-.07.06-.14.11l.17-.62c.13-.22.24-.25.16,0a32.28,32.28,0,0,0,1.53-5.36c.25-1.15.42-2.3.57-3.27.18-1.7.34-3.28.38-4a12.75,12.75,0,0,1-.39,1.8c0-.77.16-1.2.08-1.5.3-.45.17-1.76.5-2.61l-.15-.09.12-.49a27.24,27.24,0,0,1,.08-3.77,14.21,14.21,0,0,0-.21-1.56c0-.19-.07-.37-.09-.55a2.64,2.64,0,0,0,0-.29l-.06-.17s0,.38-.11.28c.11-.28-.34-.28-.27-.61a3.72,3.72,0,0,0-.24-.35c-.09-.11-.16-.06-.18.15,0-.23-.21-.59,0-.54-.08-.11-.16-.25-.24-.26l.08.21c-.31-.37-.39-.58-.63-.55l.07.17a2,2,0,0,1-.21-.2,1.61,1.61,0,0,1-.39-.31,3,3,0,0,1,.48.12,1.67,1.67,0,0,0-.52-.17,1.18,1.18,0,0,0-.37,0,1.36,1.36,0,0,0-.54.17l.12,0a7.31,7.31,0,0,0-1.75,1.36c-.21.21-.44.49-.66.76a10.78,10.78,0,0,0-.65,1,12,12,0,0,0-.87,1.77l.28-.2c-.16.36-.32.74-.47,1.12,0-.09.16-1.31.23-1.32-.38.67-1.28,2.47-2.35,4.63-.27.53-.55,1.08-.84,1.63l-.46.82-.28.47c-.17.28-.33.51-.48.71a.9.9,0,0,1-.25.24,9.31,9.31,0,0,0-1.85,1.58c-.43.46-.71.8-.88,1-.43.41-.24-.06-.25-.08-.41.6-.08.34-.45.81-.11.11-.07-.09,0-.18-.14.22-.32.39-.28.44.23-.23.29,0,.47-.06l-.46.6-.07-.09c-.1.13,0,.52-.45,1l-1.05,1.39-.26.32c-.12.15-.25.3-.36.45-.22.31-.44.62-.63.94,0-.06.08-.35.23-.63a6.36,6.36,0,0,1-.4.57c.28-.25-.24.59-.06.37-.28,1.06-.94,2.36-.83,3.42a9,9,0,0,0,2.21,1,5.93,5.93,0,0,0,2.3.21.63.63,0,0,1,0,.25c.06-.06,0-.25,0-.36h-.15c-.08-.28.07-.07.05-.35.12,0,.15.23.22.41,0-.17,0-.36-.09-.43,0-.19.15,0,.21-.2s-.13-.41,0-.6h0c.25-.46.09-.87.48-1.3v.08c.16-.13.28-.51.57-.72-.07.06-.21.08-.07-.11.56-.56.75-1,1.12-1.31l.17-.44,1.38-1.95a9.37,9.37,0,0,1,1.79-2l.2-.13a1.4,1.4,0,0,1,.2-.16,2.79,2.79,0,0,0,.38-.3,6.52,6.52,0,0,0,.63-.7,12.67,12.67,0,0,0,.75-1.08l.29-.49c.07-.11,0-.07,0-.1v0l0-.1c0-.14.1-.26.13-.33v0a7,7,0,0,1,.42-.94,1,1,0,0,1,.09-.13c.05-.06.1,0,.09,0l0,.17a1,1,0,0,0,.1.27,2.07,2.07,0,0,0-.16.53c.06-.12.16-.25.15-.19,0,.35.1-.11.12.22a2,2,0,0,1,0,.55c0,.06,0,.13,0,.2l-.12.76c-.08.53-.16,1.09-.28,1.64a25.67,25.67,0,0,1-1.37,5,5.17,5.17,0,0,1-.38,1.32,10.14,10.14,0,0,0-.49,1.23v-.1c-.08.2-.31.58-.6,1.08a6.49,6.49,0,0,1-.52.72c-.1.12-.2.25-.29.38l-.34.3a9.61,9.61,0,0,1-1.53,1.24c-.53.37-1,.68-1.21.85l.14-.06c-.76.64-.76.4-1.46.81.2.1-.47.71-.75.93l0,0c-.41.33-1.27,1.24-1.92,1.93l-.05-.11a18.69,18.69,0,0,0-1.75,2.4,9.72,9.72,0,0,0-1.08,2.3,6.17,6.17,0,0,0-.16,3.12,6,6,0,0,0,.06,1.46l.11.19a3.39,3.39,0,0,0,.69,0,4.45,4.45,0,0,0,1.41-.31,4.16,4.16,0,0,0,2.09-1.71l.11,0c0-.05,0-.12-.06-.17,0-.22-.12-.33,0-.32a2.91,2.91,0,0,0,0,.31c0-.22.07-.08.15,0a.43.43,0,0,1,0-.25c-.05,0-.05,0-.07.08a.57.57,0,0,1-.11-.45c0-.27.17,0,.22-.31a5.35,5.35,0,0,1,1.34-2.47,17.89,17.89,0,0,1,2.84-2.28c.08,0,0,0,0,.1.68-.52,1.36-.94,2-1.48a1,1,0,0,1,.41-.09,3.08,3.08,0,0,1,.55-.46,13.8,13.8,0,0,0,1.43-1.25l.8-.81c.22-.27.41-.53.58-.75Z"/><path class="cls-1" d="M50.28,146.58a.86.86,0,0,0-.54-.08A.76.76,0,0,0,50.28,146.58Z"/><polygon class="cls-1" points="49.74 146.5 49.73 146.5 49.74 146.5 49.74 146.5"/><path class="cls-1" d="M51.43,144.53c0-.09,0-.19.07-.29C51.47,144.34,51.45,144.44,51.43,144.53Z"/><path class="cls-1" d="M41.06,143.39l-.15.13c-.34-.31.05-.26-.28-.51-.33.1-.48-.52-.69-.53,0,0-.11-.18,0-.23-.16.06-.16-.14-.28-.22s0,.06,0,.11l-.24-.2c0-.13,0-.21.11-.12A24.12,24.12,0,0,1,38,139.34c-.31-.57-.61-1.16-.87-1.68-.35-.7-.22-.43-.26-.49s0,0-.2.1,0-.05-.1,0c.27-.06,0-.07.34-.08H36.8c-.21-.06-.11,0-.06,0s-.21-.19-.1-.14-.11-.07-.12-.11,0-.09.09,0,.08,0,0-.18c.07.08.15.09.15.18s0,0,.06,0l-.06,0h.07l.23,0a.86.86,0,0,0,.42-.2l-.19,0c.28-.09.51-.16.66,0l-.27.13a5.89,5.89,0,0,0,1.1-.38l-.14,0a9.68,9.68,0,0,1,1.75-.59A15,15,0,0,0,42,135.2l-.2-.14.35-.13s-.15.46-.19.42a5.39,5.39,0,0,1,.89,0,1.3,1.3,0,0,1,.75.27,5.85,5.85,0,0,1,.87,1.18,8.3,8.3,0,0,1,.6,1.05c.1.32-.16.16-.18.17.24.31.21.07.37.36,0,.09-.11,0-.15,0,.08.12.11.25.17.23,0-.18.15-.2.21-.32l.19.38-.11,0c0,.09.39.07.51.46a12.19,12.19,0,0,1,.67,1.88c-.06,0-.14-.11-.21-.22a.55.55,0,0,1,0,.28c.08-.17.14.22.16.1.37.38.17.95.34,1.29a11.14,11.14,0,0,1,2.17.67c1,.42,2,1,2.09,1.06a2.19,2.19,0,0,1-.16.51,1.47,1.47,0,0,0,.24-.72l-.14-.07c0-.55.11-.11.18-.65.12,0,.11.49,0,.93.12-.38.24-.78.13-1,.09-.37.16.06.24-.39a6.62,6.62,0,0,1-.09-1.1h0c.06-.88-.34-1.27-.39-2l.06.06a11.29,11.29,0,0,0-.3-1.17c0,.13,0,.27-.13,0-.1-.5-.3-.78-.36-1.14l-.25-.26a15.92,15.92,0,0,0-.92-1.7c-.21-.35-.44-.72-.68-1.09s-.47-.71-.8-1.17a7.82,7.82,0,0,0-1.36-1.48,6.24,6.24,0,0,0-1.92-1,7.72,7.72,0,0,0-2.55-.32l.07,0a16,16,0,0,0-2.32.24c-.8.12-1.68.29-2.55.5-.43.1-.86.22-1.28.34s-.75.22-1.49.47a6.53,6.53,0,0,0-2.95,1.63,2.77,2.77,0,0,0-1,1.56c.13-.3.18-.16.12.08-.13.83,0,.84,0,.88s0,0,.3.91c0,.12.08.27.14.43s.18.35.27.55l.68,1.38,1,2a33.79,33.79,0,0,0,2,3.36c.55.43,1,1.18,1.58,1.59l-.08,0a25.06,25.06,0,0,0,2.17,1.86,13.17,13.17,0,0,0,2.52,1.5l-.09-.08c.72.23.55.34,1.07.64,0-.21.64-.1.87,0l0,0c.36.09,1.19.16,1.78.26l0,.1c.51,0,1.42.21,1.78.23a8.2,8.2,0,0,0,3.18.15c.24.1.49.16.75.24l.1,0a9.81,9.81,0,0,0,.08-2c-.07-1.06-.35-2.19-.91-2.52v-.12l-.2,0c-.26,0-.36.1-.35,0h.34c-.25,0-.08-.08,0-.15a1.18,1.18,0,0,1-.28,0c-.05,0,0,0,.07.06-.12,0-.31.17-.47.13s0-.18-.32-.19a14.5,14.5,0,0,1-4.47-1.05s0,0,.08,0c-.46-.13-.83-.32-1.23-.47a.39.39,0,0,1-.08-.24,3.44,3.44,0,0,1-1-.52,7,7,0,0,1-.66-.5C41.18,143.5,41.07,143.4,41.06,143.39Z"/><path class="cls-1" d="M190.2,21a3.42,3.42,0,0,0-1.21.34A5,5,0,0,0,190.2,21Z"/><polygon class="cls-1" points="188.98 21.3 188.97 21.31 188.99 21.3 188.98 21.3"/><path class="cls-1" d="M189.27,29.55a4.1,4.1,0,0,0,.4-.18Z"/><path class="cls-1" d="M177.61,37.12l.21.05c.2,1.1-.17.36.09,1.38.37.32.51,1.68.84,1.94,0,0,.19.47.1.48.19.08.29.45.5.71.1.07,0-.1,0-.2l.44.59c.13.27.1.38-.1.13a12.26,12.26,0,0,0,1.71,2,12.59,12.59,0,0,0,3.31,2.14,13.47,13.47,0,0,0,6.22,1.09c-.25-.11-.85,0-1.07-.2.51-.09.75,0,1-.09.21.29,1.1,0,1.52.22l.12-.17.27.06c1.08-.29,1.19-.35,1.28-.36a4.72,4.72,0,0,0,1.11-.26,6.19,6.19,0,0,0,1.22-.56,6.67,6.67,0,0,1,.85-.42c-.08,0-.34.06-.1-.1.1.1.64-.42.83-.36.24-.13,1.19-.73.77-.67.2,0,1-.56.57-.16a2.87,2.87,0,0,0,.65-.55l-.33.23a5.56,5.56,0,0,0,1.52-1.65l-.29.24c.39-.46.64-.87.93-.95l-.31.52a8,8,0,0,0,1.14-2l-.14.25a24.65,24.65,0,0,0,1.07-3.34,11.56,11.56,0,0,0,.34-3.32l-.19.37c0-.25,0-.49,0-.74,0,.09.42.4.37.47a15.8,15.8,0,0,0-.51-5.81,10,10,0,0,0-1.74-3.42,8.62,8.62,0,0,0-1.93-1.78c-.6-.44,0-.27,0-.28-.87-.38-.38-.08-1.15-.4-.22-.1.08-.09.22-.06-.37-.12-.7-.27-.74-.22.44.2.19.3.33.47a4.6,4.6,0,0,0-1-.28l.06-.1a11,11,0,0,1-1.52.12,12.1,12.1,0,0,0-4.11.94c0-.06.23-.2.47-.34a2.39,2.39,0,0,1-.57.19c.34,0-.47.27-.22.23-.75.61-1.89.9-2.48,1.41,0,.13.15,1.24.28,2.36s.15,2.27.19,2.41l-.2.08-.26.1a1.76,1.76,0,0,1-.35.09,1.47,1.47,0,0,0,.54-.12,2.87,2.87,0,0,0,.55-.25l0-.16c.53-.33.18,0,.7-.26.08.1-.34.36-.88.61l.64-.26a.59.59,0,0,0,.34-.25c.37-.13,0,.16.47,0a3.71,3.71,0,0,1,.92-.56v0c.8-.25,1.05-.73,1.75-.87l-.06.07c.26,0,.66-.28,1.07-.32-.12,0-.24-.06,0-.13a4.39,4.39,0,0,1,1-.13l.23-.14a3,3,0,0,1,.52,0c.06,0,.18,0,.23,0s.12,0,.25.09a3.08,3.08,0,0,1,1.35,1.38,7.3,7.3,0,0,1,.79,2.55,12.11,12.11,0,0,1,.07,2.07l0-.07A12.36,12.36,0,0,1,197.84,38a7.47,7.47,0,0,1-1.57,2.09c-.14.11-.28.23-.42.33a3.45,3.45,0,0,1-.46.28c-.37.19-.7.4-1,.53s-1,.26-1.41.34c.25,0,.19.09,0,.14-1.31.26-.06.13-1.39.4a8.44,8.44,0,0,1-4.38-.39,6.17,6.17,0,0,1-3.11-2.35A4.77,4.77,0,0,1,183,37.57l.06,0a5.39,5.39,0,0,1-.27-2.68,10.5,10.5,0,0,1,.82-2.82l-.07.1c.23-.75.39-.56.74-1-.22,0,.07-.67.21-.89l0,0c.11-.16.28-.44.46-.76s.46-.61.69-.86l.05.1a5.54,5.54,0,0,1,.77-.75l.77-.56a33.41,33.41,0,0,0,3.48-1.89,4.25,4.25,0,0,1,.79,0l.08-.07s-.1-1-.27-2a3.78,3.78,0,0,0-.51-1.47,1.43,1.43,0,0,0-1.37-.61v-.12l-.42.21c-.51.19-.64.42-.66.3l.64-.31c-.5.21-.19,0,0-.16a5.77,5.77,0,0,1-.58.23c-.07.08.09,0,.18,0a4.61,4.61,0,0,1-.81.55c-.43.23-.12-.14-.61.12-.65.37-1.12.57-1.92,1a10.59,10.59,0,0,0-1.07.66,12.13,12.13,0,0,0-1,.75,14.48,14.48,0,0,0-3.43,3.82c-.08.05,0,0,0-.13a15.18,15.18,0,0,0-1.27,2.73,1,1,0,0,1-.3.36,24.77,24.77,0,0,0-.53,2.69,13.25,13.25,0,0,0-.08,2Z"/><path class="cls-1" d="M193.11,46.12a1.29,1.29,0,0,0,.11.77A1.82,1.82,0,0,0,193.11,46.12Z"/><polygon class="cls-1" points="193.22 46.9 193.22 46.9 193.22 46.89 193.22 46.9"/><path class="cls-1" d="M203,39.38l.07-.05A.13.13,0,0,0,203,39.38Z"/><path class="cls-1" d="M202.88,53.63l.06-.2c.52.07.13.25.61.26.21-.26.77.1.95,0,0,0,.21.05.19.14.08-.15.24,0,.38,0s0-.05-.07-.1l.32,0c.12.06.15.15,0,.16l1.11.11a8.59,8.59,0,0,0,1.08,0,6,6,0,0,0,1.59-.27,5.76,5.76,0,0,0,1.53-.76,8,8,0,0,0,1-.83,9.36,9.36,0,0,0,1-1.17c-.17,0-.34.37-.57.35.11-.29.31-.32.31-.48.28.07.43-.5.79-.54l-.09-.15.16-.08a6.47,6.47,0,0,1,.66-1.32c.24-.63.16-1,.34-1.32,0,.06-.15.16-.14,0,.14,0,0-.46.2-.5s.17-.69,0-.55c.11-.07.25-.53.27-.23a1.2,1.2,0,0,0,.07-.43l-.09.19c.07-.54.25-.82.11-1.2l-.09.2c0-.33,0-.6.21-.72,0,.11,0,.23,0,.34a4.1,4.1,0,0,0-.11-1.34v.16c-.11-.28-.23-1.18-.54-2a5.29,5.29,0,0,0-1-1.83l0,.28c-.1-.12-.18-.24-.29-.35s.51,0,.48,0a9.37,9.37,0,0,0-2.16-2.83,12.08,12.08,0,0,0-2.9-1.84c-.3-.21,0-.23,0-.25-.44-.11-.24.07-.59-.06-.09-.06,0-.1.12-.1-.17,0-.3-.14-.33-.08.18.12,0,.26.09.39-.15-.05-.3-.11-.45-.15l.05-.1c-.11,0-.34.23-.78.06a9,9,0,0,0-2.44-.17c0-.06.18-.11.35-.16a1,1,0,0,1-.38,0c.2.11-.34.11-.18.15-.55.33-1.35.25-1.8.61a15.44,15.44,0,0,0,.34,2.25,13.08,13.08,0,0,0,.69,2.17.27.27,0,0,1-.16,0,.18.18,0,0,0,.23,0l-.05-.15c.13-.12.06.05.21,0,.06.11-.06.19-.16.26.1,0,.23,0,.23-.14s.05.15.18.15.14-.22.27-.17v0c.26.06.36-.27.63-.17l0,0c.09.08.26-.05.43,0,0,0-.09-.12,0-.13s.33,0,.46.14l.16-.11a5.9,5.9,0,0,1,2,.76,4.08,4.08,0,0,1,1.44,1.47h0a5,5,0,0,1,.64,2.24,8.46,8.46,0,0,1-.28,2.56c-.19.15-.27.41-.4.58.1-.08.16,0,.11.07-.31.56.06.08-.22.68a4.57,4.57,0,0,1-.59.83,3.52,3.52,0,0,1-.42.39.66.66,0,0,1-.25.11h-.22l-.46,0-.93-.12a9.65,9.65,0,0,1-1.51,0l.05,0a9.4,9.4,0,0,1-1.75-.26c-.73-.16-1.39-.41-1.62-.46l.05.05c-.43,0-.31-.21-.56-.38,0,.2-.4.16-.52.11l0,0a3.87,3.87,0,0,1-.94-.32l.07-.08c-.3-.05-.64-.43-.77-.56-.28-.34-.48-.93-.8-1.31.06-.14.12-.27.19-.4l-.05,0-2,.36c-1,.21-2.17.49-2.32,1.34l-.11,0,.12.27c.08.35.28.43.16.46-.06-.15-.13-.29-.18-.45.1.34,0,.14-.15,0,0,.15.09.29.11.41s0-.07,0-.13a2.18,2.18,0,0,1,.39.58c.16.31-.15.1,0,.48a9.78,9.78,0,0,0,4.59,4.11c0,.06,0,0-.09,0a13.23,13.23,0,0,0,1.6.51.46.46,0,0,1,.18.23,9.94,9.94,0,0,1,1.39.25Z"/><path class="cls-1" d="M203.73,34.65c0,.06.05.09.05.11s0,0,0,0S203.8,34.63,203.73,34.65Z"/><polygon class="cls-1" points="203.79 34.8 203.79 34.8 203.79 34.8 203.79 34.8"/><path class="cls-1" d="M193.82,23.37v-.06A.07.07,0,0,0,193.82,23.37Z"/><path class="cls-1" d="M214.48,27.49l-.17-.12c.24-.65.29-.11.46-.73-.21-.32.32-1,.19-1.29,0,0,.08-.3.16-.26-.14-.12,0-.33,0-.53s-.05,0-.1.09V24.2c.06-.17.15-.21.15,0a10.07,10.07,0,0,0-.37-4.11,7.61,7.61,0,0,0-2.46-3.37,4,4,0,0,0-.54-.4c.06.17.42.37.42.61-.33-.14-.37-.35-.55-.34.06-.29-.53-.45-.58-.81l-.16.08-.08-.15a5.11,5.11,0,0,1-1.31-.68c-.61-.29-1-.18-1.27-.41.05,0,.14.17,0,.13,0-.14-.44-.08-.47-.23s-.63-.25-.53,0c-.05-.13-.47-.32-.18-.3a1.16,1.16,0,0,0-.4-.13l.17.11c-.5-.14-.72-.38-1.09-.32l.16.13c-.3-.08-.55-.15-.61-.36l.32.05a4.27,4.27,0,0,0-1.24-.25l.15.05c-.56,0-3.38-.45-4-.23l.22.17-.51.08c.05,0,.34-.45.36-.39a7.09,7.09,0,0,0-1.78.1,9.55,9.55,0,0,0-2.28.76,20,20,0,0,0-3,1.85c-.33.16-.19-.14-.2-.16-.31.32-.06.23-.35.47-.1.05-.06-.1,0-.15-.11.12-.26.19-.22.24.18-.1.23.1.37.12l-.36.31-.06-.1c-.08.08,0,.4-.37.69a12.62,12.62,0,0,0-1.63,1.85c-.05,0,0-.21.1-.37a1,1,0,0,1-.26.28c.21-.09-.14.33,0,.23a2.48,2.48,0,0,1-.42.92,2.65,2.65,0,0,0-.38.92,17.8,17.8,0,0,0,1.87,1.32,9,9,0,0,0,2.09.91.23.23,0,0,1-.07.11c.07,0,.14-.09.11-.16l-.15,0c0-.16.09,0,.14-.17.12,0,.08.2.09.28s.14-.14,0-.24c.09-.09.14.06.24,0s0-.3.09-.39h0c.26-.23.12-.58.43-.8v0c.14-.06.21-.33.43-.46-.07,0-.18,0-.09-.1.25-.16.3-.37.53-.45l.05-.23a13.73,13.73,0,0,1,2.33-1.92,4.73,4.73,0,0,1,2.07-.85v0c.05,0,0,0,.15,0l.35,0c.24,0,.53.08.81.12.59.11,1.25.24,1.9.41,1.32.34,2.6.78,3.42,1.07a4.28,4.28,0,0,0,.77.51c-.12-.11,0-.16.08-.11.7.42.09,0,.83.32a5,5,0,0,1,.85.58,2.26,2.26,0,0,1,.66.79c0,.07,0,0,.06.17s.05.22.08.33.07.43.07.63a4.18,4.18,0,0,1-.05.9c.15.4,0,.87,0,1.26l0-.05a4.17,4.17,0,0,1-.63,1.46,10.51,10.51,0,0,1-1,1.3l.07,0c-.26.37-.34.2-.64.37.17.13-.08.45-.19.56l0,0a5.06,5.06,0,0,1-.84.81l0-.11a2.23,2.23,0,0,1-.53.36l-.36.19c-.46.31-.39.32-.41.33a.2.2,0,0,0-.05.09c0,.09-.22.11-.36.07l-.21,0-.29,0a3.65,3.65,0,0,0-1-.33l-.14.05a4,4,0,0,0-.13.64,6.3,6.3,0,0,0,0,1.43,24.06,24.06,0,0,0,.65,2.53v.11l0,0c0,.06.41,0,.34.08l-.34-.05c.13,0,0,.09,0,.15l.06,0,.15.05c.09,0-.06-.05-.12-.08a3.1,3.1,0,0,1,.91,0c.5,0,0,.2.64.22a4,4,0,0,0,2.21-.61,3.54,3.54,0,0,0,.83-.73s.08-.07,0-.13l0,0-1.6-1.79v0h0l1,2.21h0l.09,0,.36-.16A11.86,11.86,0,0,0,211.07,32c.06,0,0,0,0,.09a12.21,12.21,0,0,0,1.32-1.39.58.58,0,0,1,.31-.1c-.07,0,.49-.67.95-1.46a10.46,10.46,0,0,0,.6-1.11C214.38,27.72,214.48,27.5,214.48,27.49Z"/><path class="cls-1" d="M194.78,20.81a1.29,1.29,0,0,0,.14-.68A1.14,1.14,0,0,0,194.78,20.81Z"/><polygon class="cls-1" points="194.92 20.12 194.92 20.12 194.92 20.13 194.92 20.12"/><path class="cls-1" d="M181.89,24.39l-.11.05Z"/><path class="cls-1" d="M189.92,8.09l-.15.13c-.57-.41,0-.31-.59-.65-.36.09-.91-.6-1.2-.57,0,0-.26-.17-.21-.24-.16.1-.32-.11-.52-.16s0,.06.06.13l-.45-.13c-.15-.11-.16-.21,0-.16a10.09,10.09,0,0,0-4.27-.84,9.47,9.47,0,0,0-2.74.51,8.5,8.5,0,0,0-1.6.75c.21,0,.54-.24.76-.14-.27.24-.47.2-.56.36-.25-.17-.68.32-1,.23v.18h-.19a6.4,6.4,0,0,1-1.23,1c-.52.47-.6.83-.93,1,0,0,.22-.07.12.08-.12-.08-.27.39-.43.36-.11.13-.53.53-.26.52-.13,0-.51.37-.36.08a1.51,1.51,0,0,0-.32.37l.19-.14c-.37.47-.7.67-.81,1.11l.2-.15c-.22.31-.38.59-.62.63L173,12a4.88,4.88,0,0,0-.71,1.5l.09-.19a11.18,11.18,0,0,0-.48,2.7,5.78,5.78,0,0,0,.43,2.45l.09-.29c.07.16.14.32.22.47,0,0-.5-.14-.47-.21A13.84,13.84,0,0,0,173.49,22a17.37,17.37,0,0,0,2.14,3c.22.34-.11.21-.13.22.38.32.25,0,.54.35.07.1-.09.06-.15,0,.14.12.24.27.29.23-.13-.19.06-.26.06-.4.13.12.25.25.39.36l-.09.07c.09.08.41,0,.79.32a7.91,7.91,0,0,0,1.09.76,2.74,2.74,0,0,1,.54.42c-.05,0-.14,0-.23,0s.12.08.12.15c0-.16.17.07.15,0,.22,0,.33.16.6.49a3,3,0,0,0,.7.65,2,2,0,0,0,1.14.35,2.13,2.13,0,0,0,.43-.73,3.88,3.88,0,0,0,.25-1.49,11.15,11.15,0,0,0-.29-2.26c.09,0,.18-.06.22,0s-.25,0-.3,0l0,.15c-.06,0-.07,0-.09,0s0,0,0,0v0s0-.05,0,0,0,.17,0,.27c0-.08,0-.14,0-.2l-.05-.21s0,0,0,0a.32.32,0,0,1,.13-.08c-.07,0-.1,0-.14,0s0,0,0,0,0,0,0,0,0,.09,0,.15a4.31,4.31,0,0,1,.08.48c.06.58.05.46.05.48a1.51,1.51,0,0,1,0,.43c0,.19,0,.25,0,.33l0,.12s0,0,0,0h0a.37.37,0,0,1,.07-.12.53.53,0,0,1,.1-.12,2.85,2.85,0,0,1,.27-.32h0l.17-.17.09-.08.05,0,0,0,.08-.07.64-.61h0l0-.05-.26-.23a4.66,4.66,0,0,1-.74-.74l.1,0a8.61,8.61,0,0,0-1.07-.92c.1.1.16.25-.11.09a3.33,3.33,0,0,0-.32-.24l-.14-.1a.51.51,0,0,1-.21-.2h-.23a8.94,8.94,0,0,1-3.32-4.78l0,0a4.24,4.24,0,0,1-.17-1.14,2.61,2.61,0,0,1,.26-1.14A10.36,10.36,0,0,1,179,13a5,5,0,0,0,.8-.51c-.15,0-.16-.05-.06-.12.68-.49,0-.11.65-.64a4.28,4.28,0,0,1,2.23-.89,4.22,4.22,0,0,1,2.23.44c.46,0,.88.33,1.29.46h-.06a4.81,4.81,0,0,1,1.34,1.11,13.88,13.88,0,0,1,1.08,1.48l0-.08c.34.37.14.41.25.78.16-.14.44.21.52.36h0a5.64,5.64,0,0,1,.64,1.11h-.11a4,4,0,0,1,.38,1.25,22.68,22.68,0,0,0,.19,2.36l-.29.54,0,.08a19.21,19.21,0,0,0,2,.27c1.06.07,2.21,0,2.6-.67l.12,0,0-.26c0-.32-.1-.46,0-.45v.44c0-.32.09-.1.16,0a1.48,1.48,0,0,1,0-.38c-.05-.06-.05.05-.07.1a1.51,1.51,0,0,1-.13-.61c0-.33.18,0,.15-.42a15.6,15.6,0,0,0-1.47-6.16c0-.06.05,0,.09,0a14.64,14.64,0,0,0-1-1.64.65.65,0,0,1,0-.32c0,.08-.51-.66-1.17-1.34a12.64,12.64,0,0,0-.93-.9C190.12,8.26,189.93,8.11,189.92,8.09Z"/><path class="cls-1" d="M183.65,26.69a1.86,1.86,0,0,0-.83,0A1.71,1.71,0,0,0,183.65,26.69Z"/><polygon class="cls-1" points="182.81 26.74 182.81 26.74 182.82 26.74 182.81 26.74"/><path class="cls-1" d="M188.41,45.35l0,.19A1.33,1.33,0,0,0,188.41,45.35Z"/><path class="cls-1" d="M170.58,34.87l.13.15c-.42.61-.31,0-.66.64.08.36-.68,1-.67,1.38,0,0-.2.35-.27.29.09.18-.14.41-.2.69,0,.11.07-.06.14-.11-.06.2-.11.41-.16.63s-.22.28-.16,0a8.22,8.22,0,0,0-.22.95c0,.29-.09.62-.14,1-.09.67-.19,1.48-.27,2.31s-.15,1.67-.17,2.44c0,.38,0,.74,0,1.1a6,6,0,0,0,.15,1.1,5.28,5.28,0,0,0,0-.66.73.73,0,0,1,.11-.5c.11.38,0,.78.17,1a1.1,1.1,0,0,0,0,.81,1.09,1.09,0,0,1,.08.71l.19,0v.23a9.72,9.72,0,0,0,.59,1,3.64,3.64,0,0,0,.49.87,15.47,15.47,0,0,0,1.48,1.42c-.06-.06-.16-.26.06-.13-.06.13.56.37.56.53.2.14.78.57.68.27.05.14.55.52.2.38a1.94,1.94,0,0,0,.47.29l-.19-.18c.59.34.81.62,1.24.68l-.16-.18c.32.17.6.31.62.53l-.34-.13a6.57,6.57,0,0,0,1.25.59l-.14-.09a4.71,4.71,0,0,1,.76.3c.35.16.67.33,1.26.64a7.36,7.36,0,0,0,2.57.83l-.25-.23.59.07c-.06,0-.41.35-.45.29a12.35,12.35,0,0,0,4.56.52,6.06,6.06,0,0,0,4.78-2.38c.36-.35.23.06.25.08.31-.51,0-.3.31-.67.09-.09.07.08,0,.15.1-.18.24-.3.19-.35-.18.18-.26,0-.42,0l.33-.46.08.08c.07-.11-.08-.43.26-.88a21.57,21.57,0,0,0,1.36-2.56c.05,0,0,.24,0,.43a1.76,1.76,0,0,1,.21-.38c-.2.16.09-.4,0-.25,0-.74.58-1.48.59-2.13-.1-.06-1-.7-1.92-1.28a19.93,19.93,0,0,0-2-1.15,1.39,1.39,0,0,1,.12-.33c-.08,0-.18.3-.19.47l.14.07c-.05.37-.11.06-.21.41-.12,0,0-.35,0-.63-.08.25-.24.47-.14.61-.13.22-.14-.07-.28.2a1.5,1.5,0,0,1-.16.71h0c-.33.5-.14.92-.48,1.36l0-.07c-.14.14-.21.52-.44.8.07-.08.19-.12.11.08-.25.31-.31.59-.53.79l0,.3c-.18.29-.5.83-.88,1.41a3.58,3.58,0,0,1-.39.5s0,.05-.18.11a4.24,4.24,0,0,1-.87.15,6.19,6.19,0,0,1-1,0,7.22,7.22,0,0,1-1.38-.21h0a6.87,6.87,0,0,1-1.51-.57c-.41-.2-1.4-.87-2.24-1.33l-2.28-1.26a7.74,7.74,0,0,1-1.33-.91,6.37,6.37,0,0,0-.39-.73c0,.14-.07.16-.12.05-.39-.73-.11,0-.54-.77,0-.1-.1-.22-.16-.36l0-.11a3.23,3.23,0,0,1,0-.35c0-.61,0-1.43.11-2.24s.17-1.64.27-2.34c.05-.35.09-.67.13-.94a.55.55,0,0,1,.05-.22.34.34,0,0,1,0-.12c-.12-.35.25-.83.44-1.34v.07a11.23,11.23,0,0,1,1.44-1.91c.71-.79,1.51-1.51,1.77-1.77l-.09.05c.41-.51.48-.3.91-.56-.19-.12.18-.55.35-.68l0,0a9.66,9.66,0,0,1,1.19-1.07l0,.11a5.59,5.59,0,0,1,1.36-.83c.67-.29,1.77-.52,2.65-.92.23,0,.46.09.68.14l.08-.06a17.48,17.48,0,0,0-.12-2c-.14-1.05-.45-2.17-1.34-2.36v-.11l-.3.09c-.38.06-.51.23-.52.12l.5-.14c-.37.08-.13,0,0-.16a2.76,2.76,0,0,1-.44.08c-.06.06.06,0,.13,0a2.08,2.08,0,0,1-.69.31c-.37.12-.08-.16-.52,0a19.46,19.46,0,0,0-6.42,3.36c-.07,0,0,0,0-.1a19.28,19.28,0,0,0-1.53,1.42.73.73,0,0,1-.33.09c.07,0-.6.66-1.22,1.4-.32.36-.62.74-.85,1S170.6,34.84,170.58,34.87Z"/><path class="cls-1" d="M156.87,96.24c.13-.09.14-.25.17-.41A.5.5,0,0,0,156.87,96.24Z"/><polygon class="cls-1" points="157.04 95.83 157.04 95.83 157.04 95.83 157.04 95.83"/><path class="cls-1" d="M140,88l0,0S140,88,140,88Z"/><path class="cls-1" d="M154.91,89.08l-.17.1c-.21-.26.12-.22-.12-.43-.29.09-.32-.41-.5-.39,0,0-.08-.12,0-.18-.14.08-.13-.08-.22-.12s0,0,0,.1l-.19-.12c0-.09,0-.17.1-.11a11.14,11.14,0,0,0-1.32-1.33A8.57,8.57,0,0,0,151,85.53c0,.13.18.16.13.35-.18,0-.16-.15-.27-.1.1-.26-.23-.22-.18-.51l-.11.1,0-.11c-.62-.2-.16,0-.62-.33-.29-.15-.52,0-.64-.19,0,0,0,.13-.05.13s-.24,0-.2-.16-.3-.16-.31,0c0-.1-.17-.24,0-.25-.06,0-.11-.1-.18-.09l.06.09c-.24-.1-.3-.29-.52-.22l0,.11c-.14-.06-.27-.1-.24-.3l.17,0a1.39,1.39,0,0,0-.63-.19l.07,0c-.33,0-1.76-.44-2.1-.3l.06.17-.25,0s.26-.39.27-.34a17.73,17.73,0,0,0-1.75-.48c-.78-.17-1.6-.27-1.86-.32s0-.22,0-.25c-.26,0-.11.15-.33.12-.06,0,0-.11.05-.13s-.19,0-.2,0,.07.22.12.34l-.28,0v-.11c-.07,0-.16.31-.43.25a6.74,6.74,0,0,0-1.46.2c0-.06.08-.13.17-.19a.45.45,0,0,1-.23,0c.15.07-.18.13-.08.15-.27.35-.79.3-1,.61a21.15,21.15,0,0,0,.76,2.1,17.78,17.78,0,0,0,1,2s-.06,0-.08,0,.11.06.12,0l-.08-.14c0-.09.07.07.12,0a.15.15,0,0,1,0,.21s.13,0,.08-.09c.07,0,.07.13.14.16s0-.18.08-.13v0c.13.08.1-.23.23-.15v0c.06.06.11,0,.2,0s-.06-.1,0-.13.15,0,.23.07l.05-.13a7.11,7.11,0,0,1,1.2,0,8,8,0,0,1,1.45.3h0a10.75,10.75,0,0,1,1.6.61c.6.27,1.28.59,1.72.74.06.18.25.26.36.36,0-.08,0-.14.07-.11.38.25.08-.06.49.14a5.24,5.24,0,0,1,1.23.83,5,5,0,0,1,.93,1c.29,0,.38.32.6.4l0,0a7.56,7.56,0,0,1,1,1.45v0c.19.14,0,.2,0,.38a.33.33,0,0,1,.4.08l0,0c.07.08.32.25.4.42l-.11,0c.16.1.18.39.21.49,0,.25-.13.61,0,.9a2,2,0,0,1-.32.18l0,0,2,.23c1.06.11,2.21.19,2.63-.21l.11,0v-.16c.06-.2-.08-.28,0-.27v.26c0-.19.09-.06.15,0a.78.78,0,0,1,.05-.23s0,0-.07.06-.15-.24-.1-.37.18,0,.17-.26a8.14,8.14,0,0,0-.74-3.48s0,0,.07,0a8.3,8.3,0,0,0-.52-.85.31.31,0,0,1,.08-.2s-.27-.33-.53-.69S154.91,89.1,154.91,89.08Z"/><path class="cls-1" d="M156.18,82.14a.72.72,0,0,0,.25-.44A.63.63,0,0,0,156.18,82.14Z"/><polygon class="cls-1" points="156.43 81.69 156.43 81.69 156.43 81.7 156.43 81.69"/><path class="cls-1" d="M136.73,71.09l.08,0Z"/><path class="cls-1" d="M154.38,74.17l-.16.11c-.24-.26.1-.23-.16-.44-.29.1-.35-.4-.54-.37,0,0-.09-.13,0-.19-.14.08-.14-.08-.24-.12s0,.06,0,.11l-.2-.11c0-.09,0-.17.09-.12a12.81,12.81,0,0,0-1.4-1.27,10.87,10.87,0,0,0-1.48-1c0,.13.18.16.14.35-.18,0-.16-.15-.27-.09.1-.26-.23-.23-.18-.52l-.12.11v-.12c-.62-.19-.16,0-.62-.33-.29-.15-.53,0-.65-.2,0,0,0,.13,0,.12s-.24,0-.21-.16-.3-.17-.32,0c0-.1-.18-.25,0-.25-.06,0-.12-.11-.19-.1l.07.1c-.25-.11-.31-.31-.55-.24l.06.11c-.15-.07-.28-.12-.25-.31l.18,0a1.41,1.41,0,0,0-.64-.2l.07,0c-.33,0-1.72-.49-2.05-.37l0,.17-.25,0s.29-.37.29-.32c-.43-.21-2.76-1-3.15-1.25-.15-.13,0-.22.05-.24-.22,0-.14.11-.31,0s.05-.1.08-.11-.13-.08-.16,0,0,.23,0,.36L141,67.3l0-.11s-.22.25-.42.12c-.36-.17-.78-.26-1.14-.4,0-.06.11-.07.2-.08s-.13,0-.16-.09c.06.14-.18,0-.12.1-.36.18-.64-.16-.94,0-.1.23-1.57,3.92-1.63,4.2-.06,0-.13,0-.14-.07s.12.13.2.12l.05-.15c.18,0,0,.1.18.13,0,.12-.18.11-.31.09.11,0,.2.16.29,0,.09.08-.06.15.06.23s.26-.1.34,0v0c.22.2.45-.08.65.12l0,0c.06.1.25,0,.37.17,0,0,0-.13.05-.12s.29.09.38.22l.16-.08c.59.19,2.95.92,3.53,1.19h0c.91.33,2.65,1.23,3.59,1.61.07.18.26.26.38.38-.05-.09,0-.15.08-.11.41.27.07-.06.52.16a7.72,7.72,0,0,1,1.38.89,6.33,6.33,0,0,1,1.07,1c.31,0,.42.32.66.4l-.05,0a2.78,2.78,0,0,1,.57.68c.21.31.34.61.43.71v0c.19.13,0,.2,0,.36a.31.31,0,0,1,.39.08h0c.07.08.31.25.38.42l-.11,0c.15.1.15.37.17.47s-.21.53-.1.79l-.34.09,0,0,1.92.6c1,.32,2.13.65,2.63.27l.11,0,0-.18c.09-.21,0-.33.08-.3l-.06.3c.07-.22.1-.06.15,0a.93.93,0,0,1,.1-.25s-.05,0-.08.06c0-.13-.1-.31,0-.44s.18,0,.21-.27a7.3,7.3,0,0,0-.59-4s.05,0,.08,0a7.7,7.7,0,0,0-.57-.95.32.32,0,0,1,.06-.22c0,.06-.31-.37-.6-.75Z"/><path class="cls-1" d="M121.61,93.17a.48.48,0,0,0,.11-.35A.33.33,0,0,0,121.61,93.17Z"/><polygon class="cls-1" points="121.72 92.82 121.72 92.82 121.72 92.82 121.72 92.82"/><path class="cls-1" d="M121.49,65.14l-.38-.16Z"/><path class="cls-1" d="M126,87.79l-.08-.19c.44-.31.25.11.65-.23,0-.18.18-.3.37-.42s.42-.25.45-.38c0,0,.23-.16.28-.08,0-.18.2-.24.3-.4s-.06,0-.13,0l.26-.34c.15-.09.24-.06.13.08a7.78,7.78,0,0,0,2.18-3.7,6.1,6.1,0,0,0-.1-3.21,5.29,5.29,0,0,0-1-1.92c.05.22.4.61.33.88-.3-.33-.31-.56-.51-.64.12-.32-.54-.74-.58-1.14l-.19,0-.1-.19c-.73-.48-.82-.46-.88-.52a3.29,3.29,0,0,0-.7-.43c-.74-.31-1.15-.21-1.52-.39.06,0,.19.15,0,.14,0-.14-.51,0-.57-.18s-.76-.14-.59.07c-.08-.1-.6-.2-.28-.24a1.12,1.12,0,0,0-.47,0l.22.07c-.59,0-.92-.17-1.3,0l.22.08c-.36,0-.65,0-.81-.12l.37-.08a3.21,3.21,0,0,0-1.17.22h.12a2.19,2.19,0,0,1-.44.15l-.27.07c-.08,0-.07,0-.11.06a1,1,0,0,1-.48.09.32.32,0,0,0-.14,0,.88.88,0,0,0,0,.15.55.55,0,0,1-.18,0s.37-.29.34-.25a1.15,1.15,0,0,1-.19-.24l0-.12a2.83,2.83,0,0,1-.11-.31c-.09-.26-.17-.53-.26-.8a5.68,5.68,0,0,1-.39-2.17c.08-.19.22,0,.24,0,0-.2-.15-.1-.13-.26s.11,0,.13,0,0-.13,0-.14-.23,0-.35.06,0-.15,0-.23l.11,0s-.28-.18-.16-.37a1.56,1.56,0,0,1,.5-.64s0,.12,0,.19,0-.08.11,0c-.12-.06,0-.13,0-.14,0-.37.35-.2.38-.38a5.12,5.12,0,0,1,.42-2.19,8,8,0,0,1,1.36-2,3.59,3.59,0,0,1,.63.35,1.85,1.85,0,0,0-.91-.47l-.1.13c-.72-.15-.14-.15-.85-.27,0-.13.66-.09,1.24.14-.51-.22-1-.4-1.28-.28-.49-.08.07-.16-.54-.23-.44,0-.94.24-1.38.28v0c-1.07.2-1.34.76-2.08,1.16l0-.09a6,6,0,0,0-1.06,1c.12-.1.27-.15.08.11a8.45,8.45,0,0,0-.89,1.26c0,.16,0,.32-.06.48a6.77,6.77,0,0,0-.4,2.28,10.26,10.26,0,0,0,.39,2.75c.11.42.23.81.35,1.17s.24.73.35,1c0,.1.08.19.11.29l.16.36a5.08,5.08,0,0,0,.33.66,7.34,7.34,0,0,0,.63.9l-.07-.06a4.91,4.91,0,0,0,.86.8,5.25,5.25,0,0,0,2.76,1,7.36,7.36,0,0,0,.81,0l.6,0,1-.12a6.47,6.47,0,0,1,2.17.07c.13.17.34.24.45.34,0-.08,0-.15.07-.11.36.25.1-.06.46.15a.76.76,0,0,1,.36.82,2.6,2.6,0,0,1-.86,1.27c-.1.39-.51.58-.76.9v0a11.48,11.48,0,0,1-1.57,1,11.66,11.66,0,0,0-2,1.38l.09,0c-.44.52-.5.31-.94.66.19.09-.14.62-.28.81l0,0a14.25,14.25,0,0,0-.75,1.55l-.08-.07c-.13.47-.51,1.26-.58,1.6a5.63,5.63,0,0,0-.49,3,7.63,7.63,0,0,0-.26.72l0,.1a8.69,8.69,0,0,0,2,0,5.05,5.05,0,0,0,2.54-.79h.11l0-.13c0-.16-.09-.23,0-.22a1.61,1.61,0,0,0,0,.22c0-.17.08,0,.15,0a.35.35,0,0,1,0-.18s0,0-.07,0-.15-.21-.09-.31.18,0,.21-.19a4.79,4.79,0,0,1,1.31-2.46c.05,0,0,0,0,.07a5.78,5.78,0,0,1,.65-.67.35.35,0,0,1,.22,0,3.11,3.11,0,0,1,.82-.66l.73-.48Z"/></svg>