<svg id="Layer_1" data-name="Layer 1" xmlns="http://www.w3.org/2000/svg" viewBox="0 0 688 482"><defs><style>.cls-1{fill:#3b4454;}.cls-2{fill:#4d596b;}.cls-3{fill:#5e6b7c;}.cls-4{fill:#64748b;}.cls-5{fill:#78869a;}</style></defs><path class="cls-1" d="M506.11,211.69a8,8,0,0,0-2.75-.29c-.48,0-1,.09-1.47.17l-.75.15-.68.16a50.58,50.58,0,0,0-5.59,2.05C498.74,214.53,501.77,214,506.11,211.69Z"/><path class="cls-1" d="M494.77,213.92s0,0,0,.06a.39.39,0,0,1,.14,0Z"/><path class="cls-1" d="M360.61,297.53l2,3.48c-5.91,4.5-4.47-2.36-9.37,2.54,1.25,6.13-9.45,6.36-9.53,10.18-.23-.39-3,1.49-3.9-.05,1,3.07-2.32,2.64-3.52,4.53-.1,1.14,1,.4,2,.79l-3.2,3.77c-2.1.35-3.56-.82-2.12-2.32-2.68,1.68-7.82,5.07-14.13,9.32l-10.18,6.9-5.44,3.72-1.38.94c-.07,0-.06,0-.08,0l-.13-.07c-.67-.34-.55-.85-.76-.08a6.65,6.65,0,0,0,0,1.75c.05.37.1.92.18,2.81-.15,1-.31.8-.4.61s-.14-.36-.34.7a14.84,14.84,0,0,0,.09-3.46c0-.09,0-.16-.07-.32a1.94,1.94,0,0,1-.15-.59,4.72,4.72,0,0,1,0-1c0-.11.07-.2,0-.35a3,3,0,0,1-.18-.45,6.87,6.87,0,0,1-.27-1l-1.7,2.72-1.13-2.25c-7.52-.36-8.45-.2-9-.46-.29-.13-.5-.37-1.41-.83a60.61,60.61,0,0,0-5.66-2.22c-7.52-1.72-12.25,1.34-15.93-1.38.6.21,1.7,2.49-.44,2.68.44-2.68-5.69.34-5.84-2.54-2-.19-8-2.51-7,1.68-.5-2.08-5.76-4.52-2-5-1.82-.68-3.44-1.76-5-1.4l2.06,1.73c-6.41-1.45-8.93-5.24-14-3.34l1.86,2.12c-3.8-.93-7-1.7-7.36-5.66l4.18.19c-6.23-2-10-3-15.81-2.82l1.81.7c-7.71,1.41-43.23-7.56-50.85-5.49l1.87,3.67-6,.39c.61.25,5.58-7.78,5.79-6.72-5.65-1.87-23.25-7.4-40.62-13.42-8.7-3-17.32-6.1-24.39-8.77s-12.55-5-15-6.42c-3.61-3.05.84-4.49,1-4.89-5.43-.93-3.24,2-7.46.12-1-.92,1-2,1.84-2.11-2-.4-3.41-2-4-.8,2,1.86-.25,4.76-.06,7.27L74,284.18l1-2c-1.21-.53-5.3,4.48-10.31,1.27-8.84-4.41-19.07-7.53-28.09-11.62.63-1.18,2.85-1.16,5.07-1.13-1.21-.55-3.22-1-4-2.29,1.36,3.05-4.44-.05-3.06,1.55-8.72,2.4-15.62-5.64-22.89-4.58C10.55,267.56-.38,285.74-11.36,304s-22,36.65-23.11,39.34c-1.84-.85-3.78-1.76-4.19-2.44,0,.74.89,1.64,2.09,2.38a8.13,8.13,0,0,0,3.73,1.3l1.5-2.74c4.95.82.39,2.15,4.89,3.72-.7,2.46-5,1.33-8.69.1,3.14,1.59,5.68,4.61,8,2.54,2.64,2.2-1.49,2.75,1.77,5.22,2.88.35,7.23-.59,9.66,2l-.22.39c6.32,5.31,12.54.82,18.25,5.82l-1,.51c1.82,2.29,7.16,2.25,10.84,5.37-1-.95-1.41-3.07,1.24-2.36,4.3,3.39,8.22,3.16,11.07,6.39l4.32-1C33,372.3,40.43,375,49.5,378.13S69.28,384.84,80,388.36s21.54,6.91,30.7,9.86,16.8,5.25,21.16,6.7l-.82.14c3.36,1,7.13,2.22,11.23,3.54l13.24,4.19,14.56,4.67,15.39,4.7c5.18,1.56,10.33,3.15,15.48,4.59s10.2,2.81,15.05,4.08l7.11,1.82c2.3.59,4.55,1.12,6.77,1.59,4.4,1,8.48,1.77,12.15,2.4a20.12,20.12,0,0,0,6.89,4.05c2.56,1,5.21,1.83,7.48,2.77-2.33-1.69-1-3.12,1-2.48,14.16,4.09,1.41-1.37,16.05,1.47,2.77.47,7.63,1.6,13.24,2.63s12.12,2.43,19.21,3.95L317,451.46l5.79,1.3c.52.28.89-.25,1.32-.46l1.26-.83,2.55-1.67c6.77-4.47,13.79-9.05,20.82-13.78l10.42-7.29,5.14-3.66,3-2c3.9-2.65,7.63-5.16,11-7.42,6.84-4.52,12.44-8.06,15.64-9.82,4-7.55,13.37-11.19,18.05-17.55l-.1,1.14c2.84-3,13.95-10.7,25.18-18.41s22.61-15.37,26-18.62l-1.32.32c5.26-6.6,6.69-2.73,12.58-5.47-3.05-2.8,1.26-8.7,3.24-10.49l.44.78c2.84-2.86,8.19-10.93,13.26-15.1l1.05,2c1.57-2.53,4.6-5,7.62-7.17s6-3.92,7.58-5.08c2-1,4.27-2,6.75-3.13s5.11-2.17,7.75-3.42c1.31-.6,2.62-1.23,3.91-1.91s2.57-1.41,3.77-2.12a36.54,36.54,0,0,0,3.49-2.4,28.37,28.37,0,0,0,3.06-2.62l2.21.56c.72.21,1.4.46,2.09.69,1.38.47,2.74.95,4.07,1.44.16-.32.25-.58.38-.87l-4.23-11.47c-2.56-7-5.91-16.52-9.67-26.42-1.87-4.94-3.9-9.95-6.07-14.75a115.55,115.55,0,0,0-7-13.43,44.7,44.7,0,0,0-8.27-10.12,23.54,23.54,0,0,0-4.7-3.22,17.07,17.07,0,0,0-4.73-1.74l-.73-2.12-3.5,2.15c-4.65,1.31-5.18,4.58-6,2.51,1.9-1,3.72-1.9,5.68-2.86-2.25.86-2.72.63-2.6-.06a14.14,14.14,0,0,1,1.5-2.82c-1,.4-1.85.75-2.75,1a12,12,0,0,1-2.6.59c-.39,1.2,1,.47,1.91.54-.91.95-1.87,2.31-3,3.5a7.17,7.17,0,0,1-3.78,2.5c-4,2.14-2.12-2.93-6.76-.42-12.17,6.44-23.43,12.62-34.4,19.13a359.26,359.26,0,0,0-31.69,20.94c-1-.4-.43-.78-.07-1.55-5.67,5.26-11.37,9-16.39,13.85a6.92,6.92,0,0,1-4.37-.86c1,.41-6.43,6.47-14.13,12.44-3.85,3-7.79,5.95-10.79,8.17A53.46,53.46,0,0,1,360.61,297.53Z"/><path class="cls-2" d="M512.39,134.58c-3.18-1.15-7.11.47-10.88,1.87A15.17,15.17,0,0,0,512.39,134.58Z"/><path class="cls-2" d="M501.41,136.44l0,.05.14,0Z"/><path class="cls-2" d="M360.63,213.56l1.75,3.62c-6.4,4.2-4.35-2.63-9.76,2,.75,6.25-10.18,5.9-10.6,9.75-.2-.41-3.19,1.34-4-.26.78,3.15-2.6,2.54-4,4.39-.19,1.14,1,.45,2,.9l-3.59,3.64c-2.18.24-3.57-1-2-2.45-4.5,2.41-15.42,8.72-27.68,16l-9.36,5.63-2.36,1.44-1.18.71-.58.36-.15.09c-.05,0,0,0,0,0h0c-.09-.07-.1,0-.16-.09s-.28-.24-.33-.24-.09.07-.16.4a6.34,6.34,0,0,0,.06,1.77c.06.38.14.93.33,2.85-.11,1-.28.8-.38.61s-.17-.37-.31.7a14.38,14.38,0,0,0-.1-3.49,2.39,2.39,0,0,1,0-.83c0-.24.07-.55.14-1s.05-1,.16-1.67c-.3,1-.62,1.95-.95,2.92a4.52,4.52,0,0,0,0-1l-.59-1.14c-15.48-.87-3.76.6-16.56-3.6-7.71-1.73-12.58,1.22-16.38-1.53.62.22,1.77,2.52-.43,2.69.43-2.69-5.85.28-6-2.61a43.31,43.31,0,0,0-4.75-.8c-1.68-.08-3,.37-2.45,2.48-.54-2.11-6-4.62-2.13-5.08-1.87-.71-3.55-1.81-5.17-1.47l2.14,1.76c-6.6-1.53-9.24-5.36-14.45-3.52l1.93,2.15c-3.92-1-7.24-1.74-7.62-5.72,1.44.09,2.87.14,4.3.2-6.41-1.94-10.35-3.07-16.29-3l1.87.73c-2,.3-5.75,0-10.42-.68-2.34-.33-4.9-.72-7.57-1.16l-8.23-1.46c-11.12-2-22.24-3.8-26.15-2.82l2,3.71-6.2.31c.63.26,5.68-7.73,5.91-6.67-5.83-2-24-7.72-41.91-14-9-3.08-17.86-6.35-25.15-9.13s-13-5.18-15.45-6.65c-3.73-3.11.83-4.5,1-4.9-5.6-1-3.32,1.94-7.68,0-1-.94,1-2,1.88-2.09-2.07-.43-3.52-2-4.14-.86,2.06,1.89-.23,4.77,0,7.3L57,200.45l1.05-2c-1.25-.55-5.41,4.43-10.59,1.13-9.13-4.56-19.68-7.83-29-12.06.64-1.18,2.92-1.13,5.21-1.07-1.25-.56-3.32-1-4.14-2.36,1.43,3.09-4.56-.11-3.13,1.52-8.94,2.29-16.11-5.89-23.58-4.93-1.18,2.15-12.26,20.27-23.39,38.48S-52.89,255.69-54,258.38c-1.88-.88-3.89-1.82-4.31-2.51,0,.74.93,1.67,2.16,2.42a8.7,8.7,0,0,0,3.84,1.36l1.52-2.73c5.1.89.42,2.16,5.06,3.81-.7,2.46-5.12,1.26-8.93,0,3.24,1.64,5.88,4.71,8.27,2.67,2.74,2.24-1.51,2.74,1.86,5.26,3,.39,7.42-.49,10,2.12l-.22.4c6.53,5.42,12.89,1,18.79,6.1l-1.05.5c1.89,2.32,7.38,2.36,11.18,5.54-1.06-1-1.47-3.11,1.27-2.36,4.44,3.46,8.46,3.29,11.42,6.57l4.44-.95c4.33,1.83,12,4.63,21.35,7.91s20.39,7,31.45,10.68,22.2,7.22,31.65,10.3,17.33,5.49,21.82,7l-.83.13,25.23,8.07c4.82,1.54,9.84,3.21,15,4.84l15.86,4.92c21.34,6.56,43.24,12.49,58.42,15.11a21.67,21.67,0,0,0,7.13,4.14c2.68,1,5.51,1.78,7.83,2.78-2.42-1.72-1-3.14,1-2.48,7.31,2.12,7.67,1.78,8.09,1.28.21-.24.44-.53,1.56-.57a14.86,14.86,0,0,1,2.45.17c.56.07,1.2.16,1.93.28l3.81.82,3.52.62,4.21.78c3,.59,6.37,1.28,10.06,2.07,7.37,1.58,16,3.56,25.44,5.78,9.32-6.07,19.52-12.59,29.9-19.16,2.59-1.67,5.22-3.26,7.8-4.94l.8-.51.56-.34,1.12-.68,2.23-1.36,8.72-5.21c11.35-6.71,21.21-12.22,26-14.45,4.7-7.38,14.53-10.53,19.84-16.68l-.2,1.14a94.55,94.55,0,0,1,10.27-7c4.91-3,10.94-6.61,17-10.21,12.14-7.16,24.44-14.35,28.19-17.45l-1.37.25c5.95-6.39,7.08-2.44,13.36-4.91-2.89-3,2-8.73,4.2-10.44l.38.81c1.59-1.39,3.91-4.06,6.54-6.91a62.4,62.4,0,0,1,8.33-7.78l.92,2c1.82-2.49,5.14-4.92,8.43-7s6.53-3.72,8.21-4.85c2.11-1,4.58-2,7.25-3s5.46-2,8.31-3.25c1.42-.6,2.85-1.24,4.26-1.93s2.81-1.43,4.12-2.13a37.81,37.81,0,0,0,7.35-5.16l2.38.52c.79.17,1.47.46,2.21.68l4.27,1.46.57-1s-1.59-4.84-3.82-11.68c-2.37-7.09-5.57-16.69-9.31-26.61s-8.08-20.08-13-28.19-10.69-14-17.15-15.41l-.67-2.13-3.57,2c-4.51,1.13-5.06,4.35-5.84,2.26l5.52-2.62c-2.18.77-2.64.52-2.52-.15a4.85,4.85,0,0,1,.58-1.27c.13-.24.28-.49.42-.74s.34-.5.48-.75L500,137c-.43.16-.86.3-1.28.43a11.67,11.67,0,0,1-2.51.48c-.39,1.17,1,.51,1.83.61-1.77,1.82-3.73,5.23-6.78,5.71-2.06,1-2.56.23-3.14-.48A2,2,0,0,0,487,143a3.84,3.84,0,0,0-2.44.59l-9.1,4.38c-3,1.45-6.08,2.9-9,4.35l-8.77,4.37c-2.91,1.46-5.84,2.92-8.67,4.43-5.68,3-11.4,6-17,9.25s-11.1,6.56-16.59,10.11c-1-.47-.37-.81.05-1.56-6.14,5-12.21,8.39-17.72,13a7.14,7.14,0,0,1-4.37-1.11c1,.46-7,6.16-15.38,11.73-4.17,2.79-8.4,5.56-11.66,7.63A56.68,56.68,0,0,1,360.63,213.56Z"/><path class="cls-3" d="M155.88,166.18c-.19-.3-.45,0,0,0Z"/><path class="cls-3" d="M316.33,178.32c.08,0,.09-.07.16-.11-.43-1.13-.78-2.11-1-2.87Z"/><path class="cls-3" d="M347.5,169.91l.33.18C347.45,169.48,347.13,168.84,347.5,169.91Z"/><path class="cls-3" d="M269.12,209.7c-.08,0-.14.24-.19.66A2.85,2.85,0,0,1,269.12,209.7Z"/><path class="cls-3" d="M94.48,152l.17,0a5.68,5.68,0,0,1-.11-.81Z"/><path class="cls-3" d="M95.79,150.32c.42,1.08-.75,1.54-1.14,1.67.26,1.81,1,2.2,2,1.76C97.29,152,95.69,151.74,95.79,150.32Z"/><path class="cls-3" d="M270.3,301.07c-.29.12-.63.16-.9.3A.74.74,0,0,0,270.3,301.07Z"/><path class="cls-3" d="M2.56,127.44l1.19-2.69A18.39,18.39,0,0,0,2.56,127.44Z"/><path class="cls-3" d="M315.46,175.34l-.32-1.12A9.53,9.53,0,0,0,315.46,175.34Z"/><path class="cls-3" d="M374,156.1a20.7,20.7,0,0,0,1.33,1.8.16.16,0,0,1,.09,0Z"/><path class="cls-3" d="M527.35,101c-.25-.27-.51-.55-.8-.83l.85,2A1.62,1.62,0,0,0,527.35,101Z"/><path class="cls-3" d="M415.73,143.64c-.16-.3-.26-.61-.46-.92-1.16-.4-2.84.49-4.77,2l1.92,3.06Z"/><path class="cls-3" d="M503.75,183.72l-8.19-2.93c10.24-11.85,20.33-10.48,27-23.18l.41,1.68c1.26.07-.41-3.26,1.19-6.28s6.44-5.7,20.93-4.65l.45.56c.5-.56-.42-1.68,1.93-1.12l-5.64-1.13c.55-2.79-.17-6.69,1.76-8.91a6.92,6.92,0,0,1,2.88,2.1l4.73-5.49,4.7,2.19c.05-3.36-7.08-10.3,1-9.84-6.12-3.82-.44-5-3.26-7.23.78.46,2.11,1,3.28,1.54,2.16-2.88,5.83-8.59,4.93-12.51l-.93,0c-.58,0-1.39-.12-2.39-.22-2-.22-4.71-.56-7.63-1-5.87-.94-12.61-2.37-16.34-4,4.86-1.65.42-1.45-1.78-2.61l.85,1.51c-3.26.56-6-2.77-7.9-2.78.23.27.53.57.84.87l-.24-.56a3.24,3.24,0,0,1,1,1.39c.62.69,1,1.33.23,1.63l-.18-.45c-.51,1.25-2.52,2-3.41,2.37l-2.32-2.78c1.4,3.33-3,3.56-8,3.13s-10.67-1.55-11.82-.76c-5-1.78-4.2,4.82-8.37,5.24-5.1,2.56-5.47-2.4-9.6-3.12-4.14.37,3.17,2.88,2.22,3.93l-6.39-1.37c1.63-1.84-.75-2.74-2-3.57-3.21,1.75-11.75,0-8.2,6.35-5.95.22-7.72-2.09-9.58-1.11,1.35.63,3.17.74,4.07,1.89-3.48-1.36-.26,1.19.81,1.27-.23,2.14-5.27,1.87-9.72,1.85s-8.28.23-6.15,3.6l-.87-1.16c3,5.14,7.31,9.07,7.6,12.93L453,129.62l-.16,3.27c-2.27-.71-2.65-2.38-3.08-3-1.12,4.19-6.84,4.42-10.63,6.15l13,10.45c-5-.92-14.55-3.39-12.08,1.23l-4.85-3.18c-11.64-4.39-1.36,6.46-5.43,5.53l-6.24-2.81,2.89-1.91c-4.55-.46-6.77-1.22-11.22-2.82,0,.05,0,.1.07.15a1.59,1.59,0,0,1,.78.53l-.32.39c1.34,2.65,1,5.32-1.11,6.54-3.3,1.26-3.08,6.42-11.14,4.29l2.22,5.77-5.43-.69-2.65-4c3.5-2,8.78-7.72,12.88-10.88l-1.17-1.86c-2.52,1.74-4.18,5.49-6.14,6.21-1.36-.25-6.23-3-6.53-6.69l1.07,4.94c-4.08,3.06-6.1,4.65-8.59,5.59s-5.43,1.34-11.31,1.89l2.07,1.55c-1,2.3-2,4.58-4.61,1.59a25,25,0,0,1-9.42,2.41,21.2,21.2,0,0,1-10.05-2l2.17,5.3c-1.3.42-7.34-5.89-3.85,1.22L353,168.39c-1.77.53-1.09,3.87-4.49,2.1h0a6,6,0,0,1-.66-.39,4.66,4.66,0,0,0,.25.4c-4.75-.13,2.57,4.39-3.08,3.88-3.27-2.78,2.11,7-.52,7l-5.93-6c-5.79-2.1-2.47,5.4-7.67,8.16-3.86-1.22-8.22-6.74-9.47-13,1.24,7.76,1.24,4.82-.07,9.56-1.86-2.48-1.84-3.22-2.45-6-4.24-1.85-.34,3.27-2.4,4.1,2,5.43,5.47,14,5,14.62l1.59,1.21c-.78,3.83-2.56,6.34-6.35,5l-1.16-2.66-2.05,2.58-1.75-3.28-3.33,2.82.95.66c-.69.84-3.13,3.46-5.6,2.38l-.78-1.91c-3.66-1.92-5.56-.56-7.28,1.69s-3.22,5.25-5.88,6.66l-.8-4.19c-3.38-3.17,1.83,6.22-1.18,5.16l-1.94-4.79c.43,7.1-3.06-.31-5.23-2.3l2.94,6.14-3-.48c-3.52-1.16-4.47-7.49-5.26-11l-.09,5.67L273,196.67a8.3,8.3,0,0,1,.09,3c-.13.34-.24.12-.49-.15s-.5-.65-.72-.7-.1.11.05,1c-.62-2.18-.93-3.44-1.24-4.35a50.83,50.83,0,0,1,1.29,8.4c0-1.28-.14-2.55-.3-3.8l1.88,8.55c.3,3.36-.17,3.25-.56,2.58s-.8-1.9-1-.58c.05-.92.07-1.83.08-2.73-.54,2-1-.22-1.37-2.12-.08-.4-.16-.79-.24-1.11.17,1.64.6,4,.26,5.3-.28.57-.28-3.11-.52-4.06a29.81,29.81,0,0,1-.46,6.64c-.32,1.27-.78,1.47-1.06.12.07-.88.14-1.72.22-2.29-.12.52-.23,1.18-.34,1.53-.06.18-.11.28-.16.25s-.06-.06-.08-.15,0-.27-.06-.48c.27-2.24.51-4.5.74-6.8-.3,2.18-.65,4.21-1.07,6.27,0-.57-.14-.62-.27-.5-.32.32-.87,1.78-.31-1.41l.39-1.24-1-1.32-.44-.62-.21-.31-.11-.15-.24-.21,1.56-4.95c-1.3,3.31-1.68,2.42-2,1.8s-.63-1-2.22,3.13a5.37,5.37,0,0,0,.11-.78c0-.11,0-.21,0-.3a1,1,0,0,0-.14-.29,2.25,2.25,0,0,0-.95-.81,13.79,13.79,0,0,0-2.5-.67c-1.59-.41-2.55-1.26-.15-5.69-6.43-3.35-13.33,4.32-19.47-3.16.16-9-8.47-9.25-13.14-11.87-11-.18-18.3.64-29.09-.27-2-13.27-16.16-1.31-20.34-9.83l-3.29,3.85c-1.8-8.55-11.25-2.1-14.82-11-2.13,1.45-3.1,1.81-3.49,1.85.19.31.31,1.29-.52,4.16-1-2.56-5.3-1.25-3.13-6.81l.63-.44c2.18-5.57-6.05.88-6.27-4.65l-1,6.4-2.86-2.11,1.25-.87c-18.52,8.69-18.27-12.66-35.51-4.82,4-6-3.75,2.6-1.47-4.68-.2-10.21-6.76-.12-10.28,1.39a5.14,5.14,0,0,1-.64,1.26l-4.42-2.47c5.92-8.17-6,6.42-.74-.47-10-11-28.35-9.52-41.39-17.55l-.19,2.56c-3.42-1.69-8.87-.38-10.27-5.07s-8,3.87-9.18,3.88c-4.4,3-4.26-6-3.13-5.12-3.54,0-9.49,7.26-12.59,2.13,1.27-8.22-14.63,3.26-11.59-5.46l-.31.71c-1.67-4.05-4.69-4-7.83-3.85s-6.31.27-8.14-3.57a10.28,10.28,0,0,1,.78-1.09c-3.65,3.59-7.23,7.14-11,10.68s-7.37,7-11.27,10.42q-4.53,14.79-8.57,29.79l1.1,13.95,1.24,13.91c11.1,2.35,21.68,4.26,32.26,6.12l20.53,17.57q29.39,8.46,58.49,16.56l6.32-5.19c7.33,15.32,26.21,7,35.47,19.29l2.18-5.57c3.51.82,2.08,4.25,2.59,5.52,16,4.77,32.74,8.05,48.62,12.31s31,9.49,43.23,18.08c.61,2.34,3.11,3.7,5.49,5.07s4.6,2.73,4.84,5.06c5-1.38,7.81-2.3,15.64.14q1.23.34,2.46.72a7.45,7.45,0,0,0,1.26.35l1.48.11c2,.16,3.93.36,5.86.6,1,.12,2,.23,2.88.39l2.69.55c1.78.39,3.61.79,5.31,1.21l3.26.83c.55.13,1.06.3,1.64.41l1.77.33-.68.52,8,.06a1.69,1.69,0,0,1,.13,1.64,15.33,15.33,0,0,1,5.74-1.13,26.44,26.44,0,0,1,3.36-1.11c1.15-.32,2.32-.62,3.53-.85a64.18,64.18,0,0,1,7.56-1c2.6-.21,5.27-.33,7.92-.47l2-.1,1.88-.14,1.59-.14c.51-.05,1.11-.14,1.45-.14a5.3,5.3,0,0,1-.24.78c21.27-6.57,38.69-17.13,55.46-27.32s32.91-20.18,51.81-26.82a31.27,31.27,0,0,0,14-4.38,84.56,84.56,0,0,0,12.09-8.78c7.87-6.49,15.68-13.41,26.48-15.95,3.24,1.36,12.83-4.87,21.58-12.13a156.89,156.89,0,0,0,11.73-10.73C501.31,187.44,503.44,184.83,503.75,183.72Z"/><path class="cls-3" d="M546.5,139.86l-.1.12C548,141.92,547.58,141,546.5,139.86Z"/><path class="cls-3" d="M438.87,136.18l.24-.1-2.86-2.31Z"/><path class="cls-3" d="M478.85,103.32c-2.31.82-2,1.37-1.14,2A1.92,1.92,0,0,0,478.85,103.32Z"/><path class="cls-3" d="M558.8,123.32c1.12-.68-.23-1.5-1.9-2.29-.8,1.08-1.4,1.79-1.4,1.79C556.44,122.81,557.84,123.35,558.8,123.32Z"/><path class="cls-3" d="M532.76,100.6l-1-1.81C531.5,99.65,532,100.2,532.76,100.6Z"/><path class="cls-4" d="M-61.5,72.5c48.76,21.58,298.69,88,324.2,104.5C375,153.21,456.5,74.5,456.5,74.5l-294-122Z"/><path class="cls-5" d="M265,129.76c-.05-.26-.2.12,0,0Z"/><path class="cls-5" d="M305.21,68.9a1.42,1.42,0,0,0-.35-.11c-.7,1-1.33,1.86-1.85,2.5Z"/><path class="cls-5" d="M252.76,39l-.21-.44C252.3,39.27,252,39.9,252.76,39Z"/><path class="cls-5" d="M370,83.67a4.43,4.43,0,0,0,1.44,0C370.85,83.66,370.32,83.69,370,83.67Z"/><path class="cls-5" d="M161.39,102.94l.28,0a8.12,8.12,0,0,1-.41-.88Z"/><path class="cls-5" d="M163.14,101.33c1,1.23-.84,1.52-1.47,1.59.94,2,2.31,2.53,3.94,2.24C166.14,103.38,163.37,102.84,163.14,101.33Z"/><path class="cls-5" d="M524.41,58.06c.65.18,1.23.41,1.88.57A4,4,0,0,0,524.41,58.06Z"/><path class="cls-5" d="M-.71,61.34l1.22-2.7A10.46,10.46,0,0,0-.71,61.34Z"/><path class="cls-5" d="M303,71.29l-.84.89A5.73,5.73,0,0,0,303,71.29Z"/><path class="cls-5" d="M202.38,16.06a10.13,10.13,0,0,0,.59-2.18.3.3,0,0,1-.14-.08Z"/><path class="cls-5" d="M51.12-48.46l10.56,2.57C40.37-30.68,26.25-31.37,9.42-15.71l.34-2C6.11-17.63,12.2-2.4-28.71-3.07L-29-3.71c-1,.69-.35,2-3.44,1.44l7.55,1c-2.41,3.35-3.62,7.94-7.74,10.7a4.89,4.89,0,0,1-3-2.33l-10.1,6.79-5.48-2.39c-2.06,4,4.1,11.92-7.23,11.73,6.53,4.29-2.39,5.95.34,8.46a41.14,41.14,0,0,0-3.8-1.7C-66.72,33.47-75.58,40.4-76.34,44.8c0,0,27.13,1.87,36.06,5.42-8.19,2.27-1.53,1.77,1,3l-.32-1.76c5.17-.87,7.21,2.95,10,2.84a7.61,7.61,0,0,0-.7-1V54A2,2,0,0,1-31,52.39c-.49-.78-.63-1.54.68-2V51c1.53-1.54,5-2.63,6.53-3.09l1.73,3.17c0-7.81,26.78-2.41,31.24-4.54,6.53,1.68,9.27-6.25,15.81-7.16,9.26-3.63,6.85,2.33,12.69,2.74,6.54-.93-3.09-3.13-1-4.52l8.92.94c-3.6,2.41-.5,3.23.85,4.09,5.95-2.48,18-1.41,16.33-8.7,9.26-1,10.64,1.5,14.08.06-1.72-.57-4.45-.46-5.16-1.74,4.56,1.18,1.09-1.47-.5-1.43,3.18-5.26,30.41-1.35,27.64-8.86l.68,1.27c-1.7-5.78-6.15-9.91-4.44-14.53l3.42,1.16,2.07-4c3.1.52,2.76,2.48,3.11,3.12,4-5.26,13-6.37,19.83-9.13L109-10.7c7.2.36,20.59,1.76,19.23-3.4l5.82,3c15.8,3.26,5.5-8,11.33-7.62.67.2,1.43.35,2,.59s1.06.54,1.58.82c1,.57,2,1.15,2.95,1.77l-1.65.82-2.14,1.09,1.25-.05h.28l.2.05.38.09a13.9,13.9,0,0,1,1.4.4,15.35,15.35,0,0,1,2.35,1,20.31,20.31,0,0,1,4.29,3c0-.06,0-.11,0-.17a1.78,1.78,0,0,1-.5-.73l.32-.33a7.89,7.89,0,0,1,.32-4.2,4.61,4.61,0,0,1,2.38-2.65,8.07,8.07,0,0,0,3.07-2.06,6.21,6.21,0,0,1,3.26,1.17,11.69,11.69,0,0,1,3.66,5c.74-1.86,1.56-3.7,2.46-5.5,1.12,1.76,2.1,3.47,2.94,5.11l-1.62,4.52a21.37,21.37,0,0,0-4.85-1.53c-1.86-.42-3.78-.75-5.47-1.13-.81.59-1.54,1.1-2.21,1.51l.26,2.35a9,9,0,0,0,2.05-1.78c1.31-.1,2.73-.35,3.63.36a12.92,12.92,0,0,1,.76,4.36,13.86,13.86,0,0,1-.93,5.51A42,42,0,0,1,169.6-3.6c1.49.47,2.65.82,3.59,1.2l1.73.73,1.77.8c1.13.53,2.19,1.07,3.23,1.65,4.18,2.34,8.17,5.4,16.05,11.61l-.63-2.87c4.08.16,8.14.35,7.63,4.36,10.4,5.18,20.33,12.57,25,21.07l3.68-4.59c2.15,1.23,2.26,10.53,6.4,3.67l5.78-.3c2.93,1.68,6.06-.51,8.34,3.94h0l0,0c.14.27.28.57.41.89.06-.16.1-.31.14-.45,6,5.21,1.87-4.71,8.63,1.62,1,4.78,5.6-5.45,9-2.65l.81,9.12c5.29,7.23,9.61.22,19.87,4.45a11.45,11.45,0,0,1-2.08,16.41c7.33-5,3.9-3.63,11.21-4.46-.26,3.21-1.14,3.54-3.5,5.54,3.9,5.5,4.31-1.2,8.22.62,3.37-4.85,8.21-12.76,9.65-12.57l-.85-2.3c5.39-1.09,10.54-.51,14.34,4.2l-1.3,2.6,5.78.8-1.09,3.56,7.88,2-.63-1.34A28.68,28.68,0,0,1,343.76,67c.53.18,1.06.39,1.59.62.26.11.52.23.77.36a2,2,0,0,1,.34.18l.12.1a2,2,0,0,1,.64,1.25l-.94,1.84c0,1.74.25,2.57.8,2.91s1.4.19,2.51-.1,2.48-.71,3.9-1a10,10,0,0,1,4-.07q-2.19,1.36-4.28,2.77c-2.8,3.36,6.24-4.41,5.9-2.29l-5,3.49c3.93-2,4.11-1.57,2.79-.46s-4,2.91-5.18,3.81c2.45-1.42,4.85-2.87,7.21-4.33a8.47,8.47,0,0,1-.07,1.52c-.5,1-3,2.28-5.88,3.57l-8.3,3.62c2.31-1,4.74-1.88,7.28-2.74-2.55,1.09-5.12,2.18-7.72,3.25,4.7-1.8,4.51-1.58,3.67-1.19s-2.26,1,.7.18c-3.24,1.1-5.18,1.7-6.5,2.19a137.53,137.53,0,0,1,13.83-3.37q-3.44.58-6.57,1.31l13.39-3.89c5.79-1.18,6.13-.78,5.35-.28s-2.54,1.16.06.92c-1.72.22-3.41.46-5.06.71,2.53-.09,2.33.25,1,.69s-3.6,1-5,1.46c2.79-.59,6.64-1.6,9.39-1.7,1.37.06-5.36,1.1-6.79,1.55a124.29,124.29,0,0,1,12.69-1.54c2.72-.12,3.65.18,1.51.78-1.68.19-3.31.38-4.44.48,1.08-.06,2.43-.16,3.21-.18.4,0,.65,0,.66.06s-.05,0-.18.1-.52.13-.91.21l-6.52.63-6.72.71c2.3-.22,4.17-.34,6.19-.47s3.94-.22,5.88-.3c-2,.4-.88.54-.34.7s.52.32-3.68.58l-2.27-.06c-2.14,1.07-4.18,2-6.11,2.8l-9-.24c6,.26,4.46.56,3.42.72s-1.64.32,5.49,1c-4.18-.13-3.32.38-3.5.8-.07.19-.37.33-1.51.23s-3.12-.46-6.68-1.17c-.57.17-.18.48.48.94a19.3,19.3,0,0,1,2.28,1.66c.68.61,1.07,1.24.8,1.69s-1.24.67-3,.35c-4.62-2.2-6.23-2.91-7-3s-.87.48-1.48.31c.05.22.08.46.11.69l0,.36V93l-.25.22-4.08,3.58c-2.63,2.38-5.21,4.48-7.79,6.68s-5.26,4.23-8.12,6.37c-1.44,1-2.93,2.1-4.49,3.18l-2.4,1.64-2.54,1.61c-6.78-3.57-11.85-.46-17,3.18s-10.35,7.79-16.25,6.09l-1.36,5.31c-7-2.7-6-1.31-8-.51a1.53,1.53,0,0,1-1.35.06,1.63,1.63,0,0,1-.6-.6,7.47,7.47,0,0,1-.39-1.64c0-.27-.07-.56-.1-.86a6.09,6.09,0,0,1-1.46,2.47,17.44,17.44,0,0,1-.53,4.23c-.21-1.24-.86-1.35-1.27-1.9a1.75,1.75,0,0,1-.26-1.28c.17-.61.53-1.5,1-2.89.08-.2.12-.4.21-.58.26-.7.4-1.2.55-1.51s.45-.37-.22-.68a15.1,15.1,0,0,0-4.19-.87c-3.27-.34-7-.7-7.93-3.79l-.17,6.74-5.61-3.11,2-.61c-15.18,2.27-23.65-2-32.08-6.47s-16.53-8.87-30.1-6.26c5.14-5.72-5.67,2.1-3.75-5.28-3.09-11-11.5-1.34-17-.34a3,3,0,0,1-.73,1.24l-8.15-3.4c7.8-7.74-8.35,5.84-1.38-.64-19.86-13.5-50.51-14.92-74.78-25.63L81,79.44c-6.25-2.36-15.08-1.85-18.77-7.11S49.78,75.18,47.79,75c-6.54,2.49-8.89-7.1-6.74-6-6-.59-13.91,6.23-20.62.19-.26-8.61-23.69,1-21.14-7.85l-.32.71c-4-4.66-9.1-5.13-14.36-5.56S-26,55.62-30.14,51.06a6.57,6.57,0,0,1,1-1l-7.52,4.76-7.57,4.69Q-48,61.77-51.89,64c-2.53,1.48-5.1,2.92-7.78,4.33q-1.63,7.65-3,15.44c-.9,5.17-1.62,10.45-2.4,15.63q1.43,3.88,2.94,7.82l3,7.73,6.05,15.35c9.41,2.25,18.61,4.31,27.73,6.25s18.19,3.82,27.24,5.66l39.1,22,102.14,27.06,9.18-4.47c8.1,8.8,19.39,11.8,30.94,14.49s23.33,5.12,31.82,12.61l2.36-5.51a8.17,8.17,0,0,1,3.08,1.47,4.07,4.07,0,0,1,1.2,1.79c.41,1.22.25,2.42.74,3.15l2.38.78,1.2.39,1.11.38,2.22.75.28.09.63.23,1.37.49,2.44,1,10.26,1.43c1.68.26,3.24.58,4.86.86l4.77.86,4.75.88,5.16.65,10.27,1.28c2.69-.67,5.35-1.42,8-2.17l8-2.23,4-1.11,2-.56c.38-.1.55-.17.76-.24l.64-.22,4.79-1.67L307,215c1.59-.56,3.15-1.18,4.72-1.77,3.12-1.22,6.28-2.34,9.35-3.64,12.37-4.94,24.33-10.36,35.93-15.91,2.92-1.34,5.76-2.8,8.64-4.17s5.69-2.8,8.52-4.2l4.23-2.08,4.18-2.11,4.17-2.08.55-.27.84-.45,1.66-.89,3.34-1.78c17.84-9.41,35.07-19.34,51.88-29.51a45.44,45.44,0,0,0,9.83-4.67c3.55-2.19,7.32-4.85,11.08-7.46s7.21-5.28,10.56-7.44a38.56,38.56,0,0,1,8.84-4.73c.81-1.35,1.72-2.67,2.52-4s1.61-2.62,2.46-3.91c1.72-2.58,3.48-5.09,5.34-7.56A175.45,175.45,0,0,1,508,91.94c4.45-4.74,9.23-9.45,14.25-14.21,2.52-2.38,5.1-4.77,7.73-7.2l4-3.66,1-.93.26-.24,0,0,0,0-.07,0-.12-.08-.51-.3-2-1.22,1.92.35L522,58.58a3.41,3.41,0,0,1,2.42-.52A71.57,71.57,0,0,1,500,46.2c-6.69-4.89-12.64-10.56-18.76-15.45l1.71.17-8.11-4.77-2-1.19a10.7,10.7,0,0,0-1.08-.59l-1.33-.55-5.35-2.21q-10.71-4.41-21.43-8.71C429.37,7.17,415.14,1.61,401.1-3.8l-20.93-8-11.39-4q-11.16-3.9-22.26-7.81c-29.59-10.53-58.77-21.88-87-38.13C249.26-70.5,236.6-75.7,223.21-80.38l-10.14-3.46-5.13-1.75-9.61-3.66c-12.92-5-25.7-10.18-38.68-16.19C151-101.24,142.16-97.35,133-93.8c-1.58,0-4.85,1.09-9.43,3-2.29,1-4.9,2.17-7.79,3.54l-4.43,2.14-2.48,1.14c-6.81,3.23-15.16,7.8-23.36,12.6C69.06-61.72,53.18-51.15,51.12-48.46Z"/><path class="cls-5" d="M123.91-.32l-.43.15,3.19,2.33Z"/><path class="cls-5" d="M43.5,45.11c4-1.26,3.91-1.89,2.92-2.51A5,5,0,0,0,43.5,45.11Z"/><path class="cls-4" d="M109.5,75.24c18.87,9,115.61,36.84,125.49,43.76,43.48-10,75-42.92,75-42.92L196.2,25Z"/><path class="cls-5" d="M236,71.77c0-.25-.07.16,0,0Z"/><path class="cls-5" d="M237.3,101.34c-.05,0-.09,0-.14,0-.59,1.06-1.1,2-1.51,2.64Z"/><path class="cls-5" d="M218.92,84.88v-.35C218.64,85.19,218.32,85.83,218.92,84.88Z"/><path class="cls-5" d="M291.29,113.3c.16.15.37,0,.61-.37A1.31,1.31,0,0,1,291.29,113.3Z"/><path class="cls-5" d="M203.75,67.47l.13-.07c0-.25,0-.44,0-.76Z"/><path class="cls-5" d="M204.84,65.67a1.62,1.62,0,0,1-1,1.73c.05,1.74.56,2,1.35,1.51C205.81,67.14,204.66,67.06,204.84,65.67Z"/><path class="cls-5" d="M129.34,48.28l.46-.63A3.43,3.43,0,0,0,129.34,48.28Z"/><path class="cls-5" d="M326.43,29.39c.17-.11.33-.13.5-.26C326.79,29,326.61,29.16,326.43,29.39Z"/><path class="cls-5" d="M139.49,53.85l1.07-2.74A28,28,0,0,0,139.49,53.85Z"/><path class="cls-5" d="M235.65,103.94l-.63,1C235.18,104.7,235.4,104.35,235.65,103.94Z"/><path class="cls-5" d="M204,76.09c.28-.86.5-1.55.67-2.15a0,0,0,0,1,0,0Z"/><path class="cls-5" d="M120.19,65.21c.19.32.4.64.62,1l-.67-2A1.71,1.71,0,0,0,120.19,65.21Z"/><path class="cls-5" d="M195.46,60.9c0,.37.06.72.11,1.11.35.93.87.89,1.5.39l-.32-4Q196.06,59.69,195.46,60.9Z"/><path class="cls-5" d="M135.81-1.77l6.38,4.69c-7.14,8-14.9,4.09-19.52,13.53l-.37-1.61c-1.94-.81,5.62,13.65-16.51,3.46l-.36-.63c-.36.35.37,1.6-1.44.42l4.33,2.63c-.34,2.31.3,5.94-1.13,7.34a9.76,9.76,0,0,1-2.25-2.69l-3.5,3.43-3.61-3.33c0,2.93,5.55,11.16-.57,8.34,4.71,5.21.4,4.53,2.56,7.31-.59-.63-1.61-1.51-2.51-2.34-1.6,1.84-4.4,5.69-3.56,9.28,0,0,15.07,8,20.85,13.11-3.75,0-.32,1.16,1.39,2.83l-.67-1.58c2.53.47,4.7,4.22,6.15,4.77-.18-.3-.42-.65-.66-1l.19.56a4.57,4.57,0,0,1-.81-1.53c-.49-.79-.77-1.46-.19-1.5l.14.44c.39-1,2-1.07,2.63-1.11l1.83,3.13c-2.21-6.69,13.67,4.23,15.46,3.46,4,3,3.21-3.17,6.46-2.41,3.94-.94,4.33,3.6,7.58,5.32,3.24.75-2.54-3.4-1.82-4.1l5,2.89c-1.24,1.23.65,2.66,1.62,3.71,2.48-.73,9.24,3,6.29-3.61,4.68,1.29,6.13,3.79,7.57,3.37-1.08-.9-2.52-1.45-3.26-2.7,2.78,2.07.17-1-.66-1.35.22-3.75,15.91,6,12.31-1.08l.73,1.25c-2.54-5.35-6.09-9.93-6.47-13.48l2.16,1.8,0-2.93a7.15,7.15,0,0,1,2.55,3.4,2.87,2.87,0,0,1,1.1-1.86,2.06,2.06,0,0,1,1.38-.34c1.08,0,2.33.48,3.22.42a153.84,153.84,0,0,0-8.75-13.54c1.76,1.13,4.14,3,5.73,4s2.53,1.19,1.83-1.4q1.4,2.33,2.67,4.71c1.52,2.11,2.21,2.88,2.55,2.81s.3-1,.17-2.05c-.26-2.19-.89-5.2.07-4q1.44,2.58,2.65,5.29l-1.28.62c1.92,2.34,2.73,4.1,4.11,7.74l0-.18a4.25,4.25,0,0,1-.23-.88l.12-.23c-.35-3.2,0-5.72.83-6,.52.1.9-.78,1.39-1.42.66-.17,1.61.33,2.58,4.72.2-2.11.42-4.21.68-6.3.49,1.54.93,3,1.31,4.53l-.42,5.07c-.92-.66-2.51-.25-3.75-.14a7.5,7.5,0,0,1-1,1l.19,2.42a3.85,3.85,0,0,0,.93-1.46c.42-.41.87-.84,1.19-.4a29.81,29.81,0,0,1,.46,4.31,40.75,40.75,0,0,1-.12,5.91c.13-1.65.29-3.3.48-4.93,1.14.22,1.78.29,2.28,1.13s.91,2.44,1.12,5.51l.46-2.43c.77-1.21,1.72-2.29.6,1.48a3.1,3.1,0,0,1,.51,1.36,5.69,5.69,0,0,1,.07,1,5.15,5.15,0,0,1,0,.55c0,.06,0,.09,0,.16l.12.21.24.44a19,19,0,0,1,2.19,8.57l2.91-4.89c.75.68-1.44,9.06,2.23,2l2.9-1.43c1,.93,3.07-1.69,3.11,1.88h0s0,0,0,0c0,.22,0,.46,0,.73.07-.16.12-.3.18-.44,1.69,3.5,2.05-4.63,3.82-.27-.65,4.11,4-6,5-4.2l-1.8,8.08c.83,5.47,4.63-1.74,8.61,0,.73,3.49-1.18,10.22-5,15.26,4.78-6,2.77-4.07,6.54-6.29-.9,3-1.41,3.43-3.05,5.71.58,4.19,2.4-2,3.87-1.1,2.8-5,7.07-13.18,7.73-13.3l.14-1.9c2.89-2.08,5.26-2.59,6,.9l-1.26,2.61,2.62-.43L251,92.62l3.36.25V91.78c.88-.14,3.63-.31,4.11,2l-.89,1.85c1,7.47,7.37,1.13,11.85,2.39l-2.27,3.59c-.28,4.45,3-5.72,3.89-3l-2,4.74c4.28-5.51,1.35,2.19,1.34,5l2.28-6.38,1.37,2.17c1.23,3-2.18,8.39-3.95,11.48l3.65-4.21L271.54,117c3.91-5.86.61,1.49,4-1.06-.77,2.13-1.78,3.09-1.53,4.26l6.53-6.3-3.39,2.57,3.8-7.85c4.65-5.17,2.24,2,4.62.45l-2,1.93c3.13-.92,1.73,2.52,2.22,4.86.27-1.66.65-4.13,2-4.76.87-.13-.89,3-.65,4.13,2.53-5.23,5.41-7.31,5.76-4.16a15,15,0,0,1-1,1.9c.75-.69,1.56-2,1.64-.4l-3,5.72,1.4-1.86L278.08,45.54c.51.4,1,.8,1.52,1.21a3.42,3.42,0,0,1,.67.7l.61.76c-.8-.45-.43.22-.38.72s0,.69-1.5-.91l-.65-1.16L273.74,49l-3.45-3.85c2.15,2.84,1.19,2.79.44,2.83s-1.32.2,1.59,3.55c-1.93-1.54-2.12-.27-2.59.39s-1.21.66-4.1-3.43c-1.56.71-1.18,3.29-1.33,5.48s-.67,4.14-3.81,3.29c-3-3.08-4.91-3.48-6.41-3.11S251.5,55.72,250.2,56c-.59,1.35-1.12,2.66-1.63,3.93-.25.64-.51,1.27-.75,1.88L247,63.59c-.53,1.17-1.09,2.33-1.74,3.51-.32.61-.67,1.13-1,1.7s-.83,1.15-1.17,1.68a18.3,18.3,0,0,0-2.49-3.75c-.3-.18-.27.53-.26,1.43a8.12,8.12,0,0,1-.2,2.44c-.2.46-.57.31-1.08-1.3.19,1.6.35,3.22.47,4.85-.63-2.39-.93-3-1.22-3s-.57.75-.91.85c-.17,0-.34,0-.5-.49a8.7,8.7,0,0,1-.34-2.61,15.38,15.38,0,0,1-.53,2.84c0,.26,0,1.22-.15,4.37-.11-1.43-.46-1.1-.59-2a18.32,18.32,0,0,1,.27-4.06l.14-.6c.36-3.06.16-2.39-.14-1.66s-.75,1.52-.33-1.08c-.4,2.13-.76,4.26-1.1,6.41-.13-.43-.24-.86-.34-1.28l.41-1.16c-1.32,3.29-2.48,4.35-3.22,4.41h-.19l-.17-.06a5.66,5.66,0,0,1-.72-.28,8.32,8.32,0,0,1-1.33-.76,20.57,20.57,0,0,1-2.38-2c-3-2.81-6-5.74-12.61-1.11,3.43-6.22-3,2.87-.69-4.41.67-9.88-5,.55-7.65,2.37a7,7,0,0,1-.56,1.29l-3-2c5-8.53-4.84,6.84-.5-.38-6.39-9.67-19.8-6.25-28.57-12.57l-.33,2.5c-2.34-1.26-6.35.61-7-3.77s-6.05,4.66-6.89,4.8c-3.38,3.39-2.6-5.29-1.85-4.59-2.54.41-7.37,8.1-9.18,3.51,1.56-8.09-10.73,4.86-7.83-3.9l-.29.72c-.84-3.71-3-3.26-5.22-2.76s-4.5,1-5.29-2.39c0,0,.31-.61.65-1.14L125,54.11c-1.43,1.94-2.93,3.86-4.4,5.78s-2.94,3.83-4.48,5.71-3,3.74-4.67,5.56q-2.79,7.19-5.24,14.52c-1.65,4.88-3.12,9.85-4.65,14.76q-.09,3.34-.06,6.74l-.06,6.69v13.36c4.21.58,8.18,1,12.06,1.4s7.68.7,11.46,1l13.52,14.71,40.34,9.56,4.92-5.69c1.89,7,6.26,8,10.77,8.58,1.12.15,2.26.27,3.36.46a15.44,15.44,0,0,1,3.14.84l1.14.49c.5.21,1,.44,1.46.68a31.9,31.9,0,0,1,2.83,1.6l.68.46.35.23.17.12.18,0c.51.12,1,.26,1.5.42a22.25,22.25,0,0,1,2.91,1.15l1.66-5.65a2.67,2.67,0,0,1,2.41.61,3.3,3.3,0,0,1,1,1.47c.41,1.07.4,2.22.85,2.82l7.45,1.26,5.2.82,2.44.39c.88.1,1.84.18,2.75.27,3.7.36,7.37.66,11,.94,7.63-2.85,15.14-5.42,22.26-9l5.35-2.43c1.79-.82,3.47-1.73,5.14-2.62l3.91-2.13,1.83-1,1.78-1c9.6-5.27,18.62-10.13,28.36-13.47,2.19.92,4.5-.27,6.77-1.41s4.49-2.26,6.57-1.24a33.71,33.71,0,0,1,2.32-7,31.52,31.52,0,0,1,3.44-5.65,44.28,44.28,0,0,1,4.32-4.79c.78-.75,1.63-1.56,2.47-2.31l1.38-1.24.71-.64,1.08-1,44.65-42.4L329.67,32.26l-1-.59.5-.5-3.36-.25a3.85,3.85,0,0,1,.63-1.53C321,32.75,318,25.66,314.87,21.9l.5-.49c-22.9-11.47-49.14-11-68.88-29a16.62,16.62,0,0,0-1.15-2c-.21-.31-.42-.6-.64-.88a1.86,1.86,0,0,0-.19-.22l-.36-.29-.75-.58A53.84,53.84,0,0,0,237-15.7a100.3,100.3,0,0,0-14.26-6.22c-4.91-1.78-9.86-3.37-14.78-5.18a102.89,102.89,0,0,1-14.78-6.62A48.57,48.57,0,0,1,182-30c-1.27-1-5.16.31-10.37,2.89a197.11,197.11,0,0,0-18,10.51c-3.15,2-6.26,4.12-9.15,6.14L142.37-9c-.32.29-.65.57-1,.84-.63.56-1.22,1.1-1.77,1.63C137.45-4.46,136-2.68,135.81-1.77Z"/><path class="cls-5" d="M104.94,25.37l.08-.08C103.75,23.12,104.09,24,104.94,25.37Z"/><path class="cls-5" d="M186,57.94h-.12c.59,1,1.17,2.06,1.73,3.1Z"/><path class="cls-5" d="M158.08,76.5c1.8-.13,1.56-.7.86-1.46C158.35,75.21,158,75.63,158.08,76.5Z"/><path class="cls-5" d="M95.84,36.18c-.84.26.19,1.4,1.47,2.6.6-.71,1-1.14,1-1.14C97.65,37.36,96.57,36.46,95.84,36.18Z"/><path class="cls-5" d="M116,64l.79,1.9A2,2,0,0,0,116,64Z"/><path class="cls-4" d="M242,64.27C223.68,54.21,128.61,21.14,119.14,13.68c-44,7.56-77.26,38.73-77.26,38.73l110.81,57.26Z"/><path class="cls-5" d="M115.51,60.78c0,.25.08-.15,0,0Z"/><path class="cls-5" d="M115.86,31.19s.09,0,.14,0c.64-1,1.2-1.89,1.65-2.55Z"/><path class="cls-5" d="M133.3,48.64c0,.13,0,.22,0,.35C133.6,48.34,134,47.72,133.3,48.64Z"/><path class="cls-5" d="M62.6,16.28c-.15-.16-.37,0-.62.33A1.3,1.3,0,0,1,62.6,16.28Z"/><path class="cls-5" d="M147.49,66.85l-.13.06a7.14,7.14,0,0,1,0,.77Z"/><path class="cls-5" d="M146.3,68.59a1.64,1.64,0,0,1,1.06-1.68c0-1.73-.45-2.06-1.27-1.57C145.42,67.07,146.56,67.21,146.3,68.59Z"/><path class="cls-5" d="M220.73,90.11l-.48.6A4.65,4.65,0,0,0,220.73,90.11Z"/><path class="cls-5" d="M22.9,98.13c-.18.1-.33.11-.51.23C22.53,98.49,22.71,98.35,22.9,98.13Z"/><path class="cls-5" d="M210.91,84l-1.23,2.67A26.4,26.4,0,0,0,210.91,84Z"/><path class="cls-5" d="M117.65,28.68l.67-.94C118.15,28,117.92,28.28,117.65,28.68Z"/><path class="cls-5" d="M147.73,58.23c-.33.85-.58,1.52-.79,2.11v0Z"/><path class="cls-5" d="M230.8,73.7c-.17-.32-.36-.66-.57-1l.56,2.06A1.64,1.64,0,0,0,230.8,73.7Z"/><path class="cls-5" d="M155.41,73.87c0-.37,0-.72,0-1.12-.3-1-.82-.93-1.47-.47l.09,4C154.49,75.46,155,74.66,155.41,73.87Z"/><path class="cls-5" d="M211.53,139.73l-6.12-5c7.57-7.59,15.1-3.26,20.23-12.43l.28,1.62c1.89.92-4.85-13.94,16.68-2.54l.32.64c.38-.33-.28-1.62,1.46-.34l-4.17-2.86c.47-2.29,0-6,1.53-7.27a9.71,9.71,0,0,1,2.09,2.81l3.69-3.23,3.42,3.52c.14-2.93-4.93-11.45,1-8.29-4.41-5.46-.15-4.55-2.16-7.45.56.67,1.53,1.6,2.39,2.49,1.69-1.76,4.7-5.45,4.06-9.08,0,0-14.61-8.79-20.1-14.23,3.75.18.38-1.14-1.23-2.91l.58,1.62c-2.5-.61-4.46-4.47-5.87-5.1.15.31.37.67.59,1l-.15-.57a4.63,4.63,0,0,1,.72,1.57c.44.81.69,1.51.1,1.52l-.11-.46c-.44.94-2,1-2.69,1l-1.65-3.22c1.84,6.8-13.42-5-15.25-4.31-3.81-3.19-3.38,3-6.58,2-4,.72-4.12-3.83-7.27-5.73-3.2-.92,2.35,3.54,1.59,4.2l-4.88-3.17c1.31-1.16-.5-2.69-1.41-3.79-2.52.59-9.06-3.53-6.48,3.26-4.6-1.55-5.92-4.12-7.38-3.78,1,.95,2.44,1.58,3.11,2.87-2.66-2.22-.22,1,.59,1.38-.42,3.74-15.56-6.86-12.36.41l-.65-1.29c2.24,5.48,5.53,10.25,5.72,13.81l-2.06-1.91L173,79.43a7.09,7.09,0,0,1-2.36-3.53,2.91,2.91,0,0,1-1.2,1.8,2.11,2.11,0,0,1-1.39.26c-1.08-.1-2.3-.61-3.2-.6a150.28,150.28,0,0,0,8,14c-1.7-1.22-4-3.23-5.5-4.36s-2.46-1.33-1.9,1.3c-.84-1.6-1.65-3.21-2.41-4.85-1.4-2.19-2-3-2.39-2.94s-.35.93-.28,2c.14,2.2.6,5.25-.29,4q-1.29-2.66-2.35-5.42l1.31-.55c-1.79-2.45-2.5-4.24-3.68-8,0,0,0,.12,0,.17a4.89,4.89,0,0,1,.18.9l-.13.22c.17,3.21-.29,5.71-1.16,5.93-.51-.13-.94.73-1.46,1.34-.67.13-1.59-.42-2.32-4.86-.31,2.1-.66,4.18-1,6.25q-.62-2.34-1.05-4.59l.69-5c.88.71,2.5.38,3.74.35a7.5,7.5,0,0,1,1.07-1l-.07-2.43a3.92,3.92,0,0,0-1,1.41c-.45.39-.92.79-1.21.34a30.57,30.57,0,0,1-.23-4.33,42.77,42.77,0,0,1,.45-5.9c-.22,1.65-.47,3.28-.75,4.9-1.13-.28-1.76-.39-2.21-1.25s-.78-2.49-.82-5.57l-.6,2.4c-.83,1.17-1.84,2.2-.51-1.51A3.21,3.21,0,0,1,146.5,59a6.09,6.09,0,0,1,0-1c0-.17,0-.36.06-.55s0-.08,0-.16l-.11-.21-.22-.45a19.06,19.06,0,0,1-1.72-8.68l-3.17,4.72c-.71-.72,1.94-9-2.11-2.15l-3,1.27c-1-1-3.17,1.52-3-2.05h0s0,0,0,0q0-.33.06-.72l-.2.42c-1.5-3.58-2.3,4.52-3.83.06.87-4.07-4.37,5.83-5.25,3.92l2.24-8c-.53-5.52-4.72,1.47-8.6-.5-.53-3.53,1.75-10.14,5.8-15-5.11,5.73-3,3.9-6.88,5.91,1.06-2.89,1.6-3.34,3.35-5.53-.35-4.21-2.49,1.82-3.91.88-3.08,4.9-7.8,12.78-8.46,12.86L107.3,46c-3,1.91-5.4,2.28-5.92-1.24l1.4-2.54-2.64.29,1.57-3.35-3.34-.44L98.3,39.8c-.88.09-3.64.11-4-2.25l1-1.81c-.55-7.5-7.29-1.52-11.69-3l2.46-3.45c.52-4.43-3.35,5.55-4,2.83l2.28-4.62c-4.57,5.26-1.23-2.26-1.06-5.06l-2.63,6.25L79.36,26.4C78.3,23.33,82,18.15,83.93,15.16l-3.87,4,2.47-5.44c-4.23,5.62-.53-1.53-4.07.83.89-2.08,2-3,1.77-4.17l-6.87,5.93,3.52-2.38-4.22,7.63c-4.93,4.91-2.12-2.16-4.59-.7L70.19,19c-3.17.74-1.59-2.61-1.94-5-.36,1.64-.88,4.08-2.29,4.63-.88.09,1.05-2.9.87-4.08-2.81,5.09-5.8,7-6,3.83A14.55,14.55,0,0,1,62,16.61c-.8.65-1.67,1.88-1.67.31l3.34-5.54-1.49,1.78,9.91,71.5c-.49-.42-1-.85-1.45-1.29a3,3,0,0,1-.63-.74l-.57-.79c.78.5.44-.19.42-.7s.06-.69,1.44,1l.59,1.19,4.72-1.83,3.23,4c-2-3-1-2.85-.29-2.85s1.34-.13-1.39-3.63c1.85,1.64,2.11.39,2.61-.25s1.25-.59,3.91,3.65c1.6-.62,1.36-3.22,1.63-5.39s.89-4.1,4-3.08c2.86,3.24,4.72,3.74,6.23,3.45s2.67-1.47,4-1.68c.67-1.33,1.26-2.6,1.84-3.85l.86-1.83.88-1.72c.6-1.14,1.22-2.27,1.93-3.41.36-.59.73-1.09,1.14-1.64s.88-1.11,1.26-1.62c1.36,2.66,2,3.68,2.28,3.88s.29-.51.34-1.41a8.07,8.07,0,0,1,.33-2.43c.22-.44.58-.27,1,1.37-.1-1.62-.17-3.24-.2-4.87.5,2.41.77,3,1.06,3s.61-.71,1-.79c.17,0,.33.07.47.52a9.18,9.18,0,0,1,.2,2.63,14.44,14.44,0,0,1,.68-2.82c0-.25,0-1.22.39-4.35,0,1.44.4,1.12.48,2a18.66,18.66,0,0,1-.5,4l-.17.59c-.52,3-.29,2.38.05,1.66s.83-1.47.28,1.11c.5-2.11,1-4.22,1.44-6.35.11.44.2.88.28,1.3l-.48,1.13c1.49-3.21,2.72-4.21,3.45-4.22h.2l.16.06c.24.1.48.21.71.33a8.24,8.24,0,0,1,1.28.83A20.62,20.62,0,0,1,125.35,61c2.87,3,5.62,6.06,12.53,1.81-3.76,6,3.13-2.71.45,4.44-1.22,9.82,5-.27,7.76-1.94a6.78,6.78,0,0,1,.64-1.26l2.91,2.11c-5.42,8.25,5.21-6.56.48.41,5.85,10,19.43,7.32,27.83,14.12l.47-2.48c2.27,1.38,6.38-.26,6.79,4.15s6.29-4.32,7.14-4.41c3.56-3.2,2.3,5.42,1.6,4.68,2.55-.27,7.8-7.69,9.36-3-2,8,11-4.26,7.6,4.33l.32-.71c.64,3.76,2.8,3.42,5.06,3s4.56-.8,5.16,2.67c0,0-.34.59-.72,1.11l4.65-5.59c1.54-1.85,3.14-3.69,4.71-5.53s3.15-3.65,4.79-5.45,3.23-3.57,5-5.3q3.17-7,6-14.2c1.92-4.79,3.66-9.67,5.46-14.49.18-2.22.33-4.47.43-6.72l.43-6.68.74-13.34c-4.17-.82-8.11-1.48-12-2.06s-7.63-1.12-11.38-1.64L216.89-6.32,177.13-18.09l-5.22,5.42c-1.5-7.1-5.81-8.32-10.28-9.16-1.11-.21-2.24-.4-3.33-.65a14.71,14.71,0,0,1-3.09-1L154.09-24c-.47-.24-1-.5-1.41-.76a29.48,29.48,0,0,1-2.74-1.75l-.66-.5L149-27.3l-.17-.13-.18-.05q-.75-.22-1.47-.51a20.78,20.78,0,0,1-2.84-1.31l-2,5.55a3.62,3.62,0,0,1-1.46-.14,3.49,3.49,0,0,1-.92-.6A3.36,3.36,0,0,1,139-26c-.35-1.1-.27-2.25-.69-2.87L131-30.54l-5.15-1.11-2.42-.52c-.87-.15-1.83-.29-2.73-.43q-5.5-.82-10.93-1.54C102-31.71,94.31-29.56,87-26.41l-5.48,2.14c-1.83.72-3.55,1.54-5.27,2.33l-4,1.91-1.89.88-1.83.92c-9.87,4.74-19.15,9.1-29.05,11.89-2.14-1-4.51,0-6.84,1S28-3.29,26-4.43a32.56,32.56,0,0,1-2.7,6.88A31.23,31.23,0,0,1,19.54,7.9,43.65,43.65,0,0,1,15,12.44c-.81.71-1.71,1.47-2.59,2.17l-1.44,1.17-.75.6L9,17.34-37.87,57.23,19.82,95.09l1,.64-.53.47,3.35.43a3.74,3.74,0,0,1-.72,1.5c5.61-3.06,8.23,4.18,11.13,8.11l-.52.46c22.23,12.72,48.46,13.71,67.17,32.77a18,18,0,0,0,1,2.06c.19.32.39.62.59.92.06.07.09.13.17.22l.35.32.72.61a53,53,0,0,0,6.17,4.47,100.81,100.81,0,0,0,13.89,7c4.81,2.05,9.67,3.91,14.48,6a102,102,0,0,1,14.39,7.42,48.8,48.8,0,0,1,11.37-3.05c1.22,1.05,5.18,0,10.52-2.31a199,199,0,0,0,18.53-9.51c3.26-1.86,6.48-3.77,9.47-5.62l2.19-1.37,1-.79c.66-.52,1.28-1,1.86-1.52C209.74,142.32,211.3,140.62,211.53,139.73Z"/><path class="cls-5" d="M243.83,114.32l-.08.08C244.9,116.64,244.61,115.72,243.83,114.32Z"/><path class="cls-5" d="M164.73,77.35h.12c-.53-1.06-1-2.12-1.56-3.19Z"/><path class="cls-5" d="M193.59,60.35c-1.81,0-1.6.61-.94,1.41C193.25,61.62,193.62,61.22,193.59,60.35Z"/><path class="cls-5" d="M253.52,104c.85-.21-.12-1.4-1.32-2.66a15.1,15.1,0,0,1-1.12,1.07C251.78,102.75,252.81,103.71,253.52,104Z"/><path class="cls-5" d="M234.93,75.14l-.69-1.94A2,2,0,0,0,234.93,75.14Z"/></svg>