<svg id="Layer_1" data-name="Layer 1" xmlns="http://www.w3.org/2000/svg" viewBox="0 0 161 161"><defs><style>.cls-1{fill:#fff;}</style></defs><ellipse class="cls-1" cx="127.28" cy="125.34" rx="21.68" ry="21.69" transform="translate(-51.36 125.15) rotate(-44.5)"/><path class="cls-1" d="M111.55,103.22l-.62.37c.46-.35.94-.69,1.43-1s1-.57,1.56-.84a21.86,21.86,0,0,1,3.31-1.3,15,15,0,0,0-8.09,2.51,8.55,8.55,0,0,0-2.66,3.07,6.51,6.51,0,0,0-.62,1.85,6.92,6.92,0,0,0,0,2,2.25,2.25,0,0,0-1.74,0,6.88,6.88,0,0,0-1.78,1.18c-1.11,1-1.73,2.23-1.54,2.37-.14,1.15-.15,2.33-.28,3.44.1-.76.2-1.53.28-2.32-.08.79-.18,1.56-.28,2.32a83.37,83.37,0,0,0-.22,10.61,34.17,34.17,0,0,0,2.35,11,27,27,0,0,0,5.89,8.41c.71.75,1.54,1.37,2.3,2s1.62,1.17,2.38,1.72a44.92,44.92,0,0,0,4.06,2.31,16.37,16.37,0,0,0,1.87.83c-1-.47-1-.53-2-1.07a33.87,33.87,0,0,0,7.77.23,6.19,6.19,0,0,0-1.32-1.18c.38.12.75.27,1.13.35a5.1,5.1,0,0,1,2.3-.67,15.86,15.86,0,0,0,2.25-.5c-.2.49.68.51,1.47.45l-.35-.26c3-.13,6.17-1.52,8.49-2.67a1.27,1.27,0,0,1,.86-.08c.67-.54,1.37-1,2-1.61.18.63,2-.79,1.26.24a11,11,0,0,1,.94-1.16c.31-.37.65-.71,1-1.05a6.18,6.18,0,0,0,1.56-2.33A21.88,21.88,0,0,0,151,134a20.46,20.46,0,0,0,.36-9.51l-.22.16a8.83,8.83,0,0,0-.5-1.53q-.35-.7-.69-1.44c-.2-.48-.46-1-.64-1.48a10.85,10.85,0,0,1-.42-1.68c-.33-.35-.66-.75-1-1.14a13.47,13.47,0,0,0-1-1.08,3,3,0,0,0-2.17-1,5.53,5.53,0,0,0-.77-.9,10,10,0,0,0-.82-.6l-.82-.55a7.47,7.47,0,0,1-1-.63c-.1.37-.51.2-.86.07s-.74-.3-.57.22c0,1.38.63.9.62,2l.15-.15a21.22,21.22,0,0,1,1.86,11,6.73,6.73,0,0,1,.08,1.85c0,.31-.06.62-.12.94l-.24.92-.12.46-.18.44-.34.9c-.3.56-.52,1.15-.81,1.71a21.09,21.09,0,0,1-4.87,6.66c-.44.44-1,.25-1.62.16-1.88,1.25-4.73,1.75-7.28,2.05l.13,0a5.15,5.15,0,0,1-1.84-.35,8.61,8.61,0,0,0-1.74-.54c0,.18-.23.14-.35.21,0-.43-2-.45-4-1s-4-1.61-4-2a3.38,3.38,0,0,1-.41-.24,9.56,9.56,0,0,1-1.15-2,13.8,13.8,0,0,1-.66-2.14c-.08-.36-.16-.7-.24-1s-.11-.68-.18-1a13.6,13.6,0,0,0-.48-1.76c-.58-.35-1-.85-1.55-1.19.25-.49-.45-.45-.42-1,.74-.8.92-1.29.89-1.56s-.38-.28-.66.08a9.28,9.28,0,0,1,0-3.19l-.18-1.43c0-.42.26-.58.7-.67,0-1,.34-.64.85-1.54.31,0,.28-.69.33-1.39,0-.35,0-.73,0-1s.1-.49.18-.54v.2c.7-1,2.12-1,2.83-1.81a43.53,43.53,0,0,1,3.66-3,13.06,13.06,0,0,1,4.08-1.85c-.15-.6-.54.34-.84-.43,1.71-.45,3.53,0,5.15.11a2.11,2.11,0,0,1,.77.7c.48.26.31-.28.68-.18V111c.58-.42.68.73,1.18.56.07-.22.25-.23.42-.18-.12.59.52.1.37.62l0,0c.09,0,.17,0,.27.14a8.26,8.26,0,0,1,1.38-.64l1-.36.56-.18.06.13c.28.12.6-.22.48-.4l.34.2-.06,0,.33.19a.56.56,0,0,1-.24.54.58.58,0,0,1,.67.16c-.3-.66-.77-1.41-1.14-2.26.34-.07.66.44,1,.51a9.37,9.37,0,0,0,.92,1.68c.12,0,.57-.5.63-.08-.15.46.26.18.25.59-.36,0-.48-.22-.69-.38-.25.46.3.69.37.93.18-.08.47.35.81.42-.43.31,0,.43-.08.76s.34.12.4-.07c.44-.37-.39-.83.22-1.08-.12.27.25.48.44.62.21-.22,0-.28.35-.39.15.22.62.15.5.48-.09,0-.14-.09-.19-.14.12.12-.59.17-1.21.23s-1.21.16-1,.22c0-.15.66-.19,1.28-.2s1.25,0,1.17-.06c0-.25.52-.28.43-.51l-.45.1a.74.74,0,0,1,.36-.84c.18.19-.47.31-1.06.43s-1.12.2-.87.22a1.66,1.66,0,0,0,0-.22c.26,0,.72.16.64.52.2-.22.45-.14.68-.08l0,.08c.26,0,.43.28.61-.1-.48-.4.2-.83.94-1.24s1.52-.82,1-1.37c0,.88-.63.36-1.13,0a1.25,1.25,0,0,0-.09-1.08c-.35-.2-.34,0-.51.14-.08-.25-.33-.6-.07-.85-.5.16-.24-.51-.63-.62s-.08.16-.38.19c-.39-.3-.94-.69-1.24-1,0-.37-.08-1.13.47-1.4.64.46-.67.58.08.9.08-.84.71.18,1.15-.22,0-.43-.51-.72-.94-.87l0,.14c-.38-.14-1.15-.33-1.37-.88.21-.2.12-.46.42-.39l-.49-.29c-.1,0-.2.1-.08.22-.32.08-.51-.14-.63-.37,0-.16-.79-.13-1.56-.08s-1.51.18-1.44.11c-.38-.09-.37-.52-.8-.34,0,.13.91.07,1.83.11a8.94,8.94,0,0,0,1.54,0,5.43,5.43,0,0,0-2.46-.28c-.58,0-1.14,0-1.56,0s-.73,0-.76-.17c-.29,0-.64,0-.62.27-.45-.21.22-.52-.08-.83,0,0,0,.14-.1.12l-.29-.42c-.81.36-1.92-.28-2.73.31a2.71,2.71,0,0,1,1.06-1.11l.08.16c.08-.09.53-.16.54-.44a1.62,1.62,0,0,0-1.51.07c-.1-.08-.22-.15-.3-.23a.41.41,0,0,1,0,.11c-.18-.17-.16-.2-.1-.31a.25.25,0,0,1,0-.07c-.37-.82-2,.58-3,.33-.26.15,0,.14-.33.35a9.94,9.94,0,0,0-2.79-.22c-.23.43-.21.57.27.84a6.48,6.48,0,0,0-.77.09c.41-1.15-1.67-.4-1.22-1.57a1.28,1.28,0,0,0-1.17.29.66.66,0,0,1-.41.85c-.85,0-.63.06-1.37.06-.28-.22-.11-.43-.24-.65-.79.8-1.15-.21-2,.35-.51.4-1.58,1.08-1.28,1.58C112,104,111.74,103.64,111.55,103.22Z"/><ellipse class="cls-1" cx="76.23" cy="73.12" rx="62.68" ry="62.71" transform="translate(-29.39 74.4) rotate(-44.5)"/><path class="cls-1" d="M36.71,17.55c-.5.31-1,.67-1.46,1a57.54,57.54,0,0,1,15.57-8.38,55.52,55.52,0,0,0-9.61,3.3,46.6,46.6,0,0,0-8.94,5.37,35.79,35.79,0,0,0-6.91,7,22.91,22.91,0,0,0-3.78,7.78C21,33.56,20,34.09,19,35a23.93,23.93,0,0,0-3.26,3.57c-2.1,2.71-3.55,5.72-3.35,5.94l-.56,2-.49,2c-.36,1.31-.61,2.65-.92,4,.22-.92.43-1.83.65-2.73s.49-1.81.74-2.7c-.25.89-.49,1.79-.74,2.7s-.43,1.81-.65,2.73a94.41,94.41,0,0,0-2,26.27,74.2,74.2,0,0,0,7.07,27A62.63,62.63,0,0,0,21.1,115a70.24,70.24,0,0,0,9.58,10.72,71.25,71.25,0,0,0,11.66,8.64,86.52,86.52,0,0,0,10,5c1.51.58,3,1.2,4.57,1.67-1.28-.44-1.91-.71-2.53-1s-1.27-.49-2.5-1.06a74.9,74.9,0,0,0,18.51,2.61,24.57,24.57,0,0,0-3.47-1.41c1,.18,1.91.41,2.89.54a15.28,15.28,0,0,1,2.57-.3c1-.09,2.11-.15,3.21-.18l3.23-.24c1-.12,1.92-.25,2.63-.39-.29.25.13.37.87.39s1.81-.06,2.8-.14l-.82-.22a55.33,55.33,0,0,0,11.57-2.45,75.39,75.39,0,0,0,10.37-4.27,7.59,7.59,0,0,1,2-.68c.93-.56,1.85-1.13,2.73-1.77s1.78-1.22,2.63-1.89c0,.4,1.15-.25,2.06-.74s1.49-.9.36.2c3.51-3.45,7.46-6.47,10-10.43a61.84,61.84,0,0,0,12.51-21.7,61.11,61.11,0,0,0,2.83-25l-.22.41a49.18,49.18,0,0,0-1.7-8.31c-.74-2.76-1.58-5.6-2.42-9A78,78,0,0,0,133.14,47c-1.42-2.18-2.88-3.87-3.89-4.37-.75-1.15-1.4-2.11-2.06-2.94s-1.28-1.54-1.93-2.23l-2-2.1c-.74-.73-1.54-1.52-2.49-2.44.23.71-.79-.1-1.67-.79s-1.74-1.31-.95-.17c1.68,3.09,2.36,2.73,3.62,5.42l.12-.2a62.65,62.65,0,0,1,8.4,17.94,60.35,60.35,0,0,1,2.24,19.5,44,44,0,0,1-1.7,13.46,60.79,60.79,0,0,1-5.26,12.8,60.09,60.09,0,0,1-3.93,6.4c-.76,1-1.47,2.06-2.29,3l-1.2,1.46-1.26,1.41a61.9,61.9,0,0,1-10.64,9.32,8.06,8.06,0,0,1-2.46,1.25c-.81.29-1.62.48-2.47.71a51.23,51.23,0,0,1-12.15,4.5,68.75,68.75,0,0,1-13.66,1.68l.44,0c-4.77,0-8.23-1.06-12.71-2,0,.18-.72,0-1.08.05a3.22,3.22,0,0,0-1.3-.54c-.39-.11-.84-.24-1.37-.37l-1.71-.5a68,68,0,0,1-9-3.24,54.68,54.68,0,0,1-8.52-4.81c-.57-.4-1.11-.76-1.57-1.11l-1.21-1A6.43,6.43,0,0,1,36.26,116c-.38-.31-.77-.64-1.16-1a48,48,0,0,1-8.28-12.29A99.21,99.21,0,0,1,22,90.12c-.22-.41-.45-.82-.69-1.24l-.63-1.29-1.2-2.39c0-1.53-.69-1.68-.88-3.49a19.31,19.31,0,0,0,.53-5.11c-.1-.93-.43-1-.66.19a47.18,47.18,0,0,1,.19-10.87c0-1.56.2-3.1.35-4.68a3.93,3.93,0,0,1,1.11-2.56c.69-3.34.79-2.28,2.11-5.56.43-.3,1-2.44,1.67-4.6.35-1.07.74-2.15,1.05-3a11,11,0,0,1,.81-1.68l-.21.55c2.18-3.55,4.69-5.12,7.25-8.1a73.81,73.81,0,0,1,6-5.85,68.08,68.08,0,0,1,6.76-5.11,61.91,61.91,0,0,1,7.28-4,53.37,53.37,0,0,1,7.44-2.68c-.09-.63-2.1.8-2.47.05,5.81-1.8,12-2.12,18-2a12.71,12.71,0,0,1,2.88.73c1.88.31,1.13-.23,2.52-.05l.14.57a4.33,4.33,0,0,1,2.44.39,7.27,7.27,0,0,0,2.29.65c.14-.2.83-.13,1.48,0-.09.59,2,.42,1.81.93l0,0a4,4,0,0,1,1.12.37l1.63.06c.81,0,1.83.16,2.86.25l2.89.4c.82.15,1.44.27,1.65.29l.31.24c1,.42,1.63.27,1.09-.13l1.22.65-.16,0,1.21.65c.2.15.31.55-.15.58a6.35,6.35,0,0,1,2.19,1c-1.66-1.39-3.79-3.13-5.68-4.57a7.68,7.68,0,0,1,1.67.71,15.82,15.82,0,0,0,1.64.91,11,11,0,0,0,.87.76c.33.3.72.61,1.12.94.81.63,1.66,1.34,2.39,2,.37.21,1-.22,1.63.59.12.65.9.62,1.36,1.35a10.33,10.33,0,0,1-2.31-1.48c-.15.51,1.63,1.6,2.14,2.13.38.07,1.67,1.31,2.63,1.89-.7.08.46.85.78,1.5.52.53,1,.69.91.36.57-.26-2-2.23-.86-2,0,.4,1.23,1.29,1.83,1.82.22-.21-.24-.55.34-.4.6.67,1.55,1.08,1.7,1.66-.18-.06-.41-.35-.6-.54.4.43-1.07-.36-2.52-1S111.37,29.57,112,30c-.06-.23,1.46.48,2.94,1.23a13.21,13.21,0,0,0,2.59,1.35c-.41-.61.77,0,.3-.63l-.86-.31c-.65-.79-.58-1.48-.17-1.38.59.63-.62.11-1.88-.33s-2.47-.94-1.83-.59c-.12-.16-.23-.34-.35-.49a5.21,5.21,0,0,1,2.19,1.84c.22-.23.88.27,1.45.67l.14.2c.62.39,1.29,1.13,1.24.52-1.52-1.43-.5-1.52.59-1.59s2.23-.11.75-1.67c.8,1.74-.89,0-2.33-1.12a4.61,4.61,0,0,0-1.31-2.12c-1-.68-.7-.23-1-.24-.41-.52-1.31-1.39-1-1.57-1-.22-1-1.07-2-1.6s0,.18-.73-.05c-1.19-.83-2.86-2-3.85-2.6-.22-.51-1.14-1.72,0-1.67,1.92,1.18-1.16.31.92,1.37-.24-.58.23-.37.85-.05s1.35.82,1.69.69a4.9,4.9,0,0,0-1.18-1.09,13.25,13.25,0,0,0-1.73-.95l.17.21a17.38,17.38,0,0,1-4-2.27c.38-.11,0-.53.76-.22-.46-.25-.92-.49-1.39-.71-.22,0-.44,0-.06.23a3.79,3.79,0,0,1-1.83-.89,17.07,17.07,0,0,0-4.06-1.05c-2-.37-3.94-.57-3.8-.62-1.07-.28-1.22-.79-2.34-.74-.08.09,2.54.47,5,1,1.23.26,2.42.53,3.2.75s1.18.29.82.18a10.36,10.36,0,0,0-2.27-.78c-1.23-.28-2.76-.66-4.32-.89s-3.09-.45-4.28-.65a6.51,6.51,0,0,1-2.18-.44c-.81-.14-1.8-.21-1.65.1-1.35-.31.49-.48-.45-.88,0,0,.06.16-.25.11l-.91-.49a23.92,23.92,0,0,1-3.78-.16A12.76,12.76,0,0,0,76,9.78,8,8,0,0,1,78.89,8.7l.25.16c.22-.1,1.44-.12,1.42-.39a10.33,10.33,0,0,0-4.11,0c-.27-.08-.59-.15-.81-.22a.29.29,0,0,1,0,.11c-.49-.17-.44-.2-.27-.32L75.51,8c-.45-.41-1.86-.29-3.46,0a25.89,25.89,0,0,1-4.69.65c-.74.24,0,.15-1,.46-1.34,0-2.47.08-3.6.2-.57.06-1.15.11-1.75.19l-1.92.34c-.77.57-.79.72.34.82-.68.13-1.36.27-2,.45,1.56-1.49-4,.31-2.31-1.24a7.52,7.52,0,0,0-3,1c0,.28-.07.68-1.45,1.27-2.05.53-1.55.41-3.25.89-.51-.1,0-.49-.16-.69-2.26,1.54-2.43.45-4.68,1.74-1.37.87-4,2.61-3.78,3.14C37,18.36,36.79,18,36.71,17.55Z"/></svg>