<svg id="Layer_1" data-name="Layer 1" xmlns="http://www.w3.org/2000/svg" viewBox="0 0 69 66"><defs><style>.cls-1{fill:#fff;}</style></defs><path class="cls-1" d="M40.27,35.41l0,.34-.06-.35,0-.2v-.1s0,0-.06,0a9.21,9.21,0,0,1-1.37.43,2,2,0,0,1,.43,1.57,2,2,0,0,1-.08.31l-.09.31-.13.43c0,.2,0,.26.11.24a5.24,5.24,0,0,1,2.36-.11A13.1,13.1,0,0,0,40,39l-.51.25c-.07,0-.15.25-.21.4l-.18.52c-.45,1.39-.62,2.71-.36,2.77a22.06,22.06,0,0,1,.78,3.38c-.09-.78-.22-1.57-.37-2.34.15.77.28,1.56.37,2.34A26.38,26.38,0,0,1,39.7,52l9.4-3c-2.28-2.08-4.5-4.33-6.75-6.64-.56-.58-1.12-1.17-1.69-1.75l-.85-.89a5.26,5.26,0,0,1-.64-.69,4.78,4.78,0,0,1-.48-1c-.25-.59-.75-1.31-.06-1.21a4.46,4.46,0,0,1,.52.12c.33.1.62.19.9.3l.61.24c-.52-.22-.53-.22-1.12-.44-1.52-.65-2.32-1.28-2.38-1.66a22.15,22.15,0,0,0-2.5-1.18l.87.25c-1.25-1,.17-.88.32-1.25a2.5,2.5,0,0,0,1.46.73l-.48-.34a14.09,14.09,0,0,0,2.47.16c.41,0,.78,0,1.3,0l.72,0,1.09.11a1.52,1.52,0,0,1,.9.43l3,0c-.3.58,2.36.83.92,1,2.11-.44,4.12.18,6.14-.1l-1.93-7.56-.27.37c-5.7,4.28-12.57,8.31-19.27,12.4l.27.13C29.8,42.14,28,44.2,24.76,45.06c-1.92,1.64-5,3.23-5.44,4.76-2.56,1.11-3.4,2.09-5.89,3.27.87.39-2.29,1.58-.86,1.62,2,.27,1.88-.47,3.58-.3L16,54.22A119.22,119.22,0,0,0,37.2,47.87c4.32-2.56,9.41-4.57,13.92-7.5a66.68,66.68,0,0,0,6.25-4.63l11.14-9.21-13.75-1c-3.16-.24-6.22-.35-8.89-.35a6.19,6.19,0,0,1-2.82-.95c-2.56-.11-7-.5-11-.68s-8.22-.33-11.62-.18a3.88,3.88,0,0,1,.4,0c-1.89,0-3.77-.14-5.74-.3a57.81,57.81,0,0,0-5.81-.27c.41.19-.17.19-.25.29A17.25,17.25,0,0,0,4.17,23l-1.76.13-.91.09-.46,0c-.06,0-.19,0-.19,0l0,.06a1.72,1.72,0,0,0-.27.52c0,.09,0,.18-.1.28a2.86,2.86,0,0,0-.22.3c3.34,1.86,6.46,3.62,8.65,4.89a25,25,0,0,1,3.57,2.25l1.46.84a99.68,99.68,0,0,1,9.48,7.81c.79.69,1.51,1.4,2.26,2.11s1.54,1.41,2.27,2.13,1.51,1.41,2.28,2.09l1.13,1,.74.65c1,.32,2,.79,2.89,1,.32.79.91.38,1.52,1.1.54,2.86,2,3.31,1.56,2A38.06,38.06,0,0,1,41.76,56l6.85,6.93,1.1-9.44c0-.16,0-.32,0-.47,0-.88,0-1.76-.07-2.64a1.53,1.53,0,0,1,.67-1.48c-.06-1.93.31-1.33.61-3.33.67-.46-.73-5.07-.59-5.61l.08.32c.07-.93.33-2.65.59-4.17a21,21,0,0,0,.26-5c-.05-1.31-.2-2.58-.33-3.88l-.51-3.82c-.2-1.28-.39-2.56-.58-3.83l-.31-1.93-.16-1-.08-.49c0-.13-.08-.24-.12-.36-4.47,2.8-8.63,5.4-12.57,7.81,0,.76,1.76-1.31,1.84-.37-2.24,1.37-4.54,2.61-7,4l-.92.53-.43.25-.28.15-1.12.62c-.74.42-1.47.87-2.17,1.35a7.28,7.28,0,0,1-1.73.44c-1,.47-.33.62-1,1l-.42-.38c-.65,1.07-1.73.55-2.47,1.41.1.21-.2.48-.52.71-.38-.45-.92.78-1.21.32l0,.05a1.87,1.87,0,0,1-.59.37c-.24.44-2.43,4.37-2.59,4.86l-.23.06c-.46.41-.38.92,0,.77l-.6.47,0-.09-.6.48a.37.37,0,0,1-.45-.39,2,2,0,0,1-.89,1,26.5,26.5,0,0,1,4-1.44c-.26.49-1.18.84-1.55,1.26a14,14,0,0,0-3,1.29c-.15.19.17.79-.42.92-.5-.16-.44.41-1,.47.21-.53.66-.77,1.06-1.1-.43-.34-1.19.56-1.59.73,0,.25-.88.8-1.24,1.33-.15-.57-.6.1-1.06.15-.36.25-.41.58-.16.6.29.5,1.46-.9,1.43-.07-.3-.09-.84.55-1.14.87.2.23.38,0,.37.37-.41.29-.53.92-1,.88,0-.12.2-.22.31-.32-.5.43,1.17-3.86.69-3.16.33.05-1.44,3.86-1.11,3.57s.18.6.55.4l.07-.58c.49-.3,1-.06,1,.23-.71.6.49-3.34.12-2.57l.34-.11c-.11.37-.65,1.11-1.12,1.12.2.22-.06.61-.25,1l-.14,0c-.17.38-.62.7-.16.82,1.62-1.59,1.06,3.26,2.77,1.89-1.13.14-.25-.71.39-1.42a1.9,1.9,0,0,0,1.39-.28c.4-.44.09-.41.06-.62.34-.11.89-.44,1.07-.12.06-.63.73-.3,1-.78s-.14-.11,0-.49c.58-.46,1.38-1.1,1.88-1.42.39.1,1.29.1,1.26.82-.89.67-.24-.91-1-.08.88.25-.62.83-.4,1.41a2.31,2.31,0,0,0,1.47-1h-.16c.34-.43,1.06-1.27,1.78-1.35.07.3.39.28.13.59l.6-.45c0-.12,0-.25-.16-.16a1,1,0,0,1,.79-.58c.23.16,2.32-3.46,2.35-3.24.42-.35.78-.1,1-.66-.12-.22-3.41,4-2.91,3.5.53-.07,3.87-5,4.49-4.75.31-.26.65-.6.4-.77.63-.31.18.55.72.47,0,0-.12-.09,0-.18h.59c.57-1,2.14-1.47,2.68-2.59a4,4,0,0,1-.44,1.74l-.18,0c0,.13-.44.56-.25.77A2.85,2.85,0,0,0,31.14,37c.15,0,.32,0,.45,0s-.05,0-.07-.08c.29,0,.28,0,.28.18a.14.14,0,0,1,0,.09c.83.42,1.81-2,3.06-2.33.19-.28,0-.15.15-.48.94-.24,1.49-.33,2.23-.58.16-.55.2-.75-.19-.94l.63-.29c-.22.74.08.81.32.93s.42.28.19,1c.12.19.33.1.58-.25a1.66,1.66,0,0,1,.51-1.09c.36.15.29.06.52.29a10.81,10.81,0,0,1-.31,1c.64-.9,0,.8.38.52a7,7,0,0,0,.58-.6l.15-.19a.41.41,0,0,0,.1-.09,2.46,2.46,0,0,0,.28-.43A3.64,3.64,0,0,1,40.27,35.41Z"/><path class="cls-1" d="M42.21,37.72l-.09-.17a5.9,5.9,0,0,1,1.15,1.54c.13-2.35.34-4.46-3.29-2.51,1.45-1.55,1.36-3.13,1-2.81a4.89,4.89,0,0,1-1.27,0,4.62,4.62,0,0,0,.77.1,4.62,4.62,0,0,1-.77-.1c-.68-.19-.85,0-1.11-.07a.59.59,0,0,1-.44-.36c-.14-.32.08-.73.58-1a2.18,2.18,0,0,1,.91-.33,1.31,1.31,0,0,1,.9.25c.09,0,.12.09.22.08a2,2,0,0,1-.35-.19,2.71,2.71,0,0,1-.24-.35c0-.22.08-.46.12-.67A9.43,9.43,0,0,1,40.57,30a3.79,3.79,0,0,0-1-.43l.4-.1c-.38-.86.19-1.35.19-1.86.27.38.53.25.76.13l-.29-.15c.81-.51,1.33-1.53,2-2.07.09-.08.27,0,.42.06l.33-.81c.38.49.85-.07.84.48-.07-.95.68-1,.57-2a16.65,16.65,0,0,0,2.2-2.89l-5.87-1.9a16.3,16.3,0,0,0,1.54,2.51l.21-.1c.55.66,1.87,1.07,1.64,2,.93.47,1.53,1.29,2.84,1.3.32.7,1,.87,1.47,1.53.59-.31.89.55,1.31.1.79-.64,0-.52.67-1.06l-.21.05a19.09,19.09,0,0,0,.68-6,5.2,5.2,0,0,1-.68-2.17L49,5.71l-8.64,7.58A12.1,12.1,0,0,0,39,14.56a18.84,18.84,0,0,0-2.29,3.83c-.09.34-.62.11-1,.07-.63,1-1.85,1.87-2.54,3a.09.09,0,0,1,.06,0c-.42.56-1.26.45-1.67,1,.13.13.06.21.09.31-.17-.39-1.16,1.09-1.82,2.53s-.91,2.87-1.22,2.94c0,.1,0,.2-.05.3a18,18,0,0,0-2.06,2.76A4,4,0,0,0,26,34.41a7.34,7.34,0,0,0,1.6.93c-.23.38.5.26.58.63-.61.67-.61,1.15-.47,1.32s.47.07.63-.27a21.51,21.51,0,0,1,1.52,2c.32.22.63.42,1,.61s.2.43,0,.78c.53.27.1.41.34,1-.37.5,1.65.48,1.62.71h-.13c.36.55-.18,1.66.24,2.17.89,1.51,2.5,2.52,3.66,3.63l7.19,6.83,2.37-10.46c0-.15.07-.28.1-.42-.31,0-.29.05-.29.16s0,.11-.08.14a.33.33,0,0,1-.13,0H45.5l-8.58,3.25h0l0,0h0l8.5-3.23h0v0l0,0,0-.1.07-.19c0-.13.11-.26.16-.39s.27-.52.4-.78a5.15,5.15,0,0,0,.6-1.62,2.59,2.59,0,0,1,.7-.53c.24-.36-.29-.22-.21-.48l.56,0c-.46-.39.62-.58.38-.95a.24.24,0,0,1-.25-.29c.6,0-.05-.41.49-.41h0c0-.08,0-.14.06-.24a23.11,23.11,0,0,0-2.23-1.53l.09-.08c0-.2-.49-.23-.58-.1v-.25l0,0v-.25a.88.88,0,0,1,.58-.1c-.22-.11-.35-.25-.27-.41a6.91,6.91,0,0,1-1.32,1.44c-.22-.14.06-.46,0-.63A3.3,3.3,0,0,0,45.57,35c0-.07-.7,0-.45-.23.44-.16,0-.18.26-.38.26.11.18.29.19.46.53-.12.29-.46.42-.62-.18,0-.07-.39-.26-.56.53,0,.29-.23.54-.41,0-.15-.19-.19-.36-.09-.56.08-.22.6-.84.54.26-.1.11-.35.06-.48-.3.07-.21.15-.52.12,0-.16-.37-.24-.07-.4.08,0,.05.08.05.13,0-.23,2.21.66,2,.45-.25.1-2-.78-2-.63s-.56.05-.63.2l.39,0c-.07.2-.58.38-.8.37,0-.3,2.23.35,1.87.18l-.12.13c-.22-.06-.44-.3-.15-.48a.64.64,0,0,1-.57-.14l0-.06c-.18-.08-.15-.26-.52-.09.2.65-3.11.31-3.14,1,.6-.4.69-.07.83.18a1.31,1.31,0,0,0-.66.49c.09.15.27,0,.44,0a.83.83,0,0,1-.57.36c.43,0-.23.25-.06.38s.18,0,.39,0a2.37,2.37,0,0,1-.08.67,3.16,3.16,0,0,1-1.41.31c0-.3.85,0,.7-.29-.73.24-.25-.24-.83-.21-.32.15-.29.34-.18.49l.1,0c.12.13.31.4-.07.6-.27,0-.46.08-.54,0l0,.19c.09,0,.18,0,.23,0,.22.07.11.17,0,.26s1.27.93,1.09.93c0,.14-.41.2-.11.32s-1.05-1.29-1-1.09c-.28.11,1.52,1.5,1,1.63,0,.1.08.23.37.2-.14.18-.55-.05-.82.08,0,0,.14,0,.14,0l-.37.13c.45.27-.13.66.44,1a5,5,0,0,1-1.12-.4l.15,0a.85.85,0,0,0-.47-.18c-.2.17-.14.3.13.49l-.24.09h.11a.42.42,0,0,1-.31,0h-.07c-.84.06.5.67,0,.94.11.1.14,0,.29.15a5.16,5.16,0,0,0-.87.74,1.16,1.16,0,0,0,.88.1l-.15.23c-.68-.26-.89,0-1.32,0l5.53-2.1a.71.71,0,0,1,.23-.28l-6.12,2.32-.21-.06-.08,0,6.6-2.51c0-.16-.05-.25-.22-.23-.17.18-.44.46-.57.35a3.26,3.26,0,0,1,0-.64,6.19,6.19,0,0,1,.46-.51c-.49.11.26-.68,0-.82s-.47-.25-.85.15C41.61,38.33,41.89,38,42.21,37.72Z"/></svg>