<svg id="Layer_1" data-name="Layer 1" xmlns="http://www.w3.org/2000/svg" viewBox="0 0 46 50"><defs><style>.cls-1{fill:#fff;}</style></defs><path class="cls-1" d="M25.23,21.54l-.07.05c0-.41.27-.59.57-.9a4.1,4.1,0,0,1-1.83-.81c-.14,0,.3.66,1.57,4.41-.73-1.69-1.28-2.85-1.58-3.61s-.37-1-.21-.45.33,1.31.45,1.9l.08.42-.06-.37c-.06-.31-.13-.63-.21-1,.08.34.15.66.21,1l.06.37a3.19,3.19,0,0,1,.09.6,2.26,2.26,0,0,1,0,.37c0,.2-.06.31-.13.35s-.33-.11-.54-.43a7.19,7.19,0,0,1-.94-2.53c0-.17-.08-.4-.14-.68s0-.4-.1-.68a.59.59,0,0,1,.56-.62h.25a2.12,2.12,0,0,0-.45,0,5.9,5.9,0,0,1-2.36-.61,5.9,5.9,0,0,0-1.36-.09l.16-.13A6.58,6.58,0,0,1,17,16.93a1.64,1.64,0,0,1-.23-.16,2.82,2.82,0,0,0,1.36.23l-.56-.16a2.82,2.82,0,0,0,1.1-.4,3.71,3.71,0,0,1,1-.43c.09,0,.32.09.51.21a3.93,3.93,0,0,1,.32-.47c.44.53.86.35.87.75a.54.54,0,0,1,.3-.61,1.14,1.14,0,0,0,.54-.66l.35-.1.19-.06L23,15l1.29-.34c.86-.22,1.74-.47,2.61-.72,1.76-.51,3.54-1.07,5.33-1.7l-.1-.22c1.24-.49,2.36-1.76,4-1.36,1.12-.83,2.77-1.23,3.3-2.48,1.36-.11,1.95-.72,3.34-.92-.29-.67,1.38-.65.78-1.2-.83-1-.95-.22-1.67-1v.22A33.76,33.76,0,0,0,30.74,3.46c-2.46.73-5.19.61-7.73,1.22-.68.18-1.37.38-2.05.59l-3,.94a39.31,39.31,0,0,0-5.33,2.24C12,8.84,11,8.6,10,8.64,8.83,9.19,7.42,9.73,6,10.29l-2.25.86-1.11.44-.54.23c-.09,0-.19.07-.26.11l-.17.14c.4.5.8,1,1.21,1.47a.59.59,0,0,1-.07-.14C4.05,15,4,16,5.32,17.68c.23,0,.42.25.63.38-.46.09,1.86,2.54,4.1,4.63l3,2.79c.4.37.76.72.95.93a1.37,1.37,0,0,1,.37.53c.14.12.29.25.43.39,1,1.59,2,3.56,3.08,5.61a29.91,29.91,0,0,0,3.53,5.47,2.93,2.93,0,0,0,1.56,0c.38,1,.45,0,.9.71a10.7,10.7,0,0,0,1.42,3.38c.26.24.21-.33-.14-1.22a33.63,33.63,0,0,1,2.77,3.12A9.06,9.06,0,0,0,29,45c.26.09.56.85.94,1.94.63.5.64.75,1.16,1.51a.93.93,0,0,0,.18-.39c.22.52.23-1,.19-2.64a26.27,26.27,0,0,1,0-3.24l0,.41a1.34,1.34,0,0,1,.85-1,1.68,1.68,0,0,0,.86-1.36c.58-2.25,1-5.06,1.46-7.67s.89-5.14,1.48-7.37c-.57-.33-.09,1.08-.85.7a26.06,26.06,0,0,1,1.34-3.69,11.35,11.35,0,0,0,1-2.07,2.63,2.63,0,0,1,.84-.51c.35-.4-.21-.35,0-.66l.55.1c-.31-.6.79-.53.7-1-.21-.08-.19-.25-.13-.4.57.16.1-.5.62-.31l0,0c0-.09,0-.16.15-.24-.15-.23-1.17-2.36-1.33-2.61l.12,0c.06-.24-.31-.49-.46-.39l.14-.28,0,.05.14-.26a.79.79,0,0,1,.56.19c-.13-.23-.17-.44,0-.55a17.52,17.52,0,0,1-1.95.91c-.11-.27.32-.53.34-.76a6.32,6.32,0,0,0,1.37-.7c0-.08-.57-.42-.23-.47.45.13.07-.18.43-.15.15.26,0,.31-.11.48.5.19.5-.19.69-.23-.12-.15.15-.26.08-.44.42.33.35.06.57.24.06,0-.1-.11-.25-.21a1,1,0,0,0-.4-.22c-.09-.05-.22,0-.43-.22.25.11.22,0,.22-.05a3.39,3.39,0,0,1-.42-.33c.08,0-.23-.17,0,0,.07.06,0,0,0,0a1.14,1.14,0,0,0,.26.2,2.92,2.92,0,0,1,.27.17l.25.26c.37.28.66.7.63.58a1.46,1.46,0,0,1-.3-.29,5.76,5.76,0,0,1-.46-.43.47.47,0,0,0-.25-.17,1,1,0,0,1-.23-.14,1.32,1.32,0,0,1-.16-.12s0-.07-.05-.05-.38-.41-.46-.48a3.57,3.57,0,0,0,.28.27c-.07-.1-.51-.43-.67-.57a3.72,3.72,0,0,1,.74.75c.35.33.64.71.55.55h-.16c-.13-.21-.19-.41.09-.24-.25-.17-.28-.34-.39-.36l0,0c-.13-.08-.1,0-.37-.32a13.9,13.9,0,0,1-1.13-1.06c-.55-.6-1-1.35-1.33-1.1.36.1.46.25.47.39a1,1,0,0,1-.14.44,1,1,0,0,0-.88,0c-.08.24.14.25.26.38-.2,0-.44.21-.74,0,.28.38-.39.17-.37.47s.17.06.28.29a9.57,9.57,0,0,1-.6.91c-.34,0-1,0-1.4-.37.27-.47.7.51.81,0-.8-.07,0-.52-.48-.85a.64.64,0,0,0-.57.68l.12,0c0,.29-.07.84-.54,1-.23-.15-.46-.1-.45-.32l-.18.34c.06.07.13.15.22.07.13.23,0,.36-.23.43s.5,2.24.36,2.12c-.07.25-.5.19-.3.52A8.19,8.19,0,0,0,32,12.55c-.4.14.42,3.29-.12,3.28,0,.19,0,.43.24.47-.22.28-.5-.25-.82-.09,0,0,.15,0,.12.09l-.41.11c.28.62-.47,1.19,0,1.86a3.22,3.22,0,0,1-.92-.95l.16,0c-.07-.07-.09-.37-.37-.44a.77.77,0,0,0-.11,1c-.09,0-.18.09-.27.12l.11,0c-.2.07-.23.05-.33,0a.1.1,0,0,1,0,0c-.87,0,.19,1.39-.37,1.87.07.2.13,0,.23.3a3.06,3.06,0,0,1-.58.52A2.92,2.92,0,0,0,28,21a.92.92,0,0,0,.82.34l-.19.29c-.82-.7-1,.12-1.76-.66-.22,0-.29.05-.18.27s.55.41.51.6a1.38,1.38,0,0,1-.53,0,6.21,6.21,0,0,1-.58-.53c.28.56-.63-.32-.61-.1a2,2,0,0,0,.47,1C25.9,22.46,25.58,22,25.23,21.54Z"/></svg>