<svg xmlns="http://www.w3.org/2000/svg" viewBox="0 0 105 107"><defs><style>.cls-1{fill:#fff;}</style></defs><g id="Layer_1" data-name="Layer 1"><path class="cls-1" d="M13,103.59a5.92,5.92,0,0,0,.77-1.21A4.59,4.59,0,0,0,13,103.59Z"/><polygon class="cls-1" points="13.78 102.37 13.79 102.37 13.78 102.38 13.78 102.37"/><path class="cls-1" d="M49.23,5.6c0,.13-.09.27-.14.41A2.83,2.83,0,0,0,49.23,5.6Z"/><path class="cls-1" d="M25.24,79.27l-.14-.16c.52-1.15.36-.24.8-1.32-.07-.53.84-1.75.87-2.18,0,0,.26-.5.33-.43-.07-.22.21-.55.32-.89,0-.14-.08.06-.16.13l.29-.77c.18-.28.29-.31.16,0,.95-1.94,5.31-11.36,6.13-13.53-.22.22-.43.91-.71,1.09.15-.6.39-.81.4-1.11.34-.11.6-1.21,1-1.53l-.07-.22.21-.25a16.7,16.7,0,0,1,1.15-2.78c.52-1.29.58-2,1-2.66-.05.1-.26.35-.15,0,.15,0,.28-.92.48-1,.12-.34.58-1.38.26-1.1.16-.14.59-1.06.43-.47a7.21,7.21,0,0,0,.34-.86l-.21.39a13.77,13.77,0,0,0,.92-2.37l-.23.37a3.39,3.39,0,0,1,.74-1.37l-.22.68c.43-1.07.69-1.71,1-2.63l-.14.31c.3-1.2,2.57-7.16,2.76-8.3l-.32.43.24-.94c0,.1.26.6.18.67.77-1.92,4.6-12,5.34-13.75.35-.7.26,0,.28,0,.28-.89,0-.43.3-1.17.1-.2.08.08.06.2.11-.33.27-.62.22-.67-.21.39-.31.16-.48.29l.38-.95.09.08a4.28,4.28,0,0,1,.33-1.57c.64-1.58,1.25-3.33,1.87-4.92a2,2,0,0,1-.12.75,4.84,4.84,0,0,1,.3-.73c-.25.34.18-.7,0-.42.18-1.27,1-2.71,1.17-3.81-.19-.18-3.13-3.65-3.4-3.74a6.18,6.18,0,0,1,.3-.73,3.58,3.58,0,0,0-.44,1l.13.11c-.23.79-.16.15-.42.9-.14,0,.09-.7.3-1.32a4.12,4.12,0,0,0-.45,1.34c-.24.5-.12-.11-.4.49a7.52,7.52,0,0,1-.48,1.56h0c-.57,1.19-.5,2-1,3V12.3c-.22.37-.42,1.19-.76,1.88.1-.2.26-.34.11.1-.38.79-.52,1.39-.84,2l-.1.62C44,19.73,39.83,31.12,38.67,34l0-.12c-1.67,4.39-5.34,13.32-7.1,17.86a23.73,23.73,0,0,0-1.13,2.32c.22-.38.24-.21.11.1-1,2.19,0,.18-.9,2.42-1,2.61-5.42,12.3-6.54,14.51-.38,1.28-1.2,2.73-1.64,4l0-.14c-.51,1.31-4,8.41-4.64,9.9l.12-.19a9.73,9.73,0,0,1-1.14,2c.24,0-.18,1.1-.36,1.52l0,0c-.27.64-.79,2.15-1.28,3.19l-.08-.08c-.31.91-1.14,2.52-1.43,3.14-.73,1.41-2,3.5-2.79,5.46L9,100.94l-.06.2s2.43,3.68,4.4,1.53l.08.09.24-.51c.34-.57.36-.9.44-.81l-.42.81c.33-.58.17-.14.12.12a5.68,5.68,0,0,1,.39-.67c0-.14-.08.07-.15.15a5.69,5.69,0,0,1,.49-1.21c.32-.6.18,0,.55-.67,1.94-3.74,3.84-7.35,5.64-11.21.09-.07,0,0,0,.15.51-1.18,1-2.19,1.47-3.27a1.33,1.33,0,0,1,.36-.4c-.08.07.58-1.4,1.27-2.9S25.21,79.33,25.24,79.27Z"/><path class="cls-1" d="M62.7,101.24a4.22,4.22,0,0,0-.25-1.26A4,4,0,0,0,62.7,101.24Z"/><polygon class="cls-1" points="62.45 99.97 62.45 99.97 62.45 99.98 62.45 99.97"/><path class="cls-1" d="M17.16,19.85c0,.13.05.27.07.41C17.21,20.12,17.19,20,17.16,19.85Z"/><path class="cls-1" d="M54.2,78.41l-.22,0c-.49-1,.07-.4-.43-1.32-.43-.25-.73-1.58-1-1.83,0,0-.2-.47-.11-.48-.21-.07-.27-.45-.45-.72-.09-.09,0,.09,0,.19l-.38-.63c-.09-.29,0-.39.12-.12-.42-.87-1.67-3.39-3-5.87s-2.79-5-3.37-5.82c0,.29.45.8.41,1.11-.36-.43-.39-.72-.6-.87.12-.32-.58-1.07-.56-1.57l-.22,0-.06-.28a13.53,13.53,0,0,1-1.48-2.27c-.68-1-1.19-1.4-1.5-2,0,.09.12.37-.08.12.08-.12-.55-.66-.52-.86-.19-.25-.74-1.11-.7-.72,0-.19-.49-1-.13-.56a4,4,0,0,0-.46-.68l.18.36a11.17,11.17,0,0,0-1.3-1.85l.15.36c-.35-.51-.65-.92-.63-1.22l.4.49a21.47,21.47,0,0,0-1.48-2l.17.25c-.77-.79-4-5.37-4.67-6.08l.12.46-.55-.65c.05.08.6.1.61.19-.49-.76-2-3.11-3.38-5.5a50.63,50.63,0,0,1-2.85-5.61c-.21-.63.15-.2.17-.2-.38-.7-.29-.25-.55-.88,0-.18.11,0,.17.08-.13-.26-.19-.54-.26-.53.1.36-.12.29-.17.48l-.32-.82h.12a3.15,3.15,0,0,1-.75-1.16c-.47-1.37-1.06-2.83-1.42-4.24.07,0,.2.28.32.56a3.63,3.63,0,0,1-.16-.65c0,.37-.25-.56-.22-.28-.59-.94-.6-2.35-1-3.22-.12,0-1.23-.3-2.35-.63s-2.26-.7-2.41-.68a6.49,6.49,0,0,1-.08-.74,2.74,2.74,0,0,0,.11,1.06l.16,0c.19.75-.06.19.08.94-.12.06-.26-.63-.38-1.23a3.49,3.49,0,0,0,.26,1.31c0,.52-.17,0-.11.6a10.06,10.06,0,0,1,.42,1.49h0c.16,1.25.62,1.81.84,2.92l-.08-.11c0,.41.36,1.14.51,1.85,0-.2,0-.4.14,0,.21.81.48,1.31.59,1.91l.31.5a65.45,65.45,0,0,0,3.62,7.64c1.68,3.05,3.54,6,4.29,7.13l-.07-.09c2.29,3.6,7.17,10.67,9.62,14.16a21.3,21.3,0,0,0,1.11,2c-.17-.35,0-.28.13,0,1.11,1.78.16.07,1.32,1.85.68,1,2.22,3.52,3.61,6.08s2.68,5.13,3.13,6.11c.68,1,1.23,2.32,1.82,3.29l-.09-.08c.64,1,3.37,7.42,4,8.73l-.06-.19a7.12,7.12,0,0,1,.67,1.94c.13-.19.64.75.81,1.12h0c.26.56.94,1.78,1.32,2.72H55.1a24.08,24.08,0,0,1,1.14,2.81c.44,1.32,1,3.4,1.68,5.11l.08,1.24.08.15a8.09,8.09,0,0,0,2.12,0c1.06-.16,2.13-.63,2.12-2h.12l-.17-.47c-.14-.58-.34-.8-.23-.8l.25.78c-.16-.58,0-.2.16,0a5.45,5.45,0,0,1-.16-.68c-.08-.1,0,.1,0,.19a4.79,4.79,0,0,1-.46-1.07c-.19-.58.16-.09-.07-.77C60.61,94,59.43,90.57,58,87.05c0-.1,0,0,.1.09-.49-1-.87-2-1.32-2.93a1,1,0,0,1,0-.48c0,.1-.61-1.22-1.23-2.56Z"/><path class="cls-1" d="M25.7,52.41a1.81,1.81,0,0,0,.71.32A1.41,1.41,0,0,0,25.7,52.41Z"/><polygon class="cls-1" points="26.41 52.73 26.42 52.73 26.41 52.73 26.41 52.73"/><path class="cls-1" d="M82.48,64.2l-.24-.06A1.05,1.05,0,0,0,82.48,64.2Z"/><path class="cls-1" d="M39.9,56.86l.1-.18c.67.2.13.28.76.42.32-.2,1,.34,1.27.27,0,0,.28.12.24.2.14-.12.32.07.52.09s0-.06-.07-.12l.45.08c.15.1.17.2,0,.16,1.12.41,6.53,2.31,7.78,2.64-.12-.16-.53-.21-.61-.43.35,0,.46.19.64.13,0,.3.69.3.85.64l.14-.12.13.14a4.88,4.88,0,0,1,1.6.48,11.89,11.89,0,0,1,1.54.34c-.06,0-.19-.16,0-.14,0,.14.53.07.58.23s.79.26.64,0c.08.12.6.33.26.3a1.86,1.86,0,0,0,.49.16L57,62c.62.18.91.42,1.36.39l-.2-.14c.36.11.67.19.76.41l-.39-.07A7.58,7.58,0,0,0,60,63L59.84,63c.7,0,4.13,1,4.79,1l-.23-.22.55.05c-.06,0-.39.36-.43.3,1.1.35,6.86,2.06,7.85,2.46.39.2,0,.23,0,.25.52.11.26-.07.69.07.11.06-.06.1-.13.09.19,0,.35.14.38.09-.22-.12-.07-.26-.13-.4l.54.18,0,.1c.12,0,.4-.2.92,0,.89.33,1.9.57,2.82.86,0,.06-.24,0-.44,0a1.65,1.65,0,0,1,.42.16c-.2-.18.4,0,.24-.06.75-.07,1.56.41,2.22.39.13-.22,2.33-3.72,2.39-4a1.7,1.7,0,0,1,.4.14c0-.08-.37-.2-.57-.22l-.07.15c-.45-.06-.08-.12-.5-.22,0-.13.4-.05.74,0-.3-.09-.58-.26-.74-.16-.28-.13.07-.14-.27-.29a2.13,2.13,0,0,1-.88-.14v0c-.65-.31-1.11-.11-1.71-.41l.08,0c-.21-.13-.68-.16-1.06-.35.11,0,.18.17-.07.12-.44-.21-.78-.23-1.09-.43l-.37,0L66.4,59.59h.07c-2.51-.74-7.62-2.43-10.25-3.11a7.5,7.5,0,0,0-1.33-.57c.22.12.11.18-.07.12-1.26-.43-.11,0-1.41-.32-1.51-.38-7.14-2.34-8.43-2.85-.77,0-1.61-.46-2.34-.57l.08,0c-.76-.17-5-1.63-5.86-1.82l.11.06c-.79-.11-.63-.28-1.22-.51,0,.22-.67.14-.92.09l0,0c-.39-.08-1.29-.15-1.92-.3l0-.1a14.8,14.8,0,0,1-1.91-.43,16.7,16.7,0,0,0-3.35-.93L27,47.81h-.12a11,11,0,0,0-.84,1.87c-.33,1-.49,2.16.16,2.73l-.05.1.3.06c.33.13.53,0,.48.14l-.48-.12c.34.11.09.11-.06.14a2.89,2.89,0,0,1,.39.15c.08,0,0-.05-.09-.09a1.88,1.88,0,0,1,.7.07c.36.09,0,.18.4.29,2.2.63,4.31,1.35,6.56,2,0,.06,0,0-.09,0,.69.15,1.28.35,1.91.48a.49.49,0,0,1,.22.24,10.07,10.07,0,0,1,1.69.42l1.21.37A6,6,0,0,1,39.9,56.86Z"/><path class="cls-1" d="M66.06,52.48a1.87,1.87,0,0,0,.16.81A1.54,1.54,0,0,0,66.06,52.48Z"/><polygon class="cls-1" points="66.22 53.29 66.22 53.3 66.22 53.29 66.22 53.29"/><path class="cls-1" d="M99.25,99.27a2.14,2.14,0,0,0-.13-.19A1.27,1.27,0,0,0,99.25,99.27Z"/><path class="cls-1" d="M72.6,66.3l.19-.07c.37.59-.09.29.3.82.37.06.55.92.79,1,0,0,.14.27.06.31.18,0,.2.25.34.39s0-.07,0-.14l.3.36c.05.17,0,.26-.12.11.3.51,1.2,2,2.11,3.43.45.71.9,1.42,1.27,2s.68,1.08.86,1.34c0-.2-.25-.48-.17-.7.25.22.22.43.39.49-.17.25.32.66.21,1h.18v.19a4.33,4.33,0,0,1,.87,1.37c.41.63.77.83.92,1.23,0-.06,0-.25.1-.1-.1.1.34.4.27.55.11.16.41.7.46.42,0,.14.22.63,0,.39a1.88,1.88,0,0,0,.26.43L82.12,81c.34.52.39.89.74,1.16l0-.23c.2.31.37.58.29.8l-.25-.31a7.5,7.5,0,0,0,.87,1.26l-.09-.16c.49.48,2.36,3.4,2.86,3.82l0-.32.37.4c0-.06-.52,0-.51-.06.57,1,3.61,6,4.06,6.94.15.4-.15.18-.17.18.3.42.24.12.45.5,0,.12-.11,0-.16,0,.11.16.16.33.22.31-.07-.23.13-.23.18-.38l.27.49-.11,0c.06.11.42.12.65.62.43.83,1,1.68,1.45,2.5-.07,0-.2-.13-.34-.28a1.44,1.44,0,0,1,.2.39c0-.26.27.3.22.12.58.45.84,1.34,1.32,1.76.24-.06,4.23-1.15,4.46-1.33a1.77,1.77,0,0,1,.2.37A1,1,0,0,0,99,99l-.15.06c-.27-.33,0-.14-.21-.48.1-.09.33.22.52.5-.15-.27-.24-.57-.42-.6-.11-.27.15,0,0-.38a2.22,2.22,0,0,1-.54-.7h0c-.26-.67-.73-.83-1-1.45l.07,0c0-.24-.37-.57-.52-1,0,.11,0,.25-.12,0-.18-.45-.42-.69-.51-1l-.28-.23c-.87-1.43-4.3-7.1-5.18-8.54l0,0c-1.34-2.19-4-6.78-5.5-9A7.14,7.14,0,0,0,84.64,75c.08.23,0,.2-.13,0-.67-1.14-.12,0-.85-1.15-.44-.62-1.43-2.24-2.42-3.8s-1.9-3.05-2.22-3.64c-.54-.51-.91-1.34-1.38-1.87l.07,0c-.48-.6-2.53-4.32-3-5.05l0,.12c-.47-.61-.25-.61-.48-1.16-.14.16-.55-.35-.68-.56h0c-.2-.31-.75-1-1-1.51l.11,0a10.11,10.11,0,0,1-.88-1.61,25.2,25.2,0,0,0-1.21-3l0-.78L70.57,51a12.32,12.32,0,0,0-2,.34c-1,.27-2.09.75-2.17,1.64h-.12l.13.29c.09.37.27.49.16.5l-.18-.48c.11.36,0,.14-.15,0a2.72,2.72,0,0,1,.11.43c.06.05,0-.07,0-.13a2,2,0,0,1,.37.64c.14.36-.16.09,0,.52a47.45,47.45,0,0,0,3,6.44c0,.07,0,0-.1,0,.39.61.69,1.18,1.06,1.72a.58.58,0,0,1,0,.33,11.06,11.06,0,0,1,1,1.48l.67,1.08C72.47,66.08,72.6,66.28,72.6,66.3Z"/><path class="cls-1" d="M79.13,54.15a2,2,0,0,0-.68.52A1.7,1.7,0,0,0,79.13,54.15Z"/><polygon class="cls-1" points="78.45 54.67 78.44 54.67 78.45 54.67 78.45 54.67"/><path class="cls-1" d="M42.22,103.77l.17-.19A1.54,1.54,0,0,0,42.22,103.77Z"/><path class="cls-1" d="M68.06,65.79l.12.16c-.49.57-.32,0-.73.57,0,.39-.77.84-.82,1.12,0,0-.24.23-.29.16,0,.17-.2.28-.31.47s.07,0,.15,0l-.28.4c-.16.12-.26.09-.14-.07-.87.92-5,5.44-5.79,6.53.2-.06.42-.43.66-.43-.16.34-.37.38-.39.57-.3-.07-.57.56-1,.58l0,.18-.18.08A5.58,5.58,0,0,1,58,77.45c-.51.63-.6,1.06-1,1.35,0,0,.24-.12.13.06-.13-.06-.29.49-.46.48-.12.17-.57.66-.29.61-.14,0-.56.45-.39.13a2.51,2.51,0,0,0-.35.42l.21-.17c-.42.54-.77.72-.94,1.17l.22-.15c-.25.32-.46.59-.71.59l.23-.36a10.55,10.55,0,0,0-1,1.32l.14-.15c-.33.66-2.68,3.58-2.94,4.22l.3-.14-.28.51s-.17-.51-.09-.52c-.79.93-4.9,5.7-5.73,6.46-.36.28-.22-.09-.24-.11-.33.45-.05.28-.37.62-.1.08-.06-.1,0-.16-.12.16-.29.27-.25.32.21-.15.27,0,.43,0l-.42.44-.06-.09c-.1.09,0,.45-.45.84-.71.71-1.41,1.53-2.11,2.25,0-.05.08-.24.19-.42a1.47,1.47,0,0,1-.34.32c.25-.1-.23.36-.06.26-.3.72-1.13,1.24-1.44,1.84.14.21,2.11,3.88,2.32,4.08a2.07,2.07,0,0,1-.35.32c.09,0,.38-.26.5-.44l-.09-.14c.3-.39.15,0,.47-.37.11.07-.17.41-.43.7.25-.25.55-.44.55-.64.26-.2.09.14.4-.11a2.56,2.56,0,0,1,.59-.77l0,0c.63-.49.67-1,1.25-1.45l0,.09c.23-.14.49-.57.86-.85-.11.07-.25.09-.08-.12.41-.33.6-.65.93-.86l.16-.36c1.26-1.32,5.93-6.8,7.12-8.2l0,.07c1.81-2.13,5.56-6.45,7.3-8.74a7.86,7.86,0,0,0,1.09-1.07c-.2.17-.21,0-.08-.11.93-1.06,0-.12.89-1.24,1-1.32,5.18-6,6.22-7,.37-.71,1.11-1.36,1.53-2l0,.09c.49-.67,3.68-4.07,4.26-4.82l-.1.08c.47-.7.54-.48,1-.93-.21-.07.18-.68.35-.9l0,0c.25-.33.73-1.14,1.16-1.66l.07.09a13.06,13.06,0,0,1,1.3-1.56A23.35,23.35,0,0,0,81.64,58l.78-.38,0-.11S80.55,54,78.83,54.65l-.06-.09-.21.25c-.31.25-.33.47-.4.38l.38-.39c-.29.27-.15,0-.09-.13a1.91,1.91,0,0,1-.36.3c0,.09.08,0,.14,0a2.37,2.37,0,0,1-.45.63c-.28.29-.15-.1-.48.24-1.74,1.77-3.45,3.48-5.1,5.38-.07,0,0,0,0-.11-.46.6-.93,1.09-1.34,1.64a.63.63,0,0,1-.32.12,12.59,12.59,0,0,1-1.17,1.46l-.89,1Z"/></g></svg>