<svg xmlns="http://www.w3.org/2000/svg" viewBox="0 0 103 110"><defs><style>.cls-1{fill:#e04288;}</style></defs><g id="Layer_1" data-name="Layer 1"><path class="cls-1" d="M30.1,107.75a4.22,4.22,0,0,0,.22-1.21A3.23,3.23,0,0,0,30.1,107.75Z"/><polygon class="cls-1" points="30.32 106.53 30.32 106.52 30.32 106.54 30.32 106.53"/><path class="cls-1" d="M28.15,18.14c0,.11,0,.24,0,.37A2.29,2.29,0,0,0,28.15,18.14Z"/><path class="cls-1" d="M31.54,84.5l-.19-.08c0-1.08.23-.3.21-1.3-.27-.4.08-1.66-.06-2,0,0,0-.48.13-.44-.15-.16,0-.51-.05-.82,0-.11,0,.08-.1.17l0-.71c.05-.27.15-.34.15,0,.11-1.84.48-10.69.45-12.67-.12.25-.06.87-.25,1.1-.09-.53.06-.78,0-1,.27-.19.09-1.15.37-1.54L32,65l.1-.26a11.37,11.37,0,0,1,0-2.57c0-1.19-.2-1.75-.1-2.41,0,.1-.11.36-.14.05.14-.05-.07-.82.07-1,0-.3,0-1.27-.16-.94.09-.17.15-1,.22-.51a4.24,4.24,0,0,0,0-.79L32,57a10.46,10.46,0,0,0,0-2.17l-.09.37a2.52,2.52,0,0,1,.2-1.32l0,.61a20.38,20.38,0,0,0,0-2.39v.29c-.16-1-.14-6.48-.34-7.45l-.16.44-.09-.83c0,.1.45.42.4.5,0-1.77.27-10.94.46-12.56.11-.66.23-.11.25-.1,0-.8-.13-.35-.09-1,0-.19.11,0,.13.15,0-.3.06-.58,0-.6-.07.37-.23.2-.35.35l0-.87.11.05A3.23,3.23,0,0,1,32.23,29c.13-1.44.18-3,.28-4.47.07,0,.09.34.11.64a4.6,4.6,0,0,1,.07-.66c-.13.34,0-.62-.1-.35-.22-1.08.13-2.44,0-3.39-.24-.09-4-2.3-4.33-2.33a4.3,4.3,0,0,1,.08-.67,2.34,2.34,0,0,0-.13,1l.15.06c0,.71-.1.16-.13.85-.13,0-.12-.61-.09-1.17-.05.5-.18,1-.05,1.22-.09.47-.15-.07-.25.5a5.54,5.54,0,0,1,0,1.41h0c-.21,1.13.07,1.75-.11,2.78l0-.11c-.09.36,0,1.08-.15,1.74,0-.19.14-.34.13.05-.12.76-.07,1.28-.2,1.83l.1.54c-.18,2.65-.43,13.1-.48,15.75l0-.11c-.07,4-.32,12.35-.24,16.52a19.74,19.74,0,0,0-.19,2.21c.06-.38.15-.25.14.05-.07,2.05.08.14.08,2.21.06,2.39-.3,11.52-.46,13.64.15,1.14,0,2.56.05,3.67l0-.11c0,1.2-.34,8-.33,9.35l0-.18a7.06,7.06,0,0,1-.23,2c.21-.11.29.93.29,1.32h-.05c0,.6.14,2,.13,2.94l-.11,0c.08.82,0,2.37-.05,3a50.6,50.6,0,0,0-.35,5.23L25.35,107l0,.17s3.71,2.09,4.64-.26l.11,0v-.48c.09-.56,0-.83.08-.79l0,.78c.06-.57.1-.17.15,0a5.1,5.1,0,0,1,.09-.65c0-.12-.05.08-.08.16a4.5,4.5,0,0,1,0-1.11c0-.59.18,0,.22-.71.27-3.6.55-7.09.65-10.73,0-.08,0,0,.06.12,0-1.09.05-2.07,0-3.07a1,1,0,0,1,.18-.43,24.06,24.06,0,0,1,0-2.71c0-.7,0-1.41.06-2S31.54,84.52,31.54,84.5Z"/><path class="cls-1" d="M58.4,106.26a5.2,5.2,0,0,0,.21-1.42A4.78,4.78,0,0,0,58.4,106.26Z"/><polygon class="cls-1" points="58.61 104.83 58.61 104.83 58.61 104.84 58.61 104.83"/><path class="cls-1" d="M55.18.56c0,.16-.09.33-.14.51A3.23,3.23,0,0,0,55.18.56Z"/><path class="cls-1" d="M59.79,79l-.2-.08c0-1.27.24-.37.22-1.54-.27-.46.08-1.94-.06-2.35,0,0,0-.56.14-.53-.15-.18,0-.59-.06-.95,0-.13,0,.1-.09.19l0-.83c.06-.32.15-.4.16,0,.11-2.17.48-12.55.45-14.89-.12.3-.06,1-.25,1.29-.09-.62.06-.9,0-1.18.27-.23.09-1.35.37-1.81l-.15-.18.1-.31a15.77,15.77,0,0,1,0-3c0-1.39-.2-2-.11-2.83,0,.12-.1.42-.14.06.14-.06-.08-1,.06-1.13,0-.35,0-1.5-.16-1.11.09-.2.15-1.21.22-.61a7.2,7.2,0,0,0,0-.92l-.06.44a14.13,14.13,0,0,0,0-2.55l-.08.43A3.46,3.46,0,0,1,60.27,43l0,.71a27.56,27.56,0,0,0-.07-2.8v.34c-.16-1.23-.21-7.63-.42-8.76l-.15.52-.1-1c0,.11.45.47.4.57,0-1,0-4.26.06-7.46,0-1.56,0-3.26,0-4.62s-.1-2.39-.12-2.89c0-.79.21-.16.23-.15-.12-.95-.18-.4-.23-1.21,0-.22.12,0,.15.16,0-.35,0-.69-.09-.71,0,.45-.21.28-.31.47l-.07-1,.12,0a4.29,4.29,0,0,1-.37-1.57c-.09-1.69-.25-3.5-.26-5.15.07,0,.11.37.17.72a3.3,3.3,0,0,1,0-.77c-.11.4-.08-.68-.13-.37a18.75,18.75,0,0,1,0-3.74,21.19,21.19,0,0,1-2-1.52C56.15,2,55.3,1.1,55.17,1.05a8.57,8.57,0,0,1,.3-.89A4.44,4.44,0,0,0,55,1.43l.13.11c-.14,1-.14.2-.31,1.12-.12,0,0-.82.18-1.59a4.43,4.43,0,0,0-.32,1.63c-.17.63-.16-.09-.32.66,0,.55,0,1.26-.1,1.85h0c-.23,1.47.11,2.22,0,3.51l0-.13c-.07.45.06,1.34,0,2.14,0-.23.1-.43.14,0,0,.93.09,1.54,0,2.21l.17.62c.09,1.57.55,5.39.61,9,0,3.82,0,7.64,0,9.18l0-.12c0,4.74-.18,14.47-.1,19.36-.13.76-.12,1.8-.17,2.59.06-.43.14-.28.13.06-.06,2.41.08.16.09,2.6.06,2.8-.3,13.53-.47,16,.15,1.34,0,3,0,4.32l0-.14c0,1.41-.34,9.36-.34,11l0-.22a9.78,9.78,0,0,1-.22,2.34c.2-.14.28,1.09.28,1.55l0,0c0,.71.13,2.3.12,3.46l-.11,0c.09,1,0,2.79,0,3.48a60.83,60.83,0,0,0-.32,6.16l-.37,1.36,0,.2s3.73,2.37,4.65-.41l.11,0v-.56c.08-.66,0-1,.07-.93l0,.92c.06-.67.1-.2.15,0,0-.27,0-.55.09-.77s-.05.1-.08.2a6.13,6.13,0,0,1,0-1.3c0-.69.18,0,.22-.84.24-4.22.51-8.31.62-12.58,0-.09,0,0,.06.15,0-1.3,0-2.42,0-3.61a1.26,1.26,0,0,1,.18-.5c0,.09,0-1.53,0-3.18,0-.83.05-1.66.06-2.3S59.79,79,59.79,79Z"/><path class="cls-1" d="M78.42,105.91a.91.91,0,0,0,.16-.54A.76.76,0,0,0,78.42,105.91Z"/><polygon class="cls-1" points="78.58 105.36 78.58 105.36 78.58 105.37 78.58 105.36"/><path class="cls-1" d="M75,65.54a1,1,0,0,1,0,.17A.49.49,0,0,0,75,65.54Z"/><path class="cls-1" d="M79.21,95.52l-.2,0c0-.48.23-.13.2-.58-.28-.18.05-.74-.09-.9,0,0,0-.21.13-.2-.16-.07,0-.22-.07-.36s0,0-.09.07l0-.32c0-.12.14-.15.15,0,.09-.83.38-4.78.35-5.67-.12.11-.06.39-.24.48-.1-.24,0-.34-.06-.45.28-.08.09-.51.37-.68l-.15-.07.1-.12c-.12-1-.07-.23,0-1.15,0-.53-.2-.79-.11-1.08,0,0-.11.15-.14,0,.14,0-.08-.37.06-.43,0-.14,0-.57-.17-.44.1-.07.15-.45.22-.22a.7.7,0,0,0,0-.35l-.06.17c0-.45.15-.68,0-1l-.08.16c0-.26,0-.49.18-.58l.05.27A4.07,4.07,0,0,0,79.47,81v.13c-.16-.48-.19-2.92-.39-3.36l-.15.19-.1-.38c0,.05.45.2.4.24,0-.79.14-4.91.29-5.64.1-.29.23,0,.25,0,0-.36-.14-.17-.11-.47,0-.08.11,0,.13.07,0-.13,0-.25,0-.27-.06.17-.23.09-.35.15l0-.39.11,0c0-.09-.29-.24-.21-.62.09-.65.1-1.35.17-2,.06,0,.09.16.12.3a.62.62,0,0,1,.06-.3c-.13.15-.06-.28-.12-.16-.24-.5,0-1.1-.1-1.53-.24-.05-4.12-1.21-4.4-1.23a.86.86,0,0,1,0-.3c-.07,0-.12.29-.09.43l.15,0c0,.32-.1.07-.11.38-.12,0-.13-.28-.13-.53,0,.22-.13.44,0,.55-.07.2-.16,0-.23.21a1.16,1.16,0,0,1,0,.64h0c-.17.5.14.79,0,1.25l0-.06c-.08.16,0,.49-.1.79,0-.09.12-.15.13,0s0,.57-.16.81l.11.25c-.1,1.19-.2,5.89-.23,7.09l0,0c0,1.82-.23,5.55-.14,7.43a4.19,4.19,0,0,0-.17,1c.06-.16.15-.1.13,0,0,.92.09.07.1,1A58.07,58.07,0,0,1,74,92.81a15.72,15.72,0,0,1,.1,1.66l0,0c0,.54-.22,3.59-.17,4.22l0-.08c.09.55-.1.47-.17.89.2,0,.3.43.31.61h0c0,.27.18.88.2,1.33l-.11,0a5.6,5.6,0,0,1,0,1.34,9.16,9.16,0,0,0-.15,2.36l-.33.52,0,.08s3.8.93,4.64-.12l.11,0v-.22c.06-.25-.07-.37,0-.35l0,.35c0-.26.09-.08.15,0a1.23,1.23,0,0,1,.07-.29s-.05,0-.07.07a.84.84,0,0,1-.08-.5c0-.26.18,0,.19-.31.13-1.61.3-3.17.32-4.8,0,0,0,0,.07.06,0-.49,0-.93,0-1.37a.32.32,0,0,1,.17-.19,4.81,4.81,0,0,1,0-1.22c0-.31,0-.63,0-.87A2.26,2.26,0,0,1,79.21,95.52Z"/><path class="cls-1" d="M21.37,76.4a3.13,3.13,0,0,0,1.09.13A2.82,2.82,0,0,0,21.37,76.4Z"/><path class="cls-1" d="M22.47,76.53Z"/><path class="cls-1" d="M101.91,72.25h-.33A1.82,1.82,0,0,0,101.91,72.25Z"/><path class="cls-1" d="M42.21,76.69l.06-.2c1,0,.28.23,1.18.18.35-.28,1.48,0,1.79-.11,0,0,.44,0,.41.12.13-.15.45,0,.73-.07.1,0-.08,0-.15-.09l.63,0c.25,0,.31.14,0,.15,1.66.06,9.61.29,11.39.24-.23-.12-.78,0-1-.23.47-.1.69,0,.9-.06.18.27,1,.08,1.39.36l.14-.16.23.1a9.39,9.39,0,0,1,2.31,0c1.07,0,1.58-.21,2.17-.12-.09,0-.32-.1,0-.13,0,.13.74-.09.87,0s1.15,0,.86-.17c.14.09.92.14.46.22a3.26,3.26,0,0,0,.7,0L67,76.65a8.27,8.27,0,0,0,2,0l-.33-.08c.54,0,1,0,1.19.18l-.55.05a14.66,14.66,0,0,0,2.15-.08h-.26c.94-.16,5.84-.2,6.71-.41l-.39-.15.74-.1c-.08,0-.37.45-.44.4,1.59,0,9.87.14,11.33.29.59.1.1.22.09.25.73,0,.32-.14.93-.11.17,0,0,.11-.13.13.27,0,.51,0,.54,0-.34-.06-.19-.23-.33-.35l.79,0,0,.11a2.67,2.67,0,0,1,1.23-.2c1.3.09,2.72.11,4,.19,0,.06-.3.09-.57.12a2.4,2.4,0,0,1,.6.06c-.31-.13.55-.06.31-.12,1-.24,2.2.06,3.06-.08.08-.24,2-4.1,2-4.39a3.77,3.77,0,0,1,.61.07,1.93,1.93,0,0,0-.86-.11l-.06.16c-.64,0-.14-.1-.77-.12,0-.13.55-.13,1.06-.12-.46,0-.91-.15-1.1,0-.42-.07.06-.15-.46-.23a4.84,4.84,0,0,1-1.27,0v0c-1-.18-1.57.13-2.5,0l.1,0c-.33-.09-1,0-1.57-.11.17,0,.31.13-.05.13-.68-.11-1.15,0-1.65-.16l-.48.11c-2.38-.13-11.79-.21-14.18-.25l.1,0c-3.65,0-11.12-.19-14.89-.07a14.44,14.44,0,0,0-2-.16c.34,0,.22.14,0,.13a19.45,19.45,0,0,0-2,.11c-2.16.08-10.4-.14-12.32-.25-1,.18-2.31,0-3.32.14l.11,0c-1.09.06-7.21-.11-8.47,0l.17,0A5.54,5.54,0,0,1,34,71.33c.11.2-.83.32-1.19.34l0,0c-.54,0-1.77.22-2.66.26l0-.11c-.74.12-2.14.09-2.68.12a34.22,34.22,0,0,0-4.76,0l-1.07-.28-.15,0s-1.57,3.86.6,4.62l0,.11.43,0c.51,0,.74-.09.71,0h-.7c.51,0,.16.09,0,.16a3.49,3.49,0,0,1,.59,0c.1,0-.07,0-.15-.07a3.41,3.41,0,0,1,1-.11c.52,0,0,.17.64.17,3.22,0,6.35.11,9.61.07.07,0,0,0-.11.06,1,0,1.86,0,2.75-.09a.78.78,0,0,1,.39.17,18.28,18.28,0,0,1,2.43-.09h2.6Z"/><path class="cls-1" d="M21.41,57.34a2.33,2.33,0,0,0,.93.11A2.09,2.09,0,0,0,21.41,57.34Z"/><polygon class="cls-1" points="22.35 57.46 22.35 57.45 22.34 57.45 22.35 57.46"/><path class="cls-1" d="M90.2,53.38l-.29,0A1.37,1.37,0,0,0,90.2,53.38Z"/><path class="cls-1" d="M39.18,57.31l0-.2c.83,0,.25.23,1,.17.29-.29,1.26,0,1.53-.14,0,0,.36,0,.34.12.11-.15.38,0,.62-.08.08,0-.06,0-.13-.09l.54-.06c.21,0,.27.14,0,.16,1.41,0,8.17.2,9.69.16-.2-.11-.67,0-.84-.23.4-.09.59.05.77-.06.15.27.88.08,1.18.36l.12-.15.19.09a6.84,6.84,0,0,1,2,0,16.84,16.84,0,0,1,1.84-.11c-.07,0-.27-.1,0-.14,0,.14.62-.08.74.06s1,0,.72-.17c.13.09.79.15.39.22a2.45,2.45,0,0,0,.6,0l-.28-.06a6.07,6.07,0,0,0,1.66,0l-.28-.08c.46,0,.84,0,1,.19l-.47,0A10.75,10.75,0,0,0,64,57.25h-.22c.8-.16,5-.15,5.72-.33l-.33-.16.64-.09c-.08,0-.33.44-.39.39,1.35,0,8.4.3,9.64.5.5.11.08.23.07.25.61,0,.27-.13.79-.08.14,0,0,.1-.12.12.23,0,.44.06.46,0-.28-.07-.15-.24-.26-.36l.67.05,0,.11c.15,0,.4-.28,1.06-.17,1.1.13,2.31.18,3.43.28,0,.07-.26.09-.5.11a2.09,2.09,0,0,1,.51.07c-.26-.13.48,0,.27-.11.84-.21,1.88.13,2.62,0,.08-.24,1.89-4,1.92-4.33a2.65,2.65,0,0,1,.51.07,1.5,1.5,0,0,0-.73-.12l0,.15c-.55,0-.12-.1-.66-.13,0-.13.48-.12.91-.1-.39,0-.77-.17-.93,0-.36-.08,0-.15-.39-.24a3.55,3.55,0,0,1-1.08,0v0c-.86-.2-1.34.08-2.13-.11l.09,0c-.28-.1-.84,0-1.34-.15.14,0,.26.13,0,.13-.58-.12-1-.07-1.4-.2l-.42.09c-2-.18-10.08-.47-12.13-.52l.08,0c-3.12-.09-9.52-.33-12.75-.21a10.77,10.77,0,0,0-1.71-.16c.29.06.19.14,0,.13-1.59,0-.11.08-1.72.11-1.84.07-8.9-.09-10.54-.17-.88.17-2,0-2.84.18l.08-.05c-.92.07-6.16,0-7.24.09l.15,0c-.94.14-.82-.06-1.56-.11.11.2-.7.34-1,.36v0c-.46.05-1.5.25-2.27.3l0-.11a16.25,16.25,0,0,1-2.29.16,25.75,25.75,0,0,0-4.06.08l-.91-.28-.13,0s-1.27,3.87.6,4.61l0,.11.36,0c.43,0,.63-.1.6,0h-.59c.44,0,.14.09,0,.16a2.74,2.74,0,0,1,.51,0c.08-.05-.07,0-.14-.06a2.57,2.57,0,0,1,.85-.13c.44,0,0,.18.55.17,2.76,0,5.42,0,8.2-.09.07,0,0,0-.09.06l2.34-.14a.88.88,0,0,1,.34.16A15.27,15.27,0,0,1,37,57.34l1.5,0Z"/><path class="cls-1" d="M13.65,106.86c.13-.07.15-.21.19-.33A.37.37,0,0,0,13.65,106.86Z"/><polygon class="cls-1" points="13.84 106.52 13.84 106.52 13.84 106.53 13.84 106.52"/><path class="cls-1" d="M9.31,81.48v.11A.41.41,0,0,0,9.31,81.48Z"/><path class="cls-1" d="M14.71,100.27l-.2,0c0-.3.24-.07.2-.36-.27-.13.06-.47-.08-.58,0,0,0-.13.13-.12-.15,0,0-.15-.06-.24s0,0-.1,0l0-.21c0-.07.15-.09.16,0a28.82,28.82,0,0,0,.3-3.63c-.12.07,0,.25-.23.31-.1-.15.05-.22-.06-.29.27,0,.08-.33.36-.43l-.15,0,.09-.07c-.13-.67-.07-.15,0-.74,0-.34-.22-.51-.14-.69,0,0-.1.1-.13,0,.13,0-.09-.24,0-.28s0-.36-.17-.27c.09,0,.14-.3.21-.15,0-.08,0-.16,0-.22l-.05.1c0-.28.12-.43,0-.62l-.08.1c0-.17,0-.31.17-.37l.05.18a1.67,1.67,0,0,0-.1-.69v.08c-.18-.3-.31-1.86-.54-2.14L14.1,89,14,88.8s.46.12.42.14c0-.5-.12-3.13,0-3.6.07-.19.22,0,.24,0,0-.23-.15-.1-.14-.29s.11,0,.13,0,0-.16,0-.17-.23.07-.34.11v-.25h.11s-.3-.13-.25-.38c0-.42,0-.87,0-1.28.07,0,.11.09.15.18a.34.34,0,0,1,0-.2c-.11.11-.08-.17-.13-.09-.27-.3,0-.7-.23-1-.24,0-4.2-.45-4.49-.44,0-.08,0-.16,0-.19s-.1.19-.06.27h.16c.06.2-.09,0-.08.24-.12,0-.15-.16-.17-.31,0,.14-.1.28,0,.33,0,.13-.16,0-.21.15s.17.26.1.39h0c-.12.31.21.47.08.76l0,0c-.07.11,0,.31,0,.49,0-.05.12-.1.14,0s0,.35-.09.51l.12.15c0,.73.19,3.63.19,4.37l0,0c.06,1.13,0,3.44.14,4.61a1.44,1.44,0,0,0-.15.61c0-.11.14-.07.13,0,0,.58.09,0,.12.63a20.59,20.59,0,0,1-.31,3.8c.17.32,0,.71.1,1l-.05,0c.06.34-.25,2.21-.21,2.6l0,0c.08.35-.11.29-.2.55.21,0,.3.28.31.39H9.42a5.87,5.87,0,0,1,.17.84l-.11,0a2.33,2.33,0,0,1,0,.83,3.62,3.62,0,0,0-.23,1.45l-.35.3,0,.05s3.74.92,4.62.32l.1,0v-.13c.07-.16-.05-.25.06-.23l0,.22c0-.16.09,0,.15,0a1,1,0,0,1,.07-.18s0,0-.07,0-.12-.22-.06-.32.18,0,.21-.19a25.93,25.93,0,0,0,.46-3c.05,0,0,0,.06,0,0-.32,0-.59,0-.88a.3.3,0,0,1,.17-.12A7.89,7.89,0,0,1,14.71,100.27Z"/><path class="cls-1" d="M2.24,93.87a.18.18,0,0,0-.18.13C2.18,94,2.24,93.94,2.24,93.87Z"/><polygon class="cls-1" points="2.05 94 2.06 94 2.06 94 2.05 94"/><path class="cls-1" d="M6.68,105.66v0A.07.07,0,0,0,6.68,105.66Z"/><path class="cls-1" d="M1.25,96.92l.2,0c0,.14-.23,0-.2.15.27.09-.06.23.09.29,0,0,0,.06-.13,0,.15,0,0,.07.06.12s.05,0,.1,0l0,.11s-.14,0-.16,0A7,7,0,0,0,1,99.36c.12,0,.05-.11.23-.13s0,.1.06.14c-.27,0-.07.16-.35.19l.15,0-.1,0c.14.33.07.08,0,.36s.22.25.14.33.1,0,.13,0c-.13,0,.09.12,0,.13s0,.18.17.14c-.09,0-.13.14-.21.06s0,.08,0,.11l.06,0c0,.14-.13.2,0,.3l.07,0c0,.08,0,.15-.16.18L1.12,101a.45.45,0,0,0,.1.33v0c.18.15.31.89.54,1l.14-.06.12.11s-.46-.06-.42-.07a9.69,9.69,0,0,1,0,1.7c-.07.09-.22,0-.24,0s.15,0,.14.14-.11,0-.13,0,0,.08,0,.08.23,0,.34-.05v.11H1.66s.3.06.24.18,0,.41,0,.6a.2.2,0,0,1-.15-.08s0,.07,0,.1c.12-.06.08.07.13,0,.28.13,0,.32.23.44s4.2.05,4.48,0c0,0,0,.07,0,.08s.1-.09.06-.12H6.42c0-.08.1,0,.08-.11a.14.14,0,0,1,.17.13c0-.06.11-.12,0-.14.05-.06.15,0,.2-.07s-.17-.11-.09-.17h0c.12-.14-.2-.2-.08-.33h0c.08,0,0-.13,0-.21s-.12,0-.13,0,0-.16.09-.23l-.13-.06c0-.32-.18-1.59-.18-1.91h0c-.06-.49,0-1.51-.15-2,.12-.07.1-.18.14-.26s-.14,0-.13,0c0-.25-.09,0-.12-.28a4,4,0,0,1,.27-1.66c-.17-.16,0-.32-.11-.47l0,0c0-.16.23-1,.19-1.14l0,0c-.09-.17.1-.12.18-.23a.31.31,0,0,1-.3-.2h0a2,2,0,0,1-.18-.39l.11,0c-.1-.12,0-.3,0-.38s.31-.37.2-.62l.34-.09,0,0s-3.7-1-4.56-.79l-.1,0V94c-.07.07,0,.12-.06.1l0-.1c0,.07-.09,0-.15,0a.13.13,0,0,1-.07.08s0,0,.07,0,.13.13.07.17-.18,0-.21.06a6,6,0,0,0-.42,1.41c-.05,0,0,0-.06,0a3.1,3.1,0,0,0,0,.43.38.38,0,0,1-.17,0C1.37,96.14,1.27,96.91,1.25,96.92Z"/><path class="cls-1" d="M30.72,74.56a.41.41,0,0,0,.34-.06A.3.3,0,0,0,30.72,74.56Z"/><polygon class="cls-1" points="31.07 74.5 31.07 74.5 31.07 74.5 31.07 74.5"/><path class="cls-1" d="M51.51,53.89l-.07.1A.36.36,0,0,0,51.51,53.89Z"/><path class="cls-1" d="M37.59,72l-.06-.2c.35-.15.2.17.5,0,0-.31.55-.22.6-.41,0,0,.17,0,.2,0,0-.16.15-.11.23-.19s-.05,0-.09-.06l.2-.16c.11,0,.17.07.08.14a27.34,27.34,0,0,0,4-2.1c-.14,0-.29.13-.46,0,.11-.19.26-.12.28-.25.2.2.38-.16.65,0l0-.16.13,0c.61-.58.12-.17.75-.54.34-.25.39-.55.63-.62,0,0-.16,0-.1-.1.1.1.19-.24.31-.16.08-.08.37-.26.17-.34.1,0,.38-.11.27.06.09-.06.19-.09.22-.17l-.13,0c.26-.24.5-.24.59-.51l-.15,0c.16-.13.3-.25.47-.15l-.14.17a2.21,2.21,0,0,0,.61-.61l-.08.06c.19-.36,1.59-1.71,1.68-2.11h-.21l.14-.27s.2.43.15.42c.48-.4,2.76-2.72,3.2-3.1.22-.12.19.12.2.14.16-.24,0-.19.16-.36s.07.09.06.13.16-.13.12-.18-.22-.1-.34-.14l.22-.22.07.09c.05,0-.11-.34.14-.52.38-.35.72-.79,1.07-1.17,0,.05,0,.16,0,.26s.1-.14.18-.16c-.17,0,.08-.21,0-.17,0-.46.54-.68.59-1.06-.16-.19-2.87-3.12-3.11-3.28.06-.07.12-.14.16-.15s-.21.1-.24.2l.12.11c-.1.21-.11,0-.24.16-.1-.07,0-.24.1-.39-.11.12-.28.18-.21.32-.14.09-.11-.11-.27,0s-.05.33-.2.4l0,0c-.32.2-.2.55-.51.71v0c-.13,0-.2.28-.39.39.06,0,.16,0,.09.09s-.27.3-.46.37v.21l-1.67,1.84C47.08,59,46.34,59.74,46,60l0,0c-.92.9-3,2.52-4,3.39-.24,0-.45.2-.66.28.13,0,.15.07.06.12-.55.34,0,.09-.52.5a17.86,17.86,0,0,1-3.86,2c-.24.33-.72.39-1,.65l0,0c-.32.24-2.37.92-2.81,1.15h.07c-.34.25-.36.05-.69.11.11.17-.18.41-.3.48v0c-.18.11-.56.45-.88.62l0-.11a4.31,4.31,0,0,1-.95.52,4.93,4.93,0,0,0-1.81.9h-.56l0,.06a13.82,13.82,0,0,0,1,1.78,5.27,5.27,0,0,0,1.8,1.94l.05.1.1-.08c.16,0,.15-.19.2-.09l-.19.1c.15,0,.09.06.08.14a.41.41,0,0,1,.18,0s-.05,0-.08,0,.09-.23.21-.24.1.15.26.07c.9-.42,1.91-.7,3-1.17,0,0,0,0,0,.08.32-.18.63-.28.93-.45a.34.34,0,0,1,.2.09,4.42,4.42,0,0,1,.86-.44l.64-.28A1.31,1.31,0,0,1,37.59,72Z"/><path class="cls-1" d="M31.59,55.41a.55.55,0,0,0,.37-.18A.45.45,0,0,0,31.59,55.41Z"/><polygon class="cls-1" points="31.96 55.23 31.96 55.22 31.96 55.23 31.96 55.23"/><path class="cls-1" d="M55.47,34.25l-.11.08Z"/><path class="cls-1" d="M37.79,51.12l-.08-.19c.31-.19.21.14.47-.07,0-.31.51-.26.54-.45,0,0,.16-.06.19,0,0-.16.14-.12.21-.21s0,0-.09,0l.19-.17c.11,0,.17.07.09.13.56-.26,3.43-1.61,4.06-2-.14-.05-.3.12-.46,0,.12-.18.26-.1.29-.24.19.21.4-.14.66,0l0-.16.13,0c.66-.54.13-.16.8-.49.38-.22.45-.51.7-.56,0,0-.16,0-.08-.11.08.11.22-.23.33-.13.09-.07.41-.23.21-.33.1.05.4-.07.27.09a.66.66,0,0,0,.25-.15l-.15,0c.31-.2.55-.17.67-.43h-.15c.18-.12.33-.22.5-.1l-.17.16a2.63,2.63,0,0,0,.71-.53l-.1,0c.25-.35,1.9-1.47,2.08-1.85l-.21,0,.2-.26s.11.47.06.45c.56-.33,3.39-2.16,3.94-2.39.25-.06.15.17.16.19.23-.2,0-.2.25-.32s0,.1,0,.14.19-.08.17-.14-.19-.15-.3-.22l.28-.16,0,.11c.06,0,0-.36.29-.47.48-.24.94-.58,1.41-.85,0,.06-.05.16-.12.25a.37.37,0,0,1,.23-.1c-.18,0,.14-.19,0-.18.19-.44.75-.5.94-.84-.11-.22-1.66-3.92-1.82-4.16a.76.76,0,0,1,.22-.1c-.06,0-.25,0-.32.13l.07.14c-.18.19-.1,0-.3.1-.08-.1.1-.25.26-.36-.16.08-.36.1-.35.26-.17,0-.07-.14-.27-.08s-.19.32-.37.34v0c-.41.11-.42.5-.8.59v-.06c-.15,0-.31.23-.55.29.07,0,.17,0,0,.12-.27.07-.38.24-.6.26l-.1.21-4.71,3,0,0c-1.21.79-3.79,2.24-5,3.11a2.48,2.48,0,0,0-.75.26c.14,0,.14.08.05.13-.65.33,0,.1-.63.49a40.22,40.22,0,0,1-4.44,2.25c-.28.36-.81.5-1.12.81v0c-.35.26-2.64,1.48-3.05,1.88l.08,0c-.33.36-.39.15-.73.33.16.13-.1.47-.21.57l0,0c-.17.17-.48.64-.76.9L31,49.78a5.79,5.79,0,0,1-.83.82A5.44,5.44,0,0,0,28.65,52l-.56.15,0,.07a15.19,15.19,0,0,0,1.36,1.49,4.57,4.57,0,0,0,2.25,1.42l.07.08.09-.12c.16-.1.12-.25.19-.16l-.17.17c.14-.11.1,0,.1.11a.87.87,0,0,1,.18-.11s0,0-.08,0,0-.26.17-.31.13.11.29,0c.85-.74,1.78-1.35,2.72-2.07,0,0,0,0,0,.08.26-.25.54-.42.78-.65a.37.37,0,0,1,.21.06A7.66,7.66,0,0,1,37.79,51.12Z"/><path class="cls-1" d="M30.47,107.05c.15,0,.24-.16.35-.27A.46.46,0,0,0,30.47,107.05Z"/><polygon class="cls-1" points="30.82 106.78 30.82 106.77 30.82 106.78 30.82 106.78"/><path class="cls-1" d="M53.88,74.33l-.14.12A.81.81,0,0,0,53.88,74.33Z"/><path class="cls-1" d="M37.7,100.46l-.12-.17c.35-.36.27.06.56-.32-.08-.32.56-.53.56-.76,0,0,.18-.14.23-.07-.07-.16.13-.2.2-.33s-.06,0-.12,0l.18-.28c.12-.06.21,0,.13.09a47.25,47.25,0,0,0,3.87-4.36c-.16,0-.27.28-.48.25.07-.25.24-.25.23-.4.26.1.37-.37.7-.34l-.08-.15.15,0c.53-.92.09-.24.69-.94.31-.43.3-.76.55-.94,0,0-.18.07-.12-.07.12.07.15-.34.3-.31s.35-.45.11-.45c.12,0,.39-.28.31-.05a1,1,0,0,0,.21-.28l-.14.1c.25-.36.51-.46.56-.79l-.16.09c.15-.22.28-.4.48-.37l-.12.25a3.7,3.7,0,0,0,.57-.89l-.08.09c.14-.48,1.54-2.42,1.64-2.89l-.23.06.14-.35s.24.43.18.43c.25-.29,1-1.24,1.78-2.11a20,20,0,0,1,1.87-1.93c.26-.14.2.13.21.15.2-.28,0-.22.21-.41.08,0,.07.09,0,.13s.2-.14.16-.19-.22-.1-.35-.14l.28-.24.07.09c.06-.06-.06-.37.25-.57.48-.4,1-.87,1.46-1.24,0,.06,0,.17-.11.28a.55.55,0,0,1,.24-.15c-.19,0,.15-.23,0-.19.17-.52.79-.68,1-1.06-.15-.2-1.78-3.9-1.93-4.15a1.07,1.07,0,0,1,.29-.17c-.07,0-.32.11-.41.23l.07.14c-.24.24-.12,0-.38.18-.09-.09.14-.3.35-.47-.2.13-.45.2-.45.37-.21.1-.07-.14-.33,0s-.26.4-.49.47v0c-.52.23-.52.68-1,.9v-.07c-.18.06-.38.36-.68.5.09,0,.21,0,.08.12-.34.17-.46.4-.72.51l-.1.26a32.56,32.56,0,0,0-2.59,2.66c-1,1.15-2,2.32-2.35,2.79v-.05c-1.17,1.46-3.51,4.39-4.52,6a3.62,3.62,0,0,0-.71.7c.14-.1.18,0,.09.1-.58.7,0,.1-.5.85A34.56,34.56,0,0,1,35.55,95c-.19.49-.7.86-.95,1.27v-.06c-.3.44-2.47,2.33-2.89,2.76l.07,0c-.32.44-.4.24-.75.48.17.11-.1.51-.23.64l0,0c-.19.21-.54.75-.86,1.09l-.06-.09a10.37,10.37,0,0,1-1,1.06,6.82,6.82,0,0,0-1.78,2c-.2.11-.41.22-.61.35l0,.1a11,11,0,0,0,1.57,1.3,4.16,4.16,0,0,0,2.48,1l.08.07.08-.14c.15-.14.11-.29.19-.21l-.17.22c.14-.15.11,0,.12.09a.63.63,0,0,1,.18-.15c0-.06-.06,0-.09,0s0-.29.15-.37.15.1.31-.09c.87-1,2-1.79,3.21-2.88.06,0,0,0,0,.09.34-.36.69-.65,1-1a.44.44,0,0,1,.27,0,5.43,5.43,0,0,1,.87-.94c.24-.24.48-.48.67-.65A2.48,2.48,0,0,1,37.7,100.46Z"/></g></svg>