<svg id="Layer_1" data-name="Layer 1" xmlns="http://www.w3.org/2000/svg" viewBox="0 0 87 79"><defs><style>.cls-1{fill:#fff;}</style></defs><path class="cls-1" d="M40.35,34.89l-.73-.23a34.4,34.4,0,0,1,3.86,1c.32.11.84.29,1.33.49s1,.41,1.43.65a13,13,0,0,1,2.55,1.7,12.53,12.53,0,0,0-2.62-2.31,16,16,0,0,0-1.62-.94l-.42-.21-.31-.18-.62-.31c-.83-.41-1.49-.71-2.18-1a17,17,0,0,0-2.11-.72,9.7,9.7,0,0,0-8.12.86c-.07-2.19-5.35-4-5.54-3.5-1.19.22-2.37.38-3.55.5q1.22-.07,2.43-.21-1.21.14-2.43.21c-1.25.12-2.5.19-3.77.22H15.71l-.15,0-.3,0A6.33,6.33,0,0,1,14,30.94a.85.85,0,0,1-.79-.75A2.4,2.4,0,0,1,13.71,29a9.92,9.92,0,0,1,.65-.89c.55-1.42,1.42-3.95,2.34-6.66.24-.68.48-1.38.72-2.09l.18-.53,0-.13h0l0,0,.1-.11a.51.51,0,0,1,.76,0,.83.83,0,0,1,.08.12l0,0s0,0,.09,0l.49,0,2,.1L19,18.56c2.72-.71,5.18-1.4,7.58-1.89A4.66,4.66,0,0,0,25,15.73l1.24.14c1.08-.94,3.67-1,4.87-1.47-.24.48.72.52,1.57.54l-.35-.29c3.22,0,6.93-.55,9.8-.64a1.4,1.4,0,0,1,.9.28l2.73-.5c-.18.63,2.31.43,1,.88,2-.84,4.14-.5,6.06-1.36,3.08-.2,6.25-.48,9.45-.86l2.39-.29L65.9,12l.6-.09.34-.07a5.25,5.25,0,0,1,3-.05,3.24,3.24,0,0,1,1.34,1.06l.14-.26c.29.34.58.67.88,1a11.54,11.54,0,0,1,1,1.35,10.93,10.93,0,0,1,1.58,3.84c1.47,1.85,2.86,4.7,4.36,5.13,1,2.37,1.89,3.13,3,5.4.41-.81,1.49,2.07,1.58.75.33-1.86-.42-1.71-.17-3.27l-.19.11q-.85-4.9-2-9.73C81,15.6,80.58,14,80.17,12.38l-.08-.3L80,11.57l-.32-1.06a17.08,17.08,0,0,0-.78-2.06A11.74,11.74,0,0,0,76.42,4.9,11.86,11.86,0,0,0,75.13,4,12,12,0,0,0,70,2.4a20.62,20.62,0,0,0-2.84,0L65,2.46c-2.18.09-4.37.15-6.52.34C53.53,3.29,48.19,4,44,4.74c-1,.24-1.77-.26-2.65-.51-3.9.49-8.89.54-13.29,1.12h.22c-2.34.23-4.14-.33-6.42-.1,0,.18-.33.21-.5.32-.12-.23-1.16-.15-2.63.08l-.57.09-.15,0-.24,0-.51.07a19.51,19.51,0,0,0-2.09.37A10.25,10.25,0,0,0,11.22,8,10.41,10.41,0,0,0,7.8,13.45c-.25.86-.41,1.6-.55,2.15a2.05,2.05,0,0,1-.26.74c0,.24-.06.49-.11.74a68.23,68.23,0,0,1-3,6.69l-.39.81-.19.4L3,25.67c-.35.92-.7,1.85-1,2.78a12.47,12.47,0,0,0-1,5.2,7.9,7.9,0,0,0,1.74,2.83,2.75,2.75,0,0,0,.27.24,1.26,1.26,0,0,0,.68,1,5.54,5.54,0,0,1,1.11.75,3.65,3.65,0,0,0,2.29,2.35c.69.17.93-.12.33-.62a18.68,18.68,0,0,0,2.07.32c.71.08,1.36.24,2.09.27l3.79.3,2.26-.17a1.17,1.17,0,0,1,1.25.65c1.64-.05,1.12.32,2.78.7.33.63,4.37-.34,4.82-.07l-.29,0c1.94.41,3,1.77,4.9,2.17,2.58.71,5.29,1.29,8,1.9l.88.21.7.18a4.24,4.24,0,0,1,.5.18,1.24,1.24,0,0,1,.69.73l0,0c.52-.31-.29-.15.38-.67a1.2,1.2,0,0,1,.15.37,2.18,2.18,0,0,1-.28,1.31,34.64,34.64,0,0,0-.28,3.95A5.77,5.77,0,0,1,41.19,54c-.2,1,.31.56.26,1.27l-.56.11c.49,1-.58,1.54-.31,2.51.22,0,.26.4.26.74-.6,0,.07,1.07-.47,1h0a1.47,1.47,0,0,1,0,.61c.22.39,2,4.07,2.23,4.46l-.09.19c0,.56.48.78.58.45v.69L43,66l0,.69a.4.4,0,0,1-.59.09,1.7,1.7,0,0,1,.26,1.2,24.89,24.89,0,0,1,1.37-3.58c.22.45-.07,1.3,0,1.8A12.46,12.46,0,0,0,43.15,69c0,.2.71.33.43.82-.45.24,0,.53-.28.94a2.37,2.37,0,0,1-.16-1.36c-.54.1-.33,1.14-.47,1.51.18.16,0,1.06.19,1.62-.52-.23-.31.46-.58.8-.05.38.16.62.34.46.57.1.29-1.52.9-1-.27.15-.15.88-.11,1.28.31,0,.22-.28.53,0-.06.45.33.91,0,1.17-.09-.08,0-.27,0-.4,0,.58-2.11-3.06-1.91-2.32.27-.2,1.94,3.23,1.94,2.85s.57.23.66-.14l-.38-.39c.1-.5.63-.72.85-.55,0,.83-2.18-2.31-1.85-1.6l.14-.3c.21.3.41,1.1.1,1.42.3,0,.42.4.54.73l0,.12c.17.35.11.84.51.6-.12-2,3.14,1.25,3.25-.74-.65.85-.7-.26-.8-1.13a1.66,1.66,0,0,0,.7-1.12c-.07-.54-.25-.31-.43-.41.14-.31.25-.89.61-.82-.43-.41.25-.69.09-1.19s-.18,0-.4-.27c0-.68.06-1.62.12-2.16.33-.21.9-.86,1.43-.42,0,1-.86-.36-.71.69.74-.48.24.94.82,1.11a2,2,0,0,0,.2-1.6l-.1.12a3,3,0,0,1,.08-2.07c.27.12.47-.12.54.25l0-.7c-.08-.08-.17-.17-.23,0a.83.83,0,0,1,0-.91c.28-.08-1.3-3.65-1.12-3.55,0-.5.4-.63.09-1.11a22.13,22.13,0,0,0,1,4.09c.29-.43-1.59-5.62-1.07-5.95,0-.37-.1-.81-.39-.72.12-.63.56.17.81-.28,0,0-.14,0-.14-.1l.35-.44c-.47-1,.06-2.41-.56-3.41a3.87,3.87,0,0,1,1.18,1.25l-.15.12c.09.09.21.63.49.61A2.46,2.46,0,0,0,50,52.6a3.79,3.79,0,0,1,.22-.36h-.11c.17-.22.2-.2.32-.12l.06,0c.83-.42-.6-2.43-.21-3.58-.12-.34-.14,0-.31-.47A9.54,9.54,0,0,0,50,43.86c-.52-.33-.65-.27-.78.44a5.7,5.7,0,0,0-.25-.8c0-.1-.07-.2-.12-.3.67.22.62-.36.5-1s-.34-1.2.46-1a2.52,2.52,0,0,0-1.28-1.5c-.23.13-.57.31-1.32-.21a15.29,15.29,0,0,0-1.53-1.45c-.09-.39.35-.33.43-.56a2.27,2.27,0,0,1-1.5-.82,3.47,3.47,0,0,0-.51-.5,2,2,0,0,0-.78-.37,12.37,12.37,0,0,0-1.47-.21c-.46,0-.83,0-.91.31C40.07,35.7,40.16,35.31,40.35,34.89Z"/></svg>